<?xml version="1.0" encoding="iso-8859-1"?>
<!-- Generator: Adobe Illustrator 19.0.0, SVG Export Plug-In . SVG Version: 6.00 Build 0)  -->
<svg version="1.1" id="Capa_1" xmlns="http://www.w3.org/2000/svg" xmlns:xlink="http://www.w3.org/1999/xlink" x="0px" y="0px"
	 viewBox="0 0 511.999 511.999" style="enable-background:new 0 0 511.999 511.999;" xml:space="preserve">
<g>
	<g>
		<path d="M409.951,446.133l-34.802-34.1c-3.421-3.351-8.731-3.808-12.672-1.092c-74.579,51.38-175.267,42.115-239.416-22.034
			C66.412,332.26,52.219,245.816,86.516,174.52l8.411,8.412c2.859,2.86,7.16,3.713,10.897,2.168
			c3.736-1.548,6.173-5.194,6.173-9.238v-73.995c0-5.522-4.478-9.999-9.999-9.999H28.003c-4.045,0-7.69,2.437-9.238,6.173
			c-1.548,3.737-0.691,8.037,2.168,10.897l15.443,15.442c-49.423,82.356-48.447,186.778,3.117,268.291
			c2.952,4.668,9.129,6.059,13.796,3.105c4.668-2.952,6.058-9.129,3.105-13.796C7.529,304.734,7.949,205.174,57.462,128.337
			c2.55-3.958,1.994-9.158-1.335-12.487l-3.984-3.984h39.854v39.854l-0.942-0.942c-2.204-2.203-5.311-3.254-8.398-2.84
			c-3.089,0.413-5.809,2.244-7.354,4.95C28.947,234.03,42.77,336.9,108.919,403.05c40.276,40.276,93.561,60.996,147.215,60.992
			c38.274-0.003,76.75-10.555,110.785-32.073l20.488,20.074c-78.812,52.966-182.783,53.505-262.354,0.323
			c-4.59-3.067-10.799-1.834-13.87,2.758c-3.068,4.592-1.834,10.801,2.758,13.87c42.988,28.73,92.531,43.006,142.011,43.006
			c53.949,0,107.822-16.981,152.985-50.713c2.34-1.747,3.799-4.43,3.994-7.344C413.125,451.031,412.036,448.177,409.951,446.133z"/>
	</g>
</g>
<g>
	<g>
		<path d="M89.122,422.847l-0.415-0.417c-3.906-3.904-10.235-3.904-14.142,0c-3.905,3.905-3.905,10.236,0,14.142l0.416,0.417
			c1.953,1.952,4.512,2.929,7.07,2.929s5.118-0.977,7.071-2.929C93.026,433.085,93.026,426.753,89.122,422.847z"/>
	</g>
</g>
<g>
	<g>
		<path d="M403.081,108.935l-0.48-0.48c-3.906-3.904-10.235-3.904-14.142,0c-3.905,3.905-3.905,10.236,0,14.142l0.435,0.435
			c1.955,1.967,4.523,2.951,7.094,2.951c2.549,0,5.098-0.969,7.049-2.906C406.953,119.185,406.974,112.853,403.081,108.935z"/>
	</g>
</g>
<g>
	<g>
		<path d="M475.6,387.582c28.176-46.994,40.605-102.596,35.06-157.495c-5.903-58.427-32.063-113.513-73.663-155.114
			c-43.771-43.77-101.85-70.186-163.538-74.382c-61.096-4.149-121.612,13.633-170.418,50.085c-2.34,1.747-3.799,4.43-3.994,7.344
			c-0.195,2.913,0.893,5.767,2.979,7.81l34.803,34.101c3.42,3.35,8.73,3.807,12.672,1.092
			c63.701-43.888,149.297-43.884,212.994,0.012c4.548,3.133,10.772,1.987,13.908-2.56c3.134-4.548,1.987-10.774-2.56-13.908
			C339.128,60.644,298.379,47.999,256,47.997c-0.006,0-0.006,0-0.011,0c-39.596,0-77.773,11.038-110.931,31.999l-20.485-20.071
			C217.037-2.14,343.283,9.544,422.855,89.116c78.029,78.029,91.344,201.888,31.659,294.509c-2.55,3.958-1.994,9.158,1.335,12.487
			l3.984,3.984h-39.854v-39.854l0.942,0.942c2.204,2.204,5.311,3.257,8.398,2.84c3.089-0.413,5.809-2.244,7.354-4.95
			c18.806-32.916,28.219-70.456,27.225-108.562c-0.998-38.234-12.439-75.333-33.091-107.286c-2.997-4.639-9.186-5.971-13.825-2.971
			c-4.639,2.997-5.969,9.187-2.971,13.825c35.816,55.42,39.851,124.544,11.456,183.369l-8.418-8.419
			c-2.859-2.86-7.161-3.714-10.897-2.168c-3.736,1.548-6.173,5.194-6.173,9.238v73.995c0,5.522,4.478,9.999,9.999,9.999h73.995
			c4.045,0,7.691-2.437,9.238-6.173c1.547-3.737,0.691-8.037-2.168-10.897L475.6,387.582z"/>
	</g>
</g>
<g>
	<g>
		<path d="M385.96,319.093c-3.89-11.032-5.862-22.559-5.862-34.256v-57.713c0-11.697,1.973-23.224,5.862-34.256
			c3.28-9.303,0.984-19.415-5.991-26.39s-17.088-9.273-26.39-5.991c-10.569,3.727-21.612,5.616-32.819,5.616H191.217
			c-11.207,0-22.25-1.89-32.819-5.616c-9.302-3.282-19.416-0.985-26.39,5.991c-6.976,6.976-9.27,17.087-5.991,26.39
			c3.89,11.032,5.862,22.558,5.862,34.256v57.713c0,11.697-1.972,23.223-5.862,34.256c-3.28,9.303-0.984,19.415,5.991,26.39
			c6.975,6.975,17.087,9.272,26.39,5.991c10.569-3.727,21.612-5.616,32.819-5.616h129.544c11.207,0,22.25,1.89,32.819,5.616
			c2.805,0.989,5.682,1.471,8.524,1.471c6.589,0,12.993-2.589,17.865-7.461C386.945,338.508,389.24,328.397,385.96,319.093z
			 M367.101,325.743c1.018,2.888-0.551,4.878-1.271,5.6c-0.722,0.721-2.714,2.285-5.6,1.271
			c-12.712-4.482-25.991-6.755-39.469-6.755H191.217c-13.478,0-26.757,2.272-39.469,6.755c-2.886,1.016-4.877-0.551-5.6-1.271
			c-0.721-0.722-2.289-2.712-1.271-5.6c4.646-13.174,7.001-26.936,7.001-40.905v-57.713c0-13.968-2.355-27.731-7.001-40.905
			c-1.018-2.888,0.551-4.878,1.271-5.6c0.722-0.721,2.713-2.286,5.6-1.271c12.712,4.482,25.991,6.755,39.469,6.755h129.544
			c13.478,0,26.757-2.272,39.469-6.755c2.888-1.015,4.878,0.552,5.6,1.271c0.721,0.722,2.289,2.712,1.271,5.6
			c-4.646,13.174-7.001,26.936-7.001,40.905v57.713C360.101,298.807,362.456,312.569,367.101,325.743z"/>
	</g>
</g>
<g>
	<g>
		<path d="M205.669,275.324h-5.563c8.083-9.292,15.562-21.155,15.562-33.238c0-15.25-10.246-25.496-25.496-25.496
			c-14.06,0-25.497,11.437-25.497,25.496c0,5.522,4.478,9.999,9.999,9.999c5.522,0,9.999-4.478,9.999-9.999
			c0-3.031,2.467-5.498,5.499-5.498c4.622,0,5.498,1.933,5.498,5.498c0,11.561-18.141,28.698-26.919,35.181
			c-3.481,2.561-4.925,7.067-3.578,11.173c1.348,4.106,5.181,6.883,9.501,6.883h30.995c5.522,0,9.999-4.478,9.999-9.999
			C215.668,279.802,211.191,275.324,205.669,275.324z"/>
	</g>
</g>
<g>
	<g>
		<path d="M277.612,246.244v-19.656c0-5.522-4.478-9.999-9.999-9.999c-5.522,0-9.999,4.478-9.999,9.999v19.394h-11.516v-19.394
			c0-5.522-4.478-9.999-9.999-9.999c-5.522,0-9.999,4.478-9.999,9.999v29.393c0,5.522,4.477,9.999,9.999,9.999h21.516v19.459
			c0,5.522,4.478,9.999,9.999,9.999c5.522,0,9.999-4.478,9.999-9.999v-19.721c4.439-1.021,7.753-4.989,7.753-9.737
			C285.366,251.233,282.052,247.265,277.612,246.244z"/>
	</g>
</g>
<g>
	<g>
		<path d="M322.718,246.152c-1.568,0-3.1,0.154-4.587,0.436v-19.999c0-5.522-4.478-9.999-9.999-9.999
			c-5.522,0-9.999,4.478-9.999,9.999v44.148v6.382v8.204c0,5.522,4.477,9.999,9.999,9.999c5.522,0,9.999-4.478,9.999-9.999v-8.204
			v-6.382c0-2.529,2.058-4.587,4.587-4.587s4.587,2.058,4.587,4.587v14.586c0,5.522,4.478,9.999,9.999,9.999
			c5.522,0,9.999-4.478,9.999-9.999v-14.586C347.304,257.18,336.275,246.152,322.718,246.152z"/>
	</g>
</g>
<g>
</g>
<g>
</g>
<g>
</g>
<g>
</g>
<g>
</g>
<g>
</g>
<g>
</g>
<g>
</g>
<g>
</g>
<g>
</g>
<g>
</g>
<g>
</g>
<g>
</g>
<g>
</g>
<g>
</g>
</svg>
