<?xml version="1.0" encoding="iso-8859-1"?>
<!-- Generator: Adobe Illustrator 19.0.0, SVG Export Plug-In . SVG Version: 6.00 Build 0)  -->
<svg version="1.1" id="Capa_1" xmlns="http://www.w3.org/2000/svg" xmlns:xlink="http://www.w3.org/1999/xlink" x="0px" y="0px"
	 viewBox="0 0 512 512" style="enable-background:new 0 0 512 512;" xml:space="preserve">
<g>
	<g>
		<path d="M512,163.909c0-38.598-31.402-69.999-69.999-69.999c-13.756,0-27.155,4.076-38.541,11.592
			c-30.511-25.583-66.662-42.556-105.463-49.677V42.002c0-23.159-18.841-42-42-42s-42,18.841-42,42v13.818
			c-38.805,7.119-74.96,24.09-105.476,49.672C97.141,97.982,83.748,93.91,69.999,93.91C31.402,93.91,0,125.312,0,163.909
			c0,24.485,12.888,47.057,33.447,59.673c-4.912,18.841-7.459,38.432-7.459,58.417c0,61.435,23.924,119.192,67.364,162.633
			c2.484,2.484,5.021,4.897,7.597,7.253L69.53,496.215c-2.163,3.051-2.442,7.053-0.725,10.375c1.717,3.322,5.144,5.408,8.883,5.408
			h42.978c3.242,0,6.284-1.572,8.158-4.218l16.893-23.835c33.425,18.311,71.094,28.053,110.268,28.053
			c39.174,0,76.843-9.742,110.268-28.054l16.894,23.835c1.875,2.645,4.916,4.217,8.158,4.217h42.977
			c3.739,0,7.166-2.086,8.883-5.408c1.718-3.322,1.438-7.324-0.725-10.375l-31.418-44.329c2.576-2.356,5.113-4.768,7.597-7.253
			c43.441-43.441,67.364-101.198,67.364-162.633c0-19.98-2.546-39.565-7.455-58.4C499.102,210.987,512,188.408,512,163.909z
			 M233.998,42.002c0-12.131,9.869-22,22-22s22,9.869,22,22v11.043c-7.272-0.686-14.615-1.042-22.013-1.042
			c-7.389,0-14.723,0.355-21.987,1.039V42.002z M20,163.909c0-27.57,22.43-49.999,50-49.999c8.103,0,16.035,1.981,23.128,5.687
			c-24.125,24.191-42.205,52.805-53.489,84.012C27.451,194.267,20,179.64,20,163.909z M115.496,491.997H97.033l19.295-27.224
			c3.996,3.066,8.071,6.004,12.235,8.786L115.496,491.997z M414.936,491.997h-18.463l-13.068-18.438
			c4.164-2.782,8.239-5.72,12.235-8.786L414.936,491.997z M255.984,491.998c-115.793,0-209.998-94.205-209.998-209.998
			S140.192,72.002,255.984,72.002S465.982,166.207,465.982,282S371.777,491.998,255.984,491.998z M472.337,203.628
			c-11.282-31.21-29.361-59.827-53.486-84.02c7.099-3.713,15.038-5.698,23.148-5.698c27.57,0,50,22.43,50,50
			C491.999,179.652,484.539,194.286,472.337,203.628z"/>
	</g>
</g>
<g>
	<g>
		<path d="M263.056,141.901c-1.859-1.86-4.439-2.92-7.069-2.92c-2.631,0-5.21,1.06-7.07,2.92c-1.87,1.87-2.93,4.44-2.93,7.07
			c0,2.64,1.06,5.22,2.93,7.08c1.86,1.86,4.439,2.93,7.07,2.93c2.63,0,5.21-1.07,7.069-2.93c1.86-1.87,2.931-4.44,2.931-7.08
			C265.987,146.341,264.917,143.771,263.056,141.901z"/>
	</g>
</g>
<g>
	<g>
		<path d="M263.056,407.958c-1.859-1.86-4.439-2.93-7.069-2.93c-2.64,0-5.21,1.07-7.07,2.93c-1.87,1.86-2.93,4.44-2.93,7.07
			s1.06,5.21,2.93,7.07c1.86,1.86,4.439,2.93,7.07,2.93c2.63,0,5.21-1.07,7.069-2.93c1.86-1.87,2.931-4.44,2.931-7.07
			S264.917,409.818,263.056,407.958z"/>
	</g>
</g>
<g>
	<g>
		<path d="M396.076,274.929c-1.86-1.86-4.44-2.93-7.07-2.93c-2.63,0-5.21,1.07-7.07,2.93c-1.859,1.86-2.93,4.44-2.93,7.07
			c0,2.63,1.07,5.21,2.93,7.07c1.86,1.86,4.44,2.93,7.07,2.93c2.63,0,5.21-1.07,7.07-2.93c1.87-1.86,2.939-4.44,2.939-7.07
			C399.015,279.369,397.946,276.789,396.076,274.929z"/>
	</g>
</g>
<g>
	<g>
		<path d="M130.029,274.929c-1.86-1.86-4.44-2.93-7.07-2.93c-2.63,0-5.21,1.07-7.07,2.93c-1.859,1.86-2.93,4.44-2.93,7.07
			c0,2.63,1.07,5.21,2.93,7.07c1.86,1.86,4.44,2.93,7.07,2.93c2.63,0,5.21-1.07,7.07-2.93c1.859-1.86,2.93-4.44,2.93-7.07
			C132.959,279.369,131.889,276.789,130.029,274.929z"/>
	</g>
</g>
<g>
	<g>
		<path d="M383.97,154.014c-27.724-27.724-62.825-45.387-101.507-51.077c-37.926-5.58-75.867,0.748-109.732,18.296
			c-4.903,2.541-6.819,8.576-4.278,13.479c2.541,4.903,8.572,6.818,13.479,4.278c62.536-32.404,138.047-20.684,187.896,29.167
			c30.409,30.409,47.156,70.839,47.156,113.844s-16.747,83.435-47.156,113.844c-30.409,30.41-70.839,47.157-113.844,47.157
			s-83.435-16.747-113.844-47.157c-49.986-49.985-61.436-128.277-27.847-190.39c2.627-4.858,0.819-10.926-4.039-13.553
			c-4.858-2.628-10.926-0.819-13.553,4.039c-18.158,33.576-25.261,72.997-20,111.003c5.439,39.292,23.177,74.923,51.297,103.043
			c34.187,34.187,79.64,53.013,127.986,53.013s93.8-18.828,127.986-53.013C418.156,375.8,436.984,330.347,436.984,282
			S418.157,188.201,383.97,154.014z"/>
	</g>
</g>
<g>
	<g>
		<path d="M142.803,153.422c-3.889-3.924-10.221-3.953-14.143-0.066l-0.661,0.659c-3.905,3.905-3.905,10.237,0,14.143
			c1.953,1.952,4.512,2.928,7.071,2.928c2.56,0,5.118-0.976,7.071-2.929l0.596-0.593C146.66,163.676,146.69,157.344,142.803,153.422
			z"/>
	</g>
</g>
<g>
	<g>
		<path d="M265.997,253.724v-64.724c0-5.523-4.478-10-10-10s-10,4.477-10,10v64.716c-1.004,0.356-1.986,0.759-2.938,1.216
			l-24.56-24.559c-3.906-3.905-10.236-3.905-14.143,0c-3.905,3.905-3.905,10.237,0,14.142l24.56,24.559
			c-1.878,3.917-2.932,8.3-2.932,12.926c0,16.542,13.458,30,30,30c16.542,0,30-13.458,30-30
			C285.984,268.967,277.629,257.855,265.997,253.724z M255.984,292c-5.514,0-10-4.486-10-10c0-5.514,4.486-10,10-10s10,4.486,10,10
			C265.984,287.514,261.498,292,255.984,292z"/>
	</g>
</g>
<g>
	<g>
		<path d="M380.303,330.485c-4.982-2.39-10.953-0.292-13.342,4.688c-11.195,23.32-29.913,42.927-52.706,55.208
			c-4.861,2.62-6.679,8.685-4.06,13.547c1.808,3.354,5.253,5.258,8.813,5.258c1.602,0,3.227-0.386,4.735-1.199
			c26.485-14.272,48.237-37.058,61.247-64.159C387.381,338.849,385.282,332.875,380.303,330.485z"/>
	</g>
</g>
<g>
</g>
<g>
</g>
<g>
</g>
<g>
</g>
<g>
</g>
<g>
</g>
<g>
</g>
<g>
</g>
<g>
</g>
<g>
</g>
<g>
</g>
<g>
</g>
<g>
</g>
<g>
</g>
<g>
</g>
</svg>
