<svg id="Capa_1" enable-background="new 0 0 512 512" height="512" viewBox="0 0 512 512" width="512" xmlns="http://www.w3.org/2000/svg"><g><g><path d="m137.188 242.431c5.523 0 10-4.478 10-10v-19.134c0-5.522-4.477-10-10-10s-10 4.478-10 10v19.134c0 5.523 4.477 10 10 10z"/><path d="m380.849 132.858h-14.661v-122.857c0-3.94-2.314-7.514-5.911-9.126-3.598-1.613-7.805-.961-10.744 1.662-44.413 39.605-114.028 71.943-163.322 86.423-.043.013-.084.024-.127.037-.012.004-.025.007-.037.011-14.104 4.137-19.193 4.138-34.176 4.138h-46.09c-16.099 0-29.31 12.565-30.362 28.402h-27.747c-26.286 0-47.672 21.398-47.672 47.7v67.634c0 26.286 21.386 47.672 47.672 47.672h27.671v18.431 165.738c0 23.863 19.414 43.278 43.278 43.278 23.848 0 43.249-19.415 43.249-43.278v-46.266h23.505c17.127 0 31.061-13.921 31.061-31.032v-5.981c0-17.127-13.934-31.06-31.061-31.06h-23.505v-41.324c8.227.207 13.732 1.003 24.17 4.063.019.006.038.011.056.016.041.012.08.023.121.035 49.274 14.447 118.881 46.771 163.311 86.418 1.869 1.668 4.25 2.539 6.66 2.539 1.383 0 2.775-.286 4.086-.874 3.597-1.61 5.912-5.185 5.912-9.126v-122.86h14.661c19.097 0 34.633-15.549 34.633-34.661v-71.091c.002-19.112-15.534-34.661-34.631-34.661zm-285.505-9.275c0-5.755 4.682-10.437 10.437-10.437h46.09c11.182 0 18.061-.002 27.162-1.779v183.396c-9.101-1.777-15.98-1.779-27.162-1.779h-56.527zm-47.672 140.97c-15.258 0-27.672-12.413-27.672-27.672v-.743h18.544c5.523 0 10-4.478 10-10s-4.477-10-10-10h-18.543v-26.147h18.544c5.523 0 10-4.478 10-10s-4.477-10-10-10h-18.544v-.743c0-15.274 12.414-27.7 27.672-27.7h27.671v123.006h-27.672zm94.199 204.169c0 12.836-10.43 23.278-23.249 23.278-12.836 0-23.278-10.442-23.278-23.278v-155.738h46.528v155.738zm43.505-94.341c6.099 0 11.061 4.962 11.061 11.061v5.981c0 6.083-4.962 11.032-11.061 11.032h-23.505v-28.074zm160.812.505c-10.108-7.783-20.851-15.107-31.901-21.952v-105.026c0-5.522-4.478-10-10-10s-10 4.478-10 10v93.33c-33.366-18.437-67.811-32.442-95.254-41.069v-194.212c27.45-8.643 61.894-22.656 95.254-41.087v93.239c0 5.522 4.478 10 10 10s10-4.478 10-10v-104.933c11.051-6.842 21.794-14.164 31.901-21.941zm49.294-136.276c0 8.084-6.564 14.661-14.633 14.661h-14.661v-100.413h14.661c8.068 0 14.633 6.577 14.633 14.661z"/><path d="m445.591 213.065h56.408c5.522 0 10-4.478 10-10s-4.478-10-10-10h-56.408c-5.522 0-10 4.478-10 10s4.478 10 10 10z"/><path d="m445.595 163.062c2.358 0 4.726-.829 6.63-2.517l56.408-50.002c4.133-3.664 4.513-9.984.85-14.117-3.664-4.132-9.982-4.513-14.117-.85l-56.408 50.002c-4.133 3.664-4.513 9.984-.85 14.117 1.976 2.23 4.725 3.367 7.487 3.367z"/><path d="m508.633 295.586-56.408-50.002c-4.134-3.663-10.453-3.282-14.117.85-3.663 4.133-3.283 10.453.85 14.117l56.408 50.002c1.904 1.688 4.271 2.517 6.63 2.517 2.762 0 5.511-1.138 7.487-3.366 3.663-4.134 3.283-10.454-.85-14.118z"/><path d="m137.188 178.412c5.523 0 10-4.492 10-10.015s-4.477-10-10-10-10 4.478-10 10v.028c0 5.523 4.477 9.987 10 9.987z"/><path d="m304.287 193.008c-5.522 0-10 4.478-10 10v.058c0 5.522 4.478 9.972 10 9.972s10-4.507 10-10.029-4.478-10.001-10-10.001z"/></g></g></svg>