<?xml version="1.0" encoding="iso-8859-1"?>
<!-- Generator: Adobe Illustrator 19.0.0, SVG Export Plug-In . SVG Version: 6.00 Build 0)  -->
<svg version="1.1" id="Capa_1" xmlns="http://www.w3.org/2000/svg" xmlns:xlink="http://www.w3.org/1999/xlink" x="0px" y="0px"
	 viewBox="0 0 512.001 512.001" style="enable-background:new 0 0 512.001 512.001;" xml:space="preserve">
<g>
	<g>
		<path d="M175.999,156.526c-56.243,0-101.999,45.757-101.999,101.999c0,56.242,45.757,101.999,101.999,101.999
			s101.999-45.757,101.999-101.999C277.998,202.283,232.241,156.526,175.999,156.526z M93.999,258.525
			c0-4.78,0.435-9.458,1.223-14.016h25.52c-0.332,4.609-0.505,9.288-0.505,14.016c0,4.728,0.174,9.407,0.505,14.016h-25.52
			C94.434,267.983,93.999,263.305,93.999,258.525z M101.417,292.541h21.873c2.436,13.121,6.28,25.207,11.396,35.492
			c0.305,0.614,0.615,1.217,0.927,1.815C120.652,321.342,108.621,308.274,101.417,292.541z M134.686,189.018
			c-5.116,10.285-8.961,22.371-11.396,35.492h-21.873c7.205-15.733,19.235-28.8,34.196-37.306
			C135.301,187.801,134.991,188.405,134.686,189.018z M165.999,336.779c-9.235-6.817-17.826-22.598-22.375-44.238h22.375V336.779z
			 M165.999,272.541h-25.211c-0.356-4.516-0.552-9.189-0.552-14.016c0-4.827,0.196-9.5,0.551-14.016h25.212V272.541z
			 M165.999,224.51h-22.375c4.55-21.639,13.14-37.42,22.375-44.237V224.51z M250.58,224.51h-21.872
			c-2.436-13.121-6.281-25.207-11.396-35.492c-0.305-0.613-0.614-1.216-0.926-1.813C231.346,195.711,243.376,208.778,250.58,224.51z
			 M185.999,180.272c9.236,6.818,17.826,22.599,22.376,44.238h-22.376V180.272z M185.999,336.779v-44.238h22.376
			C203.824,314.181,195.234,329.962,185.999,336.779z M211.21,272.541h-25.212v-28.032h25.212c0.355,4.516,0.551,9.189,0.551,14.016
			C211.761,263.352,211.565,268.025,211.21,272.541z M216.385,329.846c0.312-0.597,0.622-1.201,0.927-1.814
			c5.116-10.285,8.961-22.371,11.396-35.492h21.872C243.376,308.274,231.346,321.341,216.385,329.846z M231.256,272.541
			c0.332-4.608,0.505-9.288,0.505-14.016c0.001-4.728-0.173-9.407-0.505-14.016h25.519c0.789,4.558,1.223,9.236,1.223,14.016
			c0,4.78-0.435,9.458-1.223,14.016H231.256z"/>
	</g>
</g>
<g>
	<g>
		<path d="M349.067,274.923c-1.859-1.86-4.439-2.93-7.069-2.93c-2.631,0-5.21,1.07-7.07,2.93c-1.86,1.86-2.93,4.44-2.93,7.07
			c0,2.63,1.069,5.21,2.93,7.07c1.861,1.86,4.439,2.93,7.07,2.93c2.63,0,5.21-1.07,7.069-2.93c1.86-1.86,2.931-4.44,2.931-7.07
			C351.998,279.363,350.928,276.783,349.067,274.923z"/>
	</g>
</g>
<g>
	<g>
		<path d="M234.078,392.922c-1.859-1.86-4.439-2.93-7.069-2.93s-5.21,1.07-7.07,2.93c-1.86,1.86-2.93,4.44-2.93,7.07
			c0,2.63,1.069,5.21,2.93,7.07c1.861,1.86,4.44,2.93,7.07,2.93s5.21-1.07,7.069-2.93c1.87-1.86,2.931-4.44,2.931-7.07
			C237.009,397.362,235.948,394.782,234.078,392.922z"/>
	</g>
</g>
<g>
	<g>
		<path d="M190.661,389.992h-74.314c-5.522,0-10,4.477-10,10c0,5.523,4.478,10,10,10h74.314c5.523,0,10-4.477,10-10
			C200.66,394.469,196.182,389.992,190.661,389.992z"/>
	</g>
</g>
<g>
	<g>
		<path d="M213.011,427.992h-82.665c-5.522,0-10,4.477-10,10c0,5.523,4.478,10,10,10h82.665c5.522,0,10-4.477,10-10
			C223.011,432.469,218.533,427.992,213.011,427.992z"/>
	</g>
</g>
<g>
	<g>
		<path d="M487.011,132.697L268.775,6.698c-23.88-13.786-54.518-5.574-68.301,18.301l-15.586,26.996H50c-27.57,0-50,22.43-50,50
			v359.997c0,27.57,22.43,50,50,50h251.998c25.887,0,47.24-19.776,49.75-45.014l153.564-265.98
			C519.097,177.122,510.887,146.482,487.011,132.697z M217.793,34.999c8.271-14.327,26.656-19.251,40.981-10.981l49.069,28.33
			c-1.919-0.225-3.867-0.353-5.845-0.353H207.98L217.793,34.999z M487.991,190.998L351.997,426.546V326.66c0-5.523-4.478-10-10-10
			s-10,4.477-10,10v135.332c0,0.497-0.015,0.99-0.038,1.48c0,0.009,0,0.017,0,0.026c-0.788,15.845-13.925,28.494-29.962,28.494H50
			c-16.542,0-30-13.458-30-30V101.995c0-16.542,13.458-30,30-30h251.998c16.542,0,30,13.458,30,30v132.999c0,5.523,4.478,10,10,10
			s10-4.477,10-10V101.995c0-11.2-3.702-21.552-9.946-29.897l134.96,77.919c6.939,4.007,11.903,10.476,13.978,18.216
			C493.064,175.973,491.998,184.058,487.991,190.998z"/>
	</g>
</g>
<g>
</g>
<g>
</g>
<g>
</g>
<g>
</g>
<g>
</g>
<g>
</g>
<g>
</g>
<g>
</g>
<g>
</g>
<g>
</g>
<g>
</g>
<g>
</g>
<g>
</g>
<g>
</g>
<g>
</g>
</svg>
