<?xml version="1.0" encoding="iso-8859-1"?>
<!-- Generator: Adobe Illustrator 19.0.0, SVG Export Plug-In . SVG Version: 6.00 Build 0)  -->
<svg version="1.1" id="Capa_1" xmlns="http://www.w3.org/2000/svg" xmlns:xlink="http://www.w3.org/1999/xlink" x="0px" y="0px"
	 viewBox="0 0 512.002 512.002" style="enable-background:new 0 0 512.002 512.002;" xml:space="preserve">
<g>
	<g>
		<path d="M172.411,393.398c-0.006-0.006-0.044-0.044-0.05-0.051c-3.902-3.9-10.21-3.887-14.116,0.009
			c-3.907,3.897-3.902,10.237-0.01,14.148c0.023,0.024,0.112,0.112,0.136,0.136c1.949,1.919,4.485,2.877,7.021,2.877
			c2.584,0,5.167-0.995,7.122-2.981C176.389,403.602,176.344,397.274,172.411,393.398z"/>
	</g>
</g>
<g>
	<g>
		<path d="M386.866,335.571c-2.512-2.512-6.169-3.503-9.605-2.602c-9.75,2.556-19.845,3.852-30,3.852
			c-65.06,0-117.992-52.931-117.992-117.992c0-10.156,1.296-20.25,3.852-30c0.901-3.437-0.09-7.094-2.602-9.605
			c-2.512-2.513-6.169-3.502-9.605-2.603c-60.599,15.879-102.921,70.77-102.921,133.484c0,22.894,5.725,45.574,16.556,65.587
			c2.628,4.858,8.696,6.661,13.553,4.036c4.857-2.629,6.664-8.696,4.036-13.553c-9.254-17.101-14.145-36.488-14.145-56.069
			c0-48.063,29.067-90.752,72.395-108.867c-0.742,5.821-1.116,11.697-1.116,17.59c0,76.088,61.903,137.99,137.99,137.99
			c5.894,0,11.77-0.374,17.59-1.116c-18.116,43.328-60.806,72.395-108.867,72.395c-19.6,0-39.004-4.9-56.117-14.171
			c-4.855-2.632-10.924-0.828-13.555,4.029c-2.631,4.856-0.827,10.924,4.029,13.555c20.029,10.85,42.727,16.586,65.642,16.586
			c62.714,0,117.605-42.322,133.486-102.92C390.369,341.74,389.378,338.083,386.866,335.571z"/>
	</g>
</g>
<g>
	<g>
		<path d="M256.4,107.992h-0.417c-5.523,0-9.999,4.477-9.999,9.999c0,5.523,4.477,9.999,9.999,9.999h0.417
			c5.523,0,9.999-4.477,9.999-9.999C266.399,112.469,261.922,107.992,256.4,107.992z"/>
	</g>
</g>
<g>
	<g>
		<path d="M479.581,375.268c2.91-21.51,4.385-43.477,4.385-65.289c0-21.813-1.476-43.78-4.385-65.289
			c-2.677-19.795,4.146-40.033,18.25-54.137c18.866-18.865,18.865-49.56,0-68.426c-18.865-18.865-49.56-18.866-68.436,0.01
			c-9.231,9.233-22.633,12.406-34.977,8.28c-29.978-10.019-61.167-16.766-92.701-20.053c-5.496-0.568-10.409,3.417-10.982,8.909
			c-0.572,5.493,3.417,10.409,8.909,10.982c30.085,3.136,59.839,9.571,88.435,19.129c19.582,6.544,40.83,1.521,55.466-13.116
			c11.069-11.067,29.077-11.067,40.144,0c11.067,11.067,11.067,29.076,0,40.143c-18.491,18.491-27.436,45.018-23.927,70.959
			c2.79,20.625,4.205,41.69,4.205,62.61c0,20.919-1.415,41.984-4.205,62.61c-3.509,25.942,5.437,52.468,23.927,70.958
			c11.067,11.068,11.067,29.077,0,40.143c-11.066,11.067-29.076,11.068-40.154-0.01c-14.613-14.613-35.839-19.63-55.398-13.09
			c-42.488,14.207-86.952,21.411-132.157,21.411c-45.196,0-89.651-7.202-132.131-21.403c-19.558-6.539-40.782-1.521-55.395,13.092
			c-5.362,5.362-12.49,8.313-20.073,8.313s-14.71-2.953-20.072-8.314c-5.362-5.361-8.313-12.489-8.313-20.072
			s2.953-14.71,8.314-20.072c18.474-18.474,27.407-44.972,23.898-70.882c-2.797-20.653-4.215-41.744-4.215-62.687
			c0-20.943,1.418-42.034,4.215-62.686c3.509-25.911-5.426-52.409-23.898-70.882c-11.067-11.068-11.067-29.077,0-40.144
			c11.067-11.067,29.077-11.067,40.143,0c14.628,14.627,35.877,19.651,55.454,13.107c27.971-9.346,57.066-15.71,86.476-18.915
			c5.49-0.598,9.455-5.534,8.857-11.023c-0.599-5.491-5.535-9.461-11.023-8.857c-30.827,3.358-61.326,10.029-90.649,19.828
			c-12.339,4.124-25.742,0.952-34.975-8.281c-18.865-18.866-49.561-18.864-68.426,0c-18.863,18.866-18.862,49.562,0.003,68.427
			c14.086,14.086,20.898,34.294,18.222,54.057c-2.917,21.539-4.396,43.533-4.396,65.37s1.479,43.831,4.396,65.37
			c2.677,19.763-4.136,39.971-18.222,54.057c-18.866,18.866-18.866,49.562,0,68.426c18.865,18.866,49.561,18.865,68.425,0
			c9.217-9.216,22.596-12.382,34.914-8.266c44.528,14.887,91.117,22.435,138.471,22.435c47.365,0,93.962-7.551,138.498-22.443
			c12.319-4.119,25.697-0.953,34.925,8.275c18.866,18.865,49.562,18.865,68.426,0c18.866-18.866,18.865-49.56,0-68.426
			C483.727,415.301,476.904,395.062,479.581,375.268z"/>
	</g>
</g>
<g>
	<g>
		<path d="M429.556,72.328h-48.188l55.259-55.258c2.86-2.86,3.715-7.161,2.167-10.897C437.247,2.436,433.6,0,429.556,0h-72.328
			c-5.523,0-9.999,4.477-9.999,9.999c0,5.523,4.477,9.999,9.998,9.999h48.188l-55.258,55.258c-2.86,2.86-3.715,7.161-2.167,10.897
			c1.548,3.737,5.194,6.173,9.238,6.173h72.328c5.523,0,9.999-4.477,9.999-9.999S435.079,72.328,429.556,72.328z"/>
	</g>
</g>
<g>
	<g>
		<path d="M343.194,210.808h-27.895l34.966-34.966c2.86-2.86,3.715-7.161,2.167-10.897c-1.548-3.737-5.194-6.173-9.238-6.173
			h-52.035c-5.523,0-9.999,4.477-9.999,9.999c0,5.523,4.477,9.999,9.999,9.999h27.895l-34.966,34.966
			c-2.86,2.86-3.715,7.161-2.167,10.897c1.548,3.737,5.194,6.173,9.238,6.173h52.035c5.523,0,9.999-4.477,9.999-9.999
			C353.193,215.285,348.716,210.808,343.194,210.808z"/>
	</g>
</g>
<g>
</g>
<g>
</g>
<g>
</g>
<g>
</g>
<g>
</g>
<g>
</g>
<g>
</g>
<g>
</g>
<g>
</g>
<g>
</g>
<g>
</g>
<g>
</g>
<g>
</g>
<g>
</g>
<g>
</g>
</svg>
