<svg id="Capa_1" enable-background="new 0 0 512 512" height="512" viewBox="0 0 512 512" width="512" xmlns="http://www.w3.org/2000/svg"><g><g><path d="m512 119.686c0-31.445-12.279-60.919-34.577-82.992-46.154-45.691-121.253-45.692-167.408 0l-41.496 41.08-5.587-5.531c-14.326-14.184-37.639-14.184-51.965 0l-88.752 87.861c-6.96 6.891-10.793 16.081-10.793 25.878 0 6.329 1.609 12.401 4.619 17.768l-12.148 12.008c-6.782 6.713-10.517 15.674-10.517 25.231 0 9.558 3.735 18.519 10.517 25.233l26.761 26.488-112.389 111.262c-11.779 11.644-18.265 27.193-18.265 43.783s6.486 32.14 18.26 43.778c12.148 12.027 28.107 18.041 44.065 18.041s31.916-6.014 44.064-18.041l17.54-17.364c.001-.001.002-.002.003-.002l.002-.002 95.016-94.062 26.906 26.63c6.994 6.924 16.172 10.384 25.346 10.384 9.172 0 18.341-3.461 25.309-10.378l12.263-12.121c5.564 3.088 11.768 4.643 17.978 4.642 9.408-.001 18.82-3.547 25.982-10.638l88.751-87.861c6.96-6.89 10.793-16.08 10.793-25.877 0-9.798-3.833-18.988-10.793-25.878l-5.429-5.375 41.367-40.952c22.297-22.074 34.577-51.548 34.577-82.993zm-419.681 357.635c-16.538 16.374-43.449 16.373-59.993-.005-7.949-7.858-12.326-18.356-12.326-29.561s4.377-21.703 12.331-29.565l10.436-10.331 59.848 59.27zm24.509-24.264-59.848-59.27 87.889-87.007 59.866 59.253zm165.607-60.527c-6.195 6.149-16.293 6.144-22.51-.011l-107.779-106.676c-.055-.059-.103-.122-.16-.179-.086-.087-.179-.161-.268-.244l-33.756-33.411c-2.958-2.929-4.587-6.842-4.587-11.019s1.629-8.09 4.582-11.013l11.288-11.158 164.339 162.691zm139.407-162.971-37.88-37.5c-3.924-3.886-10.256-3.854-14.142.071s-3.854 10.256.071 14.142l44.613 44.166c.074.079.139.164.216.241.114.115.237.216.355.324l12.338 12.214c3.137 3.105 4.864 7.248 4.864 11.665s-1.727 8.56-4.864 11.665l-88.752 87.861c-6.568 6.503-17.256 6.503-23.824 0l-178.551-176.762c-3.136-3.104-4.864-7.247-4.864-11.664s1.728-8.56 4.864-11.665l88.752-87.861c6.568-6.502 17.256-6.502 23.824 0l57.466 56.89c3.925 3.887 10.257 3.854 14.142-.071 3.886-3.925 3.854-10.256-.071-14.142l-37.666-37.288 41.353-40.938c38.396-38.01 100.87-38.011 139.267 0 18.473 18.289 28.647 42.715 28.647 68.779s-10.174 50.49-28.647 68.778z"/><path d="m116.415 411.519c1.956 1.976 4.53 2.965 7.107 2.965 2.542 0 5.085-.964 7.035-2.894l38.831-38.441c3.925-3.885 3.957-10.217.071-14.142-3.885-3.924-10.217-3.957-14.142-.071l-38.831 38.441c-3.925 3.886-3.957 10.218-.071 14.142z"/><path d="m340.659 176.661.057.028c1.432.716 2.952 1.055 4.447 1.055 3.664 0 7.187-2.034 8.941-5.542 2.47-4.94.439-10.961-4.5-13.431-4.94-2.471-10.947-.468-13.417 4.472s-.468 10.948 4.472 13.418z"/><path d="m293.226 179.002-47.057-46.584c-3.924-3.886-10.256-3.854-14.142.071s-3.854 10.256.071 14.142l16.364 16.2-46.544 46.077c-3.925 3.885-3.957 10.217-.071 14.142 1.956 1.976 4.53 2.965 7.107 2.965 2.542 0 5.085-.964 7.035-2.894l46.687-46.219 16.479 16.314c1.949 1.93 4.493 2.894 7.035 2.894 2.576 0 5.151-.989 7.107-2.965 3.886-3.926 3.854-10.257-.071-14.143z"/><path d="m335.912 229.792c2.027-5.138-.495-10.945-5.632-12.973-5.139-2.026-10.946.495-12.973 5.632l-30.18 76.489c-2.027 5.138.495 10.945 5.632 12.973 1.204.475 2.444.7 3.664.7.003 0 .005.001.009.001.442 0 .887-.04 1.332-.101.082-.011.164-.021.246-.034.422-.068.843-.161 1.262-.286.074-.022.146-.05.22-.074.183-.059.367-.113.549-.184l77.236-29.905c5.15-1.994 7.708-7.786 5.714-12.936s-7.783-7.709-12.936-5.714l-55.942 21.66z"/></g></g></svg>