<svg id="Capa_1" enable-background="new 0 0 512 512" height="512" viewBox="0 0 512 512" width="512" xmlns="http://www.w3.org/2000/svg"><g><g><path d="m197.891 436.218c-5.523 0-10 4.477-10 10v.057c0 5.523 4.477 9.972 10 9.972s10-4.505 10-10.028-4.477-10.001-10-10.001z"/><path d="m407.378 20.028c46.64 0 84.583 37.945 84.583 84.585 0 5.523 4.478 10 10 10s10-4.477 10-10c0-57.668-46.916-104.585-104.583-104.585-5.522 0-10 4.477-10 10s4.477 10 10 10z"/><path d="m397.373 67.618c25.899 0 46.971 21.084 46.971 47 0 5.523 4.478 10 10 10s10-4.477 10-10c0-36.944-30.043-67-66.971-67-5.522 0-10 4.477-10 10s4.477 10 10 10z"/><path d="m506.764 353.86-29.248-29.25c-.001-.001-.002-.002-.003-.003s-.002-.002-.003-.003l-34.799-34.8c-.001-.001-.003-.003-.004-.004s-.003-.002-.004-.004l-16.888-16.889c-6.659-6.66-15.537-10.327-24.998-10.327-9.462 0-18.34 3.667-24.999 10.327l-22.856 22.857-19.579-19.596 13.863-13.863.001-.001s0-.001.001-.001l27.912-27.913c6.556-6.597 8.042-16.373 4.49-24.446l2.487-2.487c18.981-18.981 21.108-48.516 6.411-69.88l25.592-25.615c3.903-3.907 3.9-10.239-.007-14.142-3.907-3.904-10.24-3.901-14.142.006l-25.583 25.606c-9.06-6.237-19.801-9.604-31.087-9.604-14.698 0-28.483 5.69-38.816 16.023l-2.458 2.458c-2.758-1.225-5.763-1.888-8.878-1.893-.012 0-.022 0-.034 0-5.881 0-11.404 2.285-15.556 6.437l-27.889 27.89h-.001l-13.872 13.872-19.593-19.61 22.863-22.864c13.756-13.757 13.761-36.168-.001-49.971l-16.835-16.83c-.02-.02-.036-.042-.056-.062s-.042-.037-.063-.057l-34.577-34.565c-.058-.061-.108-.125-.167-.185-.06-.06-.125-.11-.186-.168l-29.091-29.077c-3.344-3.359-7.803-5.215-12.561-5.226-.014 0-.028 0-.043 0-4.77 0-9.251 1.854-12.622 5.225l-85.114 85.117-39.796 39.797c-3.38 3.38-5.235 7.878-5.224 12.665.011 4.772 1.878 9.244 5.224 12.558l29.08 29.091c.059.062.111.129.172.19s.127.112.188.17l34.566 34.579c.018.018.033.039.051.057s.038.033.056.051l16.846 16.852c6.894 6.874 15.941 10.311 24.985 10.311 9.048 0 18.094-3.44 24.974-10.321l25.555-25.556 19.609 19.593-6.758 6.758c-7.934 7.934-12.303 18.519-12.303 29.803 0 7.853 2.122 15.364 6.083 21.882l-28.567 28.568c-8.691-4.969-17.873-8.924-27.339-11.626-36.597-10.445-71.745-1.208-98.996 26.033-9.208 9.257-9.208 24.32.019 33.595l58.119 58.121-23.327 23.327c-13.095-7.006-29.798-5.004-40.868 6.034-13.477 13.518-13.472 35.484.01 48.966 6.55 6.554 15.249 10.16 24.499 10.16h.026c9.245-.007 17.932-3.618 24.441-10.146 6.549-6.53 10.161-15.218 10.167-24.462.004-5.826-1.424-11.433-4.116-16.424l23.309-23.31 58.119 58.121c4.634 4.634 10.72 6.95 16.808 6.95 6.085 0 12.173-2.317 16.806-6.95 2.147-2.146 4.206-4.361 6.119-6.583 3.604-4.185 3.133-10.499-1.051-14.103-4.186-3.604-10.499-3.133-14.103 1.051-1.591 1.847-3.309 3.694-5.106 5.492-.947.948-2.076 1.089-2.665 1.089s-1.717-.141-2.665-1.088l-130.361-130.366c-1.447-1.455-1.447-3.913-.021-5.348 28.028-28.015 58.619-26.843 79.346-20.926 9.78 2.792 19.199 7.156 27.944 12.73.624.519 1.297.944 2 1.288 13.144 8.761 24.644 20.294 33.372 33.39.347.705.779 1.377 1.302 2.001 6.408 10.058 11.192 20.978 13.825 32.251 1.257 5.378 6.633 8.72 12.013 7.463 5.378-1.256 8.719-6.634 7.463-12.013-2.638-11.295-7.101-22.289-13.005-32.614l28.563-28.584c6.696 4.058 14.284 6.096 21.879 6.095 10.796-.001 21.597-4.103 29.819-12.307l6.761-6.761 19.587 19.588-25.553 25.553c-13.783 13.784-13.783 36.213 0 49.997l16.887 16.888c.002.002.003.004.005.006s.004.003.006.005l34.789 34.789c.004.004.007.009.011.012s.008.007.012.011l29.238 29.238c3.369 3.37 7.854 5.227 12.627 5.227 4.774 0 9.259-1.856 12.627-5.226l39.785-39.786c.004-.004.008-.007.011-.01s.007-.008.01-.011l45.295-45.296c.004-.005.009-.008.014-.013s.008-.01.013-.014l39.782-39.783c6.961-6.961 6.961-18.289 0-25.251zm-461.81 133.851c-2.754 2.763-6.417 4.286-10.314 4.289-.004 0-.007 0-.011 0-3.906 0-7.584-1.527-10.356-4.299-5.697-5.696-5.692-14.984-.011-20.682 2.862-2.853 6.616-4.28 10.367-4.28 3.746 0 7.489 1.423 10.335 4.27 2.775 2.775 4.302 6.457 4.299 10.368-.003 3.896-1.526 7.559-4.309 10.334zm390.682-176.696 20.664 20.664-31.202 31.203-20.661-20.667zm-24.68 66.009-31.19 31.191-20.667-20.662 31.196-31.197zm-20.995-89.974c2.882-2.882 6.737-4.469 10.856-4.469 4.118 0 7.974 1.587 10.855 4.469l9.822 9.822-31.197 31.198-20.675-20.681zm-34.481 34.481 20.675 20.681-31.2 31.201-20.681-20.676zm-36.832-177.534c6.556-6.556 15.318-10.166 24.674-10.166s18.118 3.61 24.673 10.166c13.598 13.597 13.598 35.723 0 49.32l-1.419 1.419-49.343-49.324zm-26.926 7.001c.478-.478 1.032-.579 1.414-.579h.003c.372.001.912.098 1.392.58l64.688 64.662c.092.1.176.205.273.302.098.098.203.182.304.275l1.177 1.177c.775.781.775 2.1.021 2.858l-20.819 20.82-69.273-69.275zm-66.786-50.69c5.976 5.993 5.98 15.725.01 21.695l-20.365 20.366-20.664-20.664 31.206-31.207zm-65.677 87.384-20.664-20.664 31.179-31.18 20.664 20.665zm-34.806-34.807-20.664-20.665 31.179-31.18 20.664 20.665zm76.525-76.527-31.204 31.204-20.664-20.664 31.2-31.201zm-55.479-55.461 20.667 20.661-31.197 31.198-20.664-20.664zm-45.336 45.337 20.664 20.664-31.179 31.18-20.665-20.664zm-76.515 76.516 31.194-31.195 20.664 20.664-31.198 31.198zm55.46 55.482-20.66-20.668 31.2-31.201 20.664 20.665zm45.643 23.969c-5.969 5.969-15.701 5.965-21.683.001l-9.821-9.825 31.206-31.207 20.664 20.664zm53.84-25.557 23.492-23.493 19.593 19.61-23.476 23.477zm4.6 155.967c-6.946-8.815-14.983-16.847-23.808-23.807l24.986-24.987 23.79 23.808zm91.358-45.89c-.001.001-.002.001-.002.002s-.001.001-.002.002l-13.822 13.823c-8.646 8.628-22.716 8.628-31.354.01l-37.924-37.953c-.001-.001-.002-.002-.002-.003-8.636-8.635-8.636-22.686 0-31.322l65.319-65.32 69.272 69.275-13.579 13.579c-.097.09-.199.171-.293.265-.095.095-.177.198-.268.296zm21.211 7.073 23.481-23.482 19.579 19.596-23.473 23.474zm-5.965 95.139c-5.986-5.986-5.986-15.727 0-21.714l20.338-20.339 20.681 20.676-31.197 31.198zm23.963 23.963 31.199-31.2 20.667 20.662-31.202 31.203zm55.47 55.472-20.664-20.665 31.204-31.205 20.667 20.662zm45.349-45.35-20.667-20.662 31.187-31.188 20.661 20.667zm45.323-45.325-20.661-20.667 31.204-31.204 20.664 20.665z"/></g></g></svg>