<svg id="Capa_1" enable-background="new 0 0 512 512" height="512" viewBox="0 0 512 512" width="512" xmlns="http://www.w3.org/2000/svg"><g><g><path d="m490.435 97.737h-209.162l85.808-80.441c4.029-3.777 4.233-10.105.457-14.135-3.778-4.029-10.107-4.233-14.135-.456l-97.418 91.325-97.417-91.325c-4.027-3.778-10.357-3.572-14.135.456-3.776 4.029-3.572 10.357.457 14.135l85.807 80.441h-209.132c-11.891 0-21.565 9.661-21.565 21.536v319.487c0 11.891 9.674 21.565 21.565 21.565h7.235v15.823c0 19.769 16.07 35.852 35.823 35.852h389.331c19.753 0 35.822-16.083 35.822-35.852v-15.823h.658c11.892 0 21.565-9.674 21.565-21.565v-319.487c.001-11.875-9.673-21.536-21.564-21.536zm1.565 341.023c0 .833-.731 1.565-1.565 1.565h-176.227c-5.522 0-10 4.477-10 10s4.478 10 10 10h155.568v15.823c0 8.741-7.098 15.852-15.822 15.852h-389.331c-8.725 0-15.823-7.111-15.823-15.852v-15.823h175.58c5.522 0 10-4.477 10-10s-4.478-10-10-10h-202.815c-.849 0-1.565-.717-1.565-1.565v-319.487c0-.833.717-1.537 1.565-1.537h468.869c.834 0 1.565.718 1.565 1.537v319.487z"/><path d="m361.376 149.213h-299.871c-5.522 0-10 4.477-10 10v239.608c0 5.523 4.478 10 10 10h262.748c.026 0 .051.003.077.003.022 0 .043-.003.065-.003h36.981c5.522 0 10-4.477 10-10v-239.608c0-5.523-4.478-10-10-10zm-194.176 117.516c0-24.386 19.84-44.226 44.226-44.226s44.226 19.839 44.226 44.226-19.84 44.226-44.226 44.226-44.226-19.84-44.226-44.226zm-53.046 122.092c19.159-35.119 56.575-57.866 97.272-57.866 40.688 0 78.112 22.747 97.293 57.866zm237.222 0h-20.37c-9.61-21.755-24.882-40.396-44.52-54.188-10.922-7.67-22.802-13.544-35.295-17.526 14.883-11.773 24.46-29.972 24.46-50.378 0-35.414-28.812-64.226-64.226-64.226s-64.225 28.812-64.225 64.226c0 20.407 9.579 38.608 24.463 50.381-12.488 3.982-24.364 9.854-35.284 17.523-19.643 13.796-34.91 32.437-44.508 54.188h-20.366v-219.608h279.871z"/><path d="m431.674 338.875c-19.284 0-34.973 15.688-34.973 34.973s15.688 34.973 34.973 34.973c19.3 0 35.001-15.688 35.001-34.973s-15.701-34.973-35.001-34.973zm0 49.946c-8.256 0-14.973-6.717-14.973-14.973s6.717-14.973 14.973-14.973c8.271 0 15.001 6.717 15.001 14.973s-6.73 14.973-15.001 14.973z"/><path d="m409.025 169.241h45.297c5.522 0 10-4.477 10-10s-4.478-10-10-10h-45.297c-5.522 0-10 4.477-10 10s4.478 10 10 10z"/><path d="m409.025 215.02h45.297c5.522 0 10-4.477 10-10s-4.478-10-10-10h-45.297c-5.522 0-10 4.477-10 10s4.478 10 10 10z"/><path d="m409.025 260.798h45.297c5.522 0 10-4.477 10-10s-4.478-10-10-10h-45.297c-5.522 0-10 4.477-10 10s4.478 10 10 10z"/><path d="m269.28 440.325c-5.522 0-10 4.477-10 10s4.478 10 10 10h.057c5.522 0 9.972-4.477 9.972-10s-4.506-10-10.029-10z"/></g></g></svg>