<svg id="Capa_1" enable-background="new 0 0 512 512" height="512" viewBox="0 0 512 512" width="512" xmlns="http://www.w3.org/2000/svg"><g><g><path d="m230.843 185.856h-117.097c-10.266 0-18.617 8.356-18.617 18.626v79.71c0 10.271 8.352 18.626 18.617 18.626h117.097c10.25 0 18.589-8.356 18.589-18.626v-79.71c0-10.27-8.339-18.626-18.589-18.626zm-1.411 96.963h-114.303v-76.963h114.303z"/><path d="m325.604 192.638h-42.122c-5.522 0-10 4.477-10 10s4.478 10 10 10h42.122c5.522 0 10-4.477 10-10s-4.478-10-10-10z"/><path d="m325.604 241.105h-42.122c-5.522 0-10 4.477-10 10s4.478 10 10 10h42.122c5.522 0 10-4.477 10-10s-4.478-10-10-10z"/><path d="m325.604 289.572h-42.122c-5.522 0-10 4.477-10 10s4.478 10 10 10h42.122c5.522 0 10-4.477 10-10s-4.478-10-10-10z"/><path d="m502 240.168c-5.522 0-10 4.477-10 10v.028c0 5.523 4.478 9.986 10 9.986s10-4.491 10-10.014-4.478-10-10-10z"/><path d="m506.97 146.174c-3.111-1.782-6.938-1.763-10.03.053l-76.203 44.708h-43.011v-28.989c0-10.067-8.174-18.258-18.221-18.258h-85.241l18.038-44.02c1.342-3.255 2.382-5.265 3.097-5.985h69.526v14.915c0 10.349 8.429 18.769 18.788 18.769h64.6c24.082 0 43.675-19.596 43.675-43.683s-19.593-43.684-43.675-43.684h-64.6c-10.359 0-18.788 8.432-18.788 18.797v14.886h-69.708c-13.834 0-18.947 12.401-21.413 18.382l-21.153 51.623h-43.725v-15.851c0-19.753-16.07-35.823-35.823-35.823h-76.052c-19.753 0-35.823 16.07-35.823 35.823v18.854c-4.962 3.267-8.249 8.881-8.249 15.255v17.071h-16.475c-20.128 0-36.504 16.376-36.504 36.504v69.267c0 20.144 16.376 36.532 36.504 36.532h16.475v27.06c0 10.067 8.187 18.258 18.249 18.258h15.993v23.967c0 16.967 13.794 30.771 30.749 30.771h16.22v15.312c0 19.471 15.841 35.312 35.313 35.312h99.409c19.456 0 35.285-15.841 35.285-35.312v-15.312h8.566c16.955 0 30.749-13.804 30.749-30.771v-23.967h15.993c10.047 0 18.221-8.19 18.221-18.258v-33.728h43.011l76.203 44.708c1.562.917 3.311 1.375 5.061 1.375 1.715 0 3.43-.44 4.97-1.322 3.111-1.782 5.03-5.093 5.03-8.678v-55.618c0-5.523-4.478-10-10-10s-10 4.477-10 10v38.157l-58.547-34.35v-92.263l58.546-34.348v32.879c0 5.523 4.478 10 10 10s10-4.477 10-10v-50.34c0-3.585-1.919-6.896-5.03-8.678zm-122.045-86.174h63.388c13.055 0 23.675 10.624 23.675 23.683s-10.62 23.683-23.675 23.683h-63.388zm-287.874 52.014h76.052c8.725 0 15.823 7.098 15.823 15.823v15.851h-107.698v-15.851c0-8.725 7.098-15.823 15.823-15.823zm-60.547 189.306c-9.101 0-16.504-7.417-16.504-16.532v-69.267c0-9.1 7.403-16.504 16.504-16.504h16.475v102.303zm247.692 135.368c0 8.443-6.856 15.312-15.285 15.312h-99.409c-8.443 0-15.313-6.869-15.313-15.312v-15.312h130.007zm39.316-46.084c0 5.939-4.822 10.771-10.749 10.771h-194.793c-5.927 0-10.749-4.832-10.749-10.771v-23.967h216.291zm34.214-43.966h-284.747v-182.95h186.326c.017 0 .034.002.051.002.011 0 .022-.002.033-.002h98.337zm20-135.703h35.728v83.717h-35.728z"/></g></g></svg>