<svg id="Capa_1" enable-background="new 0 0 512 512" height="512" viewBox="0 0 512 512" width="512" xmlns="http://www.w3.org/2000/svg"><g><g><path d="m476.432 119.718h-44.298l-15.384-47.31c-1.339-4.119-5.178-6.908-9.51-6.908h-162.508c-4.333 0-8.173 2.791-9.511 6.912l-15.358 47.306h-79.563v-13.18c0-18.28-14.875-33.151-33.159-33.151h-38.436c-18.284 0-33.159 14.872-33.159 33.151v13.18h-.006c-19.597 0-35.54 15.953-35.54 35.563v255.656c0 19.609 15.943 35.563 35.54 35.563h440.893c19.612 0 35.568-15.954 35.568-35.563v-255.656c-.001-19.61-15.957-35.563-35.569-35.563zm-378.361 218.32c-5.523 0-10 4.477-10 10v23.563h-68.071v-136.952h68.071v23.479c0 5.523 4.477 10 10 10s10-4.477 10-10v-23.479h105.755c-6.44 14.871-10.019 31.261-10.019 48.474 0 34.769 14.579 66.195 37.942 88.478h-133.678v-23.563c0-5.523-4.477-10-10-10zm125.736-54.915c0-56.405 45.844-102.294 102.193-102.294 56.334 0 102.165 45.889 102.165 102.294 0 56.39-45.831 102.267-102.165 102.267-56.349 0-102.193-45.877-102.193-102.267zm224.358 0c0-17.213-3.578-33.603-10.017-48.474h53.852v136.952h-81.768c23.357-22.283 37.933-53.709 37.933-88.478zm-392.619-176.584c0-7.251 5.903-13.151 13.159-13.151h38.437c7.256 0 13.159 5.9 13.159 13.151v13.18h-64.755zm-20.006 33.179h191.59c4.333 0 8.173-2.791 9.511-6.912l15.359-47.306h147.977l15.385 47.311c1.339 4.119 5.178 6.908 9.51 6.908h51.562c8.584 0 15.568 6.981 15.568 15.563v59.369h-64.828c-21.989-32.454-59.134-53.821-101.172-53.821-42.048 0-79.202 21.367-101.195 53.821h-204.807v-59.369c0-8.582 6.971-15.564 15.54-15.564zm440.892 286.782h-440.892c-8.568 0-15.54-6.981-15.54-15.563v-19.336h249.676c16.865 8.803 36.022 13.789 56.324 13.789 20.297 0 39.45-4.986 56.311-13.789h109.689v19.336c0 8.582-6.984 15.563-15.568 15.563z"/><path d="m401.252 283.123c0-41.527-33.758-75.311-75.252-75.311s-75.252 33.784-75.252 75.311c0 41.511 33.758 75.283 75.252 75.283s75.252-33.772 75.252-75.283zm-130.504 0c0-30.499 24.786-55.311 55.252-55.311s55.252 24.813 55.252 55.311c0 30.483-24.786 55.283-55.252 55.283s-55.252-24.8-55.252-55.283z"/><path d="m291.106 132.625h69.759c5.523 0 10-4.477 10-10s-4.477-10-10-10h-69.759c-5.523 0-10 4.477-10 10s4.477 10 10 10z"/><path d="m58.528 187.184h.057c5.523 0 9.972-4.477 9.972-10s-4.505-10-10.028-10-10 4.477-10 10 4.476 10 9.999 10z"/><path d="m98.524 187.184h.057c5.523 0 9.972-4.477 9.972-10s-4.505-10-10.028-10-10 4.477-10 10 4.476 10 9.999 10z"/><path d="m138.521 187.184h.057c5.523 0 9.972-4.477 9.972-10s-4.505-10-10.028-10-10 4.477-10 10 4.476 10 9.999 10z"/><path d="m98.071 293.068c-5.523 0-10 4.477-10 10v.057c0 5.523 4.477 9.972 10 9.972s10-4.505 10-10.028-4.477-10.001-10-10.001z"/></g></g></svg>