<svg id="Capa_1" enable-background="new 0 0 512 512" height="512" viewBox="0 0 512 512" width="512" xmlns="http://www.w3.org/2000/svg"><g><g><path d="m191.843 455.265c-5.523 0-10 4.477-10 10s4.477 10 10 10h.028c5.523 0 9.986-4.477 9.986-10s-4.491-10-10.014-10z"/><path d="m490.933 344.619c-6.389-11.982-14.875-22.137-26.318-31.038v-144.717c0-44.93-17.61-87.288-49.587-119.269-31.978-31.982-74.329-49.595-119.254-49.595-44.924 0-87.276 17.613-119.253 49.595-31.978 31.981-49.588 74.339-49.588 119.269v53.709c-10.956-10.043-25.543-16.183-41.541-16.183-33.918 0-61.512 27.61-61.512 61.548v27.705c-11.249 1.775-19.88 11.535-19.88 23.276v63.529c0 13.01 10.571 23.595 23.565 23.595h16.223v64.348c0 22.943 18.664 41.608 41.604 41.608 21.291 0 38.887-16.081 41.309-36.735h20.285c5.523 0 10-4.477 10-10s-4.477-10-10-10h-19.99v-49.222h16.252c12.994 0 23.564-10.585 23.564-23.595v-63.529c0-1.774-.203-3.5-.577-5.163 9.07-4.09 19.59-7.985 31.815-11.784l58.964 54.411 10.31 35.583-15.731 63.299h-14.893c-5.523 0-10 4.477-10 10s4.477 10 10 10h95.454c.019 0 .038.002.058.002.013 0 .027-.002.04-.002h165.748c5.523 0 10-4.477 10-10 0-51.901-1.224-90.936-17.067-120.645zm-344-175.755c0-82.084 66.77-148.864 148.841-148.864s148.841 66.78 148.841 148.864v131.972c-12.897-6.813-28.421-12.884-47.15-18.595l-18.823-29.709c17.747-20.88 29.193-46.108 29.193-69.053v-39.199l.001-.941c.023-9.922-2.355-13.57-11.584-17.749-19.682-8.871-29.939-25.574-38.989-40.31-1.178-1.918-2.322-3.78-3.449-5.564-1.529-2.421-4.023-4.07-6.85-4.53-2.826-.458-5.714.314-7.932 2.126-8.653 7.07-55.774 42.879-133.874 53.604-7.6 1.038-12.077 1.75-15.722 4.315-6.012 4.233-5.798 10.568-5.669 14.354.025.734.054 1.558.057 2.455v31.439c0 22.928 11.439 48.154 29.174 69.039l-18.83 29.72c-15.975 4.879-29.393 9.958-40.751 15.426-2.02-.97-4.199-1.66-6.486-2.021v-27.705-99.074zm138.259 212.903-9.281-32.033 19.916-39.945 19.896 39.943-9.281 32.036h-21.25zm-52.049-136.624c-.275-.331-.577-.643-.899-.94-17.012-18.12-28.418-40.825-28.418-60.724v-31.471c-.001-.235-.003-.465-.006-.69 1.549-.245 3.162-.465 4.053-.586 68.349-9.386 114.092-36.315 134.77-51.059 9.285 14.935 22.113 33.591 45.194 44.061l-.001 39.745c0 19.887-11.382 42.553-28.369 60.656-.376.34-.724.703-1.038 1.088-11.643 12.12-25.793 22.089-40.68 27.616-16.22 6.028-27.727 6.02-43.969-.024-14.873-5.546-29.009-15.535-40.637-27.672zm96.82 88.321-18.839-37.821c4.367-.958 8.857-2.297 13.589-4.055 14.212-5.276 27.724-13.819 39.57-24.35l13.816 21.807zm-244.571-107.074c22.905 0 41.541 18.638 41.541 41.548v27.415h-83.053v-27.415c0-22.91 18.622-41.548 41.512-41.548zm21.604 244.002c0 11.915-9.691 21.608-21.604 21.608s-21.604-9.693-21.604-21.608v-64.348h43.208zm39.816-87.944c0 1.949-1.632 3.595-3.564 3.595h-115.683c-1.933 0-3.565-1.646-3.565-3.595v-63.529c0-1.933 1.632-3.566 3.565-3.566h115.683c1.932 0 3.564 1.633 3.564 3.566zm80.541-115.215c11.811 10.511 25.28 19.042 39.446 24.324 4.784 1.781 9.318 3.133 13.727 4.097l-18.853 37.813-48.14-44.422zm58.144 134.534h20.639l13.295 53.499h-47.23zm154.814 53.498h-50.77v-18.635c0-4.247 3.454-7.702 7.7-7.702h35.37c4.246 0 7.7 3.455 7.7 7.702zm20 0v-18.635c0-15.275-12.426-27.702-27.7-27.702h-35.37c-15.273 0-27.7 12.427-27.7 27.702v18.635h-29.502l-15.731-63.299 10.309-35.583 58.966-54.412c23.954 7.427 41.77 15.325 55.015 24.697.172.13.344.259.524.378 10.862 7.789 18.62 16.593 24.162 26.984 12.658 23.737 14.496 58.45 14.694 101.235z"/></g></g></svg>