<svg id="Capa_1" enable-background="new 0 0 512 512" height="512" viewBox="0 0 512 512" width="512" xmlns="http://www.w3.org/2000/svg"><g><g><path d="m481.166 116.462h-10.885c-1.092-8.47-8.116-15.084-16.758-15.532v-37.126c0-14.995-12.205-27.194-27.206-27.194h-6.718c-15.001 0-27.206 12.199-27.206 27.194v37.126c-9.411.489-16.923 8.285-16.923 17.828v37.901c0 6.149 3.117 11.581 7.852 14.799v230.821c0 .336.017.671.051 1.003.103 1.035.365 2.022.759 2.939l29.628 70.169c1.564 3.704 5.194 6.111 9.214 6.11 4.02 0 7.649-2.409 9.212-6.113l29.6-70.17c.393-.916.654-1.903.757-2.936.034-.333.051-.667.051-1.003v-230.821c4.734-3.218 7.852-8.65 7.852-14.799v-20.196h10.721c5.974 0 10.834 4.854 10.834 10.82v108.038c0 5.523 4.477 10 10 10s10-4.477 10-10v-108.037c-.001-16.994-13.834-30.821-30.835-30.821zm-38.573 275.816h-39.271v-217.744h39.271zm7.852-271.395v33.651h-54.975v-33.651zm-30.846-64.273h6.718c3.974 0 7.206 3.228 7.206 7.194v37.079h-21.13v-37.079c0-3.967 3.232-7.194 7.206-7.194zm3.368 390.171-14.568-34.503h29.123z"/><path d="m255.816 310.868h-92.294c-5.523 0-10 4.477-10 10s4.477 10 10 10h92.294c5.523 0 10-4.477 10-10s-4.477-10-10-10z"/><path d="m95.718 330.868h23.697c5.523 0 10-4.477 10-10s-4.477-10-10-10h-23.697c-5.523 0-10 4.477-10 10s4.477 10 10 10z"/><path d="m255.816 365.623h-160.098c-5.523 0-10 4.477-10 10s4.477 10 10 10h160.098c5.523 0 10-4.477 10-10s-4.477-10-10-10z"/><path d="m255.816 256.141h-160.098c-5.523 0-10 4.477-10 10s4.477 10 10 10h160.098c5.523 0 10-4.477 10-10s-4.477-10-10-10z"/><path d="m255.816 146.63h-160.098c-5.523 0-10 4.477-10 10s4.477 10 10 10h160.098c5.523 0 10-4.477 10-10s-4.477-10-10-10z"/><path d="m95.718 221.386h87.532c5.523 0 10-4.477 10-10s-4.477-10-10-10h-87.532c-5.523 0-10 4.477-10 10s4.477 10 10 10z"/><path d="m255.816 201.386h-28.459c-5.523 0-10 4.477-10 10s4.477 10 10 10h28.459c5.523 0 10-4.477 10-10s-4.477-10-10-10z"/><path d="m115.759 461.168c-5.523 0-10 4.477-10 10s4.477 10 10 10h.057c5.523 0 9.972-4.477 9.972-10s-4.506-10-10.029-10z"/><path d="m326.822 51.085h-76.949c-8.105-12.949-22.495-21.585-38.872-21.585h-70.468c-16.387 0-30.786 8.636-38.897 21.585h-76.925c-13.626 0-24.711 11.081-24.711 24.701v380.681c0 13.62 11.085 24.701 24.711 24.701h46.147c5.523 0 10-4.477 10-10s-4.477-10-10-10h-46.147c-2.554 0-4.711-2.153-4.711-4.701v-380.681c0-2.548 2.158-4.701 4.711-4.701h70.166c-.128 1.391-.202 2.796-.202 4.22v18.553h-41.873c-5.523 0-10 4.477-10 10v324.538c0 5.523 4.477 10 10 10h245.929c5.523 0 10-4.477 10-10v-324.538c0-5.523-4.477-10-10-10h-41.901v-18.553c0-1.423-.074-2.829-.202-4.22h70.194c2.539 0 4.683 2.153 4.683 4.701v380.681c0 2.548-2.145 4.701-4.683 4.701h-166.163c-5.523 0-10 4.477-10 10s4.477 10 10 10h166.164c13.61 0 24.683-11.081 24.683-24.701v-380.681c-.001-13.62-11.073-24.701-24.684-24.701zm-186.289-1.585h70.468c10.458 0 19.477 6.245 23.535 15.195.101.261.214.515.336.765 1.259 3.036 1.958 6.36 1.958 9.845v28.099h-122.155v-28.099c0-3.493.702-6.824 1.968-9.865.115-.236.222-.476.318-.722 4.058-8.962 13.094-15.218 23.572-15.218zm148.198 368.896h-225.929v-304.538h31.896c.239 5.311 4.607 9.546 9.977 9.546h142.155c5.37 0 9.738-4.235 9.977-9.546h31.924z"/></g></g></svg>