<svg id="Capa_1" enable-background="new 0 0 512 512" height="512" viewBox="0 0 512 512" width="512" xmlns="http://www.w3.org/2000/svg"><g><g><path d="m128.429 402.109c-16.25 1.104-29.432 14.241-30.604 30.487-1.39 19.273 13.906 35.399 32.9 35.399 18.206 0 33.017-14.789 33.017-32.968 0-18.954-16.073-34.226-35.313-32.918zm2.296 45.886c-7.357 0-13.305-6.139-12.975-13.556.297-6.676 5.845-12.173 12.524-12.4 7.382-.25 13.468 5.673 13.468 12.988 0 7.15-5.839 12.968-13.017 12.968z"/><path d="m490.854 393.859v-54.469c0-15.377-12.465-27.842-27.842-27.842h-12.484l-80.801-113.773c-.192-.27-.397-.531-.615-.781-.654-.751-1.251-1.442-1.801-2.079-7.03-8.137-10.051-10.951-21.638-10.951h-140.574v-10.532c0-16.851-13.718-30.561-30.579-30.561h-22.91v-25.36c8.392 3.337 17.224 4.982 26.019 4.982 21.581 0 42.902-9.838 56.717-28.441.57-.768 1.059-1.606 1.374-2.51 1.535-4.405-.043-8.941-3.454-11.471l-40.559-30.088 11.685-15.733c2.989-4.024 2.807-9.741-.75-13.273-4.431-4.4-11.533-3.73-15.117 1.095l-11.88 15.996-40.578-30.099c-4.434-3.29-10.692-2.364-13.985 2.067-11.23 15.114-15.898 33.693-13.144 52.315 2.499 16.893 10.85 31.975 23.671 43.013v37.508h-22.881c-16.861 0-30.579 13.709-30.579 30.561v10.532h-37.422c-10.813 0-19.609 8.78-19.609 19.572v54.12c0 5.013 3.555 9.492 8.517 10.205 6.182.888 11.483-3.883 11.483-9.893v-54.004h46.471c.187.01.371.028.561.028s.374-.018.561-.028h105.827c.187.01.371.028.561.028s.374-.018.561-.028h34.651v105.405c0 12.248 9.929 22.178 22.178 22.178h192.876 17.631c4.322 0 7.858 3.536 7.858 7.858v12.47h-17.184c-5.013 0-9.492 3.555-10.205 8.517-.888 6.182 3.883 11.483 9.893 11.483h17.496v20.328h-44.371c-12.987-17.105-33.536-28.178-56.632-28.178-23.086 0-43.628 11.073-56.609 28.178h-125.885c-12.987-17.105-33.536-28.178-56.632-28.178-23.086 0-43.628 11.073-56.609 28.178h-32.998v-44.204c0-5.013-3.555-9.492-8.517-10.205-6.182-.888-11.483 3.883-11.483 9.893v46.175c-12.266 4.176-21.118 15.803-21.118 29.468 0 17.148 13.959 31.099 31.118 31.099h31.299c8.47 29.729 35.875 51.57 68.308 51.57 32.446 0 59.862-21.842 68.336-51.571h102.482c8.471 29.73 35.876 51.571 68.309 51.571 32.445 0 59.861-21.842 68.335-51.571h42.667c17.174 0 31.146-13.951 31.146-31.099 0-13.667-8.864-25.297-21.146-29.471zm-358.888-363.288 79.545 59.008c-17.501 15.737-44.313 17.542-63.94 2.985-10.827-8.039-17.875-19.808-19.848-33.14-1.475-9.976.025-19.936 4.243-28.853zm215.899 173.423c.488.017.951.217 1.286.572.796.844 1.923 2.149 3.025 3.424.474.549.983 1.138 1.531 1.769l72.29 101.789h-125.203v-107.583h44.878c.899 0 1.631.01 2.193.029zm-249.715-30.561c0-5.823 4.746-10.561 10.579-10.561h65.791c5.833 0 10.579 4.737 10.579 10.561v10.532h-86.949zm152.161 135.926v-105.394h30.484v107.583h-28.295c-1.204 0-2.189-.985-2.189-2.189zm52.298 102.845c-2.38 6.988-3.706 14.457-3.771 22.226h-97.071c-.065-7.768-1.391-15.237-3.773-22.226zm-282.451 9.231c.901-5.402 5.799-9.232 11.276-9.232h32.049c-2.38 6.988-3.706 14.457-3.771 22.226h-28.594c-6.753 0-12.119-6.041-10.96-12.994zm110.567 64.565c-25.488 0-46.671-18.764-50.434-43.19-.004-.022-.006-.044-.01-.065-.385-2.518-.585-5.095-.585-7.719 0-28.122 22.892-51.001 51.029-51.001 28.153 0 51.057 22.879 51.057 51.001 0 2.634-.201 5.223-.589 7.75 0 .001 0 .003-.001.004-3.752 24.441-24.954 43.22-50.467 43.22zm239.127 0c-28.137 0-51.029-22.867-51.029-50.974 0-28.122 22.892-51.001 51.029-51.001 28.153 0 51.057 22.879 51.057 51.001 0 2.634-.201 5.223-.589 7.75 0 .001 0 .003-.001.004-3.752 24.441-24.955 43.22-50.467 43.22zm111.002-51.571h-39.961c-.065-7.768-1.391-15.237-3.773-22.226h43.734c6.146 0 11.146 4.992 11.146 11.127 0 6.12-5 11.099-11.146 11.099z"/><path d="m369.852 402.031c-18.206 0-33.017 14.802-33.017 32.996 0 18.179 14.812 32.968 33.017 32.968s33.017-14.789 33.017-32.968c-.001-18.194-14.812-32.996-33.017-32.996zm0 45.964c-7.178 0-13.017-5.817-13.017-12.968 0-7.166 5.839-12.996 13.017-12.996 7.177 0 13.017 5.83 13.017 12.996-.001 7.15-5.84 12.968-13.017 12.968z"/><path d="m179.633 320.446c12.123 0 21.951-9.828 21.951-21.951v-49.532c0-12.123-9.828-21.951-21.951-21.951h-88.592c-12.129 0-21.962 9.833-21.962 21.962v49.521c0 12.123 9.828 21.951 21.951 21.951zm-90.554-21.962v-49.521c0-1.073.878-1.951 1.951-1.951h88.592c1.079 0 1.962.883 1.962 1.962v49.511c0 1.079-.883 1.962-1.962 1.962h-88.581c-1.079-.001-1.962-.884-1.962-1.963z"/><path d="m27.582 312.246c7.159 2.484 13.808-2.971 13.527-9.837-.212-5.172-4.548-9.441-9.723-9.577-5.646-.148-10.269 4.384-10.269 9.996v.057c.001 4.16 2.535 7.997 6.465 9.361z"/></g></g></svg>