<svg id="Capa_1" enable-background="new 0 0 512.003 512.003" height="512" viewBox="0 0 512.003 512.003" width="512" xmlns="http://www.w3.org/2000/svg"><g><g><path d="m144.962 268.631c0 32.147 13.726 61.142 35.617 81.444.487.552 1.036 1.059 1.653 1.503 19.629 17.489 45.478 28.135 73.769 28.135 28.292 0 54.142-10.646 73.771-28.136.616-.443 1.164-.949 1.65-1.5 21.892-20.302 35.619-49.299 35.619-81.446 0-61.266-49.812-111.11-111.039-111.11-61.228 0-111.04 49.843-111.04 111.11zm56.445 72.841c12.869-16.941 33.104-27.182 54.594-27.182s41.725 10.241 54.594 27.182c-15.221 11.448-34.129 18.24-54.594 18.24s-39.373-6.792-54.594-18.24zm25.136-76.668c0-16.258 13.215-29.486 29.458-29.486s29.458 13.228 29.458 29.486-13.215 29.486-29.458 29.486-29.458-13.228-29.458-29.486zm120.497 3.827c0 22.529-8.222 43.169-21.816 59.087-9.45-11.838-21.74-21.003-35.55-26.715 9.701-9.041 15.785-21.919 15.785-36.199 0-27.287-22.187-49.486-49.458-49.486s-49.458 22.199-49.458 49.486c0 14.28 6.083 27.158 15.785 36.199-13.81 5.712-26.099 14.876-35.55 26.715-13.594-15.917-21.816-36.558-21.816-59.087 0-50.238 40.84-91.11 91.039-91.11s91.039 40.871 91.039 91.11z"/><path d="m175.81 425.009h35.266c5.523 0 10-4.477 10-10s-4.477-10-10-10h-35.266c-5.523 0-10 4.477-10 10s4.477 10 10 10z"/><path d="m336.192 405.009h-35.351c-5.522 0-10 4.477-10 10s4.478 10 10 10h35.351c5.522 0 10-4.477 10-10s-4.478-10-10-10z"/><path d="m336.192 450.362h-160.382c-5.523 0-10 4.477-10 10s4.477 10 10 10h160.381c5.522 0 10-4.477 10-10s-4.477-10-9.999-10z"/><path d="m464.821 6.378c-2.002-5.148-7.797-7.695-12.945-5.695l-153.914 59.858c-5.406-13.595-18.68-23.235-34.171-23.235h-15.58c-15.491 0-28.766 9.64-34.172 23.235l-153.913-59.858c-5.148-2.002-10.942.548-12.944 5.695s.548 10.943 5.695 12.944l115.265 44.828h-45.188c-20.477 0-37.136 16.668-37.136 37.155v373.514c0 20.503 16.659 37.184 37.136 37.184h266.094c20.478 0 37.137-16.681 37.137-37.184v-373.514c0-20.487-16.659-37.155-37.137-37.155h-45.187l115.265-44.827c5.147-2.002 7.697-7.798 5.695-12.945zm-233.378 67.715c0-9.256 7.522-16.787 16.768-16.787h15.58c9.246 0 16.768 7.531 16.768 16.787v41.363h-49.115v-41.363zm174.742 27.212v373.514c0 9.475-7.688 17.184-17.137 17.184h-266.094c-9.449 0-17.136-7.708-17.136-17.184v-373.514c0-9.459 7.688-17.155 17.136-17.155h88.49v31.306h-5.438c-5.523 0-10 4.477-10 10s4.477 10 10 10h15.438 69.115 15.438c5.522 0 10-4.477 10-10s-4.478-10-10-10h-5.438v-31.306h88.489c9.449 0 17.137 7.695 17.137 17.155z"/><path d="m256.001 425.009c5.522 0 9.972-4.477 9.972-10s-4.506-10-10.028-10c-5.523 0-10 4.477-10 10s4.477 10 10 10z"/></g></g></svg>