<svg id="Capa_1" enable-background="new 0 0 512 512" height="512" viewBox="0 0 512 512" width="512" xmlns="http://www.w3.org/2000/svg"><g><g><path d="m320.248 220.823h-9.261c-19.095 0-34.63 15.528-34.63 34.614v48.103c0 19.086 15.535 34.614 34.63 34.614h9.261c19.079 0 34.602-15.528 34.602-34.614v-48.103c-.001-19.086-15.523-34.614-34.602-34.614zm14.601 82.717c0 8.058-6.55 14.614-14.602 14.614h-9.261c-8.067 0-14.63-6.556-14.63-14.614v-48.103c0-8.058 6.563-14.614 14.63-14.614h9.261c8.052 0 14.602 6.556 14.602 14.614z"/><path d="m502 86.332c5.522 0 10-4.477 10-10s-4.478-10-10-10h-187.628v-9.832c0-5.523-4.478-10-10-10s-10 4.477-10 10v9.832h-187.599c-5.522 0-10 4.477-10 10s4.478 10 10 10h187.599v30.128h-23.299c-12.079 0-21.906 9.824-21.906 21.899v23.355l-54.005 48.87h-97.143l-10.423-44.062c-1.067-4.511-5.096-7.698-9.731-7.698h-67.865c-3.133 0-6.085 1.468-7.975 3.966-1.891 2.499-2.5 5.738-1.648 8.753l29.387 103.998c1.086 3.844 4.355 6.673 8.316 7.195l151.273 19.944c.194 2.986.469 6.016.834 8.541 5.574 38.438 30.276 70.399 63.511 86.726v47.553h-102.254c-5.522 0-10 4.477-10 10s4.478 10 10 10h297.862c14.279 0 23.165-4.3 36.568-17.695 3.906-3.904 3.908-10.236.004-14.142-3.905-3.906-10.237-3.909-14.143-.004-10.776 10.771-14.91 11.842-22.43 11.842h-36.585v-37.441c54.309-9.139 95.816-56.46 95.816-113.295 0-29.197-11.059-57.054-31.132-78.429-21.942-23.421-50.885-36.031-83.7-36.468-.044 0-.089-.001-.133-.001h-8.945l-29.03-21.721c-.106-.079-.218-.149-.326-.224v-19.562c0-12.075-9.827-21.899-21.906-21.899h-18.993v-30.129zm-338.741 144.252v48.483l-34.805-4.589v-43.894zm-140.041-51.76h46.737l10.423 44.062c1.067 4.511 5.096 7.698 9.731 7.698h18.345v41.257l-61.234-8.073zm250.48 266.676v-39.949c9.685 2.678 19.836 4.11 30.252 4.11h88.771v35.839zm98.507-249.95 2.51 13.152c.914 4.792 5.106 8.127 9.812 8.127.621 0 1.252-.059 1.886-.179 5.425-1.036 8.983-6.272 7.947-11.697l-.971-5.088h.117c27.221.378 51.183 10.801 69.312 30.152 16.586 17.661 25.72 40.655 25.72 64.746 0 8.069-1.016 15.906-2.922 23.391h-50.665c-14.072 0-21.601-13.236-23.953-25.622-1.029-5.425-6.251-8.987-11.69-7.958-5.426 1.03-8.988 6.264-7.958 11.69 4.833 25.448 21.947 41.891 43.602 41.891h43.063c-15.791 30.563-47.713 51.507-84.441 51.507h-89.624c-46.85 0-87.248-34.956-93.97-81.309-.573-3.963-.918-10.383-.996-14.67-.089-4.948-3.784-9.086-8.691-9.733l-17.034-2.246v-51.119h15.756c2.479 0 4.871-.921 6.71-2.585l57.295-51.847h82.252 1.008zm-36.934-57.191v17.792h-66.104v-17.792c0-1.03.873-1.899 1.906-1.899h62.292c1.033 0 1.906.87 1.906 1.899z"/><path d="m392.842 260.627c5.522 0 10-4.477 10-10v-.056c0-5.523-4.478-9.972-10-9.972s-10 4.505-10 10.028 4.477 10 10 10z"/></g></g></svg>