<svg id="Capa_1" enable-background="new 0 0 512 512" height="512" viewBox="0 0 512 512" width="512" xmlns="http://www.w3.org/2000/svg"><g><g><path d="m331.664 405.21-42.137-35.204c-13.214-11.037-31.746-10.775-43.092.601l-11.244 11.233c-2.262 2.259-4.304 4.365-6.105 6.222-.322.332-.651.671-.983 1.013-.043.041-.089.076-.131.119-.073.073-.134.152-.204.226-3.624 3.723-7.647 7.746-9.279 8.283-3.775-.603-16.441-13.257-21.234-18.045l-58.297-58.269c-4.789-4.78-17.436-17.403-18.07-21.192.621-1.834 5.602-6.654 9.618-10.541 1.863-1.803 3.975-3.846 6.24-6.11l11.244-11.233c11.368-11.357 11.631-29.883.601-43.107l-35.235-42.094c-21.989-26.277-41.251-29.345-53.549-27.294-15.013 2.507-27.74 13.82-35.306 31.229-.055.127-.112.252-.162.381-.39.911-.771 1.835-1.132 2.779-26.026 67.92-21.68 117.919 13.287 152.852l135.096 134.965c.001 0 .002.001.002.002 20.033 19.999 44.993 29.974 75.422 29.974 22.726 0 48.503-5.565 77.551-16.675 19.223-7.351 31.771-20.692 34.425-36.601 2.05-12.289-1.026-31.549-27.326-53.514zm-268.562-225.665c10.085-1.69 22.494 5.559 34.917 20.403l35.225 42.082c3.786 4.539 5.212 11.538.612 16.134l-11.243 11.233c-.068.068-.134.133-.202.201l-76.529-76.455c4.62-7.599 10.728-12.514 17.22-13.598zm122.621 288.327.002.003-135.096-134.966c-27.25-27.224-31.471-65.477-13.012-119.751l70.652 70.584c-4.502 5.096-7.345 9.983-7.394 16.245-.081 10.42 7.61 19.246 23.948 35.553l58.294 58.266c16.244 16.228 25.07 23.91 35.416 23.91.055 0 .11 0 .166-.001 6.265-.05 11.16-2.895 16.267-7.398l70.654 70.586c-54.31 18.436-92.611 14.209-119.897-13.031zm153.539-12.44c-1.083 6.49-6.001 12.596-13.608 17.214l-76.528-76.455c.068-.068.133-.134.201-.202l11.256-11.245c4.592-4.603 11.588-3.176 16.123.612l42.137 35.204c14.85 12.403 22.102 24.788 20.419 34.872z"/><path d="m462.876 0h-212.837c-23.504 0-42.624 19.107-42.624 42.593v50.208c0 5.523 4.478 10 10 10 5.523 0 10-4.477 10-10v-50.208c0-12.457 10.149-22.592 22.624-22.592h212.837c12.475 0 22.624 10.135 22.624 22.592v227.383c0 12.457-10.149 22.592-22.624 22.592h-197.051c-1.227 0-2.443.226-3.588.666l-47.17 18.131 12.124-56.334c.148-.691.224-1.397.224-2.104v-70.235c0-5.523-4.478-10-10-10s-10 4.477-10 10v69.171l-15.79 73.365c-.772 3.589.484 7.314 3.275 9.701 1.842 1.577 4.156 2.403 6.503 2.403 1.207 0 2.423-.218 3.587-.666l62.691-24.098h195.195c23.503 0 42.624-19.107 42.624-42.593v-227.382c0-23.486-19.121-42.593-42.624-42.593z"/><path d="m356.458 176.468c19.51 0 35.384-15.862 35.384-35.359v-63.229c0-19.497-15.874-35.359-35.384-35.359-19.511 0-35.385 15.862-35.385 35.359v63.228c0 19.498 15.874 35.36 35.385 35.36zm-15.385-98.588c0-8.469 6.902-15.359 15.384-15.359s15.383 6.89 15.383 15.359v63.228c0 8.469-6.901 15.359-15.383 15.359s-15.384-6.89-15.384-15.359z"/><path d="m356.458 270.048c19.51 0 35.384-15.862 35.384-35.359 0-19.498-15.874-35.36-35.384-35.36-19.511 0-35.385 15.862-35.385 35.36 0 19.497 15.874 35.359 35.385 35.359zm0-50.719c8.483 0 15.383 6.89 15.383 15.359s-6.901 15.359-15.383 15.359-15.384-6.89-15.384-15.359 6.901-15.359 15.384-15.359z"/><path d="m217.415 147.762c5.523 0 10-4.506 10-10.029s-4.478-10-10-10-10 4.477-10 10v.057c-.001 5.523 4.477 9.972 10 9.972z"/></g></g></svg>