<svg id="Capa_1" enable-background="new 0 0 512 512" height="512" viewBox="0 0 512 512" width="512" xmlns="http://www.w3.org/2000/svg"><g><g><path d="m468.758 442.423h-2.09v-347.13c0-17.002-13.809-30.834-30.783-30.834h-16.22v-22.23c0-23.285-18.928-42.229-42.194-42.229h-242.942c-23.266 0-42.194 18.944-42.194 42.229v22.229h-16.22c-16.99 0-30.812 13.833-30.812 30.834v347.13h-2.062c-12.54 0-22.742 9.089-22.742 20.261v29.055c.001 11.173 10.203 20.262 22.743 20.262h167.907c5.523 0 10-4.477 10-10s-4.477-10-10-10h-167.907c-1.394 0-2.345-.495-2.742-.818v-27.948c.369-.301 1.274-.811 2.742-.811h425.517c1.394 0 2.345.495 2.742.818v27.941c-.396.323-1.348.818-2.742.818h-167.908c-5.523 0-10 4.477-10 10s4.477 10 10 10h167.907c12.54 0 22.742-9.089 22.742-20.261v-29.055c0-11.172-10.202-20.261-22.742-20.261zm-239.199-89.784h52.883v89.784h-52.883zm72.882 39.911h144.227v49.873h-144.227zm-190.106-350.321c0-12.257 9.956-22.229 22.194-22.229h242.942c12.238 0 22.194 9.972 22.194 22.229v22.229h-287.33zm-36.22 42.229h359.77c5.946 0 10.783 4.86 10.783 10.834v277.258h-144.227v-22.484c0-9.609-7.827-17.427-17.447-17.427h-58.018c-9.604 0-17.418 7.818-17.418 17.427v22.484h-144.254v-277.257c0-5.974 4.85-10.835 10.811-10.835zm-10.811 308.092h144.255v49.873h-144.255z"/><path d="m114.312 196.51h60.028c5.523 0 10-4.477 10-10v-60.093c0-5.523-4.477-10-10-10h-60.028c-5.523 0-10 4.477-10 10v60.093c0 5.523 4.477 10 10 10zm10-60.093h40.028v40.093h-40.028z"/><path d="m225.986 196.51h60.027c5.523 0 10-4.477 10-10v-60.093c0-5.523-4.477-10-10-10h-60.027c-5.523 0-10 4.477-10 10v60.093c0 5.523 4.477 10 10 10zm10-60.093h40.027v40.093h-40.027z"/><path d="m337.66 196.51h60.028c5.523 0 10-4.477 10-10v-60.093c0-5.523-4.477-10-10-10h-60.028c-5.523 0-10 4.477-10 10v60.093c0 5.523 4.477 10 10 10zm10-60.093h40.028v40.093h-40.028z"/><path d="m114.312 302.41h60.028c5.523 0 10-4.477 10-10v-60.093c0-5.523-4.477-10-10-10h-60.028c-5.523 0-10 4.477-10 10v60.093c0 5.523 4.477 10 10 10zm10-60.093h40.028v40.093h-40.028z"/><path d="m225.986 302.41h60.027c5.523 0 10-4.477 10-10v-60.093c0-5.523-4.477-10-10-10h-60.027c-5.523 0-10 4.477-10 10v60.093c0 5.523 4.477 10 10 10zm10-60.093h40.027v40.093h-40.027z"/><path d="m337.66 302.41h60.028c5.523 0 10-4.477 10-10v-60.093c0-5.523-4.477-10-10-10h-60.028c-5.523 0-10 4.477-10 10v60.093c0 5.523 4.477 10 10 10zm10-60.093h40.028v40.093h-40.028z"/><path d="m256 492c-5.523 0-10 4.477-10 10s4.477 10 10 10h.057c5.523 0 9.972-4.477 9.972-10s-4.506-10-10.029-10z"/></g></g></svg>