<svg id="Capa_1" enable-background="new 0 0 512 512" height="512" viewBox="0 0 512 512" width="512" xmlns="http://www.w3.org/2000/svg"><g><g><path d="m457.017 110.734h-126.798v-24.012c0-14.735-11.986-26.722-26.719-26.722h-189.544c-14.733 0-26.719 11.987-26.719 26.722v24.012h-32.225c-30.334 0-55.012 24.681-55.012 55.017v231.259c0 30.322 24.678 54.99 55.012 54.99h172.17c5.523 0 10-4.477 10-10s-4.477-10-10-10h-172.17c-19.306 0-35.012-15.696-35.012-34.989v-11.129h219.238c37.358 0 67.75-30.383 67.75-67.729v-73.543c0-37.362-30.393-67.758-67.75-67.758h-219.238v-11.101c0-19.309 15.706-35.018 35.012-35.018h402.005c19.29 0 34.983 15.709 34.983 35.018v231.259c0 19.294-15.693 34.99-34.983 34.99h-140.039c-5.523 0-10 4.477-10 10s4.477 10 10 10h140.039c30.317 0 54.983-24.668 54.983-54.989v-231.26c0-30.336-24.666-55.017-54.983-55.017zm-217.779 86.119c26.33 0 47.75 21.424 47.75 47.758v73.542c0 26.318-21.421 47.729-47.75 47.729h-219.238v-169.029zm70.981-110.131v24.012h-91.491v-30.734h84.772c3.705 0 6.719 3.015 6.719 6.722zm-111.491 24.012h-35.76v-30.734h35.76zm-91.491-24.012c0-3.707 3.014-6.722 6.719-6.722h29.012v30.734h-35.731z"/><path d="m365.288 238.002h53.371c16.865 0 30.586-13.709 30.586-30.561 0-16.867-13.721-30.589-30.586-30.589h-53.371c-16.85 0-30.558 13.722-30.558 30.589-.001 16.852 13.708 30.561 30.558 30.561zm0-41.149h53.371c5.837 0 10.586 4.75 10.586 10.589 0 5.823-4.749 10.561-10.586 10.561h-53.371c-5.822 0-10.558-4.737-10.558-10.561-.001-5.74 4.834-10.589 10.558-10.589z"/><path d="m365.288 326.645h53.371c16.865 0 30.586-13.722 30.586-30.589 0-16.851-13.721-30.561-30.586-30.561h-53.371c-16.85 0-30.558 13.709-30.558 30.561-.001 16.866 13.708 30.589 30.558 30.589zm0-41.15h53.371c5.738 0 10.586 4.836 10.586 10.561 0 5.839-4.749 10.589-10.586 10.589h-53.371c-5.723 0-10.558-4.849-10.558-10.589-.001-5.725 4.834-10.561 10.558-10.561z"/><path d="m344.729 385.881h94.516c5.523 0 10-4.477 10-10s-4.477-10-10-10h-94.516c-5.523 0-10 4.477-10 10s4.478 10 10 10z"/><path d="m272.08 432c-5.523 0-10 4.477-10 10s4.477 10 10 10h.057c5.523 0 9.971-4.477 9.971-10s-4.505-10-10.028-10z"/><path d="m78.47 241.358h.028c5.523 0 9.986-4.477 9.986-10s-4.491-10-10.014-10-10 4.477-10 10 4.477 10 10 10z"/><path d="m128.458 241.358h.057c5.523 0 9.971-4.477 9.971-10s-4.505-10-10.028-10-10 4.477-10 10 4.477 10 10 10z"/><path d="m178.474 241.358h.028c5.523 0 9.986-4.477 9.986-10s-4.491-10-10.014-10-10 4.477-10 10 4.477 10 10 10z"/><path d="m228.461 241.358h.057c5.523 0 9.972-4.477 9.972-10s-4.505-10-10.028-10-10 4.477-10 10 4.476 10 9.999 10z"/><path d="m78.47 291.381h.028c5.523 0 9.986-4.477 9.986-10s-4.491-10-10.014-10-10 4.477-10 10 4.477 10 10 10z"/><path d="m128.458 291.381h.057c5.523 0 9.971-4.477 9.971-10s-4.505-10-10.028-10-10 4.477-10 10 4.477 10 10 10z"/><path d="m178.474 291.381h.028c5.523 0 9.986-4.477 9.986-10s-4.491-10-10.014-10-10 4.477-10 10 4.477 10 10 10z"/><path d="m228.461 291.381h.057c5.523 0 9.972-4.477 9.972-10s-4.505-10-10.028-10-10 4.477-10 10 4.476 10 9.999 10z"/><path d="m78.47 321.375c-5.523 0-10 4.477-10 10s4.477 10 10 10h.028c5.523 0 9.986-4.477 9.986-10s-4.491-10-10.014-10z"/><path d="m128.458 341.375h.057c5.523 0 9.971-4.477 9.971-10s-4.505-10-10.028-10-10 4.477-10 10 4.477 10 10 10z"/><path d="m178.474 341.375h.028c5.523 0 9.986-4.477 9.986-10s-4.491-10-10.014-10-10 4.477-10 10 4.477 10 10 10z"/><path d="m228.461 341.375h.057c5.523 0 9.972-4.477 9.972-10s-4.505-10-10.028-10-10 4.477-10 10 4.476 10 9.999 10z"/></g></g></svg>