<svg id="Capa_1" enable-background="new 0 0 512 512" height="512" viewBox="0 0 512 512" width="512" xmlns="http://www.w3.org/2000/svg"><g><g><path d="m461.98 204.084v-163.159c0-22.566-18.361-40.925-40.929-40.925h-302.801c-22.584 0-40.958 18.359-40.958 40.925v12.733h-13.757c-20.145.001-36.535 16.389-36.535 36.532 0 20.128 16.39 36.503 36.535 36.503h13.757v37.486h-13.757c-20.145.001-36.535 16.389-36.535 36.532s16.39 36.532 36.535 36.532h13.757v37.485h-13.757c-20.145.001-36.535 16.389-36.535 36.532s16.39 36.532 36.535 36.532h13.757v37.486h-13.757c-20.145 0-36.535 16.388-36.535 36.532s16.39 36.532 36.535 36.532h13.757v12.705c0 22.582 18.374 40.954 40.958 40.954h302.801c22.568 0 40.93-18.372 40.93-40.954v-163.13c13.333-4.246 23.02-16.744 23.02-31.465v-40.903c-.001-14.721-9.688-27.219-23.021-31.465zm-414.98-113.894c0-9.116 7.418-16.532 16.535-16.532h38.896c9.117 0 16.535 7.416 16.535 16.532 0 9.1-7.418 16.503-16.535 16.503h-38.896c-9.117.001-16.535-7.402-16.535-16.503zm0 110.521c0-9.116 7.418-16.532 16.535-16.532h38.896c9.117 0 16.535 7.416 16.535 16.532s-7.418 16.532-16.535 16.532h-38.896c-9.117 0-16.535-7.416-16.535-16.532zm0 110.549c0-9.116 7.418-16.532 16.535-16.532h38.896c9.117 0 16.535 7.416 16.535 16.532s-7.418 16.532-16.535 16.532h-38.896c-9.117 0-16.535-7.416-16.535-16.532zm0 110.55c0-9.116 7.418-16.532 16.535-16.532h38.896c9.117 0 16.535 7.416 16.535 16.532s-7.418 16.532-16.535 16.532h-38.896c-9.117-.001-16.535-7.417-16.535-16.532zm374.051 70.19h-237.237v-231.904c0-5.523-4.478-10-10-10s-10 4.477-10 10v231.904h-45.564c-11.557 0-20.958-9.4-20.958-20.954v-12.705h5.139c20.146 0 36.535-16.388 36.535-36.532s-16.39-36.532-36.535-36.532h-5.139v-37.486h5.139c20.146 0 36.535-16.388 36.535-36.532s-16.39-36.532-36.535-36.532h-5.139v-37.485h5.139c20.146 0 36.535-16.388 36.535-36.532s-16.39-36.532-36.535-36.532h-5.139v-37.486h5.139c20.146 0 36.535-16.375 36.535-36.503 0-20.144-16.39-36.532-36.535-36.532h-5.139v-12.732c0-11.538 9.401-20.925 20.958-20.925h45.564v150.268c0 5.523 4.478 10 10 10s10-4.477 10-10v-150.268h237.236c11.541 0 20.93 9.387 20.93 20.925v161.606h-54.212c-29.478 0-53.46 23.979-53.46 53.454 0 29.49 23.982 53.482 53.46 53.482h54.212v161.578c0 11.555-9.388 20.955-20.929 20.955zm43.949-215.548c0 7.177-5.841 13.017-13.02 13.017h-64.212c-18.45 0-33.46-15.02-33.46-33.482 0-18.447 15.01-33.454 33.46-33.454h64.212c7.179 0 13.02 5.839 13.02 13.017z"/><path d="m380.908 155.664c15.236 0 27.633-12.396 27.633-27.631v-51.76c0-15.236-12.396-27.631-27.633-27.631h-136.021c-15.221 0-27.604 12.396-27.604 27.631v51.759c0 15.236 12.384 27.631 27.604 27.631h136.021zm-143.626-27.632v-51.759c0-4.137 3.482-7.631 7.604-7.631h136.021c4.138 0 7.633 3.495 7.633 7.631v51.759c0 4.137-3.495 7.631-7.633 7.631h-136.02c-4.122.001-7.605-3.494-7.605-7.631z"/><path d="m389.895 335.134h-153.995c-5.522 0-10 4.477-10 10s4.478 10 10 10h153.994c5.522 0 10-4.477 10-10s-4.477-10-9.999-10z"/><path d="m389.895 385.136h-153.995c-5.522 0-10 4.477-10 10s4.478 10 10 10h153.994c5.522 0 10-4.477 10-10s-4.477-10-9.999-10z"/><path d="m389.895 435.138h-153.995c-5.522 0-10 4.477-10 10s4.478 10 10 10h153.994c5.522 0 10-4.477 10-10s-4.477-10-9.999-10z"/><path d="m317.858 112.152h35.012c5.522 0 10-4.477 10-10s-4.478-10-10-10h-35.012c-5.522 0-10 4.477-10 10s4.478 10 10 10z"/><path d="m272.953 112.152h.057c5.522 0 9.972-4.477 9.972-10s-4.506-10-10.028-10-10 4.477-10 10 4.477 10 9.999 10z"/><path d="m173.814 205.167c-5.522 0-10 4.477-10 10v.057c0 5.523 4.478 9.971 10 9.971s10-4.505 10-10.028-4.477-10-10-10z"/><path d="m394.913 245.986c-5.522 0-10 4.477-10 10s4.478 10 10 10h.057c5.522 0 9.972-4.477 9.972-10s-4.506-10-10.029-10z"/></g></g></svg>