<svg id="Capa_1" enable-background="new 0 0 512 512" height="512" viewBox="0 0 512 512" width="512" xmlns="http://www.w3.org/2000/svg"><g><g><path d="m502 98.959h-35.382v-10.459c0-5.523-4.478-10-10-10s-10 4.477-10 10v10.459h-35.354c-5.522 0-10 4.477-10 10s4.478 10 10 10h35.354v43.928h-20.557c-5.522 0-10 4.477-10 10v20.405h-48.028l1.598-8.233c1.796-9.207-.713-18.522-7.063-26.23-5.522-6.704-13.495-11.555-22.09-13.73v-14.264c0-18.186-14.786-32.981-32.96-32.981h-6.661c-5.522 0-10 4.477-10 10s4.478 10 10 10h6.661c7.146 0 12.96 5.823 12.96 12.981v12.981h-128.985v-12.981c0-7.158 5.826-12.981 12.988-12.981h6.548c5.522 0 10-4.477 10-10s-4.478-10-10-10h-6.548c-18.189 0-32.988 14.795-32.988 32.981v14.267c-8.574 2.175-16.532 7.017-22.053 13.706-6.36 7.708-8.884 17.024-7.103 26.245l1.601 8.24h-48.028v-20.405c0-5.523-4.478-10-10-10h-20.556v-43.928h35.382c5.522 0 10-4.477 10-10s-4.478-10-10-10h-35.382v-10.46c0-5.523-4.478-10-10-10s-10 4.477-10 10v10.459h-35.354c-5.522 0-10 4.477-10 10s4.478 10 10 10h35.354v43.928h-20.557c-5.522 0-10 4.477-10 10v75.886c0 22.358 18.193 40.547 40.557 40.547 18.862 0 34.757-12.94 39.272-30.406h62.067l4.505 23.182-52.793 52.777c-1.876 1.875-2.93 4.419-2.93 7.072v62.001c0 16.295 13.26 29.553 29.559 29.553h6.52c16.299 0 29.559-13.257 29.559-29.553v-38.956l30.685-30.675c.477.018.955.034 1.437.034h105.531c.481 0 .958-.016 1.435-.034l30.659 30.673v38.96c0 16.295 13.26 29.553 29.559 29.553h6.52c16.299 0 29.559-13.257 29.559-29.553v-62.001c0-2.653-1.054-5.197-2.93-7.072l-52.772-52.756 4.503-23.202h62.049c4.515 17.466 20.41 30.406 39.272 30.406 22.363 0 40.557-18.189 40.557-40.547v-75.886c0-5.523-4.478-10-10-10h-20.557v-43.928h35.38c5.522 0 10-4.477 10-10s-4.478-10.003-10-10.003zm-85.938 114.334v25.623h-56.883l4.973-25.623zm-85.824 69.765c-.072.296-.129.594-.174.895l-1.777 9.154c-2.002 10.27-8.183 21.243-19.522 21.243h-105.531c-11.368 0-17.537-10.964-19.521-21.236l-6.646-34.197h39.943c5.522 0 10-4.477 10-10v-18.844c0-2.336 1.989-4.311 4.344-4.311h49.293c2.339 0 4.315 1.974 4.315 4.311v18.844c0 5.523 4.478 10 10 10h39.962zm-165.372-111.519c3.871-4.691 10.397-7.722 16.627-7.722h148.985c6.249 0 12.786 3.034 16.653 7.729 2.553 3.099 3.519 6.357 2.868 9.694l-3.881 19.998c-.007.033-.013.067-.02.1l-7.293 37.577h-33.844v-8.844c0-13.405-10.908-24.311-24.315-24.311h-49.293c-13.423 0-24.344 10.906-24.344 24.311v8.844h-33.83l-11.207-57.667c-.802-4.154 1.131-7.573 2.894-9.709zm-109.512 97.782c-11.335 0-20.557-9.217-20.557-20.547v-65.886h41.113v65.886c0 11.33-9.222 20.547-20.556 20.547zm40.556-30.405v-25.623h51.916l4.98 25.623zm58.132 114.858c-1.876 1.875-2.93 4.419-2.93 7.072v43.101c0 5.268-4.288 9.553-9.559 9.553h-6.52c-5.271 0-9.559-4.285-9.559-9.553v-57.858l40.83-40.817c3.144 9.102 8.264 16.455 14.756 21.491zm232.454 50.173c0 5.268-4.288 9.553-9.559 9.553h-6.52c-5.271 0-9.559-4.285-9.559-9.553v-43.101c0-2.651-1.053-5.194-2.928-7.069l-27.01-27.022c6.482-5.034 11.602-12.38 14.756-21.472l40.818 40.806v57.858zm90.679-155.173c0 11.33-9.222 20.547-20.557 20.547s-20.557-9.217-20.557-20.547v-65.886h41.113v65.886z"/><path d="m255.957 117.854h.028c5.522 0 9.986-4.477 9.986-10s-4.492-10-10.015-10-10 4.477-10 10 4.479 10 10.001 10z"/></g></g></svg>