<svg id="Capa_1" enable-background="new 0 0 511.549 511.549" height="512" viewBox="0 0 511.549 511.549" width="512" xmlns="http://www.w3.org/2000/svg"><g><g><path d="m357.746 306.733c-5.523 0-10 4.477-10 10v32.423h-20.607c-5.523 0-10 4.477-10 10s4.477 10 10 10h30.607c5.523 0 10-4.477 10-10v-42.423c0-5.523-4.477-10-10-10z"/><path d="m452.596 239.428c.322-4.842.49-9.793.49-14.791 0-60.023-23.56-116.445-66.339-158.874-42.758-42.408-99.609-65.763-160.081-65.763-52.146 0-103.044 18.02-143.32 50.74-39.735 32.28-67.474 77.351-78.109 126.911-1.159 5.4 2.279 10.717 7.679 11.875 5.399 1.157 10.717-2.28 11.875-7.679 20.125-93.78 105.025-161.847 201.875-161.847 113.821 0 206.42 91.8 206.42 204.637 0 .6-.015 1.195-.02 1.794-7.809-4.382-16.041-8.103-24.619-11.09-2.188-42.51-19.155-82.311-48.37-113.484-.264-.316-.545-.611-.841-.887-1.503-1.583-3.027-3.151-4.594-4.688-34.289-33.635-79.728-52.159-127.947-52.159-51.882 0-98.762 21.655-131.95 56.331-.732.583-1.389 1.278-1.946 2.074-29.861 32.188-48.127 75.126-48.127 122.223 0 45.919 17.306 89.492 48.773 123.019.215.248.435.488.671.711.398.42.788.845 1.191 1.261 30.855 31.921 71.776 51.263 115.888 54.955 2.695 8.523 6.129 16.723 10.221 24.533-94.691-2.409-176.914-69.727-196.651-161.856-1.157-5.4-6.469-8.839-11.873-7.684-5.4 1.157-8.84 6.473-7.684 11.873 10.621 49.576 38.358 94.667 78.102 126.967 40.287 32.741 91.199 50.773 143.357 50.773 2.422 0 4.846-.049 7.26-.125 27.972 37.792 73.055 62.372 123.821 62.372 84.656 0 153.528-68.363 153.528-152.393-.002-48.516-22.969-91.806-58.68-119.729zm-280.892-165.774c-6.1 7.332-11.776 15.955-16.925 25.807-2.732 5.228-5.273 10.72-7.617 16.443-10.332-2.885-20.074-6.331-29.014-10.301 15.451-13.847 33.598-24.788 53.556-31.949zm-68.381 47.097c11.314 5.575 23.757 10.296 37.062 14.106-7.506 24.194-11.875 51.439-12.706 79.892h-62.684c2.225-35.728 16.281-68.331 38.328-93.998zm-38.332 113.999h62.701c.839 28.324 5.233 55.633 12.746 79.875-13.414 3.839-25.942 8.596-37.293 14.207-22.005-25.676-35.95-58.31-38.154-94.082zm52.941 109.214c9.042-4.06 18.839-7.565 29.234-10.482 1.547 3.788 3.163 7.491 4.88 11.061 5.861 12.189 12.549 22.725 19.868 31.452-20.182-7.142-38.463-18.114-53.982-32.031zm87.592 35.273c-13.223-7.736-25.472-22.601-35.453-43.36-1.106-2.3-2.161-4.671-3.191-7.075 13.215-2.604 27.145-4.336 41.524-5.133-2.749 11.391-4.215 23.272-4.215 35.487 0 6.807.459 13.508 1.335 20.081zm11.171-80.281c-.635 1.46-1.256 2.927-1.846 4.41-19.096.646-37.596 2.844-54.972 6.471-7.143-22.601-11.335-48.296-12.173-75.087h68.991zm0-84.206h-69c.872-27.254 5.273-52.914 12.264-75.07 17.902 3.726 36.998 5.925 56.736 6.482zm0-88.605c-17.139-.532-33.911-2.424-49.715-5.543 12.544-29.417 30.137-49.871 49.715-55.138zm171.295 83.623c-9.782-1.947-19.894-2.976-30.244-2.976-11.049 0-21.826 1.174-32.22 3.385-1.155-27.396-5.547-52.913-12.496-75.327 13.241-3.793 25.625-8.489 36.894-14.03 21.061 24.477 34.885 55.236 38.066 88.948zm-52.906-104.096c-8.89 3.938-18.569 7.359-28.832 10.226-6.778-16.537-15.091-30.81-24.581-42.176 19.876 7.176 37.978 18.121 53.413 31.95zm-98.389-40.199c16.149 4.343 31.453 19.119 43.894 42.702 2.092 3.965 4.06 8.11 5.907 12.41-15.83 3.129-32.63 5.027-49.801 5.56zm0 80.689c19.784-.558 38.923-2.766 56.861-6.507 7.124 22.535 11.3 48.171 12.127 75.095h-68.989v-68.588zm0 88.588h32.494c-12.284 8.634-23.237 19.012-32.494 30.767zm121.051 256.799c-73.644 0-133.557-59.391-133.557-132.393 0-72.986 59.914-132.364 133.557-132.364 73.628 0 133.528 59.378 133.528 132.364 0 73.002-59.9 132.393-133.528 132.393z"/><path d="m357.746 256.38c-57.105 0-103.563 46.105-103.563 102.776 0 56.687 46.458 102.805 103.563 102.805 57.089 0 103.535-46.118 103.535-102.805 0-56.671-46.446-102.776-103.535-102.776zm0 185.581c-46.077 0-83.563-37.146-83.563-82.805 0-45.643 37.486-82.776 83.563-82.776 46.061 0 83.535 37.133 83.535 82.776 0 45.659-37.474 82.805-83.535 82.805z"/><path d="m20.274 224.608c0-5.523-4.477-10-10-10s-10 4.477-10 10v.028c0 5.523 4.477 9.986 10 9.986s10-4.491 10-10.014z"/></g></g></svg>