<svg id="Capa_1" enable-background="new 0 0 512 512" height="512" viewBox="0 0 512 512" width="512" xmlns="http://www.w3.org/2000/svg"><g><g><path d="m155.414 65.603h124.258c5.523 0 10-4.476 10-9.997s-4.477-9.997-10-9.997h-124.258c-5.523 0-10 4.476-10 9.997s4.477 9.997 10 9.997z"/><path d="m155.414 110.871h124.258c5.523 0 10-4.476 10-9.997s-4.477-9.997-10-9.997h-124.258c-5.523 0-10 4.476-10 9.997s4.477 9.997 10 9.997z"/><path d="m170.192 298.253h-94.443c-5.523 0-10 4.476-10 9.997s4.477 9.997 10 9.997h94.444c5.523 0 10-4.476 10-9.997-.001-5.521-4.478-9.997-10.001-9.997z"/><path d="m170.192 343.492h-38.961c-5.523 0-10 4.476-10 9.997s4.477 9.997 10 9.997h38.961c5.523 0 10-4.476 10-9.997s-4.477-9.997-10-9.997z"/><path d="m87.125 343.492h-11.376c-5.523 0-10 4.476-10 9.997s4.477 9.997 10 9.997h11.377c5.523 0 10-4.476 10-9.997-.001-5.521-4.478-9.997-10.001-9.997z"/><path d="m476.831 438.544-66.11-65.557c4.359-11.447 6.753-23.844 6.753-36.788 0-21.49-6.578-41.483-17.837-58.102v-133.713c0-8.733-7.115-15.837-15.86-15.837h-50.857v-108.997c0-10.78-8.807-19.55-19.633-19.55h-201.121c-2.611 0-5.187 1.061-7.042 2.9l-79.666 78.999c-.005.005-.01.012-.016.017-.202.201-.392.414-.576.631-.026.03-.055.058-.08.088-1.229 1.487-2.034 3.336-2.235 5.362-.033.33-.05.663-.05.998v308.571c0 10.764 8.807 19.522 19.633 19.522h203.8c18.118 14.663 41.232 23.47 66.382 23.47 13.071 0 25.589-2.386 37.145-6.73l66.178 65.625c8.435 8.364 19.516 12.546 30.596 12.546 11.081 0 22.161-4.182 30.597-12.547 8.17-8.102 12.669-18.918 12.669-30.455-.001-11.536-4.501-22.352-12.67-30.453zm-97.194-290.002v107.53c-13.224-10.966-29.191-18.773-46.716-22.244v-85.286zm-277.471-114.547v44.976l-45.374.018zm-59.666 64.995 60.086-.024c10.796-.058 19.58-8.828 19.58-19.55v-59.421h190.754v211.824c-.202-.001-.403-.008-.605-.008-8.403 0-16.577.989-24.416 2.845v-88.543c0-5.521-4.477-9.997-10-9.997h-54.911c-5.523 0-10 4.476-10 9.997s4.477 9.997 10 9.997h44.911v85.478c-7.817 3.629-15.113 8.183-21.745 13.522h-158.662v-99h44.94c5.523 0 10-4.476 10-9.997s-4.477-9.997-10-9.997h-54.94c-5.523 0-10 4.476-10 9.997v118.995c0 5.521 4.477 9.997 10 9.997h149.587c-12.544 17.188-19.951 38.297-19.951 61.094 0 22.71 7.354 43.745 19.817 60.895h-184.445zm184.628 237.209c0-46.535 38.215-84.393 85.187-84.393 46.957 0 85.158 37.858 85.158 84.393 0 46.519-38.202 84.366-85.158 84.366-46.972 0-85.187-37.847-85.187-84.366zm235.619 149.058c-9.105 9.029-23.919 9.029-33.023 0l-61.329-60.816c13.251-8.323 24.505-19.501 32.882-32.658l61.47 60.956c4.355 4.319 6.753 10.093 6.753 16.259s-2.398 11.941-6.753 16.259z"/><path d="m312.315 272.345c-35.461 0-64.311 28.645-64.311 63.854 0 35.194 28.85 63.826 64.311 63.826 35.445 0 64.282-28.632 64.282-63.826.001-35.209-28.836-63.854-64.282-63.854zm0 107.685c-24.433 0-44.311-19.663-44.311-43.831 0-24.184 19.878-43.859 44.311-43.859 24.417 0 44.282 19.675 44.282 43.859.001 24.168-19.864 43.831-44.282 43.831z"/><path d="m177.71 136.116c-5.523 0-10 4.476-10 9.997s4.477 9.997 10 9.997h.029c5.523 0 9.985-4.476 9.985-9.997s-4.491-9.997-10.014-9.997z"/></g></g></svg>