<svg id="Capa_1" enable-background="new 0 0 512 512" height="512" viewBox="0 0 512 512" width="512" xmlns="http://www.w3.org/2000/svg"><g><g><path d="m493.952 183.744c-.047-.046-.1-.086-.148-.131-.106-.099-.215-.193-.325-.287-.068-.058-.131-.121-.2-.177l-72.509-58.508v-34.712h8.022c11.905 0 21.591-9.674 21.591-21.565v-24.349c.001-24.27-19.74-44.015-44.005-44.015h-271.142c-24.265 0-44.006 19.745-44.006 44.015v80.627l-72.483 58.509c-.072.058-.138.124-.209.184-.102.088-.204.175-.304.268-.044.041-.092.078-.135.119-6.513 6.258-10.099 14.648-10.099 23.622v271.866c0 9.37 3.971 17.835 10.317 23.819.033.03.065.064.098.094 5.861 5.482 13.725 8.858 22.369 8.877h170.313c5.523 0 10-4.477 10-10s-4.477-10-10-10h-167.2l148.955-135.207 30.601 27.781c8.982 8.143 20.771 12.213 32.559 12.213s23.576-4.074 32.54-12.218l30.599-27.775 148.978 135.206h-167.227c-5.522 0-10 4.477-10 10s4.478 10 10 10h170.313c8.655 0 16.532-3.378 22.398-8.877.034-.03.065-.064.099-.094 6.328-5.982 10.288-14.444 10.288-23.819v-271.866c0-8.951-3.568-17.333-10.048-23.6zm-22.323 7.635-50.859 46.164v-87.203zm-65.251-171.379c13.237 0 24.006 10.773 24.006 24.015v24.349c0 .833-.743 1.565-1.591 1.565h-247.989c-.832 0-1.562-.731-1.562-1.565v-24.349c0-8.854-2.626-17.104-7.142-24.015zm-315.148 130.345v87.181l-50.833-46.148zm-63.22 329.065c-.001-.067-.01-.132-.01-.2v-271.866c0-.067.009-.132.01-.199l149.964 136.141zm247.095-109.647c-10.345 9.398-27.848 9.396-38.214-.002l-125.661-114.079v-211.667c0-13.242 10.769-24.015 24.006-24.015s24.006 10.773 24.006 24.015v24.349c0 11.891 9.673 21.565 21.562 21.565h219.966v165.768zm208.895 109.447c0 .06-.008.117-.009.177l-149.962-136.099 149.962-136.12c.001.059.009.117.009.177z"/><path d="m161.25 226.018h88.982c5.523 0 10-4.477 10-10v-83.422c0-5.523-4.478-10-10-10h-88.982c-5.523 0-10 4.477-10 10v83.422c0 5.523 4.478 10 10 10zm10-83.422h68.982v63.422h-68.982z"/><path d="m350.749 122.596h-50.243c-5.522 0-10 4.477-10 10s4.478 10 10 10h50.243c5.522 0 10-4.477 10-10s-4.478-10-10-10z"/><path d="m350.749 164.321h-50.243c-5.522 0-10 4.477-10 10s4.478 10 10 10h50.243c5.522 0 10-4.477 10-10s-4.478-10-10-10z"/><path d="m350.749 206.018h-50.243c-5.522 0-10 4.477-10 10s4.478 10 10 10h50.243c5.522 0 10-4.477 10-10s-4.478-10-10-10z"/><path d="m350.749 247.743h-189.499c-5.523 0-10 4.477-10 10s4.477 10 10 10h189.499c5.522 0 10-4.477 10-10s-4.478-10-10-10z"/><path d="m305.097 289.44h-98.193c-5.523 0-10 4.477-10 10s4.477 10 10 10h98.193c5.522 0 10-4.477 10-10s-4.478-10-10-10z"/><path d="m256.014 492c-5.523 0-10 4.477-10 10s4.477 10 10 10h.028c5.523 0 9.986-4.477 9.986-10s-4.491-10-10.014-10z"/></g></g></svg>