<svg id="Capa_1" enable-background="new 0 0 512 512" height="512" viewBox="0 0 512 512" width="512" xmlns="http://www.w3.org/2000/svg"><g><g><path d="m250.132 39.996c-20.726 0-39.696 13.087-47.206 32.566-1.986 5.153.581 10.941 5.734 12.928 1.183.456 2.398.672 3.595.672 4.015 0 7.802-2.435 9.333-6.405 4.556-11.819 16.027-19.76 28.544-19.76 5.522 0 10-4.477 10-10s-4.478-10.001-10-10.001z"/><path d="m93.33 348.881c-5.522 0-10 4.477-10 10v89.46c0 5.523 4.478 10 10 10h48.591c5.522 0 10-4.477 10-10s-4.478-10-10-10h-38.591v-79.46c0-5.523-4.477-10-10-10z"/><path d="m183.234 358.881v89.46c0 5.523 4.478 10 10 10s10-4.477 10-10v-89.46c0-5.523-4.478-10-10-10s-10 4.477-10 10z"/><path d="m322.598 349.645c-5.101-2.115-10.953.303-13.069 5.405l-27.872 67.193-27.872-67.193c-2.116-5.101-7.966-7.523-13.069-5.405-5.101 2.116-7.521 7.967-5.404 13.068l37.108 89.46c.063.151.118.264.171.36 1.016 2.2 2.82 4.044 5.235 5.046 1.253.52 2.551.766 3.828.766 3.922 0 7.645-2.322 9.241-6.171l37.108-89.46c2.115-5.102-.305-10.953-5.405-13.069z"/><path d="m418.67 368.881c5.522 0 10-4.477 10-10s-4.478-10-10-10h-48.591c-5.522 0-10 4.477-10 10v89.46c0 5.523 4.478 10 10 10h48.591c5.522 0 10-4.477 10-10s-4.478-10-10-10h-38.591v-24.73h38.591c5.522 0 10-4.477 10-10s-4.478-10-10-10h-38.591v-24.73z"/><path d="m435.027 295.223h-124.15v-48.513h34.878c15.456 0 28.03-12.586 28.03-28.056v-84.471c0-15.455-12.574-28.028-28.03-28.028h-5.11v-15.653c0-49.903-40.604-90.502-90.513-90.502-49.925 0-90.541 40.599-90.541 90.502v15.653h-5.11c-15.456 0-28.03 12.573-28.03 28.028v84.471c0 15.47 12.574 28.056 28.03 28.056h34.877v48.512h-112.385c-33.62 0-60.973 27.349-60.973 60.966v94.846c0 33.617 27.353 60.966 60.973 60.966h134.122c5.522 0 10-4.477 10-10s-4.478-10-10-10h-134.122c-22.593 0-40.973-18.377-40.973-40.966v-94.846c0-22.589 18.38-40.966 40.973-40.966h358.055c22.593 0 40.973 18.377 40.973 40.966v94.846c-.001 22.589-18.381 40.966-40.974 40.966h-134.122c-5.522 0-10 4.477-10 10s4.478 10 10 10h134.122c33.62 0 60.973-27.349 60.973-60.966v-94.846c0-33.616-27.353-60.965-60.973-60.965zm-255.436-204.721c0-38.875 31.645-70.502 70.541-70.502 38.881 0 70.513 31.627 70.513 70.502v15.653h-141.054zm111.286 204.721h-81.52v-48.513h81.52zm10-68.626c-.486 0-.959.046-1.426.113h-98.667c-.467-.067-.941-.113-1.426-.113s-.959.046-1.426.113h-43.452c-4.428 0-8.03-3.614-8.03-8.056v-84.471c0-4.427 3.603-8.028 8.03-8.028h191.274c4.428 0 8.03 3.602 8.03 8.028v84.471c0 4.442-3.603 8.056-8.03 8.056h-43.452c-.466-.066-.939-.113-1.425-.113z"/><path d="m256 492c-5.522 0-10 4.477-10 10s4.478 10 10 10h.057c5.522 0 9.972-4.477 9.972-10s-4.507-10-10.029-10z"/></g></g></svg>