<svg id="Capa_1" enable-background="new 0 0 512 512" height="512" viewBox="0 0 512 512" width="512" xmlns="http://www.w3.org/2000/svg"><g><g><path d="m426.078 33.847c-32.28-21.826-75.017-33.847-120.338-33.847-45.322 0-88.064 12.021-120.352 33.847-33.492 22.64-51.938 53.137-51.938 85.873 0 13.617 3.268 26.868 9.431 39.307h-76.89c-17.64 0-31.991 14.35-31.991 31.989v41.033c0 5.523 4.478 10 10 10s10-4.477 10-10v-41.033c0-6.611 5.379-11.989 11.991-11.989h89.883c12.129 14.852 28.85 27.888 49.407 38.087l-3.537 54.336c-.271 4.151 2.058 8.037 5.847 9.756 1.326.602 2.733.894 4.129.894 2.594 0 5.148-1.009 7.063-2.919l43.686-43.555c14.037 2.513 28.567 3.786 43.271 3.786 6.915 0 13.769-.283 20.535-.835v123.357c0 6.514-5.491 12.017-11.991 12.017h-159.066c-3.076 0-5.981 1.416-7.876 3.838l-31.725 40.555-9.252-36.829c-1.116-4.447-5.114-7.564-9.698-7.564h-30.676c-6.612-.001-11.991-5.391-11.991-12.017v-41.033c0-5.523-4.478-10-10-10s-10 4.477-10 10v41.033c0 17.654 14.352 32.017 31.991 32.017h22.877l12.332 49.091c.93 3.704 3.889 6.555 7.625 7.347.69.146 1.385.218 2.074.218 3.037 0 5.957-1.387 7.875-3.839l41.317-52.816h10.983v45.477c0 15.165 12.328 27.501 27.481 27.501h121.666l32.239 41.231c1.918 2.453 4.839 3.841 7.877 3.841.688 0 1.382-.071 2.071-.217 3.735-.79 6.695-3.639 7.627-7.342l9.443-37.512h16.606c15.152 0 27.48-12.337 27.48-27.501v-135.947c0-15.164-12.328-27.501-27.48-27.501h-49.812v-39.871c29.887-4.953 57.369-15.378 79.802-30.543 33.487-22.635 51.926-53.124 51.926-85.848 0-32.737-18.439-63.234-51.922-85.873zm-29.991 262.135c4.055 0 7.48 3.435 7.48 7.501v135.944c0 4.066-3.426 7.501-7.48 7.501h-24.401c-4.583 0-8.579 3.115-9.697 7.559l-6.357 25.255-22.655-28.974c-1.896-2.424-4.801-3.84-7.878-3.84h-126.542c-4.056 0-7.481-3.435-7.481-7.501v-45.477h123.209c17.64 0 31.991-14.363 31.991-32.017v-65.951zm18.789-106.982c-21.968 14.851-49.527 24.644-79.575 28.526-.059.006-.116.015-.174.022-9.578 1.23-19.405 1.865-29.387 1.865-15.231 0-30.236-1.48-44.597-4.399-3.287-.666-6.681.354-9.053 2.718l-28.668 28.583 2.257-34.679c.271-4.159-2.066-8.05-5.865-9.764-41.555-18.754-66.363-49.465-66.363-82.15 0-25.887 15.32-50.499 43.138-69.304 29.016-19.616 67.779-30.418 109.151-30.418 41.369 0 80.128 10.802 109.136 30.416 27.809 18.803 43.124 43.416 43.124 69.304 0 25.876-15.315 50.48-43.124 69.28z"/><path d="m222.257 88.404c-17.239 0-31.264 14.048-31.264 31.316 0 17.252 14.024 31.288 31.264 31.288 17.254 0 31.291-14.036 31.291-31.288 0-17.268-14.037-31.316-31.291-31.316zm0 42.603c-6.211 0-11.264-5.063-11.264-11.288 0-6.24 5.053-11.316 11.264-11.316 6.226 0 11.291 5.076 11.291 11.316 0 6.225-5.065 11.288-11.291 11.288z"/><path d="m305.74 88.404c-17.254 0-31.291 14.048-31.291 31.316 0 17.252 14.037 31.288 31.291 31.288s31.291-14.036 31.291-31.288c0-17.268-14.037-31.316-31.291-31.316zm0 42.603c-6.226 0-11.291-5.063-11.291-11.288 0-6.24 5.065-11.316 11.291-11.316s11.291 5.076 11.291 11.316c0 6.225-5.065 11.288-11.291 11.288z"/><path d="m389.196 88.404c-17.254 0-31.291 14.048-31.291 31.316 0 17.252 14.037 31.288 31.291 31.288s31.291-14.036 31.291-31.288c0-17.268-14.038-31.316-31.291-31.316zm0 42.603c-6.226 0-11.291-5.063-11.291-11.288 0-6.24 5.065-11.316 11.291-11.316s11.291 5.076 11.291 11.316c0 6.225-5.066 11.288-11.291 11.288z"/><path d="m44 286.502c5.522 0 10-4.505 10-10.028s-4.478-10-10-10-10 4.477-10 10v.056c0 5.523 4.478 9.972 10 9.972z"/></g></g></svg>