<svg id="Capa_1" enable-background="new 0 0 512 512" height="512" viewBox="0 0 512 512" width="512" xmlns="http://www.w3.org/2000/svg"><g><g><path d="m474.338 301.23c.461-1.15.722-2.403.722-3.718v-78.234c0-50.074-17.487-99.133-49.24-138.14-31.291-38.439-74.901-65.439-122.797-76.028-5.392-1.188-10.731 2.214-11.923 7.606-1.192 5.393 2.213 10.73 7.605 11.923 90.598 20.028 156.355 101.885 156.355 194.639 0 9.256-7.517 16.786-16.757 16.786s-16.757-7.53-16.757-16.786c0-44.085-17.265-85.648-48.614-117.032-31.352-31.387-72.874-48.672-116.917-48.672-44.054 0-85.58 17.285-116.929 48.673-31.342 31.381-48.603 72.943-48.603 117.031 0 9.256-7.53 16.786-16.786 16.786-9.24 0-16.757-7.53-16.757-16.786 0-92.754 65.756-174.611 156.354-194.639 5.393-1.192 8.798-6.53 7.605-11.923-1.191-5.393-6.526-8.794-11.923-7.606-47.895 10.589-91.505 37.589-122.796 76.029-31.753 39.007-49.24 88.065-49.24 138.14v78.234c0 1.317.261 2.572.724 3.724-9.136 6.128-15.164 16.553-15.164 28.364v46.118c0 18.815 15.295 34.123 34.096 34.123h33.887v28.606c0 26.411 21.456 47.898 47.828 47.898h60.467c4.331 14.806 18.014 25.654 34.188 25.654h41.82c19.644 0 35.625-15.994 35.625-35.653 0-19.675-15.981-35.681-35.625-35.681h-41.82c-16.178 0-29.862 10.86-34.19 25.681h-60.465c-15.344 0-27.828-12.516-27.828-27.898v-6.203c4.876 2.454 10.373 3.844 16.191 3.844 19.971 0 36.219-16.261 36.219-36.248v-94.364c0-19.987-16.248-36.248-36.219-36.248-16.492 0-30.433 11.111-34.779 26.248h-34.955v-43.475c5.029 2.59 10.723 4.062 16.757 4.062 20.284 0 36.786-16.502 36.786-36.786 0-80.342 65.285-145.704 145.531-145.704s145.531 65.362 145.531 145.704c0 20.284 16.489 36.786 36.757 36.786 6.034 0 11.728-1.472 16.757-4.062v43.475h-34.927c-4.349-15.137-18.301-26.248-34.806-26.248-19.971 0-36.219 16.261-36.219 36.248v94.364c0 19.987 16.248 36.248 36.219 36.248 16.505 0 30.457-11.111 34.806-26.248h35.3c18.785 0 34.067-15.308 34.067-34.123v-46.118c.001-11.815-6.027-22.244-15.161-28.371zm-241.372 159.436h41.82c8.615 0 15.625 7.034 15.625 15.681 0 8.631-7.009 15.653-15.625 15.653h-41.82c-8.615 0-15.625-7.022-15.625-15.653.001-8.647 7.01-15.681 15.625-15.681zm-190.466-84.947v-46.118c0-7.787 6.323-14.123 14.096-14.123h33.887v74.364h-33.887c-7.773 0-14.096-6.336-14.096-14.123zm84.174-86.49c8.943 0 16.219 7.289 16.219 16.248v94.364c0 8.959-7.276 16.248-16.219 16.248-8.928 0-16.191-7.289-16.191-16.248v-94.364c0-8.958 7.263-16.248 16.191-16.248zm258.652 126.861c-8.943 0-16.219-7.289-16.219-16.248v-94.364c0-8.959 7.276-16.248 16.219-16.248s16.219 7.289 16.219 16.248v94.364c0 8.959-7.275 16.248-16.219 16.248zm84.174-40.371c0 7.787-6.311 14.123-14.067 14.123h-33.887v-74.364h33.887c7.757 0 14.067 6.336 14.067 14.123z"/><path d="m256.014 20c5.523 0 10-4.478 10-10s-4.477-10-10-10h-.057c-5.523 0-9.972 4.478-9.972 10s4.506 10 10.029 10z"/></g></g></svg>