<svg id="Capa_1" enable-background="new 0 0 512 512" height="512" viewBox="0 0 512 512" width="512" xmlns="http://www.w3.org/2000/svg"><g><g><path d="m509.075 2.924c-2.469-2.467-5.904-3.371-9.085-2.72-.021.004-.036.003-.058.008l-446.508 94.521c-13.45 2.857-27.604 7.38-30.59 19.26-2.911 11.583 6.751 21.551 15.501 28.948l113.79 96.007-1.728 112.503c-.041 2.705 1.016 5.313 2.929 7.226 1.877 1.876 4.421 2.928 7.07 2.928.052 0 .104 0 .156-.001l112.472-1.755 96.03 113.784c6.467 7.674 14.912 16.055 24.704 16.055 1.384 0 2.796-.167 4.232-.528 11.897-2.988 16.406-17.157 19.247-30.617l94.548-446.474c.005-.024.005-.04.01-.063.651-3.182-.254-6.615-2.72-9.082zm-466.168 116.071c1.675-1.005 5.648-2.78 14.667-4.696l394.93-83.602-289.575 191.198-111.689-94.234c-5.24-4.43-7.431-7.216-8.333-8.666zm208.304 141.764c-3.907-3.905-10.239-3.903-14.143.002l-66.293 66.316 1.341-87.281 252.986-167.041-123.982 123.982c-3.905 3.905-3.905 10.237 0 14.143 1.953 1.952 4.512 2.929 7.071 2.929 2.56 0 5.118-.977 7.071-2.929l123.947-123.947-167.035 252.924-87.256 1.362 66.295-66.317c3.904-3.907 3.903-10.239-.002-14.143zm146.461 193.645c-1.903 9.016-3.675 12.995-4.68 14.676-1.452-.907-4.233-3.104-8.648-8.342l-94.266-111.696 191.222-289.551z"/><path d="m107.91 389.947-90.06 90.032c-3.905 3.904-3.906 10.236-.002 14.143 1.953 1.953 4.513 2.93 7.072 2.93s5.117-.976 7.07-2.928l90.06-90.032c3.905-3.904 3.906-10.236.002-14.143-3.905-3.905-10.235-3.906-14.142-.002z"/><path d="m73.837 268.927c3.904-3.906 3.902-10.238-.004-14.143-3.907-3.903-10.237-3.901-14.143.004l-56.763 56.791c-3.904 3.906-3.902 10.238.004 14.143 1.953 1.951 4.511 2.927 7.069 2.927 2.56 0 5.12-.978 7.073-2.931z"/><path d="m243.041 438.139-56.763 56.792c-3.904 3.906-3.902 10.238.004 14.143 1.953 1.951 4.511 2.927 7.069 2.927 2.56 0 5.12-.978 7.073-2.931l56.763-56.792c3.904-3.906 3.902-10.238-.004-14.143-3.907-3.902-10.237-3.902-14.142.004z"/></g><g><path d="m276.171 245.824c-3.648 0-7.17-1.99-8.933-5.458-2.504-4.923-.57-10.929 4.353-13.432l.058-.029c4.921-2.503 10.941-.542 13.446 4.382 2.503 4.923.541 10.943-4.382 13.446-1.456.74-3.01 1.091-4.542 1.091z"/></g></g></svg>