<svg id="Capa_1" enable-background="new 0 0 512 512" height="512" viewBox="0 0 512 512" width="512" xmlns="http://www.w3.org/2000/svg"><g><g><path d="m155.615 76.015h147.204c5.522 0 10-4.478 10-10s-4.477-10-10-10h-147.204c-5.522 0-10 4.478-10 10s4.478 10 10 10z"/><path d="m155.615 130.104h147.204c5.522 0 10-4.478 10-10s-4.477-10-10-10h-147.204c-5.522 0-10 4.478-10 10s4.478 10 10 10z"/><path d="m239.266 358.028h-178.044c-5.522 0-10 4.478-10 10s4.477 10 10 10h178.044c5.522 0 10-4.478 10-10s-4.478-10-10-10z"/><path d="m86.677 412.117h-25.455c-5.522 0-10 4.478-10 10s4.477 10 10 10h25.454c5.522 0 10-4.478 10-10s-4.477-10-9.999-10z"/><path d="m206.214 412.117h-79.257c-5.522 0-10 4.478-10 10s4.477 10 10 10h79.257c5.522 0 10-4.478 10-10s-4.478-10-10-10z"/><path d="m503.98 416.618c-14.322-18.104-32.82-32.224-54.978-41.966-1.943-.854-3.916-1.658-5.903-2.435v-200.095c0-9.346-7.601-16.949-16.945-16.949h-62.114v-132.271c0-11.802-9.597-21.402-21.395-21.402h-238.252c-2.631 0-5.212 1.072-7.073 2.931l-94.393 94.45c-1.857 1.862-2.927 4.44-2.927 7.069v368.838c0 11.802 9.597 21.402 21.395 21.402h292.158c.338.151.67.312 1.01.461 10.202 4.483 21.047 7.916 32.228 10.245.267.07.536.118.805.165 11.165 2.269 22.657 3.439 34.178 3.439h.022c11.449-.001 22.869-1.161 33.967-3.404.342-.052.683-.117 1.022-.207 11.178-2.33 22.019-5.764 32.217-10.248 22.161-9.743 40.659-23.864 54.987-41.977 10.684-13.526 10.681-24.55-.009-38.046zm-409.587-380.966v58.811c0 .762-.665 1.431-1.431 1.431l-58.815.04zm-72.998 440.538c-.743 0-1.395-.655-1.395-1.402v-358.845l72.97-.05c11.813 0 21.423-9.613 21.423-21.431v-72.962h228.252c.743 0 1.395.655 1.395 1.402v215.648c0 5.522 4.477 10 10 10 5.522 0 10-4.478 10-10v-63.377h59.059v190.685c-2.095-.521-4.2-1.012-6.321-1.454-.364-.096-.73-.168-1.098-.221-11.072-2.231-22.463-3.386-33.883-3.387-.008 0-.014 0-.022 0-5.932 0-11.857.312-17.734.922v-33.313c0-5.522-4.477-10-10-10-5.522 0-10 4.478-10 10v36.598c-10.209 2.304-20.116 5.527-29.478 9.641-22.173 9.742-40.685 23.866-55.016 41.975-10.689 13.496-10.692 24.52-.002 38.055 6.294 7.953 13.395 15.136 21.256 21.518h-259.406zm253.838-33.921c-3.214-4.069-3.693-5.902-3.693-6.632 0-.728.478-2.553 3.686-6.604 9.689-12.242 21.995-22.484 36.053-30.336-5.861 11.192-9.077 23.814-9.077 36.951 0 13.136 3.215 25.758 9.076 36.95-14.056-7.853-26.36-18.091-36.045-30.329zm106.562 48.231c-.008 0-.013 0-.021 0-9.918 0-19.672-.98-29.109-2.843-18.827-10.586-30.463-30.371-30.463-52.01 0-21.638 11.636-41.424 30.463-52.01 9.437-1.863 19.191-2.842 29.11-2.842h.021c9.916.001 19.667.982 29.102 2.845 18.807 10.579 30.43 30.363 30.43 52.007 0 21.645-11.624 41.429-30.432 52.008-9.436 1.863-19.186 2.844-29.101 2.845zm106.504-48.237c-9.684 12.242-21.985 22.484-36.041 30.337 5.856-11.191 9.068-23.814 9.068-36.952 0-13.139-3.212-25.761-9.068-36.952 14.056 7.853 26.358 18.094 36.041 30.336.001.002.003.003.004.005 3.207 4.049 3.685 5.873 3.685 6.601s-.479 2.561-3.689 6.625z"/><path d="m416.056 435.647c0-18.901-15.383-34.279-34.293-34.279-18.893 0-34.264 15.378-34.264 34.279s15.371 34.278 34.264 34.278c18.91.001 34.293-15.376 34.293-34.278zm-34.293 14.279c-7.865 0-14.264-6.405-14.264-14.278 0-7.874 6.399-14.279 14.264-14.279 7.882 0 14.294 6.405 14.294 14.279 0 7.873-6.412 14.278-14.294 14.278z"/><path d="m63.32 326.436h237.402c5.522 0 10-4.478 10-10v-142.244c0-5.522-4.477-10-10-10h-237.402c-5.522 0-10 4.478-10 10v142.243c0 5.523 4.477 10.001 10 10.001zm10-142.244h217.402v122.243h-217.402z"/><path d="m354.04 293.506c5.522 0 10-4.506 10-10.028s-4.477-10-10-10c-5.522 0-10 4.478-10 10v.057c.001 5.522 4.478 9.971 10 9.971z"/></g></g></svg>