<svg id="Capa_1" enable-background="new 0 0 512 512" height="512" viewBox="0 0 512 512" width="512" xmlns="http://www.w3.org/2000/svg"><g><g><path d="m236.889 450.814h-66.577c-5.523 0-10 4.478-10 10s4.477 10 10 10h66.577c5.523 0 10-4.478 10-10s-4.477-10-10-10z"/><path d="m355.597 146.577h-121.592c-5.523 0-10 4.478-10 10s4.477 10 10 10h121.592c5.523 0 10-4.478 10-10s-4.477-10-10-10z"/><path d="m447.166 168.205h-40.208v-55.593c0-9.265-7.517-16.803-16.756-16.803h-32.972v-45.303c-.001-27.849-22.61-50.506-50.399-50.506h-16.895c-.041 0-.081 0-.122 0h-172.458c-.023 0-.046 0-.07 0h-16.887c-27.791 0-50.399 22.657-50.399 50.506v130.533c0 5.522 4.477 10 10 10s10-4.478 10-10v-130.533c0-16.821 13.637-30.506 30.399-30.506h10.312l17.375 40.986c1.567 3.696 5.192 6.097 9.207 6.097h132.646c4.017 0 7.643-2.403 9.209-6.102l17.346-40.981h10.336c16.762 0 30.398 13.685 30.398 30.506v45.304h-137.797c-9.255 0-16.785 7.538-16.785 16.803v250.578c0 9.249 7.53 16.774 16.785 16.774h137.798v29.69h-267.229v-138.816c0-5.522-4.477-10-10-10s-10 4.478-10 10v190.655c0 27.849 22.608 50.506 50.399 50.506h206.432c27.79 0 50.398-22.657 50.398-50.506v-81.529h67.123.113c20.697 0 37.536-16.858 37.536-37.581v-159.332c-.001-8.187-6.656-14.847-14.835-14.847zm-183.854-121.122h-119.398l-11.481-27.083h142.343zm43.519 444.917h-206.432c-16.762 0-30.399-13.684-30.399-30.506v-31.839h267.229v31.839c0 16.822-13.637 30.506-30.398 30.506zm-104.185-132.035v-244.155h184.312v226.574c0 6.347 1.579 12.332 4.363 17.581zm239.354-17.581c0 9.694-7.867 17.581-17.536 17.581-9.653 0-17.507-7.887-17.507-17.581v-154.179h35.043z"/><path d="m235.051 284.525h119.5c5.523 0 10-4.478 10-10v-71.886c0-5.522-4.477-10-10-10h-119.5c-5.523 0-10 4.478-10 10v71.886c0 5.522 4.477 10 10 10zm10-71.886h99.5v51.886h-99.5z"/><path d="m257.922 310.586h-23.917c-5.523 0-10 4.478-10 10s4.477 10 10 10h23.917c5.523 0 10-4.478 10-10s-4.477-10-10-10z"/><path d="m355.597 310.586h-44.639c-5.523 0-10 4.478-10 10s4.477 10 10 10h44.639c5.523 0 10-4.478 10-10s-4.477-10-10-10z"/><path d="m60 235.968c5.523 0 10-4.506 10-10.028s-4.477-10-10-10-10 4.478-10 10v.057c0 5.522 4.477 9.971 10 9.971z"/></g></g></svg>