<svg id="Capa_1" enable-background="new 0 0 512 512" height="512" viewBox="0 0 512 512" width="512" xmlns="http://www.w3.org/2000/svg"><g><g><path d="m442.821 227.066h-45.374c-5.523 0-10-4.478-10-10s4.477-10 10-10h45.374c5.523 0 10 4.478 10 10s-4.477 10-10 10z"/></g><g><path d="m442.821 267.856h-45.374c-5.523 0-10-4.478-10-10s4.477-10 10-10h45.374c5.523 0 10 4.478 10 10s-4.477 10-10 10z"/></g><g><path d="m470.266 158.907h-48.573v-62.197c0-15.643-12.719-28.368-28.354-28.368h-32.732l-74.743-65.846c-1.803-1.591-4.206-2.496-6.611-2.496h-114.964c-10.574 0-19.177 8.605-19.177 19.184v49.158h-26.509c-15.634 0-28.354 12.726-28.354 28.368v62.197h-48.515c-17.774 0-32.234 14.468-32.234 32.252v190.654c0 17.783 14.46 32.251 32.234 32.251h103.407v78.751c0 10.578 8.603 19.185 19.177 19.185h183.365c10.574 0 19.177-8.606 19.177-19.185v-78.751h103.407c17.774 0 32.234-14.468 32.234-32.251v-190.654c-.001-17.784-14.461-32.252-32.235-32.252zm-68.573-62.197v62.197h-34.862v-70.565h26.509c4.528 0 8.353 3.832 8.353 8.368zm-112.44-64.573 41.098 36.205h-34.5c-3.576 0-6.598-3.027-6.598-6.61zm-124.141-12.137h104.141v41.731c0 14.673 11.932 26.61 26.598 26.61h50.98v70.565h-181.719zm-54.862 76.71c0-4.536 3.825-8.368 8.354-8.368h26.509v70.565h-34.863zm236.609 395.29h-181.718v-118.725h181.719v118.725zm135.641-110.187c0 6.755-5.488 12.251-12.234 12.251h-49.592v-55.394c0-20.925-17.014-37.949-37.927-37.949h-81.854c-5.523 0-10 4.478-10 10s4.477 10 10 10h81.854c9.885 0 17.927 8.052 17.927 17.949v55.394h-33.814v-30.789c0-5.522-4.477-10-10-10h-201.719c-5.523 0-10 4.478-10 10v30.789h-33.673v-55.394c0-9.897 8.042-17.949 17.927-17.949h81.77c5.523 0 10-4.478 10-10s-4.477-10-10-10h-81.77c-20.913 0-37.927 17.024-37.927 37.949v55.394h-49.734c-6.746 0-12.234-5.496-12.234-12.251v-190.654c0-6.756 5.488-12.252 12.234-12.252h428.532c6.746 0 12.234 5.496 12.234 12.252z"/><path d="m309.39 399.507h-106.78c-5.523 0-10 4.478-10 10s4.477 10 10 10h106.78c5.523 0 10-4.478 10-10s-4.477-10-10-10z"/><path d="m309.39 445.768h-106.78c-5.523 0-10 4.478-10 10s4.477 10 10 10h106.78c5.523 0 10-4.478 10-10s-4.477-10-10-10z"/><path d="m256.028 300.722c-5.523 0-10 4.478-10 10s4.477 10 10 10h.028c5.523 0 9.986-4.478 9.986-10s-4.491-10-10.014-10z"/></g></g></svg>