<svg id="Capa_1" enable-background="new 0 0 512 512" height="512" viewBox="0 0 512 512" width="512" xmlns="http://www.w3.org/2000/svg"><g><g><path d="m452.253 46.714c-5.522 0-10 4.478-10 10s4.478 10 10 10h.057c5.522 0 9.972-4.478 9.972-10s-4.507-10-10.029-10z"/><path d="m406.19 46.714c-5.522 0-10 4.478-10 10s4.478 10 10 10h.057c5.522 0 9.972-4.478 9.972-10s-4.506-10-10.029-10z"/><path d="m360.101 46.714c-5.522 0-10 4.478-10 10s4.478 10 10 10h.057c5.522 0 9.972-4.478 9.972-10s-4.507-10-10.029-10z"/><path d="m443.891 143.09h-375.782c-10.171 0-18.447 8.275-18.447 18.447v50.711c0 10.172 8.275 18.447 18.447 18.447h375.782c10.156 0 18.419-8.275 18.419-18.447v-50.711c0-10.172-8.263-18.447-18.419-18.447zm-1.581 67.605h-372.648v-47.605h372.648z"/><path d="m49.662 349.527c0 12.032 9.789 21.82 21.82 21.82h85.689c12.032 0 21.82-9.788 21.82-21.82v-63.382c0-12.032-9.789-21.82-21.82-21.82h-85.689c-12.032 0-21.82 9.788-21.82 21.82zm20-63.381c0-.97.851-1.82 1.82-1.82h85.689c.97 0 1.82.851 1.82 1.82v63.382c0 .97-.851 1.82-1.82 1.82h-85.689c-.97 0-1.82-.851-1.82-1.82z"/><path d="m452.31 264.325h-145.33c-5.522 0-10 4.478-10 10s4.478 10 10 10h145.33c5.522 0 10-4.478 10-10s-4.478-10-10-10z"/><path d="m218.796 284.325h28.204c5.523 0 10-4.478 10-10s-4.477-10-10-10h-28.204c-5.523 0-10 4.478-10 10s4.477 10 10 10z"/><path d="m342.236 317.837c0-5.522-4.478-10-10-10h-113.44c-5.523 0-10 4.478-10 10s4.477 10 10 10h113.44c5.523 0 10-4.478 10-10z"/><path d="m452.31 307.837h-70.071c-5.522 0-10 4.478-10 10s4.478 10 10 10h70.071c5.522 0 10-4.478 10-10s-4.478-10-10-10z"/><path d="m323.732 371.348h128.578c5.522 0 10-4.478 10-10s-4.478-10-10-10h-128.578c-5.522 0-10 4.478-10 10s4.478 10 10 10z"/><path d="m273.73 371.348c5.522 0 10-4.478 10-10s-4.478-10-10-10h-54.935c-5.523 0-10 4.478-10 10s4.477 10 10 10z"/><path d="m59.662 414.83h67.066c5.523 0 10-4.478 10-10s-4.477-10-10-10h-67.066c-5.523 0-10 4.478-10 10s4.477 10 10 10z"/><path d="m284.729 394.83h-97.992c-5.523 0-10 4.478-10 10s4.477 10 10 10h97.992c5.522 0 10-4.478 10-10s-4.478-10-10-10z"/><path d="m344.737 414.83h107.573c5.522 0 10-4.478 10-10s-4.478-10-10-10h-107.573c-5.522 0-10 4.478-10 10s4.478 10 10 10z"/><path d="m353.496 458.341h100.571c5.522 0 10-4.478 10-10s-4.478-10-10-10h-100.571c-5.522 0-10 4.478-10 10s4.478 10 10 10z"/><path d="m283.481 438.341h-222.062c-5.523 0-10 4.478-10 10s4.477 10 10 10h222.062c5.522 0 10-4.478 10-10s-4.477-10-10-10z"/><path d="m479.862 0h-447.724c-17.721 0-32.138 14.417-32.138 32.138v178.948c0 5.522 4.477 10 10 10s10-4.478 10-10v-97.658h472v366.435c0 6.692-5.445 12.138-12.138 12.138h-447.724c-6.693-.001-12.138-5.446-12.138-12.139v-178.976c0-5.522-4.477-10-10-10s-10 4.478-10 10v178.977c0 17.72 14.417 32.137 32.138 32.137h447.724c17.721 0 32.138-14.417 32.138-32.138v-447.724c0-17.721-14.417-32.138-32.138-32.138zm-459.862 93.428v-61.29c0-6.693 5.445-12.138 12.138-12.138h447.724c6.693 0 12.138 5.445 12.138 12.138v61.29z"/><path d="m10 266.015c5.523 0 10-4.507 10-10.029s-4.477-10-10-10-10 4.478-10 10v.058c0 5.521 4.477 9.971 10 9.971z"/></g></g></svg>