<svg id="Capa_1" enable-background="new 0 0 512 512" height="512" viewBox="0 0 512 512" width="512" xmlns="http://www.w3.org/2000/svg"><g><g><path d="m133.274 240.248h84.329c5.523 0 10-4.478 10-10v-88.1c0-5.522-4.477-10-10-10h-84.329c-5.523 0-10 4.478-10 10v88.1c0 5.523 4.477 10 10 10zm10-88.1h64.329v68.1h-64.329z"/><path d="m272.472 61.952h26.854c5.523 0 10-4.478 10-10s-4.477-10-10-10h-26.854c-5.523 0-10 4.478-10 10s4.477 10 10 10z"/><path d="m155.964 61.952h26.741c5.523 0 10-4.478 10-10s-4.477-10-10-10h-26.741c-5.523 0-10 4.478-10 10s4.477 10 10 10z"/><path d="m322.016 132.148h-59.231c-5.523 0-10 4.478-10 10s4.477 10 10 10h59.231c5.523 0 10-4.478 10-10s-4.477-10-10-10z"/><path d="m322.016 176.198h-59.231c-5.523 0-10 4.478-10 10s4.477 10 10 10h59.231c5.523 0 10-4.478 10-10s-4.477-10-10-10z"/><path d="m322.016 220.248h-59.231c-5.523 0-10 4.478-10 10s4.477 10 10 10h59.231c5.523 0 10-4.478 10-10s-4.477-10-10-10z"/><path d="m322.016 264.297h-191.291c-5.523 0-10 4.478-10 10s4.477 10 10 10h191.291c5.523 0 10-4.478 10-10s-4.477-10-10-10z"/><path d="m465.434 58.251h-85.235v-38.812c0-10.718-8.73-19.439-19.461-19.439h-266.215c-10.715 0-19.433 8.721-19.433 19.439v38.812h-28.524c-23.195 0-42.066 18.881-42.066 42.088v250.436c0 23.207 18.871 42.088 42.066 42.088h119.569l-8.931 41.567h-10.531c-21.383 0-38.78 17.393-38.78 38.771v28.799c0 5.522 4.477 10 10 10h88.918c5.523 0 10-4.478 10-10s-4.477-10-10-10h-78.918v-18.8c0-10.351 8.425-18.771 18.78-18.771h18.584c.012 0 .025.002.037.002.015 0 .03-.002.045-.002h171.267c.015 0 .03.002.045.002.012 0 .025-.002.037-.002h18.611c10.34 0 18.752 8.42 18.752 18.771v18.8h-77.501c-5.523 0-10 4.478-10 10s4.477 10 10 10h87.501c5.523 0 10-4.478 10-10v-28.8c0-21.378-17.384-38.771-38.752-38.771h-10.555l-8.912-41.567h129.602c23.195 0 42.066-18.881 42.066-42.088v-250.435c0-23.207-18.871-42.088-42.066-42.088zm0 20c12.167 0 22.066 9.908 22.066 22.088v208.036h-55.266c2.997-5.468 4.704-11.739 4.704-18.402v-146.719c0-8.265-6.722-14.988-14.985-14.988h-41.753v-50.015zm-370.344 25.682h265.109v186.04c0 6.664 1.706 12.935 4.701 18.402h-269.81zm285.109 186.04v-141.707h36.739v141.707c0 10.147-8.247 18.402-18.383 18.402-10.121 0-18.356-8.255-18.356-18.402zm-285.109-269.973h265.109v63.933h-265.109zm-48.524 58.251h28.524v230.124h-50.59v-208.036c0-12.18 9.899-22.088 22.066-22.088zm277.723 356.179h-146.628l8.931-41.567h128.785zm141.145-61.568h-141.968c-.049 0-.098-.001-.147 0h-144.703c-.013 0-.025 0-.038 0h-132.012c-12.167 0-22.066-9.908-22.066-22.088v-22.399h463v22.399c0 12.18-9.899 22.088-22.066 22.088z"/><path d="m227.603 61.952h.028c5.523 0 9.986-4.478 9.986-10s-4.491-10-10.014-10-10 4.478-10 10 4.477 10 10 10z"/><path d="m251.68 492c-5.523 0-10 4.478-10 10s4.477 10 10 10h.057c5.523 0 9.972-4.478 9.972-10s-4.506-10-10.029-10z"/></g></g></svg>