<svg id="Capa_1" enable-background="new 0 0 512 512" height="512" viewBox="0 0 512 512" width="512" xmlns="http://www.w3.org/2000/svg"><g><g><path d="m79.226 375.6h24.165c5.523 0 10-4.478 10-10s-4.477-10-10-10h-24.165c-5.523 0-10 4.478-10 10s4.477 10 10 10z"/><path d="m146.564 375.6h24.165c5.523 0 10-4.478 10-10s-4.477-10-10-10h-24.165c-5.523 0-10 4.478-10 10s4.478 10 10 10z"/><path d="m213.903 375.6h24.165c5.523 0 10-4.478 10-10s-4.477-10-10-10h-24.165c-5.523 0-10 4.478-10 10s4.477 10 10 10z"/><path d="m281.241 375.6h24.165c5.523 0 10-4.478 10-10s-4.477-10-10-10h-24.165c-5.523 0-10 4.478-10 10s4.477 10 10 10z"/><path d="m348.58 375.6h24.165c5.523 0 10-4.478 10-10s-4.477-10-10-10h-24.165c-5.523 0-10 4.478-10 10s4.477 10 10 10z"/><path d="m415.918 375.6h24.165c5.523 0 10-4.478 10-10s-4.477-10-10-10h-24.165c-5.523 0-10 4.478-10 10s4.477 10 10 10z"/><path d="m147.074 411.661c0-5.522-4.477-10-10-10h-24.164c-5.523 0-10 4.478-10 10s4.477 10 10 10h24.165c5.522 0 9.999-4.477 9.999-10z"/><path d="m214.413 411.661c0-5.522-4.477-10-10-10h-24.165c-5.523 0-10 4.478-10 10s4.477 10 10 10h24.165c5.523 0 10-4.477 10-10z"/><path d="m271.751 421.661c5.523 0 10-4.478 10-10s-4.477-10-10-10h-24.165c-5.523 0-10 4.478-10 10s4.477 10 10 10z"/><path d="m339.089 401.661h-24.165c-5.523 0-10 4.478-10 10s4.477 10 10 10h24.165c5.523 0 10-4.478 10-10s-4.477-10-10-10z"/><path d="m406.428 401.661h-24.165c-5.523 0-10 4.478-10 10s4.477 10 10 10h24.165c5.523 0 10-4.478 10-10s-4.477-10-10-10z"/><path d="m313.253 447.752h-107.197c-5.523 0-10 4.478-10 10s4.477 10 10 10h107.197c5.523 0 10-4.478 10-10s-4.477-10-10-10z"/><path d="m161.126 447.752h-24.193c-5.523 0-10 4.478-10 10s4.477 10 10 10h24.193c5.523 0 10-4.478 10-10s-4.477-10-10-10z"/><path d="m382.376 447.752h-24.165c-5.523 0-10 4.478-10 10s4.477 10 10 10h24.165c5.523 0 10-4.478 10-10s-4.477-10-10-10z"/><path d="m474.276 220.928h-10.878v-58.483c0-17.894-14.564-32.45-32.465-32.45h-12.437v-109.082c0-11.531-9.379-20.913-20.907-20.913h-275.869c-11.528 0-20.906 9.382-20.906 20.913v109.081h-12.438c-17.901 0-32.465 14.557-32.465 32.45v15.993h-12.691c-7.014 0-12.72-5.712-12.72-12.733v-73.252h21.162c12.622 0 22.89-10.284 22.89-22.926v-35.006c0-12.626-10.268-22.897-22.89-22.897h-31.162c-5.523 0-10 4.478-10 10v60.83 83.252c0 18.049 14.678 32.733 32.72 32.733h12.692v22.49h-10.879c-14.996 0-27.196 12.218-27.196 27.234v74.408 156.101c0 18.378 14.933 33.329 33.287 33.329h417.062c18.37 0 33.315-14.951 33.315-33.329v-156.101-74.408c-.001-15.016-12.214-27.234-27.225-27.234zm-443.776-189.306h21.162c1.566 0 2.89 1.327 2.89 2.897v35.007c0 1.586-1.323 2.926-2.89 2.926h-21.162zm400.432 118.372c6.874 0 12.465 5.585 12.465 12.45v58.483h-24.902v-70.934h12.437zm-310.119 70.934v-35.954h32.632c.265 5.286 4.622 9.495 9.974 9.495s9.71-4.209 9.974-9.495h172.519c.265 5.286 4.622 9.495 9.974 9.495s9.71-4.209 9.974-9.495h32.632v35.954zm0-200.015c0-.47.44-.913.906-.913h275.869c.483 0 .907.427.907.913v144.061h-32.632c-.264-5.287-4.622-9.496-9.975-9.496s-9.71 4.209-9.975 9.496h-172.518c-.264-5.287-4.622-9.496-9.975-9.496s-9.71 4.209-9.975 9.496h-32.632zm-44.901 141.531c0-6.865 5.592-12.45 12.465-12.45h12.437v70.934h-24.902zm-30.879 78.484h114.591v12.903c0 18.144 14.754 32.904 32.89 32.904h22.267c5.523 0 10-4.478 10-10s-4.477-10-10-10h-22.267c-7.107 0-12.89-5.789-12.89-12.904v-12.903h160.088v12.903c0 7.115-5.795 12.904-12.918 12.904h-22.267c-5.523 0-10 4.478-10 10s4.477 10 10 10h22.267c18.151 0 32.918-14.761 32.918-32.904v-12.903h114.563c3.983 0 7.224 3.245 7.224 7.234v64.408h-443.662v-64.408c0-3.989 3.228-7.234 7.196-7.234zm436.467 237.743c0 7.35-5.973 13.329-13.315 13.329h-417.061c-7.326 0-13.286-5.979-13.286-13.329v-146.101h443.662z"/><path d="m163.619 77.57h192.071c5.523 0 10-4.478 10-10s-4.477-10-10-10h-192.071c-5.523 0-10 4.478-10 10s4.477 10 10 10z"/><path d="m163.619 130.719h192.071c5.523 0 10-4.478 10-10s-4.477-10-10-10h-192.071c-5.523 0-10 4.478-10 10s4.477 10 10 10z"/><path d="m259.654 286.735h.057c5.523 0 9.972-4.478 9.972-10s-4.505-10-10.028-10-10 4.478-10 10 4.476 10 9.999 10z"/></g></g></svg>