<svg id="Capa_1" enable-background="new 0 0 512 512" height="512" viewBox="0 0 512 512" width="512" xmlns="http://www.w3.org/2000/svg"><g><g><path d="m216.527 175.574h-61.639c-5.523 0-10 4.478-10 10v88.411c0 5.522 4.477 10 10 10h61.639c5.523 0 10-4.478 10-10v-88.411c0-5.522-4.477-10-10-10zm-10 88.411h-41.639v-68.411h41.639z"/><path d="m252.133 185.574c0 5.522 4.477 10 10 10h81.751c5.522 0 10-4.478 10-10s-4.478-10-10-10h-81.751c-5.523 0-10 4.478-10 10z"/><path d="m343.884 219.794h-81.751c-5.523 0-10 4.478-10 10s4.477 10 10 10h81.751c5.522 0 10-4.478 10-10s-4.478-10-10-10z"/><path d="m343.884 263.985h-81.751c-5.523 0-10 4.478-10 10s4.477 10 10 10h81.751c5.522 0 10-4.478 10-10s-4.478-10-10-10z"/><path d="m465.434 58.251h-74.154l-61.266-55.653c-1.84-1.672-4.238-2.598-6.724-2.598h-200.412c-10.715 0-19.433 8.721-19.433 19.439v38.812h-56.879c-23.195 0-42.066 18.881-42.066 42.088v250.436c0 23.207 18.871 42.088 42.066 42.088h119.569l-8.931 41.567h-10.531c-21.383 0-38.78 17.393-38.78 38.771v28.799c0 5.522 4.477 10 10 10h266.158c5.522 0 10-4.478 10-10v-28.8c0-21.378-17.384-38.771-38.751-38.771h-10.557l-8.912-41.567h129.603c23.195 0 42.066-18.881 42.066-42.088v-250.435c0-23.207-18.871-42.088-42.066-42.088zm0 20c12.168 0 22.066 9.908 22.066 22.088v208.036h-78.945v-230.005c0-.04-.006-.079-.006-.119zm-132.144-45.657 39.384 35.776h-39.384zm-286.724 45.657h56.879v230.124h-78.945v-208.036c0-12.18 9.899-22.088 22.066-22.088zm327.485 394.949v18.8h-246.158v-18.8c0-10.351 8.425-18.771 18.78-18.771h18.584c.012 0 .025.002.037.002.015 0 .03-.002.045-.002h171.267c.015 0 .03.002.045.002.012 0 .025-.002.037-.002h18.612c10.339.001 18.751 8.421 18.751 18.771zm-49.762-38.77h-146.628l8.931-41.567h128.785zm141.145-61.568h-141.967c-.049 0-.098-.001-.147 0h-144.704c-.013 0-.025 0-.038 0h-132.012c-12.167 0-22.066-9.908-22.066-22.088v-22.399h186.616c5.523 0 10-4.478 10-10s-4.477-10-10-10h-87.671v-288.375h189.845v48.902c0 10.734 8.73 19.468 19.461 19.468h55.804v220.005h-87.671c-5.522 0-10 4.478-10 10s4.478 10 10 10h186.616v22.399c0 12.18-9.898 22.088-22.066 22.088z"/><path d="m156.389 62.973h111.721c5.522 0 10-4.478 10-10s-4.478-10-10-10h-111.721c-5.523 0-10 4.478-10 10s4.477 10 10 10z"/><path d="m156.389 107.164h111.721c5.522 0 10-4.478 10-10s-4.478-10-10-10h-111.721c-5.523 0-10 4.478-10 10s4.477 10 10 10z"/><path d="m156.389 151.383h177.439c5.522 0 10-4.478 10-10s-4.478-10-10-10h-177.439c-5.523 0-10 4.478-10 10s4.477 10 10 10z"/><path d="m256.014 308.375c-5.523 0-10 4.478-10 10s4.477 10 10 10h.028c5.523 0 9.986-4.478 9.986-10s-4.491-10-10.014-10z"/></g></g></svg>