<svg id="Capa_1" enable-background="new 0 0 512 512" height="512" viewBox="0 0 512 512" width="512" xmlns="http://www.w3.org/2000/svg"><g><g><path d="m427.807 110.461c-2.19-5.07-8.074-7.403-13.146-5.216-5.07 2.19-7.405 8.076-5.216 13.146 39.297 90.979-10.035 207.871-135.347 320.704-.1.09-.197.182-.294.275-13.703 13.379-19.789 13.332-36.041-.381-18.237-16.429-34.84-32.871-49.795-49.289-.372-.495-.786-.948-1.237-1.361-38.362-42.369-65.708-84.576-81.571-126.017-18.709-48.877-20.64-96.094-5.584-136.545 22.988-61.763 85.836-104.25 156.429-105.776 36.154.786 71.769 12.497 100.307 32.986 4.486 3.221 10.734 2.195 13.955-2.291s2.195-10.734-2.291-13.955c-31.845-22.863-71.537-35.91-111.766-36.74-.137-.002-.274-.002-.411 0-38.105.78-74.683 12.056-105.775 32.607-32.199 21.283-56.126 51.088-69.191 86.192-16.778 45.08-14.825 97.182 5.649 150.671 15.359 40.125 40.731 80.73 75.74 121.326-35.107 12.538-54.903 31.544-54.903 53.319 0 19.749 16.609 37.559 46.768 50.149 27.392 11.437 63.587 17.735 101.917 17.735 38.318 0 74.506-6.298 101.895-17.733 30.156-12.591 46.764-30.401 46.764-50.149 0-21.775-19.796-40.781-54.905-53.319 36.672-42.517 62.761-85.026 77.844-126.998 19.738-54.928 19.809-107.952.205-153.34zm-43.145 333.656c0 10.833-12.886 22.682-34.47 31.693-25.003 10.44-58.454 16.19-94.188 16.19-35.746 0-69.205-5.75-94.213-16.189-21.586-9.012-34.473-20.859-34.473-31.693 0-13.511 19.205-27.775 49.437-37.067 14.496 15.657 30.413 31.302 47.743 46.907.077.07.156.139.236.206 10.778 9.111 21.069 15.186 32.067 15.186 9.491 0 19.511-4.523 30.824-15.522 17.28-15.566 33.148-31.167 47.603-46.775 30.232 9.29 49.434 23.553 49.434 37.064z"/><path d="m317.115 144.625-27.741 9.803v-.033c0-10.438-8.502-18.93-18.951-18.93h-80.447c-10.434 0-18.923 8.492-18.923 18.93v58.137c0 10.453 8.489 18.958 18.923 18.958h80.447c10.449 0 18.951-8.505 18.951-18.958v-.014l27.74 9.783c1.985.702 5.534 1.957 9.427 1.957 2.746 0 5.663-.624 8.325-2.506 6.09-4.307 6.09-11.665 6.09-14.436v-47.706c0-2.768 0-10.118-6.095-14.427-6.443-4.557-14.365-1.754-17.746-.558zm-47.741 66.864h-78.321v-56.024h78.321zm51.582-9.041-31.582-11.138v-15.67l31.582-11.16z"/><path d="m256.004 48.698c-73.754 0-133.758 60.042-133.758 133.844 0 73.785 60.004 133.814 133.758 133.814 73.739 0 133.73-60.029 133.73-133.814 0-73.802-59.991-133.844-133.73-133.844zm0 247.658c-62.727 0-113.758-51.057-113.758-113.814 0-62.773 51.031-113.844 113.758-113.844 62.711 0 113.73 51.07 113.73 113.844 0 62.757-51.019 113.814-113.73 113.814z"/><path d="m388.384 83.23c1.949 1.949 4.499 2.922 7.051 2.922 2.56 0 5.121-.98 7.077-2.937 3.905-3.905 3.892-10.251-.014-14.156-3.906-3.904-10.236-3.904-14.143 0-3.905 3.905-3.905 10.237 0 14.143z"/></g></g></svg>