<svg id="Capa_1" enable-background="new 0 0 512 512" height="512" viewBox="0 0 512 512" width="512" xmlns="http://www.w3.org/2000/svg"><g><g><path d="m417.154 332.866c-9.453 0-18.027 3.834-24.254 10.028l-43.846-23.617c.445-2.207.681-4.489.681-6.825 0-18.987-15.452-34.435-34.446-34.435-18.979 0-34.418 15.447-34.418 34.435 0 19.002 15.439 34.462 34.418 34.462 9.46 0 18.04-3.837 24.271-10.034l43.853 23.621c-.442 2.199-.677 4.472-.677 6.8 0 2.335.236 4.617.681 6.823l-43.869 23.608c-6.23-6.186-14.805-10.015-24.26-10.015-18.979 0-34.418 15.447-34.418 34.434s15.439 34.435 34.418 34.435c18.994 0 34.446-15.447 34.446-34.435 0-2.335-.236-4.616-.682-6.822l43.864-23.605c6.225 6.184 14.792 10.012 24.237 10.012 18.979 0 34.418-15.447 34.418-34.435.001-18.988-15.438-34.435-34.417-34.435zm-101.865-5.953c-7.95 0-14.418-6.487-14.418-14.462 0-7.959 6.468-14.435 14.418-14.435 7.966 0 14.446 6.476 14.446 14.435 0 7.975-6.48 14.462-14.446 14.462zm0 109.671c-7.95 0-14.418-6.476-14.418-14.435s6.468-14.434 14.418-14.434c7.966 0 14.446 6.475 14.446 14.434s-6.48 14.435-14.446 14.435zm101.865-54.85c-7.95 0-14.418-6.476-14.418-14.435 0-2.456.619-4.769 1.705-6.795.005-.01.012-.018.017-.027.014-.026.024-.054.038-.08 2.449-4.483 7.204-7.531 12.658-7.531 7.95 0 14.418 6.475 14.418 14.434s-6.468 14.434-14.418 14.434z"/><path d="m414.69 236.99v-83.021c0-8.953-7.282-16.236-16.232-16.236h-54.614v-117.5c0-11.157-9.073-20.233-20.227-20.233h-213.531c-2.631 0-5.213 1.072-7.073 2.932l-84.583 84.637c-1.86 1.859-2.93 4.441-2.93 7.072v330.599c0 11.156 9.073 20.232 20.227 20.232h194.548c25.758 39.992 70.66 66.528 121.642 66.528 79.724 0 144.583-64.912 144.583-144.7 0-57.278-33.439-106.886-81.81-130.31zm-20-79.258v71.36c-13.523-4.199-27.889-6.463-42.773-6.463-2.709 0-5.4.082-8.073.229v-65.126zm-294.604-123.579v50.227c0 .069-.122.204-.234.204l-50.202.038zm-64.359 391.319c-.102 0-.227-.128-.227-.232v-320.607l64.359-.049c11.153 0 20.227-9.063 20.227-20.204v-64.38h203.531c.114 0 .227.115.227.232v205.142c-9.638 1.905-18.936 4.766-27.788 8.488v-78.022c0-5.522-4.478-10-10-10h-61.556c-5.522 0-10 4.478-10 10s4.478 10 10 10h51.556v78.346c-12.782 7.911-24.246 17.756-33.981 29.126h-158.787v-107.472h51.471c5.522 0 10-4.478 10-10s-4.478-10-10-10h-61.471c-5.522 0-10 4.478-10 10v127.472c0 5.522 4.478 10 10 10h154.407c-12.941 21.663-20.391 46.97-20.391 73.988 0 20.682 4.368 40.36 12.215 58.172zm316.19 66.528c-68.712 0-124.612-55.94-124.612-124.7 0-68.744 55.9-124.671 124.612-124.671 68.695 0 124.583 55.927 124.583 124.671 0 68.76-55.888 124.7-124.583 124.7z"/><path d="m156.004 68.868h131.949c5.522 0 10-4.478 10-10s-4.478-10-10-10h-131.949c-5.522 0-10 4.478-10 10s4.477 10 10 10z"/><path d="m156.004 117.34h131.949c5.522 0 10-4.478 10-10s-4.478-10-10-10h-131.949c-5.522 0-10 4.478-10 10s4.477 10 10 10z"/><path d="m171.697 319.544h-100.278c-5.522 0-10 4.478-10 10s4.478 10 10 10h100.278c5.522 0 10-4.478 10-10s-4.477-10-10-10z"/><path d="m94.223 368.043h-22.804c-5.522 0-10 4.478-10 10s4.478 10 10 10h22.804c5.522 0 10-4.478 10-10s-4.478-10-10-10z"/><path d="m171.697 368.043h-41.386c-5.522 0-10 4.478-10 10s4.478 10 10 10h41.386c5.522 0 10-4.478 10-10s-4.477-10-10-10z"/><path d="m179.629 145.84c-5.522 0-10 4.478-10 10s4.478 10 10 10h.057c5.522 0 9.972-4.478 9.972-10s-4.507-10-10.029-10z"/></g></g></svg>