<svg id="Capa_1" enable-background="new 0 0 512 512" height="512" viewBox="0 0 512 512" width="512" xmlns="http://www.w3.org/2000/svg"><g><g><path d="m414.69 236.99v-83.021c0-8.953-7.282-16.236-16.232-16.236h-54.615v-117.5c.001-11.157-9.072-20.233-20.225-20.233h-213.533c-2.632 0-5.216 1.072-7.075 2.934l-84.578 84.633c-1.862 1.86-2.932 4.442-2.932 7.074v330.599c0 11.156 9.073 20.232 20.226 20.232h194.548c25.759 39.992 70.661 66.528 121.643 66.528 79.723 0 144.583-64.912 144.583-144.7 0-57.278-33.44-106.886-81.81-130.31zm-20-79.258v71.36c-13.523-4.199-27.889-6.463-42.774-6.463-2.709 0-5.4.082-8.073.229v-65.126zm-294.605-123.579v50.227c0 .069-.122.204-.234.204l-50.201.038zm-64.359 391.319c-.102 0-.226-.128-.226-.232v-320.607l64.359-.049c11.153 0 20.226-9.063 20.226-20.204v-64.38h203.532c.114 0 .226.115.226.232v205.142c-9.638 1.905-18.937 4.765-27.789 8.488v-78.022c0-5.522-4.477-10-10-10h-61.499c-5.523 0-10 4.478-10 10s4.477 10 10 10h51.499v78.346c-12.782 7.911-24.246 17.756-33.981 29.126h-158.785v-107.472h51.499c5.523 0 10-4.478 10-10s-4.477-10-10-10h-61.499c-5.523 0-10 4.478-10 10v127.472c0 5.522 4.477 10 10 10h154.407c-12.941 21.663-20.391 46.97-20.391 73.988 0 20.682 4.368 40.36 12.215 58.172zm316.191 66.528c-68.711 0-124.612-55.94-124.612-124.7 0-68.744 55.901-124.671 124.612-124.671 68.695 0 124.583 55.927 124.583 124.671 0 68.76-55.888 124.7-124.583 124.7z"/><path d="m156.004 68.868h131.949c5.523 0 10-4.478 10-10s-4.477-10-10-10h-131.949c-5.523 0-10 4.478-10 10s4.477 10 10 10z"/><path d="m156.004 117.34h131.949c5.523 0 10-4.478 10-10s-4.477-10-10-10h-131.949c-5.523 0-10 4.478-10 10s4.477 10 10 10z"/><path d="m171.698 319.544h-100.279c-5.523 0-10 4.478-10 10s4.477 10 10 10h100.279c5.523 0 10-4.478 10-10s-4.477-10-10-10z"/><path d="m171.698 368.043h-41.386c-5.523 0-10 4.478-10 10s4.477 10 10 10h41.386c5.523 0 10-4.478 10-10s-4.477-10-10-10z"/><path d="m94.222 368.043h-22.803c-5.523 0-10 4.478-10 10s4.477 10 10 10h22.803c5.523 0 10-4.478 10-10s-4.477-10-10-10z"/><path d="m351.917 357.102c-19.494 0-35.353 15.867-35.353 35.37v43.171c0 19.487 15.859 35.341 35.353 35.341 19.478 0 35.325-15.854 35.325-35.341v-43.171c-.001-19.503-15.847-35.37-35.325-35.37zm15.324 78.541c0 8.459-6.875 15.341-15.325 15.341-8.466 0-15.353-6.882-15.353-15.341v-43.171c0-8.476 6.887-15.37 15.353-15.37 8.45 0 15.325 6.895 15.325 15.37z"/><path d="m351.917 263.617c-19.494 0-35.353 15.854-35.353 35.341s15.859 35.342 35.353 35.342c19.478 0 35.325-15.854 35.325-35.342s-15.847-35.341-35.325-35.341zm0 50.683c-8.466 0-15.353-6.882-15.353-15.342 0-8.459 6.887-15.341 15.353-15.341 8.45 0 15.325 6.882 15.325 15.341-.001 8.46-6.875 15.342-15.325 15.342z"/><path d="m179.686 145.84h-.057c-5.523 0-9.972 4.478-9.972 10s4.505 10 10.028 10 10-4.478 10-10-4.476-10-9.999-10z"/></g></g></svg>