<svg id="Capa_1" enable-background="new 0 0 512 512" height="512" viewBox="0 0 512 512" width="512" xmlns="http://www.w3.org/2000/svg"><g><g><path d="m481.166 81.427h-10.88c-1.078-8.476-8.11-15.099-16.763-15.548v-37.169c0-15.004-12.205-27.21-27.206-27.21h-6.718c-15.001 0-27.206 12.206-27.206 27.21v37.169c-9.411.488-16.923 8.276-16.923 17.807v37.964c0 6.142 3.117 11.567 7.852 14.781v231.037c0 .335.017.67.051 1.002.103 1.032.363 2.017.756 2.933l29.629 70.265c1.563 3.706 5.194 6.115 9.216 6.114s7.652-2.411 9.214-6.118l29.598-70.259c.393-.917.654-1.903.757-2.936.033-.333.051-.667.051-1.002v-231.036c4.734-3.214 7.852-8.639 7.852-14.781v-20.224h10.721c5.974 0 10.834 4.862 10.834 10.839v108.138c0 5.522 4.477 10 10 10s10-4.478 10-10v-108.137c-.001-17.005-13.834-30.839-30.835-30.839zm-68.773-52.717c0-3.976 3.232-7.21 7.206-7.21h6.718c3.974 0 7.206 3.234 7.206 7.21v37.122h-21.13zm10.574 383.326-14.576-34.567h29.138zm19.626-54.567h-39.271v-217.965h39.271zm7.852-237.965h-54.975v-33.672h54.975z"/><path d="m277.117 37.857c-1.875-1.876-4.419-2.93-7.072-2.93h-207.038c-11.407 0-20.687 9.294-20.687 20.718v29.297h-21.605c-11.423 0-20.715 9.282-20.715 20.689v384.151c0 11.424 9.292 20.718 20.715 20.718h258.458c11.422 0 20.715-9.294 20.715-20.718v-21.613h29.287c11.407 0 20.687-9.294 20.687-20.717v-332.691c0-2.651-1.053-5.195-2.928-7.07zm2.928 31.217 35.678 35.687h-34.963c-.374 0-.715-.342-.715-.718zm49.13 379.095h-266.168c-.353 0-.687-.349-.687-.717v-131.387c0-5.522-4.477-10-10-10s-10 4.478-10 10v131.387c0 11.423 9.28 20.717 20.687 20.717h216.881v21.613c0 .362-.354.718-.715.718h-258.458c-.374 0-.715-.342-.715-.718v-384.151c0-.354.347-.688.715-.688h21.605v121.302c0 5.522 4.477 10 10 10s10-4.478 10-10v-170.599c0-.369.333-.718.687-.718h197.039v49.115c0 11.424 9.292 20.718 20.715 20.718h49.101v322.691c-.001.368-.334.717-.687.717z"/><path d="m105.355 106.7h117.495c5.523 0 10-4.478 10-10s-4.477-10-10-10h-117.495c-5.523 0-10 4.478-10 10s4.478 10 10 10z"/><path d="m105.355 158.302h53.886c5.523 0 10-4.478 10-10s-4.477-10-10-10h-53.886c-5.523 0-10 4.478-10 10s4.478 10 10 10z"/><path d="m199.243 148.302c0 5.522 4.477 10 10 10h33.619c5.523 0 10-4.478 10-10s-4.477-10-10-10h-33.619c-5.523 0-10 4.477-10 10z"/><path d="m286.826 189.933h-181.471c-5.523 0-10 4.478-10 10s4.477 10 10 10h181.471c5.523 0 10-4.478 10-10s-4.477-10-10-10z"/><path d="m286.826 241.534h-104.596c-5.523 0-10 4.478-10 10s4.477 10 10 10h104.596c5.523 0 10-4.478 10-10s-4.477-10-10-10z"/><path d="m105.355 261.534h26.872c5.523 0 10-4.478 10-10s-4.477-10-10-10h-26.872c-5.523 0-10 4.478-10 10s4.478 10 10 10z"/><path d="m286.826 293.165h-181.471c-5.523 0-10 4.478-10 10s4.477 10 10 10h181.471c5.523 0 10-4.478 10-10s-4.477-10-10-10z"/><path d="m105.355 364.795h76.393c5.523 0 10-4.478 10-10s-4.477-10-10-10h-76.393c-5.523 0-10 4.478-10 10s4.478 10 10 10z"/><path d="m286.826 344.795h-55.104c-5.523 0-10 4.478-10 10s4.477 10 10 10h55.104c5.523 0 10-4.478 10-10s-4.477-10-10-10z"/><path d="m286.826 396.397h-181.471c-5.523 0-10 4.478-10 10s4.477 10 10 10h181.471c5.523 0 10-4.478 10-10s-4.477-10-10-10z"/><path d="m52.32 261.154c-5.523 0-10 4.478-10 10v.028c0 5.522 4.477 9.986 10 9.986s10-4.492 10-10.015-4.477-9.999-10-9.999z"/></g></g></svg>