<svg id="Capa_1" enable-background="new 0 0 512 512" height="512" viewBox="0 0 512 512" width="512" xmlns="http://www.w3.org/2000/svg"><g><g><path d="m467.928 121.295h-104.29v-9.656c0-11.198-9.103-20.309-20.29-20.309h-44.424v-33.419c0-23.661-19.262-42.911-42.939-42.911-23.676 0-42.938 19.25-42.938 42.911v33.419h-44.396c-11.203 0-20.318 9.11-20.318 20.309v9.656h-104.29c-24.285 0-44.043 19.758-44.043 44.044v287.646c0 24.27 19.758 44.015 44.043 44.015h423.885c24.301 0 44.072-19.745 44.072-44.016v-287.645c0-24.286-19.771-44.044-44.072-44.044zm-234.88-63.384c0-12.633 10.29-22.911 22.938-22.911s22.938 10.278 22.938 22.911v33.419h-45.876zm-64.714 53.728c0-.142.173-.309.318-.309h174.695c.139 0 .29.161.29.309v29.569c0 .142-.144.281-.29.281h-174.695c-.164 0-.318-.158-.318-.281zm299.594 365.361h-423.885c-13.258 0-24.043-10.773-24.043-24.016v-14.896h191.086c5.522 0 10-4.478 10-10s-4.478-10-10-10h-191.086v-252.75c0-13.258 10.785-24.044 24.043-24.044h104.295c.048 11.142 9.14 20.194 20.314 20.194h174.695c11.158 0 20.238-9.052 20.286-20.194h104.294c13.273 0 24.072 10.786 24.072 24.044v252.75h-191.113c-5.522 0-10 4.478-10 10s4.478 10 10 10h191.114v14.896c0 13.243-10.799 24.016-24.072 24.016z"/><path d="m148.498 187.117c-53.842 0-97.646 43.771-97.646 97.573 0 28.256 12.086 53.741 31.359 71.576.384.421.815.806 1.278 1.163 17.278 15.436 40.064 24.836 65.009 24.836 24.837 0 47.534-9.32 64.784-24.637.608-.438 1.15-.938 1.631-1.481 19.197-17.83 31.23-43.263 31.23-71.456.001-53.802-43.803-97.574-97.645-97.574zm-45.452 160.41c10.922-13.698 27.67-21.936 45.452-21.936 17.768 0 34.52 8.235 45.463 21.927-12.79 9.264-28.494 14.746-45.463 14.746-16.964.001-32.664-5.479-45.452-14.737zm21.238-66.122c0-13.352 10.862-24.214 24.214-24.214 13.367 0 24.242 10.862 24.242 24.214 0 13.336-10.875 24.186-24.242 24.186-13.352 0-24.214-10.85-24.214-24.186zm84.283 52.377c-7.756-9.298-17.547-16.622-28.489-21.474 7.825-7.974 12.662-18.883 12.662-30.903 0-24.38-19.847-44.214-44.242-44.214-24.38 0-44.214 19.834-44.214 44.214 0 12.017 4.831 22.923 12.646 30.896-10.949 4.854-20.743 12.183-28.494 21.491-10.982-13.384-17.584-30.486-17.584-49.102 0-42.774 34.832-77.573 77.646-77.573s77.646 34.799 77.646 77.573c0 18.612-6.6 35.71-17.577 49.092z"/><path d="m293.459 258.296h153.606c7.749 0 14.054-6.315 14.054-14.078v-43.051c0-7.747-6.305-14.05-14.054-14.05h-153.606c-7.765 0-14.082 6.303-14.082 14.05v43.051c0 7.762 6.317 14.078 14.082 14.078zm5.918-51.179h141.742v31.179h-141.742z"/><path d="m289.377 302.508h161.742c5.522 0 10-4.478 10-10s-4.478-10-10-10h-161.742c-5.522 0-10 4.478-10 10s4.477 10 10 10z"/><path d="m289.377 342.188h161.742c5.522 0 10-4.478 10-10s-4.478-10-10-10h-161.742c-5.522 0-10 4.478-10 10s4.477 10 10 10z"/><path d="m461.119 371.896c0-5.522-4.478-10-10-10h-161.742c-5.522 0-10 4.478-10 10s4.478 10 10 10h161.742c5.523 0 10-4.477 10-10z"/><path d="m255.985 418.089c-5.522 0-10 4.478-10 10s4.478 10 10 10h.058c5.522 0 9.972-4.478 9.972-10s-4.507-10-10.03-10z"/></g></g></svg>