<svg id="Capa_1" enable-background="new 0 0 512 512" height="512" viewBox="0 0 512 512" width="512" xmlns="http://www.w3.org/2000/svg"><g><g><path d="m470.961 63h-429.922c-22.629 0-41.039 18.392-41.039 40.998v304.004c0 22.606 18.41 40.998 41.039 40.998h429.923c22.628 0 41.038-18.392 41.038-40.998v-159.829c0-5.522-4.477-10-10-10s-10 4.478-10 10v64.479h-187.301c-9.697-21.952-25.117-40.759-44.948-54.669-11.064-7.761-23.103-13.698-35.766-17.711 15.081-11.86 24.794-30.246 24.794-50.868 0-35.671-29.053-64.691-64.764-64.691s-64.764 29.021-64.764 64.691c0 20.622 9.712 39.007 24.793 50.867-12.666 4.013-24.708 9.95-35.777 17.711-19.841 13.911-35.265 32.719-44.963 54.67h-43.304v-208.654c0-11.578 9.438-20.998 21.039-20.998h429.923c11.6 0 21.038 9.42 21.038 20.998v54.493c0 5.522 4.477 10 10 10s10-4.478 10-10v-54.493c0-22.606-18.41-40.998-41.039-40.998zm-331.71 126.404c0-24.643 20.081-44.691 44.764-44.691s44.764 20.049 44.764 44.691c0 24.659-20.081 44.721-44.764 44.721s-44.764-20.062-44.764-44.721zm44.765 64.721c41.172 0 79.035 23.012 98.399 58.527h-196.827c19.366-35.515 57.24-58.527 98.428-58.527zm113.932 78.527c.026 0 .051.003.077.003.022 0 .044-.003.065-.003h193.91v75.35c0 11.578-9.438 20.998-21.039 20.998h-429.922c-11.601 0-21.039-9.42-21.039-20.998v-75.35z"/><path d="m70.377 390.826h23.165v5.739c0 5.522 4.477 10 10 10s10-4.478 10-10v-5.739h328.082c5.523 0 10-4.478 10-10s-4.477-10-10-10h-328.082v-5.711c0-5.522-4.477-10-10-10s-10 4.478-10 10v5.711h-23.165c-5.523 0-10 4.478-10 10s4.477 10 10 10z"/><path d="m310.07 110.757c-11.297 0-20.488 9.185-20.488 20.474v91.833c0 11.289 9.191 20.474 20.488 20.474h133.594c11.313 0 20.517-9.185 20.517-20.474v-91.834c0-11.289-9.204-20.474-20.517-20.474h-133.594zm134.111 20.473v91.833c0 .209-.243.474-.517.474h-133.594c-.232 0-.488-.248-.488-.474v-91.833c0-.252.228-.474.488-.474h133.594c.274.001.517.265.517.474z"/><path d="m502 193.332c-5.523 0-10 4.478-10 10v.057c0 5.522 4.477 9.972 10 9.972s10-4.506 10-10.028-4.477-10.001-10-10.001z"/></g></g></svg>