<svg id="Capa_1" enable-background="new 0 0 512 512" height="512" viewBox="0 0 512 512" width="512" xmlns="http://www.w3.org/2000/svg"><g><g><path d="m480.827 410.143c-5.21-15.086-9.101-19.134-17.405-26.853-1.542-1.433-3.239-3.011-5.18-4.899-.348-.511-.743-1-1.197-1.453-.484-.484-1.006-.908-1.556-1.272l-123.432-123.447 87.681-87.673c1.627.422 3.313.661 5.04.661 5.317 0 10.304-2.059 14.044-5.799l33.644-33.651c7.742-7.743 7.743-20.343.001-28.087v-.001l-.978-.979 31.278-31.261c12.314-12.316 12.314-32.357-.017-44.69l-5.935-5.907c-5.946-5.948-13.874-9.224-22.321-9.224s-16.375 3.276-22.318 9.221l-31.278 31.261-.981-.981c-3.739-3.74-8.727-5.8-14.044-5.8-5.214 0-10.104 1.991-13.821 5.598l-11.267-11.271c-6.797-6.818-15.871-10.573-25.547-10.573-9.677 0-18.75 3.755-25.538 10.563l-84.975 84.992c-3.905 3.905-3.904 10.237.001 14.142 1.953 1.952 4.511 2.927 7.07 2.927s5.119-.977 7.071-2.929l84.985-85.002c3.018-3.026 7.061-4.694 11.385-4.694s8.367 1.668 11.395 4.704l11.275 11.278-19.668 19.689c-3.769 3.743-5.845 8.741-5.844 14.072 0 1.734.242 3.425.667 5.055l-87.668 87.685-121.324-121.336c-.077-.082-.145-.169-.225-.249s-.166-.148-.248-.224l-52.064-52.071c-15.492-15.533-40.765-15.556-56.348-.046l-23.496 23.445c-15.547 15.511-15.592 40.766-.094 56.305l173.979 174.012-135.346 135.372c-.943.943-1.688 2.065-2.19 3.301l-36.054 88.592c-1.516 3.725-.653 7.996 2.19 10.839 1.912 1.913 4.47 2.93 7.073 2.93 1.268 0 2.546-.241 3.766-.737l88.575-36.032c1.237-.503 2.36-1.248 3.304-2.192l135.357-135.383 123.508 123.531c.347.509.741.997 1.193 1.448.422.422.876.789 1.349 1.119 1.923 1.975 3.526 3.699 4.979 5.262 7.715 8.302 11.764 12.192 26.869 17.402l25.087 8.672c.341.14.689.259 1.041.36l62.447 21.586c1.069.369 2.172.549 3.266.549 2.609 0 5.165-1.021 7.072-2.928 2.706-2.706 3.631-6.719 2.381-10.336zm-14.511-381.171c2.169-2.17 5.073-3.365 8.177-3.365s6.008 1.195 8.195 3.383l5.935 5.907c4.519 4.519 4.519 11.873.002 16.39l-31.278 31.261-22.31-22.314zm-60.443 30.375 7.941 7.942c.003.003.005.006.008.009s.006.005.009.008l36.441 36.448.001.001.001.001 7.954 7.956-33.449 33.456-52.327-52.365zm-40.591 54.575 38.384 38.412-85.75 85.743-38.384-38.389zm-339.536-36.684c-7.704-7.724-7.673-20.292.068-28.016l23.488-23.436c3.882-3.864 8.969-5.797 14.05-5.797 5.086 0 10.167 1.936 14.029 5.807l45.242 45.247-25.761 25.767c-.002.002-.005.004-.008.007s-.004.005-.007.008l-25.759 25.764zm78.433 374.644-64.731 26.333 26.351-64.75 7.373-7.374 38.395 38.403zm21.528-21.532-38.395-38.403 112.401-112.423 38.395 38.403zm258.44 5.358-177.08-177.115c-.091-.098-.174-.202-.269-.298-.095-.095-.198-.177-.296-.267l-121.274-121.297 18.698-18.701 117.727 117.724c1.953 1.952 4.511 2.929 7.07 2.929s5.118-.977 7.071-2.929c3.905-3.905 3.905-10.237 0-14.142l-117.728-117.725 18.698-18.701 298.93 298.966-18.71 18.713-117.698-117.749c-3.905-3.907-10.236-3.908-14.141-.003-3.906 3.904-3.908 10.235-.003 14.141l117.703 117.753zm13.97 14.313 25.931-25.936c.002-.001.003-.003.005-.004l.005-.005 25.947-25.952c6.548 6.087 8.159 7.66 11.92 18.55l6.81 19.708-32.337 32.366-19.724-6.818c-10.911-3.764-12.329-5.208-18.557-11.909zm59.294 25.99 18.588-18.604 9.822 28.425z"/><path d="m253.397 253.363c-3.905 3.905-3.905 10.237 0 14.142l.028.028c1.95 1.949 4.499 2.922 7.05 2.922 2.56 0 5.122-.98 7.078-2.937 3.905-3.905 3.89-10.25-.014-14.156-3.905-3.903-10.237-3.903-14.142.001z"/></g></g></svg>