<svg id="Capa_1" enable-background="new 0 0 512 512" height="512" viewBox="0 0 512 512" width="512" xmlns="http://www.w3.org/2000/svg"><g><g><path d="m99.101 132.683c-3.905-3.905-10.236-3.906-14.142-.002-23.427 23.422-36.33 54.539-36.33 87.619 0 33.081 12.902 64.198 36.33 87.62 1.953 1.952 4.511 2.928 7.07 2.928 2.56 0 5.12-.977 7.072-2.93 3.905-3.906 3.904-10.237-.001-14.143-19.649-19.644-30.47-45.737-30.47-73.476 0-27.737 10.821-53.831 30.47-73.475 3.905-3.904 3.906-10.235.001-14.141z"/><path d="m377.146 182.148c-5.522 0-10 4.478-10 10v15.376h-22.55v-106.515c0-48.804-39.749-88.509-88.606-88.509-48.842 0-88.578 39.705-88.578 88.509v106.516h-22.549v-15.376c0-5.522-4.477-10-10-10s-10 4.478-10 10v58.994c0 58.735 38.864 108.568 92.242 125.166v53.968h-34.59c-19.113 0-34.662 15.527-34.662 34.612v20.986c0 7.513 6.126 13.625 13.657 13.625h49.579c5.523 0 10-4.478 10-10s-4.477-10-10-10h-43.236v-14.611c0-8.058 6.578-14.612 14.662-14.612h146.979c8.069 0 14.634 6.555 14.634 14.612v14.611h-43.235c-5.522 0-10 4.478-10 10s4.478 10 10 10h49.607c7.515 0 13.628-6.112 13.628-13.625v-20.986c0-19.085-15.537-34.612-34.634-34.612h-34.618v-53.966c53.393-16.595 92.271-66.43 92.271-125.168v-58.994c-.001-5.523-4.479-10.001-10.001-10.001zm-189.735-81.139c0-37.775 30.764-68.509 68.578-68.509 37.83 0 68.606 30.733 68.606 68.509v33.049h-137.184zm0 53.049h137.185v26.08h-137.185zm0 46.08h137.185v51.005c0 37.775-30.776 68.509-68.606 68.509-37.814 0-68.578-30.733-68.578-68.509v-51.005zm87.464 230.138h-37.771v-49.45c6.169.893 12.473 1.365 18.886 1.365s12.717-.471 18.886-1.364v49.449zm92.271-179.133c0 61.232-49.864 111.048-111.156 111.048-61.276 0-111.127-49.815-111.127-111.048v-23.618h22.549v23.618c0 48.804 39.736 88.509 88.578 88.509 48.857 0 88.606-39.705 88.606-88.509v-23.618h22.55z"/><path d="m461.401 98.324c-3.907-3.905-10.24-3.9-14.142.006-3.903 3.907-3.9 10.239.007 14.143 28.847 28.821 44.734 67.12 44.734 107.841s-15.887 79.021-44.734 107.842c-3.906 3.903-3.909 10.235-.006 14.143 1.953 1.954 4.514 2.932 7.074 2.932 2.558 0 5.115-.976 7.068-2.926 32.628-32.6 50.598-75.924 50.598-121.991s-17.97-89.391-50.599-121.99z"/><path d="m427.018 132.679c-3.909-3.904-10.239-3.9-14.143.006-3.903 3.907-3.9 10.239.006 14.143 19.661 19.644 30.489 45.736 30.489 73.473s-10.828 53.83-30.489 73.474c-3.906 3.903-3.909 10.235-.006 14.143 1.953 1.954 4.514 2.932 7.074 2.932 2.558 0 5.115-.976 7.068-2.926 23.442-23.422 36.353-54.54 36.353-87.622 0-33.083-12.91-64.201-36.352-87.623z"/><path d="m20 220.314c0-40.723 15.88-79.022 44.714-107.844 3.906-3.904 3.908-10.235.003-14.142s-10.236-3.908-14.142-.003c-32.614 32.6-50.575 75.923-50.575 121.989s17.961 89.39 50.575 121.988c1.952 1.952 4.511 2.928 7.069 2.928 2.56 0 5.12-.977 7.073-2.931 3.904-3.906 3.903-10.237-.003-14.142-28.834-28.821-44.714-67.121-44.714-107.843z"/><path d="m255.989 479.5c-5.523 0-10 4.478-10 10s4.477 10 10 10h.057c5.522 0 9.972-4.478 9.972-10s-4.506-10-10.029-10z"/></g></g></svg>