<svg id="Capa_1" enable-background="new 0 0 512 512" height="512" viewBox="0 0 512 512" width="512" xmlns="http://www.w3.org/2000/svg"><g><g><path d="m314.573 381.212c5.522 0 10-4.478 10-10s-4.478-10-10-10h-36.911c-5.522 0-10 4.478-10 10v80.275c0 5.522 4.478 10 10 10h36.911c5.522 0 10-4.478 10-10s-4.478-10-10-10h-26.911v-20.137h26.911c5.522 0 10-4.478 10-10s-4.478-10-10-10h-26.911v-20.138z"/><path d="m242.92 391.281c0-16.58-13.497-30.069-30.088-30.069h-29.677c-5.522 0-10 4.478-10 10v40.138 40.138c0 5.522 4.478 10 10 10s10-4.478 10-10v-30.138h13.499l17.323 34.613c1.753 3.502 5.283 5.526 8.95 5.526 1.504 0 3.031-.341 4.468-1.06 4.938-2.472 6.938-8.479 4.467-13.418l-14.671-29.313c9.363-5.102 15.729-15.03 15.729-26.417zm-49.765-10.069h19.677c5.563 0 10.088 4.517 10.088 10.069 0 5.458-4.62 10.068-10.088 10.068h-19.677z"/><path d="m420.851 390.021c3.908 3.904 10.238 3.899 14.143-.006 3.903-3.907 3.9-10.239-.006-14.143-19.566-19.548-51.399-19.546-70.964 0-9.479 9.47-14.7 22.064-14.7 35.462s5.221 25.993 14.699 35.463c9.783 9.773 22.633 14.661 35.482 14.661s25.699-4.888 35.482-14.661c3.906-3.903 3.909-10.235.006-14.143-3.904-3.906-10.234-3.909-14.143-.006-11.77 11.76-30.921 11.76-42.692 0-5.697-5.692-8.835-13.262-8.835-21.314s3.138-15.621 8.836-21.313c11.77-11.759 30.922-11.759 42.692 0z"/><path d="m109.786 375.668c-19.688 0-35.705 16.007-35.705 35.682 0 19.659 16.018 35.653 35.705 35.653 19.672 0 35.676-15.994 35.676-35.653 0-19.675-16.004-35.682-35.676-35.682zm0 51.335c-8.66 0-15.705-7.022-15.705-15.653 0-8.646 7.045-15.682 15.705-15.682 8.644 0 15.676 7.035 15.676 15.682 0 8.63-7.032 15.653-15.676 15.653z"/><path d="m431.749 0h-351.47c-36.27 0-65.779 29.485-65.779 65.729v82.515c0 5.522 4.478 10 10 10s10-4.478 10-10v-82.515c0-25.215 20.536-45.729 45.779-45.729h351.47c25.228 0 45.751 20.514 45.751 45.729v244.971h-443v-72.628c0-5.522-4.478-10-10-10s-10 4.478-10 10v208.2c0 36.243 29.509 65.728 65.779 65.728h351.47c36.255 0 65.751-29.485 65.751-65.729v-380.542c0-36.244-29.496-65.729-65.751-65.729zm0 492h-351.47c-25.243 0-45.779-20.514-45.779-45.729v-115.572h443v115.572c0 25.215-20.523 45.729-45.751 45.729z"/><path d="m290.571 77.555h-164.841c-15.62 0-28.328 12.7-28.328 28.312v118.968c0 15.596 12.708 28.283 28.328 28.283h164.841c15.62 0 28.328-12.688 28.328-28.283v-14.226l60.447 24.189c4.923 1.971 10.66 3.861 16.218 3.861 3.686 0 7.293-.832 10.531-3.023 8.502-5.754 8.502-17.186 8.502-21.488v-97.595c0-4.311 0-15.762-8.494-21.515-8.116-5.499-18.559-2.442-26.755.835l-60.449 24.189v-14.196c0-15.611-12.708-28.311-28.328-28.311zm0 155.562h-164.841c-4.592 0-8.328-3.716-8.328-8.283v-118.968c0-4.505 3.813-8.312 8.328-8.312h164.841c4.515 0 8.328 3.807 8.328 8.312v28.768.032 61.337.032 28.798c0 4.568-3.736 8.284-8.328 8.284zm96.203-118.674c3.841-1.535 6.205-2.111 7.552-2.319.142.912.271 2.322.271 4.429v97.595c0 2.093-.129 3.495-.271 4.402-1.345-.207-3.707-.782-7.549-2.32l-67.879-27.163v-47.463z"/><path d="m259.05 186.998h-101.798c-5.522 0-10 4.478-10 10s4.478 10 10 10h101.798c5.522 0 10-4.478 10-10s-4.478-10-10-10z"/><path d="m159.238 147.67h.028c5.522 0 9.986-4.478 9.986-10s-4.492-10-10.015-10-10 4.478-10 10 4.479 10 10.001 10z"/><path d="m24.5 203.171c5.522 0 10-4.506 10-10.028s-4.478-10-10-10-10 4.478-10 10v.057c0 5.522 4.478 9.971 10 9.971z"/></g></g></svg>