<?xml version="1.0" encoding="iso-8859-1"?>
<!-- Generator: Adobe Illustrator 19.0.0, SVG Export Plug-In . SVG Version: 6.00 Build 0)  -->
<svg version="1.1" id="Capa_1" xmlns="http://www.w3.org/2000/svg" xmlns:xlink="http://www.w3.org/1999/xlink" x="0px" y="0px"
	 viewBox="0 0 512 512" style="enable-background:new 0 0 512 512;" xml:space="preserve">
<g>
	<g>
		<path d="M177.091,66.078c-1.869-1.869-4.438-2.929-7.067-2.929c-2.63,0-5.208,1.06-7.078,2.929
			c-1.859,1.859-2.919,4.429-2.919,7.068c0,2.629,1.06,5.208,2.919,7.068c1.869,1.859,4.448,2.929,7.078,2.929
			c2.629,0,5.208-1.07,7.067-2.929c1.859-1.859,2.919-4.439,2.919-7.068C180.01,70.507,178.951,67.938,177.091,66.078z"/>
	</g>
</g>
<g>
	<g>
		<path d="M501.912,491.84h-51.694c1.022-3.723,1.557-7.589,1.557-11.496c0-21.373-15.501-39.183-35.849-42.804
			c0.012-0.198,0.03-0.395,0.03-0.596v-33.307c53.758-5.054,95.969-50.433,95.969-105.491c0-28.241-11.39-55.439-31.386-75.27
			c-1.471-17.977-9.298-34.666-22.307-47.372c-14.056-13.728-32.62-21.288-52.272-21.288c-19.652,0-38.216,7.561-52.272,21.288
			c-5.551,5.421-10.149,11.572-13.722,18.234V73.143c0-5.521-4.477-9.997-9.997-9.997h-17.007V9.997
			c0-5.521-4.477-9.997-9.997-9.997H37.078c-5.52,0-9.997,4.476-9.997,9.997v53.15H10.073c-5.52,0-9.997,4.476-9.997,9.997v428.86
			c0,5.521,4.477,9.997,9.997,9.997l491.84-0.167c5.52,0,9.997-4.476,9.997-9.997C511.909,496.315,507.432,491.84,501.912,491.84z
			 M347.9,234.743c2-1.833,3.17-4.401,3.24-7.114c0.771-29.956,24.849-53.422,54.818-53.422s54.048,23.465,54.819,53.422
			c0.07,2.712,1.24,5.28,3.24,7.114c17.739,16.254,27.913,39.363,27.913,63.401c0,44.022-33.265,80.401-75.975,85.372v-38.322
			c0-0.003,0-0.007,0-0.01V306.22l17.815-17.815c3.904-3.904,3.904-10.234,0-14.137s-10.232-3.904-14.138,0l-3.678,3.678v-2.731
			c0-5.521-4.477-9.997-9.997-9.997s-9.997,4.476-9.997,9.997v26.86c0,0.003,0,0.007,0,0.01v18.973l-21.422-21.422
			c-3.904-3.904-10.232-3.904-14.138,0c-3.904,3.904-3.904,10.234,0,14.137l35.559,35.56v34.187
			c-42.71-4.971-75.975-41.35-75.975-85.372C319.987,274.108,330.16,250.998,347.9,234.743z M339.965,380.989
			c15.668,12.507,34.946,20.668,55.997,22.648v15.187c-9.739-6.983-21.589-10.956-34.074-10.956c-7.69,0-15.102,1.498-21.923,4.252
			V380.989z M128.033,492.007v-123.96h0.001h69.834l-52.238,52.238c-3.904,3.904-3.904,10.234,0,14.138
			c1.952,1.952,4.511,2.928,7.069,2.928s5.116-0.977,7.069-2.928l52.238-52.239v45.881l-63.941,63.941H128.033z M212.007,492.007
			h-35.665l35.665-35.665V492.007z M257.64,492.007h-25.639V358.05c0-5.521-4.477-9.997-9.997-9.997H118.038
			c-5.52,0-9.997,4.476-9.997,9.997v133.956H60.057v-94.127c0-5.521-4.477-9.997-9.997-9.997s-9.997,4.476-9.997,9.997v94.127H20.07
			V83.14h110.971c5.52,0,9.997-4.476,9.997-9.997c0-5.521-4.477-9.997-9.997-9.997H47.075V19.993h245.894v43.153h-82.947
			c-5.52,0-9.997,4.476-9.997,9.997c0,5.521,4.477,9.997,9.997,9.997h109.95v153.122c-12.857,17.896-19.978,39.563-19.978,61.885
			c0,23.186,7.492,44.652,20.172,62.118c-0.125,0.632-0.193,1.284-0.193,1.951v63.145c0,0.058,0.008,0.114,0.009,0.171
			c-3.665,3.765-6.843,8.043-9.412,12.755c-3.594-0.944-7.311-1.43-11.049-1.43c-23.978,0-43.486,19.508-43.486,43.486
			C256.034,484.31,256.587,488.232,257.64,492.007z M428.772,491.84H293.98h-14.944c-1.958-3.49-3.009-7.453-3.009-11.496
			c0-12.954,10.539-23.492,23.492-23.492c4.01,0,7.97,1.032,11.454,2.984c2.603,1.458,5.723,1.676,8.504,0.598
			c2.781-1.081,4.935-3.346,5.873-6.179c5.222-15.787,19.907-26.393,36.537-26.393c15.285,0,29.128,9.055,35.264,23.067
			c1.678,3.831,5.567,6.218,9.737,5.969c0.464-0.027,0.93-0.046,1.399-0.046c12.954,0,23.492,10.539,23.492,23.492
			C431.78,484.388,430.729,488.351,428.772,491.84z"/>
	</g>
</g>
<g>
	<g>
		<path d="M107.049,133.71H59.065c-5.52,0-9.997,4.476-9.997,9.997v55.982c0,5.521,4.476,9.997,9.997,9.997h47.984
			c5.52,0,9.997-4.476,9.997-9.997v-55.982C117.046,138.186,112.569,133.71,107.049,133.71z M97.052,189.692H69.061v-35.988h27.991
			V189.692z"/>
	</g>
</g>
<g>
	<g>
		<path d="M194.013,133.71h-47.984c-5.52,0-9.997,4.476-9.997,9.997v55.982c0,5.521,4.476,9.997,9.997,9.997h47.984
			c5.52,0,9.997-4.476,9.997-9.997v-55.982C204.009,138.186,199.533,133.71,194.013,133.71z M184.016,189.692h-27.991v-35.988
			h27.991V189.692z"/>
	</g>
</g>
<g>
	<g>
		<path d="M280.977,133.71h-47.984c-5.52,0-9.997,4.476-9.997,9.997v55.982c0,5.521,4.477,9.997,9.997,9.997h47.984
			c5.52,0,9.997-4.476,9.997-9.997v-55.982C290.974,138.186,286.498,133.71,280.977,133.71z M270.981,189.692H242.99v-35.988h27.991
			V189.692z"/>
	</g>
</g>
<g>
	<g>
		<path d="M107.049,245.674H59.065c-5.52,0-9.997,4.476-9.997,9.997v55.982c0,5.521,4.476,9.997,9.997,9.997h47.984
			c5.52,0,9.997-4.476,9.997-9.997v-55.982C117.046,250.149,112.569,245.674,107.049,245.674z M97.052,301.656H69.061v-35.988
			h27.991V301.656z"/>
	</g>
</g>
<g>
	<g>
		<path d="M194.013,245.674h-47.984c-5.52,0-9.997,4.476-9.997,9.997v55.982c0,5.521,4.476,9.997,9.997,9.997h47.984
			c5.52,0,9.997-4.476,9.997-9.997v-55.982C204.009,250.149,199.533,245.674,194.013,245.674z M184.016,301.656h-27.991v-35.988
			h27.991V301.656z"/>
	</g>
</g>
<g>
	<g>
		<path d="M280.977,245.674h-47.984c-5.52,0-9.997,4.476-9.997,9.997v55.982c0,5.521,4.477,9.997,9.997,9.997h47.984
			c5.52,0,9.997-4.476,9.997-9.997v-55.982C290.974,250.149,286.498,245.674,280.977,245.674z M270.981,301.656H242.99v-35.988
			h27.991V301.656z"/>
	</g>
</g>
<g>
	<g>
		<path d="M57.13,350.986c-1.869-1.869-4.438-2.929-7.067-2.929c-2.64,0-5.208,1.06-7.068,2.929
			c-1.869,1.859-2.929,4.429-2.929,7.068c0,2.629,1.06,5.208,2.929,7.068c1.859,1.859,4.428,2.929,7.068,2.929
			c2.629,0,5.197-1.07,7.067-2.929c1.859-1.869,2.93-4.439,2.93-7.068S58.991,352.845,57.13,350.986z"/>
	</g>
</g>
<g>
</g>
<g>
</g>
<g>
</g>
<g>
</g>
<g>
</g>
<g>
</g>
<g>
</g>
<g>
</g>
<g>
</g>
<g>
</g>
<g>
</g>
<g>
</g>
<g>
</g>
<g>
</g>
<g>
</g>
</svg>
