<?xml version="1.0" encoding="iso-8859-1"?>
<!-- Generator: Adobe Illustrator 19.0.0, SVG Export Plug-In . SVG Version: 6.00 Build 0)  -->
<svg version="1.1" id="Capa_1" xmlns="http://www.w3.org/2000/svg" xmlns:xlink="http://www.w3.org/1999/xlink" x="0px" y="0px"
	 viewBox="0 0 512 512" style="enable-background:new 0 0 512 512;" xml:space="preserve">
<g>
	<g>
		<path d="M124.461,388.209c-1.86-1.86-4.44-2.93-7.07-2.93s-5.209,1.07-7.07,2.93c-1.859,1.859-2.93,4.439-2.93,7.07
			c0,2.63,1.07,5.21,2.93,7.069c1.86,1.86,4.44,2.931,7.07,2.931s5.21-1.07,7.07-2.931c1.859-1.859,2.93-4.439,2.93-7.069
			C127.391,392.648,126.321,390.068,124.461,388.209z"/>
	</g>
</g>
<g>
	<g>
		<path d="M466.42,110.111c-3.152-4.536-9.384-5.657-13.919-2.505c-4.535,3.152-5.656,9.384-2.505,13.919
			c65.153,93.75,53.75,220.486-27.115,301.352C378.306,467.452,319.041,492,256.002,492s-122.304-24.548-166.878-69.123
			c-44.575-44.574-69.123-103.84-69.123-166.878S44.549,133.695,89.124,89.12C170.648,7.597,298.036-3.353,392.019,63.086
			c4.511,3.187,10.751,2.114,13.938-2.394c3.188-4.51,2.116-10.75-2.394-13.938c-48.7-34.427-108.442-50.74-168.215-45.927
			c-60.462,4.865-117.415,31.199-160.367,74.15c-48.352,48.353-74.98,112.641-74.98,181.021s26.629,132.668,74.98,181.021
			C123.335,485.372,187.622,512,256.002,512s132.668-26.629,181.021-74.98c42.699-42.7,69.005-99.307,74.07-159.391
			C516.099,218.258,500.233,158.767,466.42,110.111z"/>
	</g>
</g>
<g>
	<g>
		<path d="M437.134,75.09l-0.189-0.19c-3.896-3.917-10.227-3.932-14.142-0.036c-3.915,3.895-3.932,10.227-0.036,14.142l0.189,0.19
			c1.954,1.965,4.521,2.947,7.089,2.947c2.551,0,5.102-0.97,7.053-2.911C441.013,85.337,441.03,79.005,437.134,75.09z"/>
	</g>
</g>
<g>
	<g>
		<path d="M256.003,49.997c-113.59,0-206.001,92.412-206.001,206.001c0,36.183,9.517,71.775,27.521,102.932
			c2.763,4.78,8.878,6.417,13.662,3.654c4.781-2.764,6.418-8.88,3.654-13.662c-16.248-28.116-24.837-60.249-24.837-92.924
			c0-29.836,7.073-58.048,19.612-83.064c4.347,10.493,12.582,19.21,23.208,23.972v145.637c0,12.343,10.042,22.385,22.386,22.385
			h54.621v20.768c0,12.343,10.042,22.385,22.385,22.385h150.752C332.692,429.438,295.789,442,256.003,442
			c-32.568-0.001-64.609-8.537-92.661-24.686c-4.788-2.757-10.901-1.108-13.655,3.677c-2.756,4.786-1.109,10.9,3.677,13.655
			C184.446,452.542,219.938,462,256.003,462c113.59,0,206.001-92.412,206.001-206.001S369.593,49.997,256.003,49.997z
			 M256.002,69.997c69.339,0,129.931,38.144,161.914,94.547c-7.823-6.575-17.905-10.546-28.901-10.546h-32.064
			c-0.968-23.958-20.751-43.152-44.942-43.152H139.84C171.693,85.303,212.09,69.997,256.002,69.997z M122.341,179.208
			c-9.659-3.655-16.148-13.049-16.148-23.374c0-13.778,11.21-24.988,24.988-24.988h180.826c13.16,0,23.97,10.229,24.914,23.152
			H208.188c-20.861,0-38.447,14.274-43.515,33.567c-3.524,0.543-8.162,1.578-13.584,3.563c-0.194,0.07-0.387,0.147-0.576,0.231
			c-6.625,2.902-12.572,6.855-17.69,11.606v-8.611C132.823,187.667,128.611,181.581,122.341,179.208z M135.208,344.928
			c-1.315,0-2.386-1.07-2.386-2.385v-46.646c3.988,3.694,8.472,6.902,13.381,9.5c-1.153,4.108-1.747,8.376-1.747,12.669
			c0,9.989,3.151,19.25,8.498,26.862H135.208z M189.829,344.884c-14.121-0.776-25.373-12.507-25.373-26.819
			c0-4.585,1.18-9.114,3.412-13.099c1.459-2.604,1.679-5.724,0.599-8.507c-1.08-2.782-3.348-4.938-6.182-5.875
			c-16.229-5.369-27.595-19.614-29.463-36.302v-9.745c1.711-15.14,11.305-28.426,25.436-34.735c2.194-0.79,4.165-1.352,5.883-1.76
			c2.916,14.003,12.444,26.082,25.688,32.017V344.884z M397.86,222.36c-6.271,2.371-10.485,8.458-10.485,15.147v148.189
			c0,1.315-1.07,2.385-2.386,2.385H212.214c-1.316-0.001-2.385-1.07-2.385-2.386V237.507c0-6.688-4.213-12.775-10.482-15.146
			c-9.657-3.655-16.146-13.049-16.146-23.374c0-13.778,11.21-24.988,24.988-24.988h180.826c13.778,0,24.988,11.21,24.988,24.988
			C414.003,209.312,407.515,218.706,397.86,222.36z M407.375,240.058c15.206-6.814,25.515-21.725,26.538-38.352
			c5.254,17.183,8.09,35.411,8.09,54.291c0,40.225-12.839,77.505-34.628,107.968V240.058z"/>
	</g>
</g>
<g>
	<g>
		<path d="M266.535,335.556c-3.903-3.907-10.236-3.906-14.141,0.001l-5.868,5.869c-3.905,3.905-3.904,10.237,0.001,14.142
			c1.952,1.953,4.511,2.929,7.07,2.929s5.119-0.977,7.071-2.93l5.868-5.869C270.441,345.793,270.44,339.461,266.535,335.556z"/>
	</g>
</g>
<g>
	<g>
		<path d="M266.536,265.947c-3.905-3.904-10.235-3.904-14.142,0l-5.868,5.868c-3.905,3.905-3.905,10.237,0,14.143
			c1.953,1.952,4.512,2.929,7.071,2.929c2.559,0,5.118-0.977,7.071-2.929l5.868-5.868
			C270.441,276.185,270.441,269.853,266.536,265.947z"/>
	</g>
</g>
<g>
	<g>
		<path d="M308.607,293.742c-3.906-3.904-10.236-3.904-14.143,0l-5.868,5.868c-3.905,3.905-3.905,10.237,0,14.143
			c1.953,1.952,4.512,2.929,7.071,2.929s5.118-0.977,7.071-2.929l5.868-5.868C312.513,303.979,312.513,297.647,308.607,293.742z"/>
	</g>
</g>
<g>
	<g>
		<path d="M342.829,245.691c-3.904-3.906-10.237-3.905-14.142,0.001l-5.868,5.869c-3.905,3.905-3.904,10.237,0.001,14.142
			c1.952,1.953,4.511,2.929,7.07,2.929c2.559,0,5.119-0.977,7.071-2.93l5.868-5.869
			C346.735,255.928,346.734,249.596,342.829,245.691z"/>
	</g>
</g>
<g>
	<g>
		<path d="M365.805,200.563c-3.903-3.905-10.236-3.905-14.141-0.001l-5.869,5.868c-3.905,3.904-3.906,10.236-0.001,14.142
			c1.952,1.953,4.512,2.93,7.071,2.93s5.118-0.977,7.07-2.929l5.869-5.868C369.709,210.801,369.71,204.469,365.805,200.563z"/>
	</g>
</g>
<g>
	<g>
		<path d="M263.603,203.496c-3.906-3.904-10.236-3.904-14.143,0l-5.869,5.869c-3.905,3.905-3.905,10.237,0,14.143
			c1.953,1.952,4.512,2.929,7.071,2.929s5.119-0.977,7.072-2.929l5.869-5.869C267.508,213.734,267.508,207.402,263.603,203.496z"/>
	</g>
</g>
<g>
	<g>
		<path d="M362.87,303.095c-3.904-3.907-10.237-3.906-14.141,0.001l-5.868,5.869c-3.905,3.905-3.904,10.237,0.001,14.142
			c1.952,1.953,4.511,2.929,7.07,2.929c2.559,0,5.119-0.977,7.071-2.93l5.868-5.869C366.776,313.332,366.775,307,362.87,303.095z"/>
	</g>
</g>
<g>
	<g>
		<path d="M332.56,338.675c-3.903-3.906-10.236-3.906-14.141-0.001l-5.869,5.868c-3.905,3.904-3.906,10.236-0.001,14.142
			c1.952,1.953,4.512,2.93,7.071,2.93s5.118-0.977,7.07-2.929l5.869-5.868C336.464,348.913,336.465,342.581,332.56,338.675z"/>
	</g>
</g>
<g>
	<g>
		<path d="M305.659,221.483c-3.906-3.904-10.236-3.904-14.143,0l-5.869,5.869c-3.905,3.905-3.905,10.237,0,14.143
			c1.953,1.952,4.512,2.929,7.071,2.929s5.119-0.977,7.072-2.929l5.869-5.869C309.564,231.721,309.564,225.389,305.659,221.483z"/>
	</g>
</g>
<g>
</g>
<g>
</g>
<g>
</g>
<g>
</g>
<g>
</g>
<g>
</g>
<g>
</g>
<g>
</g>
<g>
</g>
<g>
</g>
<g>
</g>
<g>
</g>
<g>
</g>
<g>
</g>
<g>
</g>
</svg>
