<?xml version="1.0" encoding="iso-8859-1"?>
<!-- Generator: Adobe Illustrator 19.0.0, SVG Export Plug-In . SVG Version: 6.00 Build 0)  -->
<svg version="1.1" id="Capa_1" xmlns="http://www.w3.org/2000/svg" xmlns:xlink="http://www.w3.org/1999/xlink" x="0px" y="0px"
	 viewBox="0 0 512 512" style="enable-background:new 0 0 512 512;" xml:space="preserve">
<g>
	<g>
		<path d="M281.487,263.72c-3.302-4.427-9.568-5.338-13.995-2.034c-3.224,2.405-7.063,3.677-11.104,3.677
			c-4.001,0-7.813-1.253-11.024-3.623c-4.444-3.281-10.705-2.336-13.984,2.107s-2.336,10.705,2.107,13.984
			c6.676,4.927,14.595,7.531,22.901,7.531c8.384,0,16.36-2.644,23.065-7.647C283.879,274.412,284.79,268.147,281.487,263.72z"/>
	</g>
</g>
<g>
	<g>
		<path d="M479.941,500.916l-3.297-30.242c-2.818-25.848-13.589-49.646-31.147-68.823c-14.549-15.89-32.676-27.401-52.967-33.776
			c-0.713-0.315-1.471-0.545-2.26-0.687c-3.473-1.018-7-1.903-10.589-2.618l-49.199-9.803c-7.569-1.508-13.721-6.539-16.905-13.166
			C378.643,336.599,430,281.99,430,215.605v-45.604c0-36.073-11.154-70.532-32.256-99.653c-3.241-4.473-9.492-5.469-13.966-2.229
			c-4.472,3.241-5.47,9.493-2.229,13.966C400.162,107.77,410,138.171,410,170.002v45.604c0,56.153-43.641,102.301-98.786,106.319
			v-3.898l29.76-17.064c0.182-0.104,0.361-0.215,0.536-0.33c14.345-9.474,23.766-26.341,25.201-45.12
			c0.02-0.254,0.029-0.508,0.029-0.763v-20.984c13.888-0.605,25-12.089,25-26.122v-15.696c0-14.034-11.112-25.518-25-26.123v-12.723
			c0-5.505-4.449-9.975-9.953-10c-22.879-0.106-44.073-11.525-56.694-30.545c-2.07-3.121-5.714-4.827-9.436-4.409
			c-3.723,0.413-6.903,2.872-8.239,6.372c-11.678,30.59-41.517,51.143-74.251,51.143c-17.073,0-33.327-5.287-47.004-15.289
			c-3.042-2.223-7.071-2.551-10.43-0.845c-3.357,1.704-5.474,5.151-5.474,8.917v7.375c-13.97,0.516-25.177,12.034-25.177,26.127
			v15.696c0,14.093,11.207,25.611,25.177,26.126v20.98c0,0.255,0.01,0.509,0.029,0.763c1.441,18.856,10.795,35.725,25.02,45.119
			c0.18,0.119,0.362,0.231,0.549,0.338l29.956,17.125v3.832C145.655,317.922,102,271.768,102,215.605v-45.604
			C102,87.291,169.291,20,252.002,20h7.996c23.251,0,45.531,5.171,66.222,15.369c4.955,2.44,10.948,0.404,13.391-4.549
			c2.441-4.953,0.405-10.949-4.549-13.391C311.597,5.864,286.341,0,259.998,0h-7.996C158.262,0,82,76.263,82,170.002v45.604
			c0,66.392,51.37,121.008,116.45,126.198c-3.184,6.626-9.336,11.656-16.904,13.164l-49.22,9.807
			c-25.494,5.08-48.25,17.898-65.807,37.069c-17.558,19.171-28.33,42.963-31.153,68.805l-3.307,30.266
			c-0.309,2.824,0.599,5.646,2.495,7.762C36.452,510.791,39.159,512,42,512h81.486h104.296h56.436H388.5H470
			c2.841,0,5.548-1.208,7.444-3.323C479.341,506.563,480.249,503.74,479.941,500.916z M366.74,185.905c2.843,0.542,5,3.043,5,6.041
			v15.696c0,2.998-2.157,5.498-5,6.039V185.905z M145.26,213.71c-2.93-0.471-5.177-3.008-5.177-6.067v-15.696
			c0-3.06,2.247-5.598,5.177-6.067V213.71z M181.082,283.778c-8.882-5.997-14.772-16.953-15.823-29.428v-78.326
			c13.284,6.342,27.844,9.638,42.907,9.638c20.547,0,40.27-6.217,57.036-17.979c11.799-8.277,21.542-18.854,28.726-31.087
			c14.066,14.37,32.671,23.544,52.812,25.902v91.853c-1.047,12.402-7.007,23.36-16.008,29.431l-60.137,34.481
			c-0.182,0.104-0.361,0.215-0.536,0.33c-8.804,5.814-19.316,5.814-28.118,0c-0.179-0.118-0.361-0.23-0.548-0.337L181.082,283.778z
			 M299.606,357.242c-27.5,13.248-59.689,13.251-87.192,0.01c5.302-7.305,8.399-16.247,8.399-25.769v-1.956l10.392,5.94
			c7.663,4.984,16.229,7.476,24.796,7.476c8.568,0,17.137-2.492,24.801-7.479l10.412-5.97v1.99
			C291.214,341.001,294.308,349.939,299.606,357.242z M133.489,492l0.011-44.13c0.001-5.523-4.475-10.002-9.997-10.003
			c-0.001,0-0.002,0-0.003,0c-5.521,0-9.999,4.476-10,9.997L113.488,492H53.152l2.095-19.18
			c4.831-44.204,37.377-79.742,80.987-88.431l49.22-9.807c1.179-0.235,2.336-0.521,3.476-0.847L215.306,492H133.489z M276.202,492
			h-40.404l-25.37-113.747c14.582,5.953,30.076,8.937,45.572,8.937s30.99-2.984,45.572-8.937L276.202,492z M378.499,492h-81.806
			l26.378-118.271c1.148,0.329,2.314,0.617,3.501,0.854l49.199,9.803c0.917,0.183,1.821,0.394,2.728,0.6V492z M398.5,492V391.752
			c31.872,14.634,54.323,44.964,58.262,81.09L458.85,492H398.5z"/>
	</g>
</g>
<g>
	<g>
		<path d="M369.833,40.237c-4.884-4.087-11.066-2.653-14.224,1.092c-3.157,3.744-3.522,10.081,1.331,14.201
			c0.035,0.03,0.069,0.06,0.105,0.088c2.051,1.693,4.321,2.422,6.499,2.422c3.036,0,5.892-1.416,7.716-3.609
			C374.392,50.663,374.715,44.325,369.833,40.237z"/>
	</g>
</g>
<g>
	<g>
		<path d="M222.559,213.93c-1.87-1.861-4.439-2.93-7.08-2.93c-2.63,0-5.21,1.069-7.069,2.93c-1.86,1.86-2.92,4.44-2.92,7.07
			s1.06,5.21,2.92,7.069c1.859,1.86,4.439,2.931,7.069,2.931c2.641,0,5.221-1.07,7.08-2.931c1.86-1.859,2.931-4.439,2.931-7.069
			S224.42,215.79,222.559,213.93z"/>
	</g>
</g>
<g>
	<g>
		<path d="M304.069,213.93C302.21,212.07,299.63,211,297,211s-5.21,1.069-7.07,2.93c-1.86,1.861-2.93,4.429-2.93,7.07
			c0,2.63,1.069,5.21,2.93,7.069c1.86,1.861,4.44,2.931,7.07,2.931s5.21-1.07,7.069-2.931C305.929,226.21,307,223.63,307,221
			C307,218.359,305.93,215.79,304.069,213.93z"/>
	</g>
</g>
<g>
	<g>
		<path d="M123.486,402.333c-5.522,0-10,4.478-10,10c0,5.522,4.478,10,10,10h0.014c5.522,0,9.993-4.478,9.993-10
			C133.493,406.811,129.008,402.333,123.486,402.333z"/>
	</g>
</g>
<g>
</g>
<g>
</g>
<g>
</g>
<g>
</g>
<g>
</g>
<g>
</g>
<g>
</g>
<g>
</g>
<g>
</g>
<g>
</g>
<g>
</g>
<g>
</g>
<g>
</g>
<g>
</g>
<g>
</g>
</svg>
