<?xml version="1.0" encoding="iso-8859-1"?>
<!-- Generator: Adobe Illustrator 19.0.0, SVG Export Plug-In . SVG Version: 6.00 Build 0)  -->
<svg version="1.1" id="Capa_1" xmlns="http://www.w3.org/2000/svg" xmlns:xlink="http://www.w3.org/1999/xlink" x="0px" y="0px"
	 viewBox="0 0 511.999 511.999" style="enable-background:new 0 0 511.999 511.999;" xml:space="preserve">
<g>
	<g>
		<path d="M474.96,273.169c-13.53,0-25.378,7.305-31.829,18.172c-5.374-5.842-11.964-10.547-19.369-13.703
			c1.416-3.204,2.208-6.744,2.208-10.467c0-11.722-7.8-21.651-18.48-24.883c-4.425-76.246-65.392-137.558-141.491-142.533v-8.552
			c0-5.521-4.477-9.998-9.998-9.998s-9.998,4.477-9.998,9.998v8.552c-76.099,4.974-137.066,66.287-141.491,142.533
			c-10.68,3.231-18.48,13.162-18.48,24.883c0,3.723,0.792,7.263,2.208,10.467c-5.181,2.209-9.959,5.18-14.205,8.762V145.066
			c0-20.398-16.595-36.993-36.993-36.993c-20.398,0-36.993,16.595-36.993,36.993v356.935c0,5.521,4.477,9.998,9.998,9.998h53.99
			c5.521,0,9.998-4.477,9.998-9.998v-43.992h136.975c5.521,0,9.998-4.477,9.998-9.998s-4.477-9.998-9.998-9.998H74.033v-30.651
			c6.563,1.456,13.539,0.286,19.353-3.465l0.318-0.205c11.019-7.11,25.275-7.138,36.32-0.072l1.01,0.646
			c17.619,11.269,40.36,11.227,57.951-0.121l0.702-0.453c11.019-7.108,25.273-7.139,36.319-0.072l1.01,0.646
			c17.619,11.269,40.36,11.227,57.951-0.121l0.702-0.453c11.019-7.108,25.273-7.139,36.319-0.072l1.01,0.646
			c8.778,5.615,18.826,8.422,28.877,8.422c10.122,0,20.248-2.849,29.075-8.542l0.702-0.453c11.019-7.108,25.274-7.137,36.319-0.071
			l0.724,0.462c5.796,3.708,12.741,4.857,19.27,3.409v30.521H298.591c-5.521,0-9.998,4.477-9.998,9.998s4.477,9.998,9.998,9.998
			h139.375v43.992c0,5.521,4.477,9.998,9.998,9.998h53.99c5.521,0,9.998-4.477,9.998-9.998V310.163
			C511.953,289.765,495.359,273.169,474.96,273.169z M54.037,492.004H20.043V145.067c0-9.372,7.625-16.997,16.997-16.997
			c9.372,0,16.997,7.625,16.997,16.997V492.004z M256,119.413c69.291,0,126.261,53.759,131.384,121.762H124.616
			C129.739,173.172,186.71,119.413,256,119.413z M112.026,261.171h2.216h283.516h2.216c3.308,0,5.999,2.69,5.999,5.999
			s-2.69,5.999-5.999,5.999H112.026c-3.308,0-5.999-2.69-5.999-5.999S108.719,261.171,112.026,261.171z M437.967,382.586
			c0,2.953-2.008,4.37-2.87,4.843c-0.863,0.473-3.138,1.4-5.649-0.208l-0.699-0.446c-17.618-11.27-40.358-11.227-57.933,0.111
			l-0.718,0.464c-11.019,7.109-25.275,7.137-36.32,0.071l-1.01-0.646c-8.779-5.616-18.83-8.422-28.88-8.422
			c-10.119,0-20.237,2.846-29.056,8.534l-0.718,0.464c-11.019,7.109-25.275,7.137-36.32,0.071l-1.01-0.646
			c-17.62-11.27-40.36-11.226-57.934,0.111l-0.718,0.464c-11.019,7.109-25.275,7.137-36.32,0.071l-1.01-0.646
			c-17.62-11.27-40.36-11.227-57.938,0.113l-0.319,0.206c-2.485,1.604-4.767,0.679-5.633,0.209
			c-0.866-0.472-2.879-1.889-2.879-4.848v-53.141c0-19.932,16.216-36.147,36.147-36.147h291.638
			c14.078,0,26.293,8.095,32.259,19.869h-91.192c-5.521,0-9.998,4.477-9.998,9.998s4.477,9.998,9.998,9.998h95.082V382.586z
			 M491.957,492.004h-33.994V310.163c0-9.372,7.625-16.997,16.997-16.997s16.997,7.625,16.997,16.997V492.004z"/>
	</g>
</g>
<g>
	<g>
		<path d="M263.068,440.936c-1.859-1.86-4.438-2.919-7.068-2.919c-2.63,0-5.209,1.06-7.069,2.919c-1.86,1.87-2.93,4.439-2.93,7.079
			c0,2.63,1.069,5.199,2.93,7.069c1.86,1.859,4.439,2.929,7.069,2.929c2.63,0,5.209-1.07,7.068-2.929
			c1.86-1.87,2.93-4.439,2.93-7.069C265.998,445.375,264.928,442.806,263.068,440.936z"/>
	</g>
</g>
<g>
	<g>
		<path d="M292.11,33.708l-3.011-3.78c-3.191-4.007-3.196-9.607-0.012-13.621c3.433-4.325,2.709-10.614-1.616-14.047
			c-4.326-3.433-10.616-2.71-14.047,1.616c-9.004,11.346-8.989,27.182,0.033,38.511l3.011,3.78
			c4.548,5.709,4.554,13.69,0.017,19.407l-3.085,3.887c-3.433,4.324-2.711,10.613,1.615,14.046c1.839,1.46,4.03,2.168,6.209,2.168
			c2.945,0,5.864-1.296,7.838-3.782l3.086-3.887C302.504,64.956,302.491,46.74,292.11,33.708z"/>
	</g>
</g>
<g>
	<g>
		<path d="M223.673,33.615l-3.012-3.78c-3.19-4.007-3.195-9.606-0.011-13.62c3.433-4.325,2.71-10.614-1.616-14.047
			c-4.327-3.433-10.614-2.71-14.047,1.616c-9.004,11.346-8.99,27.182,0.033,38.51l3.011,3.779
			c4.548,5.711,4.555,13.692,0.018,19.407l-3.086,3.888c-3.433,4.325-2.711,10.614,1.614,14.047c1.839,1.46,4.031,2.168,6.21,2.168
			c2.945,0,5.864-1.296,7.838-3.781l3.087-3.889C234.067,64.864,234.052,46.648,223.673,33.615z"/>
	</g>
</g>
<g>
	<g>
		<path d="M315.899,315.969c-1.86-1.87-4.439-2.93-7.069-2.93c-2.64,0-5.209,1.06-7.069,2.93c-1.859,1.86-2.929,4.43-2.929,7.06
			c0,2.64,1.07,5.209,2.929,7.079c1.86,1.859,4.439,2.929,7.069,2.929s5.209-1.07,7.069-2.929c1.859-1.86,2.929-4.439,2.929-7.079
			C318.829,320.399,317.759,317.829,315.899,315.969z"/>
	</g>
</g>
<g>
	<g>
		<path d="M349.799,195.002c-9.542-15.902-23.068-29.217-39.115-38.503c-16.551-9.578-35.461-14.641-54.683-14.641
			c-5.521,0-9.998,4.477-9.998,9.998c0,5.521,4.477,9.998,9.998,9.998c31.677,0,60.332,16.238,76.651,43.436
			c1.875,3.124,5.187,4.855,8.583,4.855c1.751,0,3.523-0.461,5.135-1.427C351.104,205.88,352.639,199.738,349.799,195.002z"/>
	</g>
</g>
<g>
</g>
<g>
</g>
<g>
</g>
<g>
</g>
<g>
</g>
<g>
</g>
<g>
</g>
<g>
</g>
<g>
</g>
<g>
</g>
<g>
</g>
<g>
</g>
<g>
</g>
<g>
</g>
<g>
</g>
</svg>
