<?xml version="1.0" encoding="iso-8859-1"?>
<!-- Generator: Adobe Illustrator 19.0.0, SVG Export Plug-In . SVG Version: 6.00 Build 0)  -->
<svg version="1.1" id="Capa_1" xmlns="http://www.w3.org/2000/svg" xmlns:xlink="http://www.w3.org/1999/xlink" x="0px" y="0px"
	 viewBox="0 0 512 512" style="enable-background:new 0 0 512 512;" xml:space="preserve">
<g>
	<g>
		<path d="M366.476,102.549l-17.608-7.062c-1.018-1.185-2.322-2.149-3.861-2.765L308.569,78.15c-0.632-0.253-1.275-0.436-1.92-0.554
			c-6.548-7.866-16.143-12.427-26.684-12.427h-23.68v-1.847c13.014-4.226,22.448-16.469,22.448-30.873
			C278.733,14.557,264.177,0,246.285,0c-17.892,0-32.448,14.557-32.448,32.448c0,5.522,4.478,10,10,10c5.522,0,10-4.478,10-10
			c0-6.864,5.584-12.448,12.448-12.448c6.864,0,12.448,5.584,12.448,12.448s-5.584,12.449-12.448,12.449c-5.522,0-10,4.478-10,10
			v10.271H212.63c-10.388,0-19.861,4.423-26.401,12.079l-38.692,15.475c-1.539,0.616-2.843,1.58-3.861,2.765l-17.607,7.062
			c-19.594,7.858-32.255,26.578-32.255,47.69v203.688c0,5.522,4.478,10,10,10h43.377c1.02,0,2.004-0.155,2.931-0.439L124.59,500.164
			c-0.546,2.923,0.237,5.938,2.137,8.225c1.9,2.288,4.72,3.611,7.693,3.611h222.923c2.968,0,5.781-1.318,7.682-3.598
			c1.899-2.279,2.689-5.285,2.154-8.204l-25.055-136.813c1.014,0.346,2.097,0.543,3.229,0.543h43.378c5.522,0,10-4.478,10-10
			V150.239C398.73,129.127,386.069,110.407,366.476,102.549z M309.998,117.71c2.868-4.87,4.464-10.173,4.803-15.528l14.495,5.797
			l-21.577,79.009h-18.486c-3.786,0-7.247,2.138-8.942,5.523s-1.333,7.437,0.936,10.468l11.047,14.761l-35.977,33.897v-42.744
			L309.998,117.71z M256.286,85.168h23.679c5.396,0,10.218,2.797,12.896,7.482c0.793,1.387,1.342,2.854,1.66,4.35h-38.235V85.168z
			 M287.206,117l-40.909,69.461L205.389,117H287.206z M199.733,92.651c2.678-4.685,7.499-7.483,12.897-7.483h23.655V97h-38.211
			C198.391,95.504,198.94,94.039,199.733,92.651z M177.792,102.162c0.337,5.362,1.933,10.672,4.805,15.548l53.7,91.183v42.79
			l-36.025-33.943l11.047-14.762c2.268-3.031,2.63-7.083,0.935-10.468c-1.694-3.386-5.155-5.523-8.941-5.523h-18.486l-21.577-79.009
			L177.792,102.162z M147.191,274.173c-5.522,0-10,4.478-10,10v59.755h-23.377V150.239c0-12.895,7.732-24.328,19.7-29.128
			l11.345-4.551l22.683,83.061c1.188,4.349,5.139,7.365,9.646,7.365h6.148l-4.429,5.918c-3.047,4.071-2.553,9.782,1.149,13.27
			l40.892,38.528h-37.834l-20.839-45.862c-2.285-5.028-8.213-7.251-13.241-4.968c-5.028,2.285-7.252,8.213-4.968,13.241
			l22.343,49.174l-9.221,49.361v-41.476C157.191,278.65,152.714,274.173,147.191,274.173z M345.345,492H146.461l38.726-207.297
			h51.11v137.596c0,5.522,4.478,10,10,10c5.522,0,10-4.478,10-10V284.703h51.086L345.345,492z M355.352,343.928v-59.755
			c0-5.522-4.478-10-10-10c-5.522,0-10,4.478-10,10v42.236l-9.191-50.186l22.313-49.108c2.284-5.028,0.061-10.956-4.968-13.241
			c-5.027-2.282-10.956-0.061-13.241,4.968l-20.838,45.862h-37.834l40.892-38.528c3.702-3.487,4.196-9.198,1.148-13.271
			l-4.428-5.917h6.147c4.508,0,8.459-3.017,9.646-7.365l22.684-83.062l11.346,4.551c11.968,4.8,19.7,16.233,19.7,29.128v193.688
			H355.352z"/>
	</g>
</g>
<g>
	<g>
		<path d="M253.365,452.6c-1.86-1.871-4.43-2.93-7.07-2.93c-2.63,0-5.21,1.06-7.07,2.93c-1.859,1.86-2.93,4.44-2.93,7.07
			s1.07,5.2,2.93,7.07c1.86,1.859,4.44,2.93,7.07,2.93s5.21-1.07,7.07-2.93c1.859-1.86,2.93-4.44,2.93-7.07
			C256.295,457.03,255.225,454.46,253.365,452.6z"/>
	</g>
</g>
<g>
	<g>
		<path d="M477.404,81.173h-6.858c-5.522,0-10,4.478-10,10c0,5.522,4.478,10,10,10h6.858c5.522,0,10-4.478,10-10
			C487.404,85.651,482.927,81.173,477.404,81.173z"/>
	</g>
</g>
<g>
	<g>
		<path d="M428.884,81.173h-6.859c-5.522,0-10,4.478-10,10c0,5.522,4.478,10,10,10h6.859c5.522,0,10-4.478,10-10
			C438.884,85.651,434.406,81.173,428.884,81.173z"/>
	</g>
</g>
<g>
	<g>
		<path d="M449.715,102.004c-5.522,0-10,4.478-10,10v6.859c0,5.522,4.478,10,10,10c5.522,0,10-4.478,10-10v-6.859
			C459.715,106.481,455.237,102.004,449.715,102.004z"/>
	</g>
</g>
<g>
	<g>
		<path d="M449.715,53.483c-5.522,0-10,4.478-10,10v6.859c0,5.522,4.478,10,10,10c5.522,0,10-4.478,10-10v-6.859
			C459.715,57.961,455.237,53.483,449.715,53.483z"/>
	</g>
</g>
<g>
	<g>
		<path d="M89.975,382.609h-6.858c-5.522,0-10,4.478-10,10c0,5.522,4.478,10,10,10h6.858c5.522,0,10-4.478,10-10
			C99.975,387.087,95.497,382.609,89.975,382.609z"/>
	</g>
</g>
<g>
	<g>
		<path d="M41.454,382.609h-6.858c-5.522,0-10,4.478-10,10c0,5.522,4.478,10,10,10h6.858c5.522,0,10-4.478,10-10
			C51.454,387.087,46.977,382.609,41.454,382.609z"/>
	</g>
</g>
<g>
	<g>
		<path d="M62.285,403.44c-5.522,0-10,4.478-10,10v6.858c0,5.522,4.478,10,10,10c5.522,0,10-4.478,10-10v-6.858
			C72.285,407.918,67.808,403.44,62.285,403.44z"/>
	</g>
</g>
<g>
	<g>
		<path d="M62.285,354.92c-5.522,0-10,4.478-10,10v6.858c0,5.522,4.478,10,10,10c5.522,0,10-4.478,10-10v-6.858
			C72.285,359.397,67.808,354.92,62.285,354.92z"/>
	</g>
</g>
<g>
</g>
<g>
</g>
<g>
</g>
<g>
</g>
<g>
</g>
<g>
</g>
<g>
</g>
<g>
</g>
<g>
</g>
<g>
</g>
<g>
</g>
<g>
</g>
<g>
</g>
<g>
</g>
<g>
</g>
</svg>
