<?xml version="1.0" encoding="iso-8859-1"?>
<!-- Generator: Adobe Illustrator 19.0.0, SVG Export Plug-In . SVG Version: 6.00 Build 0)  -->
<svg version="1.1" id="Capa_1" xmlns="http://www.w3.org/2000/svg" xmlns:xlink="http://www.w3.org/1999/xlink" x="0px" y="0px"
	 viewBox="0 0 512 512" style="enable-background:new 0 0 512 512;" xml:space="preserve">
<g>
	<g>
		<path d="M221.208,288.93c-1.86-1.861-4.44-2.93-7.07-2.93s-5.2,1.069-7.07,2.93c-1.86,1.86-2.93,4.44-2.93,7.07
			s1.07,5.21,2.93,7.069c1.86,1.86,4.44,2.931,7.07,2.931s5.21-1.07,7.07-2.931c1.87-1.859,2.93-4.439,2.93-7.069
			S223.078,290.79,221.208,288.93z"/>
	</g>
</g>
<g>
	<g>
		<path d="M501.808,446h-54.027c6.292-8.363,10.027-18.752,10.027-30c0-16.339-7.878-30.87-20.035-40
			c12.156-9.13,20.035-23.661,20.035-40s-7.878-30.87-20.035-40c12.156-9.13,20.035-23.661,20.035-40s-7.878-30.87-20.035-40
			c12.156-9.13,20.035-23.661,20.035-40c0-27.57-22.43-50-50-50H306.72c7.551-9.29,12.088-21.123,12.088-34
			c0-26.035-18.521-47.825-43.078-52.889C279.461,28.017,289.953,20,302.289,20c5.523,0,10-4.478,10-10s-4.477-10-10-10
			c-23.353,0-42.856,16.76-47.137,38.882C229.97,43.449,210.808,65.521,210.808,92c0,12.877,4.537,24.71,12.088,34H103.808
			c-27.57,0-50,22.43-50,50c0,16.339,7.878,30.87,20.035,40c-12.156,9.13-20.035,23.661-20.035,40s7.878,30.87,20.035,40
			c-12.156,9.13-20.035,23.661-20.035,40s7.878,30.87,20.035,40c-12.156,9.13-20.035,23.661-20.035,40
			c0,11.248,3.735,21.637,10.027,30H10.192c-5.523,0-10,4.478-10,10c0,30.879,25.122,56,56,56h399.616c30.878,0,56-25.121,56-56
			C511.808,450.478,507.331,446,501.808,446z M382.882,160.437c0.007-7.961,6.49-14.438,14.451-14.438h10.475
			c16.542,0.001,30,13.459,30,30.001s-13.458,30-30,30H382.84L382.882,160.437z M382.782,268.544l0.04-42.544h24.986
			c16.542,0,30,13.458,30,30s-13.458,30-30,30h-29.559C381.133,280.826,382.782,274.875,382.782,268.544z M264.179,58.016
			c0.03,0,0.06,0.005,0.09,0.005c0.092,0,0.181-0.011,0.272-0.014c0.089-0.001,0.177-0.007,0.267-0.007c18.748,0,34,15.252,34,34
			s-15.252,34-34,34s-34-15.252-34-34C230.808,73.463,245.722,58.354,264.179,58.016z M366.073,146
			c-2.038,4.389-3.186,9.272-3.191,14.42l-0.051,55.323c-0.002,0.086-0.013,0.17-0.013,0.257c0,0.084,0.01,0.165,0.012,0.248
			l-0.048,52.287c0,8.822-7.178,16-16,16c-8.822,0-16-7.178-16-16v-65.959c0-20.218-16.449-36.666-36.667-36.666
			c-20.218,0-36.667,16.448-36.667,36.666v24.667c0,9.558-7.776,17.333-17.333,17.333s-17.333-7.775-17.333-17.333V172.5
			c0-9.843-3.083-18.976-8.321-26.5H366.073z M73.808,176c0-16.542,13.458-30,30-30h72.475c14.612,0,26.5,11.888,26.5,26.5V206
			h-98.975C87.266,206,73.808,192.542,73.808,176z M73.808,336c0-16.542,13.458-30,30-30h70.333c5.523,0,10-4.478,10-10
			c0-5.522-4.477-10-10-10h-70.333c-16.542,0-30-13.458-30-30s13.458-30,30-30h98.975v1.243c0,20.586,16.748,37.333,37.333,37.333
			c20.585,0,37.333-16.747,37.333-37.333v-24.667c0-9.189,7.477-16.666,16.667-16.666s16.667,7.477,16.667,16.666v65.959
			c0,6.335,1.651,12.289,4.535,17.465h-59.51c-5.523,0-10,4.478-10,10c0,5.522,4.477,10,10,10h152c16.542,0,30,13.458,30,30
			s-13.458,30-30,30h-304C87.266,366,73.808,352.542,73.808,336z M103.808,386h304c13.036,0,24.152,8.361,28.28,20h-106.28
			c-5.523,0-10,4.478-10,10c0,5.522,4.477,10,10,10h106.28c-4.128,11.639-15.243,20-28.28,20h-304c-16.542,0-30-13.458-30-30
			S87.266,386,103.808,386z M455.808,492H56.192c-16.382,0-30.243-10.999-34.587-26h468.791C486.051,481.001,472.19,492,455.808,492
			z"/>
	</g>
</g>
<g>
	<g>
		<path d="M298.548,408.93c-1.86-1.86-4.44-2.93-7.07-2.93c-2.64,0-5.21,1.069-7.07,2.93c-1.87,1.86-2.93,4.44-2.93,7.07
			s1.06,5.21,2.93,7.069c1.86,1.86,4.43,2.931,7.07,2.931c2.63,0,5.21-1.07,7.07-2.931c1.86-1.859,2.93-4.439,2.93-7.069
			S300.408,410.79,298.548,408.93z"/>
	</g>
</g>
<g>
</g>
<g>
</g>
<g>
</g>
<g>
</g>
<g>
</g>
<g>
</g>
<g>
</g>
<g>
</g>
<g>
</g>
<g>
</g>
<g>
</g>
<g>
</g>
<g>
</g>
<g>
</g>
<g>
</g>
</svg>
