<?xml version="1.0" encoding="iso-8859-1"?>
<!-- Generator: Adobe Illustrator 19.0.0, SVG Export Plug-In . SVG Version: 6.00 Build 0)  -->
<svg version="1.1" id="Capa_1" xmlns="http://www.w3.org/2000/svg" xmlns:xlink="http://www.w3.org/1999/xlink" x="0px" y="0px"
	 viewBox="0 0 512 512" style="enable-background:new 0 0 512 512;" xml:space="preserve">
<g>
	<g>
		<path d="M140.079,412.257c-1.86-1.861-4.44-2.93-7.07-2.93s-5.21,1.069-7.07,2.93c-1.86,1.86-2.93,4.44-2.93,7.08
			c0,2.63,1.07,5.2,2.93,7.06c1.86,1.87,4.44,2.94,7.07,2.94s5.21-1.07,7.07-2.94c1.86-1.859,2.93-4.43,2.93-7.06
			C143.009,416.696,141.939,414.126,140.079,412.257z"/>
	</g>
</g>
<g>
	<g>
		<path d="M502,325.332h-29.999v-24.499h29.933c2.972,0,5.791-1.322,7.69-3.607c1.9-2.286,2.685-5.299,2.141-8.221l-11.496-61.831
			c-0.881-4.736-5.014-8.172-9.832-8.172h-56.875c-4.818,0-8.951,3.436-9.832,8.172l-11.496,61.831
			c-0.543,2.922,0.241,5.935,2.141,8.221c1.9,2.285,4.718,3.607,7.69,3.607h29.933v24.499H422c-3.063,0-5.8,1.38-7.635,3.549
			c-7.719-7.329-17.494-12.503-28.364-14.556v-50.992c0-20.952-17.047-37.999-37.999-37.999h-63.998
			c-11.071,0-21.047,4.761-27.999,12.341c-6.952-7.58-16.929-12.341-27.999-12.341h-63.998c-20.952,0-37.999,17.047-37.999,37.999
			v50.99c-10.877,2.051-20.656,7.226-28.377,14.558c-1.833-2.169-4.57-3.549-7.633-3.549H59.998v-24.499h29.933
			c2.972,0,5.791-1.322,7.69-3.607c1.9-2.286,2.685-5.299,2.141-8.221l-11.496-61.831c-0.881-4.736-5.014-8.172-9.832-8.172H21.561
			c-4.818,0-8.951,3.436-9.832,8.172l-11.496,61.83c-0.543,2.922,0.242,5.935,2.141,8.221c1.9,2.285,4.718,3.607,7.69,3.607h29.934
			v24.499H10c-5.523,0-10,4.478-10,10v139.663c0,5.522,4.477,10,10,10h492c5.523,0,10-4.478,10-10V335.332
			C512,329.809,507.523,325.332,502,325.332z M22.096,280.833l7.777-41.832h40.25l7.777,41.832H22.096z M79.998,369.831v95.165H20
			V345.331h59.998V369.831z M266.006,263.333c0-9.925,8.075-18,18-18h63.998c9.925,0,18,8.075,18,18v49.999h-99.997V263.333z
			 M146.009,263.333c0-9.925,8.075-18,18-18h63.998c9.925,0,18,8.075,18,18v49.999h-99.997V263.333z M412.003,409.332H172.851
			c-5.523,0-10,4.478-10,10c0,5.522,4.477,10,10,10h239.152v35.664H99.997v-91.665h65.814c5.523,0,10-4.478,10-10
			c0-5.522-4.477-10-10-10h-61.855c6.036-11.855,18.352-20,32.54-20h119.51h119.497c20.125,0,36.499,16.374,36.499,36.499V409.332z
			 M434.099,280.833l7.777-41.832h40.251l7.777,41.832H434.099z M492,464.995h-59.998v-95.165v-24.499H492V464.995z"/>
	</g>
</g>
<g>
	<g>
		<path d="M224.46,27.006H75.052c-5.523,0-10,4.478-10,10v103.997c0,5.522,4.477,10,10,10H224.46c5.523,0,10-4.478,10-10V37.006
			C234.46,31.484,229.983,27.006,224.46,27.006z M214.461,131.004H85.052V47.006h129.409V131.004z"/>
	</g>
</g>
<g>
	<g>
		<path d="M436.961,27.006H287.553c-5.523,0-10,4.478-10,10v103.997c0,5.522,4.477,10,10,10h149.408c5.523,0,10-4.478,10-10V37.006
			C446.961,31.484,442.484,27.006,436.961,27.006z M426.961,131.004H297.552V47.006h129.409V131.004z"/>
	</g>
</g>
<g>
	<g>
		<path d="M218.217,356.258c-1.86-1.86-4.44-2.93-7.07-2.93c-2.64,0-5.21,1.069-7.08,2.93c-1.86,1.87-2.92,4.44-2.92,7.07
			s1.06,5.21,2.92,7.069c1.87,1.87,4.44,2.931,7.08,2.931c2.63,0,5.21-1.061,7.07-2.931c1.86-1.859,2.93-4.43,2.93-7.069
			C221.147,360.698,220.077,358.118,218.217,356.258z"/>
	</g>
</g>
<g>
</g>
<g>
</g>
<g>
</g>
<g>
</g>
<g>
</g>
<g>
</g>
<g>
</g>
<g>
</g>
<g>
</g>
<g>
</g>
<g>
</g>
<g>
</g>
<g>
</g>
<g>
</g>
<g>
</g>
</svg>
