<?xml version="1.0" encoding="iso-8859-1"?>
<!-- Generator: Adobe Illustrator 19.0.0, SVG Export Plug-In . SVG Version: 6.00 Build 0)  -->
<svg version="1.1" id="Capa_1" xmlns="http://www.w3.org/2000/svg" xmlns:xlink="http://www.w3.org/1999/xlink" x="0px" y="0px"
	 viewBox="0 0 512 512" style="enable-background:new 0 0 512 512;" xml:space="preserve">
<g>
	<g>
		<path d="M246.74,125.11c-1.86-1.859-4.44-2.93-7.07-2.93c-2.64,0-5.21,1.07-7.07,2.93c-1.87,1.86-2.93,4.44-2.93,7.07
			s1.06,5.21,2.93,7.07c1.86,1.859,4.44,2.93,7.07,2.93s5.21-1.07,7.07-2.93c1.86-1.86,2.93-4.44,2.93-7.07
			S248.6,126.97,246.74,125.11z"/>
	</g>
</g>
<g>
	<g>
		<path d="M64,276.667c-5.523,0-10,4.478-10,10V419c0,5.522,4.477,10,10,10s10-4.478,10-10V286.667
			C74,281.145,69.523,276.667,64,276.667z"/>
	</g>
</g>
<g>
	<g>
		<path d="M71.07,242.93C69.21,241.07,66.63,240,64,240s-5.21,1.069-7.07,2.93C55.07,244.79,54,247.37,54,250s1.07,5.21,2.93,7.069
			C58.79,258.93,61.37,260,64,260s5.21-1.07,7.07-2.931C72.93,255.21,74,252.63,74,250S72.93,244.79,71.07,242.93z"/>
	</g>
</g>
<g>
	<g>
		<path d="M410,225h-34.091c-34.852,0-66.542,13.789-89.909,36.194V37c0-5.522-4.477-10-10-10H10C4.477,27,0,31.478,0,37v405
			c0,23.71,19.29,43,43,43h200c21.554,0,39.451-15.943,42.528-36.654C308.94,471.021,340.82,485,375.909,485H410
			c56.243,0,102-45.757,102-102v-56C512,270.757,466.243,225,410,225z M266,429.062V442c0,12.683-10.318,23-23,23H43
			c-12.682,0-23-10.317-23-23V142.182h171c5.523,0,10-4.478,10-10c0-5.522-4.477-10-10-10H20V47h246v238.651
			c-12.717,20.083-20.091,43.87-20.091,69.349c0,25.938,7.64,50.123,20.781,70.431C266.25,426.558,266,427.78,266,429.062z
			 M265.909,355c0-49.278,32.571-91.092,77.316-105.043C321.66,268.673,308,296.271,308,327v56c0,30.729,13.66,58.327,35.225,77.043
			C298.48,446.092,265.909,404.278,265.909,355z M492,383c0,45.215-36.785,82-82,82c-45.215,0-82-36.785-82-82v-56
			c0-45.215,36.785-82,82-82c45.215,0,82,36.785,82,82V383z"/>
	</g>
</g>
<g>
	<g>
		<path d="M410,265c-34.187,0-62,27.813-62,62v56c0,34.187,27.813,62,62,62s62-27.813,62-62v-56C472,292.813,444.187,265,410,265z
			 M368,342.107l22.001,12.702L368,367.511V342.107z M400,423.787c-16.048-3.935-28.495-17.114-31.363-33.55L400,372.129V423.787z
			 M400,337.488l-31.301-18.072c2.981-16.274,15.366-29.296,31.301-33.204V337.488z M420,286.213
			c15.935,3.907,28.32,16.929,31.301,33.204L420,337.489V286.213z M420,423.788v-51.659l31.363,18.108
			C448.495,406.673,436.048,419.852,420,423.788z M452,367.51l-22-12.702l22-12.702V367.51z"/>
	</g>
</g>
<g>
</g>
<g>
</g>
<g>
</g>
<g>
</g>
<g>
</g>
<g>
</g>
<g>
</g>
<g>
</g>
<g>
</g>
<g>
</g>
<g>
</g>
<g>
</g>
<g>
</g>
<g>
</g>
<g>
</g>
</svg>
