<?xml version="1.0" encoding="iso-8859-1"?>
<!-- Generator: Adobe Illustrator 19.0.0, SVG Export Plug-In . SVG Version: 6.00 Build 0)  -->
<svg version="1.1" id="Capa_1" xmlns="http://www.w3.org/2000/svg" xmlns:xlink="http://www.w3.org/1999/xlink" x="0px" y="0px"
	 viewBox="0 0 512 512" style="enable-background:new 0 0 512 512;" xml:space="preserve">
<g>
	<g>
		<path d="M435,0H77C49.43,0,27,22.43,27,50v412c0,27.57,22.43,50,50,50h358c27.57,0,50-22.43,50-50V50C485,22.43,462.57,0,435,0z
			 M465,462c0,16.542-13.458,30-30,30H77c-16.542,0-30-13.458-30-30V148h341.333c5.522,0,10-4.478,10-10c0-5.522-4.478-10-10-10H47
			V50c0-16.542,13.458-30,30-30h358c16.542,0,30,13.458,30,30V462z"/>
	</g>
</g>
<g>
	<g>
		<path d="M435.41,130.93c-1.87-1.861-4.45-2.93-7.08-2.93s-5.2,1.069-7.07,2.93c-1.86,1.86-2.93,4.44-2.93,7.07
			s1.069,5.21,2.93,7.069c1.86,1.86,4.44,2.931,7.07,2.931c2.64,0,5.21-1.07,7.08-2.931c1.859-1.869,2.92-4.439,2.92-7.069
			S437.269,132.79,435.41,130.93z"/>
	</g>
</g>
<g>
	<g>
		<path d="M356.408,219.589c-21.956-21.953-49.769-35.85-80.434-40.184c-29.646-4.19-60.456,1.22-86.749,15.235
			c-4.874,2.598-6.719,8.654-4.12,13.528c2.597,4.874,8.654,6.719,13.528,4.12c47.673-25.412,105.396-16.795,143.633,21.444
			c47.567,47.567,47.567,124.967,0,172.534c-23.786,23.787-55.021,35.679-86.267,35.676c-31.238-0.003-62.486-11.895-86.268-35.676
			c-39.381-39.382-47.139-100.335-18.865-148.227c2.808-4.756,1.229-10.888-3.527-13.695c-4.756-2.809-10.888-1.228-13.695,3.527
			c-32.913,55.752-23.889,126.701,21.945,172.537c27.684,27.683,64.047,41.523,100.41,41.523c36.363,0,72.727-13.841,100.409-41.523
			C411.772,365.042,411.772,274.955,356.408,219.589z"/>
	</g>
</g>
<g>
	<g>
		<path d="M170.661,218.7c-3.947-3.964-10.188-3.95-14.207,0.033c-4.019,3.983-4.088,10.223-0.157,14.206
			c1.97,1.997,4.52,2.996,7.083,2.996c2.549,0,5.11-0.988,7.123-2.966c0.021-0.021,0.041-0.041,0.063-0.062
			C174.567,228.906,174.609,222.666,170.661,218.7z"/>
	</g>
</g>
<g>
	<g>
		<path d="M256,218c-56.243,0-102,45.757-102,102c0,56.243,45.757,102,102,102c56.243,0,102-45.757,102-102
			C358,263.757,312.243,218,256,218z M256,238c43.174,0,78.637,33.547,81.752,75.939c-5.743,5.104-13.024,7.882-20.82,7.882
			c-8.876,0-17.086-3.599-23.117-10.134c-1.893-2.051-4.558-3.218-7.349-3.218c-2.791,0-5.456,1.167-7.349,3.218
			c-6.031,6.535-14.241,10.134-23.117,10.134c-8.876,0-17.086-3.599-23.117-10.134c-1.893-2.051-4.558-3.218-7.349-3.218
			s-5.456,1.167-7.349,3.218c-6.031,6.535-14.241,10.134-23.117,10.134c-7.796,0-15.077-2.778-20.82-7.882
			C177.363,271.547,212.826,238,256,238z M256,402c-38.979,0-71.67-27.348-79.952-63.857c6.003,2.393,12.453,3.679,19.021,3.679
			c11.004,0,21.694-3.569,30.466-10.005c8.771,6.436,19.462,10.005,30.466,10.005c11.004,0,21.694-3.569,30.466-10.005
			c8.771,6.436,19.462,10.005,30.466,10.005c6.567,0,13.018-1.285,19.021-3.679C327.67,374.652,294.979,402,256,402z"/>
	</g>
</g>
<g>
	<g>
		<path d="M411,37.5c-18.748,0-34,15.252-34,34s15.252,34,34,34s34-15.252,34-34S429.748,37.5,411,37.5z M411,85.5
			c-7.72,0-14-6.28-14-14c0-7.72,6.28-14,14-14c7.72,0,14,6.28,14,14C425,79.22,418.72,85.5,411,85.5z"/>
	</g>
</g>
<g>
	<g>
		<path d="M335.987,45.5c-14.337,0-26,11.663-26,26s11.663,26,26,26c14.337,0,26-11.663,26-26S350.324,45.5,335.987,45.5z
			 M335.987,77.5c-3.309,0-6-2.691-6-6s2.691-6,6-6c3.309,0,6,2.691,6,6S339.296,77.5,335.987,77.5z"/>
	</g>
</g>
<g>
	<g>
		<path d="M91,46.5c-5.522,0-10,4.478-10,10v30c0,5.522,4.478,10,10,10c5.522,0,10-4.478,10-10v-30C101,50.978,96.522,46.5,91,46.5z
			"/>
	</g>
</g>
<g>
	<g>
		<path d="M131.333,46.5c-5.522,0-10,4.478-10,10v30c0,5.522,4.478,10,10,10c5.522,0,10-4.478,10-10v-30
			C141.333,50.978,136.855,46.5,131.333,46.5z"/>
	</g>
</g>
<g>
	<g>
		<path d="M171.667,46.5c-5.522,0-10,4.478-10,10v30c0,5.522,4.478,10,10,10c5.522,0,10-4.478,10-10v-30
			C181.667,50.978,177.189,46.5,171.667,46.5z"/>
	</g>
</g>
<g>
	<g>
		<path d="M212,46.5c-5.522,0-10,4.478-10,10v30c0,5.522,4.478,10,10,10c5.522,0,10-4.478,10-10v-30
			C222,50.978,217.522,46.5,212,46.5z"/>
	</g>
</g>
<g>
</g>
<g>
</g>
<g>
</g>
<g>
</g>
<g>
</g>
<g>
</g>
<g>
</g>
<g>
</g>
<g>
</g>
<g>
</g>
<g>
</g>
<g>
</g>
<g>
</g>
<g>
</g>
<g>
</g>
</svg>
