<?xml version="1.0" encoding="iso-8859-1"?>
<!-- Generator: Adobe Illustrator 19.0.0, SVG Export Plug-In . SVG Version: 6.00 Build 0)  -->
<svg version="1.1" id="Capa_1" xmlns="http://www.w3.org/2000/svg" xmlns:xlink="http://www.w3.org/1999/xlink" x="0px" y="0px"
	 viewBox="0 0 512 512" style="enable-background:new 0 0 512 512;" xml:space="preserve">
<g>
	<g>
		<path d="M499.328,438.044L379.1,317.817c21.419-33.014,32.916-71.526,32.916-111.808c0-55.026-21.429-106.76-60.338-145.67
			C312.768,21.429,261.034,0,206.008,0S99.248,21.429,60.338,60.339C21.429,99.248,0,150.982,0,206.008
			c0,55.026,21.429,106.76,60.338,145.67c38.909,38.91,90.643,60.338,145.67,60.338c40.283,0,78.794-11.497,111.808-32.916
			l120.229,120.229C446.493,507.776,457.59,512,468.687,512s22.194-4.224,30.642-12.672
			C516.224,482.432,516.224,454.941,499.328,438.044z M206.008,392.016c-49.685,0-96.395-19.349-131.526-54.481
			c-35.132-35.131-54.481-81.841-54.481-131.526S39.35,109.613,74.482,74.482c35.131-35.132,81.841-54.481,131.526-54.481
			s96.395,19.349,131.526,54.481c35.132,35.131,54.481,81.841,54.481,131.526s-19.349,96.395-54.481,131.526
			C302.403,372.667,255.693,392.016,206.008,392.016z M334.25,367.248c6.049-4.83,11.873-10.015,17.428-15.57
			s10.739-11.378,15.57-17.428l22.194,22.194l-32.997,32.997L334.25,367.248z M485.185,485.185c-9.097,9.098-23.9,9.098-32.997,0
			l-81.6-81.6l32.997-32.997l81.6,81.6C494.283,461.285,494.283,476.088,485.185,485.185z"/>
	</g>
</g>
<g>
	<g>
		<path d="M347.277,139.731c-2.345-5-8.298-7.152-13.3-4.806c-5,2.345-7.152,8.3-4.806,13.301
			c24.248,51.69,13.4,113.558-26.993,153.951c-35.585,35.587-87.636,48.597-135.836,33.951c-5.285-1.607-10.87,1.377-12.475,6.661
			c-1.606,5.284,1.376,10.87,6.661,12.475c15.011,4.561,30.345,6.783,45.541,6.783c40.765,0,80.519-15.994,110.253-45.728
			C362.649,269.99,375.091,199.024,347.277,139.731z"/>
	</g>
</g>
<g>
	<g>
		<path d="M105.837,298.174l-0.181-0.181c-3.905-3.905-10.237-3.905-14.144,0c-3.906,3.905-3.905,10.237,0,14.144l0.232,0.23
			c1.951,1.937,4.499,2.904,7.046,2.904c2.571,0,5.142-0.985,7.096-2.954C109.778,308.397,109.756,302.065,105.837,298.174z"/>
	</g>
</g>
<g>
	<g>
		<path d="M247.181,55.51c-53.943-14.709-111.988,0.691-151.483,40.187c-23.757,23.757-38.953,53.825-43.944,86.953
			c-4.891,32.461,0.359,65.01,15.182,94.126c1.766,3.469,5.277,5.465,8.92,5.465c1.526,0,3.075-0.351,4.528-1.09
			c4.922-2.506,6.88-8.527,4.375-13.449C57.966,215.074,68.046,151.634,109.84,109.84c34.433-34.435,85.042-47.857,132.08-35.033
			c5.326,1.451,10.825-1.689,12.278-7.018C255.652,62.461,252.51,56.962,247.181,55.51z"/>
	</g>
</g>
<g>
	<g>
		<path d="M327.103,106.481l-0.206-0.207c-3.905-3.905-10.237-3.905-14.144,0c-3.906,3.905-3.905,10.237,0,14.144l0.207,0.207
			c1.953,1.953,4.512,2.929,7.071,2.929c2.559,0,5.119-0.976,7.071-2.929C331.008,116.72,331.008,110.388,327.103,106.481z"/>
	</g>
</g>
<g>
	<g>
		<path d="M291.076,113.797c-3.831-3.834-8.924-5.947-14.345-5.95l-81.191-0.045c-0.004-0.001-0.007-0.001-0.011-0.001
			c-5.419,0-10.514,2.11-14.348,5.942l-84.913,84.913c-7.911,7.911-7.911,20.784,0,28.695l81.142,81.142
			c3.956,3.956,9.151,5.933,14.348,5.933c5.196,0,10.392-1.978,14.348-5.933l84.918-84.918c3.829-3.83,5.939-8.921,5.942-14.337
			l0.045-81.091C297.015,122.728,294.906,117.631,291.076,113.797z M276.966,209.228c0,0.077-0.03,0.15-0.085,0.204l-84.918,84.918
			c-0.112,0.113-0.297,0.113-0.409,0l-81.141-81.142c-0.113-0.113-0.113-0.296,0-0.409l84.913-84.913
			c0.054-0.054,0.128-0.085,0.204-0.085l81.191,0.045c0.046,0.001,0.121,0.001,0.205,0.085c0.085,0.085,0.085,0.16,0.085,0.205
			L276.966,209.228z"/>
	</g>
</g>
<g>
	<g>
		<path d="M244.6,156.086c-1.87-1.86-4.44-2.92-7.07-2.92c-2.64,0-5.21,1.06-7.08,2.92c-1.86,1.87-2.92,4.44-2.92,7.08
			c0,2.63,1.06,5.21,2.92,7.07c1.87,1.86,4.44,2.93,7.08,2.93c2.63,0,5.2-1.07,7.07-2.93c1.86-1.86,2.93-4.44,2.93-7.07
			C247.53,160.527,246.46,157.956,244.6,156.086z"/>
	</g>
</g>
<g>
</g>
<g>
</g>
<g>
</g>
<g>
</g>
<g>
</g>
<g>
</g>
<g>
</g>
<g>
</g>
<g>
</g>
<g>
</g>
<g>
</g>
<g>
</g>
<g>
</g>
<g>
</g>
<g>
</g>
</svg>
