<?xml version="1.0" encoding="iso-8859-1"?>
<!-- Generator: Adobe Illustrator 19.0.0, SVG Export Plug-In . SVG Version: 6.00 Build 0)  -->
<svg version="1.1" id="Capa_1" xmlns="http://www.w3.org/2000/svg" xmlns:xlink="http://www.w3.org/1999/xlink" x="0px" y="0px"
	 viewBox="0 0 512 512" style="enable-background:new 0 0 512 512;" xml:space="preserve">
<g>
	<g>
		<path d="M472.001,350.461v-52.463c0-20.952-17.047-37.999-37.999-37.999h-63.998c-11.071,0-21.047,4.761-27.999,12.341
			C335.053,264.762,325.076,260,314.005,260h-63.998c-20.952,0-37.999,17.047-37.999,37.999v52.463
			c-23.128,7.077-39.999,28.619-39.999,54.035v97.497c0,5.522,4.478,10,10,10H502c5.522,0,10-4.478,10-10v-97.497
			C512,379.081,495.13,357.537,472.001,350.461z M352.004,297.999c0-9.925,8.075-18,18-18h63.998c9.925,0,18,8.075,18,18v49.999
			h-99.997V297.999z M232.008,297.999c0-9.925,8.075-18,18-18h63.998c9.925,0,18,8.075,18,18v49.999h-99.997V297.999z
			 M492.002,443.997H258.848c-5.522,0-10,4.478-10,10s4.478,10,10,10H492v27.997H192.009v-83.998h65.468c5.522,0,10-4.478,10-10
			c0-5.522-4.478-10-10-10h-61.509c6.036-11.855,18.352-19.999,32.541-19.999h113.497h113.497c20.125,0,36.499,16.374,36.499,36.499
			V443.997z"/>
	</g>
</g>
<g>
	<g>
		<path d="M226.077,446.925c-1.859-1.861-4.439-2.93-7.069-2.93c-2.63,0-5.21,1.069-7.07,2.93c-1.86,1.861-2.93,4.44-2.93,7.07
			c0,2.64,1.069,5.21,2.93,7.069c1.86,1.86,4.44,2.931,7.07,2.931c2.63,0,5.21-1.07,7.069-2.931c1.86-1.859,2.931-4.439,2.931-7.069
			C229.008,451.365,227.938,448.785,226.077,446.925z"/>
	</g>
</g>
<g>
	<g>
		<path d="M79.071,395.926c-1.87-1.86-4.439-2.93-7.069-2.93c-2.631,0-5.21,1.069-7.07,2.93c-1.87,1.86-2.94,4.44-2.94,7.07
			s1.07,5.21,2.94,7.069c1.86,1.861,4.439,2.931,7.07,2.931c2.63,0,5.199-1.07,7.069-2.931c1.86-1.859,2.92-4.439,2.92-7.069
			S80.931,397.786,79.071,395.926z"/>
	</g>
</g>
<g>
	<g>
		<path d="M79.071,462.334c-1.859-1.861-4.439-2.93-7.069-2.93c-2.641,0-5.21,1.069-7.07,2.93c-1.87,1.86-2.94,4.44-2.94,7.07
			s1.07,5.21,2.94,7.069c1.86,1.87,4.439,2.931,7.07,2.931c2.63,0,5.199-1.061,7.069-2.931c1.86-1.859,2.92-4.43,2.92-7.069
			C81.991,466.774,80.931,464.194,79.071,462.334z"/>
	</g>
</g>
<g>
	<g>
		<path d="M133.996,359.997H81.998v-24.499h34.803c2.973,0,5.79-1.322,7.69-3.607c1.899-2.286,2.685-5.298,2.141-8.221
			l-12.897-69.371c-0.88-4.736-5.013-8.172-9.831-8.172h-63.81c-4.818,0-8.951,3.436-9.832,8.172L17.366,323.67
			c-0.543,2.923,0.242,5.935,2.142,8.221c1.9,2.285,4.719,3.607,7.69,3.607h34.801v24.499H10c-5.522,0-10,4.478-10,10v131.996
			c0,5.522,4.478,10,10,10h123.997c5.522,0,10-4.478,10-10V369.997C143.996,364.474,139.518,359.997,133.996,359.997z
			 M39.227,315.498l9.179-49.372h47.186l9.18,49.372H39.227z M123.997,491.994H19.999v-45.999h103.997V491.994z M123.997,425.995
			H19.999v-45.999h103.997V425.995z"/>
	</g>
</g>
<g>
	<g>
		<path d="M454.002,66.005H436.72L347.855,1.897c-3.494-2.52-8.207-2.52-11.701,0L247.29,66.005h-17.282c-5.522,0-10,4.478-10,10
			v119.997c-0.001,5.522,4.476,10,9.999,10h28.683c0.171,0.004,0.341,0.004,0.511,0h194.8c5.522,0,10-4.478,10-10V76.005
			C464.001,70.483,459.523,66.005,454.002,66.005z M342.005,22.337l60.53,43.668H281.474L342.005,22.337z M283.1,186.002
			l42.374-42.374l42.374,42.374H283.1z M396.133,186.002l-11-11l16.857-16.857l27.856,27.856H396.133z M444.002,171.872
			l-34.94-34.94c-3.906-3.904-10.236-3.904-14.143,0l-23.928,23.928l-38.445-38.445c-3.906-3.904-10.236-3.904-14.143,0
			l-63.587,63.587h-14.81V86.005h0.001h203.994V171.872z"/>
	</g>
</g>
<g>
	<g>
		<path d="M296.572,94.622c-5.176,0-10.149,1.279-14.567,3.69c-4.418-2.411-9.392-3.69-14.567-3.69c-5.522,0-10,4.478-10,10
			s4.478,10,10,10c2.82,0,5.47,1.107,7.459,3.118c1.879,1.897,4.438,2.966,7.108,2.966c2.67,0,5.229-1.068,7.108-2.966
			c1.989-2.011,4.639-3.118,7.459-3.118c5.522,0,10-4.478,10-10S302.094,94.622,296.572,94.622z"/>
	</g>
</g>
<g>
	<g>
		<path d="M391.982,110.023c-5.176,0-10.149,1.279-14.567,3.689c-4.418-2.41-9.392-3.689-14.567-3.689c-5.522,0-10,4.478-10,10
			s4.478,10,10,10c2.82,0,5.47,1.107,7.46,3.118c1.879,1.897,4.438,2.965,7.107,2.965c2.669,0,5.229-1.067,7.107-2.965
			c1.99-2.011,4.64-3.118,7.46-3.118c5.522,0,10-4.478,10-10S397.504,110.023,391.982,110.023z"/>
	</g>
</g>
<g>
	<g>
		<path d="M309.875,390.926c-1.86-1.86-4.44-2.93-7.07-2.93c-2.63,0-5.21,1.069-7.07,2.93c-1.859,1.86-2.93,4.44-2.93,7.07
			c0,2.63,1.07,5.21,2.93,7.069c1.861,1.861,4.441,2.931,7.07,2.931c2.64,0,5.21-1.07,7.07-2.931c1.87-1.859,2.93-4.439,2.93-7.069
			C312.804,395.366,311.745,392.786,309.875,390.926z"/>
	</g>
</g>
<g>
</g>
<g>
</g>
<g>
</g>
<g>
</g>
<g>
</g>
<g>
</g>
<g>
</g>
<g>
</g>
<g>
</g>
<g>
</g>
<g>
</g>
<g>
</g>
<g>
</g>
<g>
</g>
<g>
</g>
</svg>
