<?xml version="1.0" encoding="iso-8859-1"?>
<!-- Generator: Adobe Illustrator 19.0.0, SVG Export Plug-In . SVG Version: 6.00 Build 0)  -->
<svg version="1.1" id="Capa_1" xmlns="http://www.w3.org/2000/svg" xmlns:xlink="http://www.w3.org/1999/xlink" x="0px" y="0px"
	 viewBox="0 0 512 512" style="enable-background:new 0 0 512 512;" xml:space="preserve">
<g>
	<g>
		<path d="M133.399,336.881c-1.859-1.86-4.43-2.93-7.069-2.93c-2.63,0-5.21,1.069-7.07,2.93c-1.86,1.861-2.93,4.43-2.93,7.07
			c0,2.63,1.069,5.21,2.93,7.069c1.86,1.86,4.44,2.931,7.07,2.931c2.64-0.001,5.21-1.071,7.069-2.931
			c1.87-1.859,2.931-4.439,2.931-7.069C136.33,341.32,135.269,338.741,133.399,336.881z"/>
	</g>
</g>
<g>
	<g>
		<path d="M510.459,162.663L446.424,61.107V36.729C446.424,16.477,429.948,0,409.696,0H215.152
			c-20.252,0-36.729,16.477-36.729,36.729v24.379L114.39,162.663c-1.025,1.626-1.526,3.479-1.526,5.335
			c-0.005-0.001-0.01,0-0.015-0.001V246H10c-5.522,0-10,4.478-10,10v193.556C0,483.987,28.013,512,62.444,512H502
			c5.522,0,10-4.478,10-10V167.997C512,166.109,511.466,164.26,510.459,162.663z M215.153,20h194.544
			c9.224,0,16.728,7.504,16.728,16.729v17.269h-228V36.729h-0.001C198.424,27.504,205.928,20,215.153,20z M164,449.556
			C164,472.96,144.96,492,121.556,492H62.444C39.04,492,20,472.96,20,449.556V353.95h61c5.522,0,10-4.478,10-10
			c0-5.522-4.478-10-10-10H20V266h144V449.556z M360.849,492H167.301C177.653,480.851,184,465.934,184,449.556v-44.557h176.849V492z
			 M360.849,384.999H184V336.31c1.359,0.67,2.869,1.033,4.424,1.033c2.081,0,4.083-0.647,5.747-1.816V363c0,5.522,4.478,10,10,10
			c5.522,0,10-4.478,10-10v-56c0-4.276-2.719-8.079-6.766-9.463c-4.049-1.383-8.525-0.039-11.143,3.342l-7.854,10.148
			c-1.224-1.369-2.757-2.319-4.408-2.845V285h176.849V384.999z M360.849,264.999H184V256c0-5.522-4.478-10-10-10h-41.151v-68.003
			h228V264.999z M140.976,157.997l52.964-84h224.356L405.684,94H299.813c-5.522,0-10,4.478-10,10c0,5.522,4.478,10,10,10h93.261
			l-27.742,43.997H140.976z M492,492h-22v-82.475c0-5.522-4.478-10-10-10c-5.522,0-10,4.478-10,10V492h-69.151v-97.001v-120V170.887
			l55.575-88.141L492,170.887V492z"/>
	</g>
</g>
<g>
	<g>
		<path d="M332.284,335l17.797-21.65c3.507-4.266,2.891-10.567-1.376-14.075c-4.267-3.505-10.567-2.892-14.075,1.376l-5.872,7.144
			v-0.794c0-5.522-4.478-10-10-10c-5.522,0-10,4.478-10,10v56c0,5.52,4.477,9.998,10,9.998c5.522,0,10-4.478,10-10v-0.794
			l5.872,7.144c1.978,2.405,4.843,3.65,7.731,3.65c2.234,0,4.483-0.745,6.344-2.274c4.267-3.508,4.883-9.81,1.376-14.075
			L332.284,335z"/>
	</g>
</g>
<g>
	<g>
		<path d="M239,296.999c-5.522,0-10,4.478-10,10v56c0,5.522,4.478,10,10,10c5.522,0,10-4.478,10-10v-56
			C249,301.477,244.522,296.999,239,296.999z"/>
	</g>
</g>
<g>
	<g>
		<path d="M287.818,352.999h-6.363v-46c0-5.522-4.478-10-10-10c-5.522,0-10,4.478-10,10v56c0,5.522,4.478,10,10,10h16.363
			c5.522,0,10-4.478,10-10C297.818,357.477,293.34,352.999,287.818,352.999z"/>
	</g>
</g>
<g>
	<g>
		<path d="M467.069,366.101c-1.859-1.859-4.439-2.92-7.069-2.92s-5.21,1.061-7.07,2.92c-1.86,1.87-2.93,4.44-2.93,7.07
			c0,2.64,1.069,5.21,2.93,7.07c1.86,1.868,4.44,2.939,7.07,2.939s5.21-1.07,7.069-2.939c1.86-1.86,2.931-4.431,2.931-7.07
			C470,370.541,468.93,367.961,467.069,366.101z"/>
	</g>
</g>
<g>
</g>
<g>
</g>
<g>
</g>
<g>
</g>
<g>
</g>
<g>
</g>
<g>
</g>
<g>
</g>
<g>
</g>
<g>
</g>
<g>
</g>
<g>
</g>
<g>
</g>
<g>
</g>
<g>
</g>
</svg>
