<?xml version="1.0" encoding="iso-8859-1"?>
<!-- Generator: Adobe Illustrator 19.0.0, SVG Export Plug-In . SVG Version: 6.00 Build 0)  -->
<svg version="1.1" id="Capa_1" xmlns="http://www.w3.org/2000/svg" xmlns:xlink="http://www.w3.org/1999/xlink" x="0px" y="0px"
	 viewBox="0 0 512 512" style="enable-background:new 0 0 512 512;" xml:space="preserve">
<g>
	<g>
		<path d="M263.07,29.93C261.21,28.07,258.63,27,256,27s-5.21,1.069-7.07,2.93C247.07,31.79,246,34.36,246,37
			c0,2.63,1.07,5.21,2.93,7.069C250.79,45.93,253.37,47,256,47s5.21-1.07,7.07-2.931C264.93,42.21,266,39.63,266,37
			S264.93,31.79,263.07,29.93z"/>
	</g>
</g>
<g>
	<g>
		<path d="M512,218c0-23.159-18.841-42-42-42c-12.59,0-23.895,5.576-31.599,14.378l15.906-51.843
			c8.108-26.426,3.335-54.33-13.096-76.559C424.78,39.749,399.503,27,371.861,27H299c-5.523,0-10,4.478-10,10s4.477,10,10,10h72.861
			c21.231,0,40.646,9.792,53.267,26.865c12.62,17.073,16.286,38.506,10.059,58.803l-21.784,70.999
			c-2.405-0.43-4.876-0.667-7.403-0.667H106c-2.527,0-4.998,0.237-7.403,0.667l-21.784-70.999
			c-6.228-20.297-2.562-41.729,10.059-58.803C99.492,56.792,118.907,47,140.139,47H212c5.523,0,10-4.478,10-10s-4.477-10-10-10
			h-71.861c-27.642,0-52.919,12.749-69.35,34.977c-16.431,22.229-21.204,50.133-13.096,76.559l15.906,51.843
			C65.895,181.576,54.59,176,42,176c-23.159,0-42,18.841-42,42c0,9.586,3.228,18.433,8.655,25.509
			c10.183,33.369,15.344,67.966,15.342,102.862l-0.004,74.62c0,0.003,0,0.006,0,0.009s0,0.006,0,0.009l-0.003,53.99
			c0,2.652,1.053,5.196,2.929,7.072c1.875,1.875,4.419,2.929,7.071,2.929H74c5.523,0,10-4.478,10-10v-44h344v44
			c0,5.522,4.477,10,10,10h40.01c2.652,0,5.196-1.054,7.071-2.929c1.875-1.876,2.929-4.42,2.929-7.072l-0.003-53.99
			c0-0.003,0-0.006,0-0.009s0-0.006,0-0.009l-0.004-74.62c-0.002-34.896,5.159-69.493,15.342-102.862
			C508.772,236.433,512,227.586,512,218z M64,465H43.991l0.002-34H64V465z M64,245v40v64v62H43.994l0.003-64.627
			c0.001-29.438-3.473-58.672-10.349-87.207C36.349,259.713,39.141,260,42,260c5.523,0,10-4.478,10-10c0-5.522-4.477-10-10-10
			c-12.131,0-22-9.869-22-22s9.869-22,22-22s22,9.869,22,22V245z M428,411H84v-62c0-12.131,9.869-22,22-22h300
			c12.131,0,22,9.869,22,22V411z M428,285c0,12.131-9.869,22-22,22H106c-11.456,0-20.891-8.803-21.905-20h92.38
			c5.523,0,10-4.478,10-10c0-5.522-4.477-10-10-10H84v-22c0-12.131,9.869-22,22-22h300c12.131,0,22,9.869,22,22V285z M448,465v-34
			h20.007l0.002,34H448z M470,240c-5.523,0-10,4.478-10,10c0,5.522,4.477,10,10,10c2.859,0,5.651-0.287,8.352-0.834
			c-6.876,28.535-10.351,57.769-10.349,87.207L468.006,411H448v-62v-64v-40v-27c0-12.131,9.869-22,22-22c12.131,0,22,9.869,22,22
			S482.131,240,470,240z"/>
	</g>
</g>
<g>
	<g>
		<path d="M219.9,269.93c-1.87-1.86-4.44-2.93-7.07-2.93c-2.64,0-5.21,1.069-7.08,2.93c-1.86,1.86-2.92,4.44-2.92,7.07
			s1.06,5.21,2.92,7.069c1.86,1.861,4.44,2.931,7.08,2.931c2.63,0,5.21-1.07,7.07-2.931c1.86-1.859,2.93-4.439,2.93-7.069
			S221.76,271.79,219.9,269.93z"/>
	</g>
</g>
<g>
</g>
<g>
</g>
<g>
</g>
<g>
</g>
<g>
</g>
<g>
</g>
<g>
</g>
<g>
</g>
<g>
</g>
<g>
</g>
<g>
</g>
<g>
</g>
<g>
</g>
<g>
</g>
<g>
</g>
</svg>
