<?xml version="1.0" encoding="iso-8859-1"?>
<!-- Generator: Adobe Illustrator 19.0.0, SVG Export Plug-In . SVG Version: 6.00 Build 0)  -->
<svg version="1.1" id="Capa_1" xmlns="http://www.w3.org/2000/svg" xmlns:xlink="http://www.w3.org/1999/xlink" x="0px" y="0px"
	 viewBox="0 0 512 512" style="enable-background:new 0 0 512 512;" xml:space="preserve">
<g>
	<g>
		<path d="M462.001,0.005H49.999C22.43,0.005,0,22.435,0,50.004v411.991c0,27.569,22.43,49.999,49.999,49.999h412.002
			c27.569,0,49.999-22.43,49.999-49.999V50.004C512,22.434,489.571,0.005,462.001,0.005z M20.001,50.004
			C20,33.463,33.457,20.005,49.999,20.005h412.002c16.542,0,29.999,13.458,29.999,29.999v132.836
			c-4.299-2.868-9.121-5.006-14.288-6.252c-0.194-1.524-0.547-3.041-1.071-4.526c-2.871-8.143-4.327-16.649-4.327-25.283v-43.935
			c0-8.636,1.456-17.143,4.327-25.284c2.806-7.957,0.842-16.606-5.124-22.571c-5.967-5.968-14.616-7.93-22.574-5.124
			c-7.789,2.747-15.927,4.14-24.188,4.14h-98.618c-8.262,0-16.4-1.393-24.19-4.14c-7.955-2.808-16.605-0.843-22.571,5.123
			c-5.966,5.967-7.93,14.616-5.124,22.574c2.871,8.142,4.326,16.648,4.326,25.282v43.936c0,8.635-1.456,17.142-4.327,25.283
			c-0.38,1.077-0.666,2.171-0.872,3.271h-34.771c-0.206-1.101-0.493-2.195-0.872-3.271c-2.871-8.143-4.327-16.649-4.327-25.283
			v-43.935c0-8.636,1.456-17.143,4.327-25.284c2.806-7.957,0.842-16.606-5.124-22.571c-5.967-5.968-14.617-7.93-22.573-5.124
			c-7.79,2.747-15.928,4.14-24.189,4.14H87.233c-8.262,0-16.401-1.393-24.189-4.14c-7.955-2.808-16.605-0.843-22.572,5.123
			c-5.966,5.967-7.93,14.616-5.124,22.574c2.871,8.142,4.326,16.648,4.326,25.282v43.936c0,8.635-1.456,17.142-4.327,25.283
			c-0.524,1.486-0.877,3.003-1.071,4.528c-5.163,1.246-9.98,3.384-14.276,6.249V50.004z M456.67,175.336H294.226
			c2.883-9.251,4.353-18.838,4.353-28.555v-43.936c0-10.906-1.838-21.65-5.464-31.934c-0.089-0.252-0.359-1.018,0.404-1.78
			c0.763-0.762,1.529-0.491,1.78-0.404c9.932,3.503,20.308,5.278,30.84,5.278h98.618c10.534,0,20.91-1.775,30.84-5.278
			c0.252-0.087,1.018-0.357,1.78,0.404c0.763,0.764,0.493,1.529,0.404,1.781c-3.626,10.283-5.464,21.028-5.464,31.934v43.935
			C452.317,156.498,453.786,166.085,456.67,175.336z M217.763,175.336H55.32c2.883-9.251,4.353-18.838,4.353-28.555v-43.936
			c0-10.906-1.839-21.65-5.465-31.934c-0.089-0.252-0.359-1.018,0.404-1.78c0.763-0.762,1.529-0.491,1.78-0.404
			c9.931,3.503,20.308,5.278,30.84,5.278h98.618c10.533,0,20.91-1.775,30.84-5.278c0.252-0.087,1.018-0.357,1.78,0.404
			c0.763,0.764,0.493,1.529,0.404,1.781c-3.626,10.283-5.464,21.028-5.464,31.934v43.935
			C213.41,156.498,214.879,166.085,217.763,175.336z M492.001,461.996c-0.001,16.542-13.459,29.999-30,29.999H49.999
			C33.457,491.995,20,478.537,20,461.996V354.058c7.102,4.737,15.624,7.506,24.782,7.506h61.216v56.434
			c0,16.542,13.458,29.999,29.999,29.999h75.546c5.523,0,10-4.478,10-10s-4.477-10-10-10h-75.546c-5.514,0-10-4.486-10-10V282
			c0-5.514,4.486-10,10-10h239.995c5.514,0,10,4.486,10,10v135.997c0,5.514-4.486,10-10,10h-75.665c-5.523,0-10,4.478-10,10
			s4.477,10,10,10h75.665c16.542,0,29.999-13.458,29.999-29.999v-56.434h61.228c9.159,0,17.681-2.769,24.782-7.506V461.996z
			 M492.003,316.781H492c0,13.666-11.118,24.782-24.782,24.782h-61.227v-59.564c0-16.542-13.458-29.999-29.999-29.999H135.997
			c-16.542,0-29.999,13.458-29.999,29.999v59.564H44.782C31.117,341.563,20,330.446,20,316.781v-81.447h64.315
			c5.523,0,10-4.478,10-10c0-5.522-4.477-10-10-10H20.468c2.235-11.384,12.286-20,24.314-20h182.484c0.005,0,0.01,0.001,0.015,0.001
			s0.01-0.001,0.016-0.001h57.398c0.005,0,0.01,0.001,0.016,0.001c0.005,0,0.01-0.001,0.015-0.001h182.495
			c13.665,0,24.782,11.117,24.782,24.782V316.781z"/>
	</g>
</g>
<g>
	<g>
		<path d="M263.074,430.926c-1.86-1.861-4.44-2.93-7.08-2.93c-2.63,0-5.21,1.069-7.06,2.93c-1.87,1.86-2.94,4.44-2.94,7.07
			c0,2.63,1.07,5.21,2.94,7.069c1.86,1.86,4.43,2.931,7.06,2.931c2.64,0,5.21-1.07,7.08-2.931c1.86-1.859,2.92-4.439,2.92-7.069
			C265.994,435.366,264.934,432.786,263.074,430.926z"/>
	</g>
</g>
<g>
	<g>
		<path d="M350.375,285.354c-3.905-3.904-10.237-3.904-14.142,0l-1.785,1.785c-5.426-3.668-11.964-5.812-18.992-5.812
			c-18.748,0-33.999,15.252-33.999,33.999c0,18.748,15.253,34,33.999,34c18.748,0,33.999-15.252,33.999-33.999
			c0-4.419-0.856-8.639-2.397-12.515l3.316-3.317C354.28,295.591,354.28,289.26,350.375,285.354z M315.457,329.327
			c-7.72,0-14-6.28-14-14c0-7.72,6.281-14,14-14c7.72,0,14,6.28,14,14C329.457,323.048,323.177,329.327,315.457,329.327z"/>
	</g>
</g>
<g>
	<g>
		<path d="M340.457,357.498c-16.542,0-29.999,13.458-29.999,29.999s13.458,29.999,29.999,29.999s29.999-13.458,29.999-29.999
			S356.998,357.498,340.457,357.498z M340.457,397.497c-5.514,0-10-4.486-10-10c0-5.514,4.486-10,10-10c5.514,0,10,4.486,10,10
			C350.456,393.011,345.971,397.497,340.457,397.497z"/>
	</g>
</g>
<g>
	<g>
		<path d="M208.004,319.499c-16.542,0-29.999,13.458-29.999,29.999c0,16.542,13.458,29.999,29.999,29.999
			s29.999-13.458,29.999-29.999C238.003,332.956,224.545,319.499,208.004,319.499z M208.004,359.498c-5.514,0-10-4.486-10-10
			c0-5.514,4.486-10,10-10c5.514,0,10,4.486,10,10C218.003,355.012,213.517,359.498,208.004,359.498z"/>
	</g>
</g>
<g>
	<g>
		<path d="M208.004,283.499c-36.392,0-65.999,29.606-65.999,65.999c0,36.392,29.606,65.999,65.999,65.999
			s65.999-29.606,65.999-65.999C274.002,313.106,244.396,283.499,208.004,283.499z M208.004,395.497
			c-25.363,0-45.999-20.635-45.999-45.999s20.636-45.999,45.999-45.999s45.999,20.636,45.999,45.999
			S233.368,395.497,208.004,395.497z"/>
	</g>
</g>
<g>
	<g>
		<path d="M127.737,218.261c-1.86-1.861-4.44-2.93-7.07-2.93c-2.64,0-5.21,1.069-7.07,2.93c-1.87,1.86-2.93,4.44-2.93,7.07
			c0,2.64,1.06,5.21,2.93,7.069c1.86,1.87,4.43,2.931,7.07,2.931c2.63,0,5.21-1.061,7.07-2.931c1.86-1.859,2.93-4.439,2.93-7.069
			S129.597,220.131,127.737,218.261z"/>
	</g>
</g>
<g>
</g>
<g>
</g>
<g>
</g>
<g>
</g>
<g>
</g>
<g>
</g>
<g>
</g>
<g>
</g>
<g>
</g>
<g>
</g>
<g>
</g>
<g>
</g>
<g>
</g>
<g>
</g>
<g>
</g>
</svg>
