<?xml version="1.0" encoding="iso-8859-1"?>
<!-- Generator: Adobe Illustrator 19.0.0, SVG Export Plug-In . SVG Version: 6.00 Build 0)  -->
<svg version="1.1" id="Capa_1" xmlns="http://www.w3.org/2000/svg" xmlns:xlink="http://www.w3.org/1999/xlink" x="0px" y="0px"
	 viewBox="0 0 512 512" style="enable-background:new 0 0 512 512;" xml:space="preserve">
<g>
	<g>
		<path d="M239.4,333.93c-1.86-1.861-4.43-2.93-7.07-2.93c-2.63,0-5.21,1.069-7.07,2.93c-1.86,1.861-2.93,4.44-2.93,7.07
			s1.07,5.21,2.93,7.069c1.87,1.86,4.44,2.931,7.07,2.931s5.21-1.07,7.07-2.931c1.87-1.859,2.93-4.439,2.93-7.069
			S241.27,335.79,239.4,333.93z"/>
	</g>
</g>
<g>
	<g>
		<path d="M512,181.444v-13.492c0-5.522-4.477-10-10-10h-25.296v-1.957c0-5.522-4.477-10-10-10H313.242
			c-1.431,0-2.789,0.306-4.02,0.847l-0.902-0.707c-7.808-6.771-17.835-10.577-28.305-10.577H231.25
			c-10.433,0-20.427,3.778-28.223,10.505l-38.007,29.759c-20.01,15.668-25.278,43.941-12.254,65.766
			c0.922,1.544,1.932,3.002,2.987,4.413h-22.678l27.761-140.056c0.582-2.936-0.182-5.978-2.081-8.291S154.02,94,151.027,94H10
			c-2.993,0-5.829,1.341-7.728,3.653c-1.899,2.313-2.663,5.355-2.081,8.291L27.952,246H10c-3.648,0-7.007,1.987-8.764,5.185
			c-1.757,3.198-1.633,7.099,0.323,10.178l51.444,80.977L0.519,498.82c-1.023,3.051-0.516,6.407,1.363,9.02
			C3.761,510.451,6.782,512,10,512h40c4.297,0,8.114-2.746,9.481-6.82l7.478-22.297h25.585c4.297,0,8.114-2.746,9.481-6.82
			L143.971,351h45.884c5.523,0,10-4.478,10-10c0-5.522-4.477-10-10-10H69.495L28.2,266h455.6l-12.87,20.258h-65.668
			c-5.523,0-10,4.478-10,10c0,5.522,4.477,10,10,10h52.962L442.505,331H272c-5.523,0-10,4.478-10,10c0,5.522,4.477,10,10,10h95.656
			l41.946,125.063c1.367,4.074,5.184,6.82,9.481,6.82h25.958l7.478,22.297c1.367,4.074,5.184,6.82,9.481,6.82h40
			c3.218,0,6.239-1.549,8.118-4.16c1.879-2.612,2.386-5.969,1.363-9.02l-52.484-156.48l51.444-80.977
			c1.956-3.079,2.08-6.98,0.323-10.178C509.007,247.987,505.649,246,502,246h-46.487c4.046-4.682,7.578-9.773,10.536-15.183
			C491.693,228.982,512,207.547,512,181.444z M476.703,189.244v-11.293H492v3.492c0,11.979-7.177,22.306-17.453,26.928
			C475.958,202.16,476.703,195.752,476.703,189.244z M122.877,351L85.351,462.883H73.668L111.194,351H122.877z M71.193,351h18.906
			L42.807,492H23.901L71.193,351z M112.686,246H48.341l-15.393-77.657h95.13L112.686,246z M28.984,148.343L22.177,114H138.85
			l-6.807,34.343H28.984z M200.157,245.999h-7.946c-8.99-1.184-17.308-6.345-22.271-14.662c-7.876-13.197-4.69-30.294,7.41-39.768
			l10.901-8.536c0.054,0.545,0.105,1.09,0.18,1.635l6.052,44c0.867,6.301,3.099,12.137,6.358,17.24
			C200.613,245.943,200.385,245.969,200.157,245.999z M303.019,181.942l-6.053,44C295.394,237.377,285.504,246,273.962,246h-36.66
			c-11.542,0-21.432-8.623-23.005-20.057l-6.052-44c-0.915-6.649,1.09-13.364,5.501-18.424s10.791-7.962,17.503-7.962h48.765
			c5.458,0,10.697,1.92,14.836,5.357c0.254,0.247,0.522,0.484,0.808,0.708l0.004,0.003c0.65,0.593,1.271,1.223,1.856,1.893
			C301.929,168.578,303.935,175.292,303.019,181.942z M426.276,462.883L388.751,351h12.056l37.526,111.883H426.276z M488.098,492
			h-18.905l-47.292-141h18.905L488.098,492z M341.314,231.337c-4.963,8.316-13.279,13.478-22.269,14.663h-7.952
			c-0.224-0.029-0.448-0.055-0.672-0.089c3.259-5.103,5.492-10.94,6.359-17.242l6.053-43.999c0.075-0.543,0.126-1.086,0.18-1.629
			l10.892,8.528C346.005,201.043,349.191,218.14,341.314,231.337z M456.704,189.244c0,23.106-12.053,44.621-31.621,56.756h-69.582
			c1.055-1.411,2.066-2.869,2.987-4.413c13.025-21.824,7.757-50.098-12.254-65.766l-12.551-9.827h123.021V189.244z"/>
	</g>
</g>
<g>
	<g>
		<path d="M407.234,42.776l-4.858-4.881c-5.719-5.746-5.719-15.095,0-20.84c3.896-3.914,3.882-10.245-0.033-14.142
			c-3.914-3.896-10.245-3.883-14.142,0.032c-13.463,13.524-13.463,35.532,0,49.059l4.858,4.881c5.719,5.745,5.719,15.095,0,20.84
			c-3.896,3.914-3.881,10.246,0.033,14.143c1.951,1.941,4.503,2.912,7.055,2.912c2.567,0,5.133-0.982,7.087-2.945
			C420.696,78.31,420.696,56.302,407.234,42.776z"/>
	</g>
</g>
<g>
	<g>
		<path d="M361.497,75.997l-4.858-4.881c-5.719-5.745-5.719-15.095,0-20.84c3.896-3.914,3.881-10.246-0.033-14.143
			c-3.914-3.894-10.245-3.88-14.142,0.033c-13.462,13.525-13.462,35.533,0,49.059l4.858,4.881c5.719,5.745,5.719,15.095,0,20.84
			c-3.896,3.914-3.881,10.246,0.033,14.143c1.951,1.941,4.503,2.912,7.055,2.912c2.567,0,5.133-0.982,7.087-2.945
			C374.959,111.531,374.959,89.523,361.497,75.997z"/>
	</g>
</g>
<g>
	<g>
		<path d="M378.27,289.19c-1.86-1.859-4.44-2.93-7.07-2.93s-5.21,1.07-7.07,2.93s-2.93,4.431-2.93,7.07c0,2.63,1.07,5.21,2.93,7.07
			c1.86,1.859,4.44,2.93,7.07,2.93c2.63,0,5.21-1.07,7.07-2.93c1.86-1.86,2.93-4.44,2.93-7.07
			C381.2,293.62,380.13,291.05,378.27,289.19z"/>
	</g>
</g>
<g>
</g>
<g>
</g>
<g>
</g>
<g>
</g>
<g>
</g>
<g>
</g>
<g>
</g>
<g>
</g>
<g>
</g>
<g>
</g>
<g>
</g>
<g>
</g>
<g>
</g>
<g>
</g>
<g>
</g>
</svg>
