<?xml version="1.0" encoding="iso-8859-1"?>
<!-- Generator: Adobe Illustrator 19.0.0, SVG Export Plug-In . SVG Version: 6.00 Build 0)  -->
<svg version="1.1" id="Capa_1" xmlns="http://www.w3.org/2000/svg" xmlns:xlink="http://www.w3.org/1999/xlink" x="0px" y="0px"
	 viewBox="0 0 512.001 512.001" style="enable-background:new 0 0 512.001 512.001;" xml:space="preserve">
<g>
	<g>
		<path d="M173.979,200.048C97.897,200.048,36,261.946,36,338.027c0,76.083,61.897,137.979,137.979,137.979
			s137.979-61.897,137.979-137.979S250.062,200.048,173.979,200.048z M173.979,456.008c-65.055,0-117.982-52.927-117.982-117.982
			s52.927-117.982,117.982-117.982s117.982,52.926,117.982,117.982S239.034,456.008,173.979,456.008z"/>
	</g>
</g>
<g>
	<g>
		<path d="M320.653,244.403c-2.976-4.652-9.159-6.014-13.809-3.036c-4.652,2.976-6.012,9.159-3.036,13.811
			c38.6,60.354,29.791,140.987-20.951,191.727c-29.083,29.083-67.75,45.098-108.879,45.098s-79.796-16.016-108.879-45.098
			c-60.036-60.035-60.036-157.72,0-217.756c51.628-51.627,133.176-59.841,193.904-19.533c4.6,3.055,10.805,1.801,13.86-2.801
			c3.054-4.601,1.8-10.806-2.802-13.86c-32.967-21.883-72.934-31.871-112.553-28.125c-40.146,3.796-77.986,21.617-106.549,50.179
			c-67.832,67.833-67.832,178.203,0,246.036c32.859,32.859,76.548,50.955,123.018,50.955s90.159-18.096,123.019-50.955
			c28.2-28.201,45.972-65.541,50.039-105.141C351.048,316.872,341.678,277.273,320.653,244.403z"/>
	</g>
</g>
<g>
	<g>
		<path d="M297.073,215.084l-0.126-0.126c-3.896-3.911-10.227-3.923-14.141-0.027c-3.911,3.897-3.924,10.227-0.027,14.141
			l0.126,0.126c1.954,1.961,4.519,2.942,7.084,2.942c2.553,0,5.105-0.971,7.057-2.915
			C300.957,225.327,300.97,218.997,297.073,215.084z"/>
	</g>
</g>
<g>
	<g>
		<path d="M509.067,494.855l-14.47-14.469c10.844-13.879,17.33-31.318,17.33-50.255c0-45.101-36.693-81.795-81.794-81.795
			s-81.795,36.692-81.795,81.795c0,45.1,36.692,81.794,81.795,81.794c18.971,0,36.44-6.51,50.329-17.389l14.462,14.461
			c1.953,1.952,4.511,2.929,7.07,2.929s5.118-0.977,7.07-2.929C512.972,505.09,512.972,498.759,509.067,494.855z M430.135,491.926
			c-34.075,0-61.798-27.722-61.798-61.797c0-34.075,27.723-61.798,61.798-61.798s61.797,27.723,61.797,61.798
			S464.21,491.926,430.135,491.926z"/>
	</g>
</g>
<g>
	<g>
		<path d="M397.946,0c-62.85,0-113.983,51.132-113.983,113.983s51.132,113.983,113.983,113.983
			c62.85,0,113.983-51.132,113.983-113.983S460.795,0,397.946,0z M397.946,207.969c-51.824,0-93.986-42.162-93.986-93.986
			s42.162-93.986,93.986-93.986s93.986,42.162,93.986,93.986S449.77,207.969,397.946,207.969z"/>
	</g>
</g>
<g>
	<g>
		<path d="M418.677,57.408c-10.115-7.249-22.346-11.215-34.843-11.215c-32.986,0-59.823,26.836-59.823,59.823
			c-0.001,32.35,25.815,58.766,57.924,59.775c9.814,7.048,21.83,11.214,34.807,11.214c32.986,0,59.823-26.836,59.823-59.823
			C476.566,84.844,450.77,58.435,418.677,57.408z M360.868,138.522c-10.19-7.22-16.86-19.095-16.86-32.507
			c0-21.96,17.866-39.825,39.826-39.825c0.54,0,1.078,0.013,1.613,0.034c-17.101,10.54-28.528,29.438-28.528,50.958
			C356.919,124.699,358.325,131.889,360.868,138.522z M416.743,157.008c-21.961,0-39.826-17.865-39.826-39.826
			c0-21.49,17.111-39.048,38.424-39.79c0.017,0,0.034-0.001,0.05-0.001c0.45-0.015,0.898-0.034,1.352-0.034
			c21.96-0.001,39.826,17.865,39.826,39.825C456.569,139.142,438.703,157.008,416.743,157.008z"/>
	</g>
</g>
<g>
	<g>
		<path d="M439.809,110.113c-1.86-1.86-4.439-2.93-7.069-2.93c-2.63,0-5.209,1.07-7.069,2.93c-1.859,1.86-2.93,4.439-2.93,7.069
			c0,2.63,1.07,5.209,2.93,7.069c1.86,1.86,4.439,2.93,7.069,2.93c2.63,0,5.209-1.07,7.069-2.93c1.859-1.86,2.93-4.439,2.93-7.069
			C442.739,114.553,441.669,111.973,439.809,110.113z"/>
	</g>
</g>
<g>
	<g>
		<path d="M244.997,305.256c-8.253-4.721-14.867-12.077-18.626-20.714c-9.274-21.306-30.276-35.073-53.507-35.073
			c-23.517,0-44.624,14.002-53.77,35.673c-3.702,8.773-9.982,16.082-18.162,21.136c-14.501,8.96-22.817,22.619-22.817,37.475
			c0,17.936,12.245,34.068,31.956,42.098c8.175,3.328,15.241,9.413,20.436,17.593c9.262,14.587,25.096,23.294,42.357,23.294
			c17.215,0,33.027-8.674,42.298-23.202c4.914-7.704,12.503-13.837,21.368-17.268c20.358-7.882,33.005-24.172,33.005-42.515
			C269.534,328.438,260.361,314.046,244.997,305.256z M229.31,367.62c-12.807,4.958-23.818,13.894-31.007,25.16
			c-5.577,8.743-15.088,13.962-25.438,13.962c-10.379,0-19.903-5.239-25.476-14.017c-7.435-11.708-17.729-20.489-29.773-25.393
			c-12.029-4.9-19.503-13.936-19.503-23.578c0-7.77,4.859-15.229,13.332-20.465c11.731-7.249,20.748-17.751,26.073-30.371
			c6.013-14.246,19.888-23.45,35.348-23.45c15.269,0,29.075,9.051,35.172,23.057c5.466,12.558,15.066,23.245,27.031,30.089
			c9.196,5.261,14.471,12.967,14.471,21.141C249.537,353.643,241.786,362.788,229.31,367.62z"/>
	</g>
</g>
<g>
	<g>
		<path d="M173.823,289.815c-25.999,0-47.151,21.152-47.151,47.151c0,26,21.152,47.152,47.151,47.152
			c26,0,47.152-21.152,47.152-47.152C220.976,310.968,199.823,289.815,173.823,289.815z M173.823,364.122
			c-14.973,0-27.154-12.182-27.154-27.155c0-14.973,12.182-27.154,27.154-27.154c14.974,0,27.155,12.181,27.155,27.154
			S188.797,364.122,173.823,364.122z"/>
	</g>
</g>
<g>
	<g>
		<path d="M255.968,53.968h-43c-5.626,0-10.607-2.761-13.7-6.987h56.636c5.521,0,9.998-4.476,9.998-9.999s-4.477-9.998-9.998-9.998
			h-56.636c3.091-4.226,8.073-6.987,13.699-6.987h43c5.521,0,9.998-4.476,9.998-9.999c0-5.522-4.477-9.998-9.998-9.998h-43
			c-16.927,0-31.224,11.435-35.599,26.984h-16.154c-3.798-8.252-12.141-13.998-21.806-13.998H24.002
			c-13.231,0-23.996,10.765-23.996,23.996S10.77,60.979,24.002,60.979H139.41c9.665,0,18.006-5.746,21.806-13.998h16.154
			c4.373,15.548,18.67,26.984,35.599,26.984h43c5.521,0,9.999-4.476,9.999-9.998S261.489,53.968,255.968,53.968z M139.41,40.982
			H24.002c-2.206,0-3.999-1.794-3.999-3.999c0-2.206,1.794-3.999,3.999-3.999H139.41c2.206,0,3.999,1.794,3.999,3.999
			C143.41,39.188,141.616,40.982,139.41,40.982z"/>
	</g>
</g>
<g>
	<g>
		<path d="M264.92,93.287c-1.737-3.263-5.131-5.301-8.827-5.301H24.002c-13.231,0-23.996,10.765-23.996,23.996
			c0,13.231,10.764,23.997,23.996,23.997h107.93c0.927,4.563,4.961,7.999,9.798,7.999h46.73c30.505,0,58.889-15.106,75.928-40.409
			C266.45,100.504,266.656,96.549,264.92,93.287z M131.731,115.983H24.002c-2.206,0-3.999-1.794-3.999-3.999
			s1.794-3.999,3.999-3.999h107.729V115.983z M188.459,123.981h-36.731v-15.998h81.838
			C220.982,118.211,205.125,123.981,188.459,123.981z"/>
	</g>
</g>
<g>
	<g>
		<path d="M454.588,391.285c-7.316-4.613-15.772-7.052-24.453-7.052c-25.308,0-45.896,20.589-45.896,45.896
			c0,5.521,4.477,9.998,9.998,9.998s9.998-4.477,9.998-9.998c0-14.281,11.618-25.899,25.899-25.899c4.901,0,9.669,1.373,13.789,3.97
			c4.667,2.945,10.844,1.547,13.79-3.126C460.658,400.405,459.259,394.23,454.588,391.285z"/>
	</g>
</g>
<g>
	<g>
		<path d="M476.026,429.405c-0.085-5.469-4.544-9.845-9.994-9.845c-0.052,0-0.104,0-0.157,0.001
			c-5.521,0.086-9.929,4.631-9.844,10.151l0.003,0.416c0,5.521,4.477,9.998,9.999,9.998s9.998-4.477,9.998-9.998
			C476.03,429.887,476.029,429.645,476.026,429.405z"/>
	</g>
</g>
<g>
</g>
<g>
</g>
<g>
</g>
<g>
</g>
<g>
</g>
<g>
</g>
<g>
</g>
<g>
</g>
<g>
</g>
<g>
</g>
<g>
</g>
<g>
</g>
<g>
</g>
<g>
</g>
<g>
</g>
</svg>
