<?xml version="1.0" encoding="iso-8859-1"?>
<!-- Generator: Adobe Illustrator 19.0.0, SVG Export Plug-In . SVG Version: 6.00 Build 0)  -->
<svg version="1.1" id="Capa_1" xmlns="http://www.w3.org/2000/svg" xmlns:xlink="http://www.w3.org/1999/xlink" x="0px" y="0px"
	 viewBox="0 0 512 512" style="enable-background:new 0 0 512 512;" xml:space="preserve">
<g>
	<g>
		<path d="M17.08,346.578c-1.86-1.86-4.44-2.93-7.07-2.93s-5.21,1.07-7.07,2.93c-1.86,1.86-2.93,4.44-2.93,7.07
			c0,2.64,1.07,5.22,2.93,7.07c1.86,1.87,4.44,2.93,7.07,2.93s5.21-1.06,7.07-2.93c1.86-1.86,2.93-4.43,2.93-7.07
			C20.01,351.018,18.94,348.438,17.08,346.578z"/>
	</g>
</g>
<g>
	<g>
		<path d="M299.845,89.49c-4.709-2.886-10.866-1.408-13.751,3.3c-2.886,4.709-1.409,10.866,3.3,13.751
			c19.167,11.748,30.609,32.163,30.609,54.611c0,35.289-28.709,63.999-63.999,63.999s-63.999-28.709-63.999-63.999
			c0-22.653,12.163-43.838,31.742-55.289c4.768-2.789,6.372-8.914,3.584-13.681c-2.789-4.768-8.915-6.372-13.681-3.584
			c-25.688,15.024-41.645,42.824-41.645,72.554c0,46.318,37.681,83.999,83.998,83.999s83.998-37.681,83.998-83.998
			C340.003,131.691,324.991,104.902,299.845,89.49z"/>
	</g>
</g>
<g>
	<g>
		<path d="M256.365,77.154h-0.359c-5.523,0-10,4.477-10,10s4.476,10,9.999,10h0.266c0.016,0,0.032,0,0.048,0
			c5.5,0,9.973-4.447,9.999-9.953C266.344,81.678,261.887,77.18,256.365,77.154z"/>
	</g>
</g>
<g>
	<g>
		<path d="M201.746,467.926c-1.86-1.86-4.44-2.93-7.07-2.93c-2.64,0-5.21,1.07-7.07,2.93c-1.87,1.86-2.93,4.44-2.93,7.07
			s1.06,5.21,2.93,7.07c1.86,1.86,4.43,2.93,7.07,2.93c2.63,0,5.21-1.07,7.07-2.93c1.86-1.86,2.93-4.44,2.93-7.07
			S203.606,469.786,201.746,467.926z"/>
	</g>
</g>
<g>
	<g>
		<path d="M495.01,43.996c-10.957-10.957-25.523-16.992-41.019-16.992c-5.523,0-10,4.477-10,10v101.998h-59.713
			c-8.552-63.155-62.813-111.998-128.274-111.998S136.281,75.848,127.73,139.002H68.009V37.004c0-5.523-4.477-10-10-10
			c-15.496,0-30.062,6.035-41.019,16.992S-0.001,69.521,0,85.016l0.01,222.638c0,5.523,4.478,10,10,10c5.522,0,10-4.478,10-10
			L20,85.015c0-10.153,3.953-19.699,11.132-26.877c4.757-4.757,10.554-8.099,16.878-9.812v321.535
			c-27.23,4.753-47.999,28.565-47.999,57.136c0,31.98,26.018,57.999,57.999,57.999h92.985c5.523,0,10-4.477,10-10
			c0-5.523-4.477-10-10-10H58.009c-20.953,0-37.999-17.047-37.999-37.999c0-20.953,17.047-37.999,37.999-37.999
			c5.523,0,10-4.477,10-10v-86.283c0.75,0.18,1.529,0.285,2.333,0.285h79.504c12.219,0,22.16,9.941,22.16,22.16
			c0,23.247,18.913,42.159,42.159,42.159h25c3.771,0,6.84,3.068,6.84,6.84v28.799c0,23.247,18.913,42.159,42.159,42.159h9.087
			c10.635,0,19.287,8.652,19.287,19.287v10.593h-79.689c-5.523,0-10,4.477-10,10c0,5.523,4.477,10,10,10h217.144
			c31.98,0,57.999-26.018,57.999-57.999L512,85.015C512.001,69.521,505.967,54.953,495.01,43.996z M385.432,159.001h58.559v119.665
			h-16.553c-8.681,0-15.743-7.062-15.743-15.743c0-19.708-16.034-35.741-35.741-35.741h-11.522
			C377.609,206.963,384.952,183.282,385.432,159.001z M68.009,159.002h58.568c0.201,10.141,1.602,20.184,4.127,29.916h-6.892
			c-16.577,0-30.062,13.486-30.062,30.062c0,5.549-4.515,10.063-10.063,10.063H68.009V159.002z M214.166,337.319
			c-12.219-0.001-22.16-9.942-22.16-22.161c0-23.247-18.913-42.159-42.159-42.159H70.342c-0.805,0-1.584,0.105-2.333,0.285v-24.242
			h15.678c16.577,0,30.062-13.486,30.062-30.062c0-5.549,4.515-10.063,10.063-10.063h13.866
			c4.581,10.345,10.512,20.108,17.698,28.977c0.029,0.039,0.058,0.077,0.088,0.115l77.214,99.309H214.166z M256.008,334.74
			L171.48,226.026c-0.115-0.16-0.236-0.317-0.361-0.471c-15.843-19.438-24.568-43.976-24.568-69.095
			C146.549,96.105,195.65,47.004,256.005,47.004c60.354,0,109.456,49.102,109.456,109.456c0,25.388-8.889,50.129-25.029,69.666
			c-0.286,0.347-0.545,0.708-0.778,1.083L256.008,334.74z M453.991,464.996H336.537v-10.593c0-21.663-17.624-39.286-39.286-39.286
			h-9.087c-12.219,0-22.16-9.941-22.16-22.16v-28.799c0-2.819-0.439-5.537-1.249-8.092l84.699-108.885h26.5
			c8.68,0,15.742,7.062,15.742,15.743c0,19.708,16.034,35.741,35.742,35.741h16.552v26h-21.063
			c-22.148,0-40.166,18.019-40.166,40.166c0,11.12-9.047,20.167-20.167,20.167h-41.927c-5.523,0-10,4.477-10,10s4.477,10,10,10
			h41.927c22.148,0,40.166-18.019,40.166-40.166c0-11.12,9.047-20.167,20.167-20.167h21.063v34.332c0,5.523,4.477,10,10,10
			c20.953,0,37.999,17.047,37.999,37.999C491.99,447.948,474.944,464.996,453.991,464.996z M491.991,383.214
			c-7.794-6.773-17.41-11.506-28-13.354V48.326c6.324,1.713,12.121,5.054,16.878,9.812C488.047,65.318,492,74.863,492,85.015
			L491.991,383.214z"/>
	</g>
</g>
<g>
	<g>
		<path d="M116.535,402.2c-4.574-3.095-10.791-1.896-13.887,2.677l-3.204,4.734l-3.203-4.733c-3.095-4.574-9.313-5.772-13.886-2.677
			c-4.574,3.095-5.772,9.313-2.677,13.886l11.485,16.971c1.86,2.749,4.963,4.396,8.282,4.396c3.319,0,6.421-1.647,8.282-4.395
			l11.485-16.971C122.307,411.513,121.109,405.296,116.535,402.2z"/>
	</g>
</g>
<g>
	<g>
		<path d="M176.635,402.2c-4.574-3.095-10.791-1.896-13.887,2.677l-3.204,4.734l-3.204-4.734c-3.095-4.574-9.311-5.771-13.887-2.677
			c-4.574,3.096-5.772,9.313-2.677,13.887l11.485,16.971c1.86,2.749,4.963,4.395,8.282,4.395c3.319,0,6.421-1.646,8.282-4.395
			l11.485-16.971C182.406,411.513,181.208,405.296,176.635,402.2z"/>
	</g>
</g>
<g>
	<g>
		<path d="M116.535,354.13c-4.574-3.095-10.791-1.896-13.887,2.677l-3.204,4.734l-3.203-4.733
			c-3.095-4.574-9.313-5.773-13.886-2.677c-4.574,3.095-5.772,9.313-2.677,13.886l11.485,16.971c1.86,2.749,4.963,4.396,8.282,4.396
			c3.319,0,6.421-1.647,8.282-4.395l11.485-16.971C122.307,363.443,121.109,357.226,116.535,354.13z"/>
	</g>
</g>
<g>
	<g>
		<path d="M176.635,354.13c-4.574-3.095-10.791-1.896-13.887,2.677l-3.204,4.734l-3.204-4.734
			c-3.095-4.574-9.311-5.772-13.887-2.677c-4.574,3.096-5.772,9.313-2.677,13.887l11.485,16.971c1.86,2.749,4.963,4.395,8.282,4.395
			c3.319,0,6.421-1.646,8.282-4.395l11.485-16.971C182.406,363.443,181.208,357.226,176.635,354.13z"/>
	</g>
</g>
<g>
	<g>
		<path d="M236.734,402.2c-4.574-3.095-10.791-1.896-13.887,2.677l-3.204,4.734l-3.204-4.734c-3.095-4.574-9.312-5.771-13.887-2.677
			c-4.574,3.096-5.772,9.313-2.677,13.887l11.485,16.971c1.86,2.749,4.963,4.395,8.282,4.395c3.319,0,6.421-1.646,8.282-4.395
			l11.487-16.971C242.506,411.513,241.308,405.296,236.734,402.2z"/>
	</g>
</g>
<g>
	<g>
		<path d="M436.091,410.686c-4.574-3.096-10.791-1.896-13.887,2.677l-3.204,4.734l-3.204-4.734
			c-3.096-4.574-9.312-5.772-13.887-2.677c-4.574,3.096-5.772,9.313-2.677,13.887l11.485,16.97c1.86,2.749,4.963,4.395,8.282,4.395
			c3.319,0,6.421-1.646,8.282-4.395l11.485-16.97C441.863,419.999,440.665,413.782,436.091,410.686z"/>
	</g>
</g>
<g>
</g>
<g>
</g>
<g>
</g>
<g>
</g>
<g>
</g>
<g>
</g>
<g>
</g>
<g>
</g>
<g>
</g>
<g>
</g>
<g>
</g>
<g>
</g>
<g>
</g>
<g>
</g>
<g>
</g>
</svg>
