<?xml version="1.0" encoding="iso-8859-1"?>
<!-- Generator: Adobe Illustrator 19.0.0, SVG Export Plug-In . SVG Version: 6.00 Build 0)  -->
<svg version="1.1" id="Capa_1" xmlns="http://www.w3.org/2000/svg" xmlns:xlink="http://www.w3.org/1999/xlink" x="0px" y="0px"
	 viewBox="0 0 511.999 511.999" style="enable-background:new 0 0 511.999 511.999;" xml:space="preserve">
<g>
	<g>
		<path d="M133.445,177.603c-2.765-4.78-8.88-6.416-13.662-3.649l-0.461,0.267c-4.78,2.765-6.415,8.881-3.649,13.662
			c1.854,3.204,5.212,4.994,8.665,4.994c1.698,0,3.421-0.434,4.997-1.345l0.461-0.267
			C134.576,188.5,136.211,182.383,133.445,177.603z"/>
	</g>
</g>
<g>
	<g>
		<path d="M494.239,233.02L285.223,112.011c-6.028-3.49-12.545-5.807-19.225-6.961v-8.013c22.256-4.63,39.03-24.395,39.03-48.006
			C305.029,21.994,283.035,0,256,0s-49.03,21.994-49.03,49.03c0,5.523,4.478,9.999,9.999,9.999s9.999-4.477,9.999-9.999
			c0-16.008,13.023-29.031,29.031-29.031S285.03,33.022,285.03,49.03S272.007,78.062,256,78.062c-5.522,0-9.999,4.477-9.999,9.999
			v16.988c-6.679,1.156-13.197,3.472-19.226,6.963l-75.246,43.563c-4.779,2.767-6.411,8.884-3.644,13.664s8.881,6.411,13.664,3.644
			l75.245-43.563c11.848-6.857,26.564-6.857,38.408,0l209.014,121.009c7.516,4.352,8.615,11.779,7.14,17.278
			c-1.478,5.5-6.15,11.376-14.835,11.376h-15.04c-2.2-14.381-11.438-26.472-24.075-32.647l-172.224-99.708
			c-5.664-3.28-12.703-3.28-18.369,0L74.849,246.184c-0.045,0.026-0.085,0.057-0.13,0.084
			c-12.703,6.156-21.994,18.283-24.202,32.713h-15.04c-8.685,0-13.357-5.877-14.835-11.376c-1.477-5.499-0.377-12.926,7.14-17.278
			l67.215-38.914c4.779-2.767,6.411-8.884,3.644-13.664c-2.766-4.779-8.881-6.411-13.664-3.644l-67.215,38.914
			c-14.035,8.126-20.64,24.11-16.433,39.773c4.208,15.664,17.93,26.187,34.149,26.187h14.537v189.135
			c0,8.393,4.282,16.007,11.453,20.367c7.174,4.362,15.904,4.657,23.352,0.794l12.477-6.471c17.583-9.116,38.576-9.115,56.157,0.001
			c0.032,0.017,0.064,0.033,0.097,0.05c23.331,12.063,51.166,12.048,74.49-0.046l0.167-0.087
			c17.463-9.054,38.295-9.024,55.732,0.083c23.277,12.161,51.095,12.201,74.41,0.113c17.698-9.177,38.829-9.177,56.527,0
			l12.301,6.38c3.479,1.805,7.237,2.702,10.985,2.702c4.278,0,8.545-1.17,12.368-3.494c7.172-4.359,11.453-11.974,11.453-20.367
			v-189.16h14.537c16.219,0,29.941-10.523,34.149-26.186C514.878,257.129,508.274,241.146,494.239,233.02z M256,164.416
			l133.87,77.504H122.128L256,164.416z M441.986,289.98H337.15c-5.522,0-9.999,4.478-9.999,9.999s4.478,9.999,9.999,9.999h104.837
			V488.14c0,1.877-1.155,2.86-1.844,3.278c-0.687,0.418-2.091,0.992-3.759,0.128l-12.301-6.38
			c-11.732-6.085-24.6-9.125-37.471-9.125c-12.868,0-25.739,3.042-37.47,9.123c-17.528,9.089-38.443,9.056-55.944-0.084
			c-23.213-12.125-50.948-12.165-74.203-0.108l-0.168,0.087c-17.581,9.116-38.573,9.115-56.156-0.001
			c-0.034-0.018-0.068-0.036-0.104-0.054c-23.325-12.057-51.16-12.043-74.476,0.047l-12.478,6.47
			c-1.664,0.862-3.07,0.292-3.758-0.128c-0.688-0.418-1.844-1.4-1.844-3.278V285.616c0-13.066,10.63-23.696,23.696-23.696H418.29
			c3.498,0,6.817,0.768,9.808,2.134l0.607,0.351c0.424,0.246,0.86,0.45,1.303,0.628c7.148,4.085,11.978,11.778,11.978,20.584V289.98
			z"/>
	</g>
</g>
<g>
	<g>
		<path d="M310.156,292.909c-1.85-1.861-4.43-2.93-7.07-2.93c-2.63,0-5.21,1.069-7.07,2.93c-1.859,1.86-2.93,4.44-2.93,7.07
			s1.07,5.21,2.93,7.069c1.86,1.86,4.44,2.931,7.07,2.931c2.64,0,5.21-1.07,7.07-2.931c1.869-1.859,2.939-4.439,2.939-7.069
			S312.025,294.769,310.156,292.909z"/>
	</g>
</g>
<g>
</g>
<g>
</g>
<g>
</g>
<g>
</g>
<g>
</g>
<g>
</g>
<g>
</g>
<g>
</g>
<g>
</g>
<g>
</g>
<g>
</g>
<g>
</g>
<g>
</g>
<g>
</g>
<g>
</g>
</svg>
