<?xml version="1.0" encoding="iso-8859-1"?>
<!-- Generator: Adobe Illustrator 19.0.0, SVG Export Plug-In . SVG Version: 6.00 Build 0)  -->
<svg version="1.1" id="Capa_1" xmlns="http://www.w3.org/2000/svg" xmlns:xlink="http://www.w3.org/1999/xlink" x="0px" y="0px"
	 viewBox="0 0 512 512" style="enable-background:new 0 0 512 512;" xml:space="preserve">
<g>
	<g>
		<path d="M472.625,106.166c-21.712,0-39.375,17.664-39.375,39.375c0,18.257,12.491,33.648,29.375,38.085v10.536H49.375v-10.536
			c16.884-4.437,29.375-19.828,29.375-38.085c0-21.711-17.663-39.375-39.375-39.375S0,123.83,0,145.541
			c0,18.257,12.491,33.648,29.375,38.085v20.536V502c0,5.522,4.478,10,10,10s10-4.478,10-10v-38h413.25v38c0,5.522,4.478,10,10,10
			c5.522,0,10-4.478,10-10V204.162v-20.536C499.509,179.189,512,163.798,512,145.541C512,123.83,494.337,106.166,472.625,106.166z
			 M39.375,164.916c-10.684,0-19.375-8.691-19.375-19.375c0-10.684,8.691-19.375,19.375-19.375s19.375,8.691,19.375,19.375
			C58.75,156.225,50.059,164.916,39.375,164.916z M102,444H49.375v-36H102V444z M174,444h-52v-36h52V444z M246,444h-52v-36h52V444z
			 M318,444h-52v-36h52V444z M390,444h-52v-36h52V444z M462.625,444H410v-36h52.625V444z M462.625,388H410v-94.314
			c0-5.522-4.478-10-10-10c-5.522,0-10,4.478-10,10V388h-52v-94.314c0-5.522-4.478-10-10-10c-5.522,0-10,4.478-10,10V388h-52
			v-94.314c0-5.522-4.478-10-10-10c-5.522,0-10,4.478-10,10V388h-52v-94.314c0-5.522-4.478-10-10-10c-5.522,0-10,4.478-10,10V388
			h-52v-94.314c0-5.522-4.478-10-10-10c-5.522,0-10,4.478-10,10V388H49.375V214.162h413.25V388z M472.625,164.916
			c-10.684,0-19.375-8.691-19.375-19.375c0-10.684,8.691-19.375,19.375-19.375c10.684,0,19.375,8.691,19.375,19.375
			C492,156.225,483.309,164.916,472.625,164.916z"/>
	</g>
</g>
<g>
	<g>
		<path d="M335.069,247.02c-1.859-1.86-4.439-2.93-7.069-2.93s-5.21,1.07-7.07,2.93c-1.86,1.86-2.93,4.44-2.93,7.07
			s1.069,5.21,2.93,7.07c1.86,1.86,4.44,2.93,7.07,2.93s5.21-1.07,7.069-2.93c1.86-1.86,2.931-4.44,2.931-7.07
			S336.93,248.88,335.069,247.02z"/>
	</g>
</g>
<g>
	<g>
		<path d="M263.069,247.02c-1.859-1.86-4.439-2.93-7.069-2.93s-5.21,1.07-7.07,2.93c-1.86,1.86-2.93,4.44-2.93,7.07
			s1.069,5.21,2.93,7.07c1.86,1.86,4.44,2.93,7.07,2.93s5.21-1.07,7.069-2.93c1.86-1.86,2.931-4.44,2.931-7.07
			S264.93,248.88,263.069,247.02z"/>
	</g>
</g>
<g>
	<g>
		<path d="M191.069,247.02c-1.859-1.86-4.439-2.93-7.069-2.93s-5.21,1.07-7.07,2.93c-1.86,1.86-2.93,4.44-2.93,7.07
			s1.069,5.21,2.93,7.07c1.86,1.86,4.44,2.93,7.07,2.93s5.21-1.07,7.069-2.93c1.86-1.86,2.931-4.44,2.931-7.07
			S192.93,248.88,191.069,247.02z"/>
	</g>
</g>
<g>
	<g>
		<path d="M119.069,247.02c-1.859-1.86-4.439-2.93-7.069-2.93s-5.21,1.07-7.07,2.93c-1.86,1.86-2.93,4.44-2.93,7.07
			s1.069,5.21,2.93,7.07c1.86,1.86,4.44,2.93,7.07,2.93s5.21-1.07,7.069-2.93c1.86-1.87,2.931-4.44,2.931-7.07
			S120.93,248.88,119.069,247.02z"/>
	</g>
</g>
<g>
	<g>
		<path d="M407.069,247.02c-1.859-1.86-4.439-2.93-7.069-2.93s-5.21,1.07-7.07,2.93c-1.86,1.86-2.93,4.44-2.93,7.07
			s1.069,5.2,2.93,7.07c1.86,1.86,4.44,2.93,7.07,2.93s5.21-1.07,7.069-2.93c1.86-1.87,2.931-4.44,2.931-7.07
			S408.93,248.88,407.069,247.02z"/>
	</g>
</g>
<g>
	<g>
		<path d="M349.998,56.597V35.186c0-5.523-4.478-10-10-10h-74V10c0-5.523-4.478-10-10-10c-5.522,0-10,4.477-10,10v15.186h-74
			c-5.522,0-10,4.477-10,10v21.411c-13.883,4.281-24,17.229-24,32.497c0.002,18.748,15.254,34,34.002,34s34-15.252,34-34
			c0-15.269-10.117-28.217-24-32.497V45.186h64v38.191c-3.246,1.906-5.939,4.74-7.688,8.285l-2.72,5.512l-6.082,0.884
			c-7.484,1.088-13.586,6.232-15.923,13.426c-2.337,7.193-0.424,14.941,4.991,20.219l4.4,4.289l-1.038,6.058
			c-1.279,7.455,1.727,14.847,7.846,19.293c6.118,4.445,14.079,5.022,20.773,1.502l5.44-2.86l5.439,2.86
			c2.912,1.531,6.063,2.287,9.198,2.287c4.072,0,8.117-1.276,11.574-3.788c6.119-4.445,9.127-11.838,7.849-19.292l-1.039-6.06
			l4.4-4.29c5.416-5.279,7.328-13.027,4.99-20.22c-2.337-7.193-8.438-12.337-15.922-13.424l-6.082-0.884l-2.72-5.511
			c-1.75-3.545-4.442-6.379-7.688-8.285V45.186h64v11.411c-13.883,4.281-24,17.229-24,32.497c0,18.748,15.252,34,34,34
			s34-15.252,34-34C373.998,73.825,363.881,60.877,349.998,56.597z M186,89.094c0,7.72-6.28,14-14,14c-7.72,0-14-6.28-14-14
			c0-7.72,6.28-14,14-14C179.72,75.094,186,81.374,186,89.094z M273.389,116.945l5.673,0.825l-4.104,4
			c-4.649,4.533-6.77,11.059-5.673,17.458l0.969,5.652l-5.073-2.667c-2.874-1.511-6.027-2.267-9.18-2.267
			c-3.153,0-6.306,0.755-9.179,2.266l-5.075,2.667l0.97-5.651c1.098-6.4-1.023-12.927-5.673-17.46l-4.104-4.001l5.67-0.824
			c6.427-0.933,11.979-4.967,14.854-10.791l2.537-5.141l2.537,5.14C261.41,111.978,266.963,116.012,273.389,116.945z M340,103.094
			c-7.72,0-14-6.28-14-14c0-7.72,6.28-14,14-14c7.72,0,14,6.28,14,14C354,96.814,347.72,103.094,340,103.094z"/>
	</g>
</g>
<g>
</g>
<g>
</g>
<g>
</g>
<g>
</g>
<g>
</g>
<g>
</g>
<g>
</g>
<g>
</g>
<g>
</g>
<g>
</g>
<g>
</g>
<g>
</g>
<g>
</g>
<g>
</g>
<g>
</g>
</svg>
