<?xml version="1.0" encoding="iso-8859-1"?>
<!-- Generator: Adobe Illustrator 19.0.0, SVG Export Plug-In . SVG Version: 6.00 Build 0)  -->
<svg version="1.1" id="Capa_1" xmlns="http://www.w3.org/2000/svg" xmlns:xlink="http://www.w3.org/1999/xlink" x="0px" y="0px"
	 viewBox="0 0 511.998 511.998" style="enable-background:new 0 0 511.998 511.998;" xml:space="preserve">
<g>
	<g>
		<path d="M375.498,331.167c1.953,1.952,4.512,2.929,7.071,2.929c2.559,0,5.118-0.977,7.071-2.929l59.805-59.805
			c45.059-45.06,64.673-109.301,52.466-171.843c-0.708-3.628-3.359-6.569-6.895-7.648c-3.535-1.08-7.378-0.122-9.991,2.493
			l-66.111,66.112c-3.905,3.905-3.905,10.237,0,14.142c3.906,3.905,10.236,3.905,14.142,0l51.877-51.877
			c3.928,49.638-13.935,98.784-49.631,134.481l-52.733,52.734l-42.426-42.426l44.414-44.414c3.905-3.905,3.905-10.237,0-14.141
			c-3.905-3.905-10.237-3.905-14.142,0l-45.471,45.471l-29.07,29.07c-2.296-12.516-11.459-22.658-23.432-26.35v-46.243
			c19.034-2.816,36.532-13.654,50.052-31.231c15.261-19.838,23.665-46.069,23.665-73.86s-8.404-54.022-23.665-73.86
			C306.636,11.354,285.309,0,262.442,0s-44.192,11.354-60.051,31.971c-15.261,19.838-23.665,46.069-23.665,73.86
			s8.404,54.021,23.665,73.86c13.521,17.577,31.018,28.415,50.052,31.231v46.242c-10.079,3.108-18.169,10.786-21.847,20.602
			c-4.436-2.067-9.306-3.159-14.345-3.159c-5.642,0-11.073,1.367-15.917,3.94l-27.218-27.218
			c19.469-26.321,17.291-63.732-6.542-87.567l-61.95-61.95c-3.906-3.905-10.236-3.905-14.143,0c-3.905,3.905-3.905,10.237,0,14.141
			l61.95,61.949c16.012,16.013,18.11,40.744,6.311,59.052l-72.792-72.792c-3.906-3.905-10.236-3.905-14.142,0
			c-3.905,3.905-3.905,10.237,0,14.143l72.798,72.798c-7.569,4.898-16.388,7.535-25.616,7.535c-12.633,0-24.509-4.92-33.441-13.853
			l-61.95-61.95c-3.906-3.905-10.236-3.905-14.143,0c-3.905,3.905-3.905,10.237,0,14.141l61.95,61.949
			c12.71,12.711,29.608,19.71,47.583,19.71c14.596,0,28.482-4.616,39.993-13.158l27.209,27.209
			c-2.573,4.845-3.94,10.276-3.94,15.916c0,2.614,0.302,5.181,0.873,7.667c-3.82,0.915-7.532,2.442-11.004,4.58
			c-11.171,6.877-17.839,18.813-17.839,31.932v35.154c0,10.064,3.936,19.421,10.807,26.343l-39.676,39.677
			c-13.257,13.257-13.257,34.826,0,48.082c6.629,6.628,15.334,9.942,24.041,9.942c8.706,0,17.411-3.314,24.04-9.942l54.949-54.949
			v30.895c0,18.747,15.251,33.999,33.999,33.999c18.747,0,33.999-15.251,33.999-33.999v-41.108l65.162,65.162
			c6.422,6.422,14.959,9.959,24.041,9.959c9.082,0,17.619-3.537,24.041-9.96c13.255-13.256,13.255-34.825,0-48.081L364.628,408.9
			c4.059-6.067,6.311-13.276,6.311-20.89v-35.298c0-12.721-6.266-24.319-16.806-31.31l5.801-5.801L375.498,331.167z
			 M206.347,298.711c0.001-0.001,0.003-0.003,0.005-0.004c0.002-0.002,0.003-0.004,0.005-0.005c2.644-2.641,6.156-4.095,9.895-4.095
			c3.738,0,7.253,1.456,9.897,4.101l2.295,2.295v28.277l-19.777-9.976c-0.886-0.447-1.787-0.844-2.694-1.218
			c-2.395-2.593-3.721-5.931-3.721-9.481C202.252,304.867,203.705,301.355,206.347,298.711z M228.445,418.807l-69.092,69.092
			c-5.458,5.46-14.341,5.459-19.797,0c-5.459-5.458-5.459-14.34,0-19.798l43.65-43.651c2.812,0.667,5.677,1.023,8.552,1.023
			c5.761,0,11.541-1.346,16.909-4.054l19.777-9.976V418.807z M232.107,387.196l-32.448,16.365
			c-5.547,2.801-11.763,2.535-17.053-0.722c-5.291-3.257-8.325-8.688-8.325-14.901v-35.154h0c0-6.213,3.034-11.645,8.325-14.901
			c5.289-3.259,11.506-3.521,17.053-0.723l33.757,17.026c-3.153,5.156-4.973,11.212-4.973,17.685
			C228.444,377.384,229.77,382.589,232.107,387.196z M198.726,105.831c0-47.328,28.584-85.832,63.718-85.832
			s63.718,38.504,63.718,85.832c0,47.328-28.584,85.832-63.718,85.832S198.726,153.16,198.726,105.831z M276.442,477.987
			c0,7.72-6.28,14-14,14c-7.72,0-14-6.28-14-14v-75.144c4.273,1.939,9.01,3.028,14,3.028s9.727-1.089,14-3.028V477.987z
			 M262.442,385.872c-7.72,0-14-6.281-14-14c0-7.72,6.28-14,14-14c7.72,0,14,6.28,14,14S270.162,385.872,262.442,385.872z
			 M276.442,339.282l-1.751,0.883c-3.803-1.474-7.931-2.292-12.249-2.292c-4.353,0-8.514,0.831-12.343,2.329l-1.657-0.836V289.66
			c0-7.719,6.281-13.999,14-13.999c7.72,0,14,6.28,14,14V339.282z M296.442,311.233l29.561-29.561l19.789,19.788l-13.639,13.638
			c-5.38,0.174-10.75,1.507-15.761,4.035l-19.95,10.063V311.233z M292.742,387.265c2.359-4.625,3.699-9.853,3.699-15.391
			c0-6.501-1.837-12.58-5.015-17.749l33.972-17.134c5.582-2.818,11.838-2.552,17.162,0.726s8.379,8.745,8.379,14.997v35.298
			c0,6.253-3.054,11.72-8.379,14.997c-5.324,3.278-11.58,3.544-17.163,0.727L292.742,387.265z M395.544,468.099
			c5.458,5.46,5.458,14.343,0,19.8c-2.645,2.645-6.16,4.102-9.899,4.102c-3.739,0-7.255-1.457-9.899-4.102l-73.383-73.383
			l14.029,7.076c5.387,2.717,11.182,4.065,16.96,4.065c5.5,0,10.978-1.244,16.074-3.674L395.544,468.099z"/>
	</g>
</g>
<g>
	<g>
		<path d="M409.307,184.228c-1.86-1.86-4.44-2.93-7.07-2.93c-2.63,0-5.21,1.07-7.07,2.93c-1.859,1.86-2.93,4.44-2.93,7.07
			c0,2.63,1.07,5.21,2.93,7.07c1.86,1.86,4.44,2.93,7.07,2.93c2.63,0,5.21-1.07,7.07-2.93c1.859-1.86,2.93-4.44,2.93-7.07
			C412.237,188.667,411.167,186.087,409.307,184.228z"/>
	</g>
</g>
<g>
	<g>
		<path d="M61.799,140.019c-1.859-1.87-4.439-2.93-7.069-2.93c-2.631,0-5.211,1.06-7.07,2.93c-1.86,1.86-2.93,4.44-2.93,7.07
			c0,2.63,1.069,5.21,2.93,7.07c1.859,1.86,4.439,2.93,7.07,2.93c2.63,0,5.21-1.07,7.069-2.93c1.86-1.87,2.931-4.44,2.931-7.07
			C64.73,144.459,63.66,141.879,61.799,140.019z"/>
	</g>
</g>
<g>
</g>
<g>
</g>
<g>
</g>
<g>
</g>
<g>
</g>
<g>
</g>
<g>
</g>
<g>
</g>
<g>
</g>
<g>
</g>
<g>
</g>
<g>
</g>
<g>
</g>
<g>
</g>
<g>
</g>
</svg>
