<?xml version="1.0" encoding="iso-8859-1"?>
<!-- Generator: Adobe Illustrator 19.0.0, SVG Export Plug-In . SVG Version: 6.00 Build 0)  -->
<svg version="1.1" id="Capa_1" xmlns="http://www.w3.org/2000/svg" xmlns:xlink="http://www.w3.org/1999/xlink" x="0px" y="0px"
	 viewBox="0 0 512 512" style="enable-background:new 0 0 512 512;" xml:space="preserve">
<g>
	<g>
		<path d="M124.461,388.21c-1.86-1.86-4.44-2.93-7.07-2.93s-5.21,1.07-7.07,2.93c-1.86,1.859-2.93,4.439-2.93,7.07
			c0,2.63,1.07,5.21,2.93,7.069c1.86,1.86,4.44,2.931,7.07,2.931s5.21-1.07,7.07-2.931c1.86-1.859,2.93-4.439,2.93-7.069
			C127.391,392.649,126.321,390.069,124.461,388.21z"/>
	</g>
</g>
<g>
	<g>
		<path d="M466.42,110.11c-3.153-4.535-9.384-5.657-13.919-2.504c-4.535,3.151-5.656,9.383-2.504,13.918
			c65.154,93.75,53.749,220.487-27.116,301.352C378.306,467.452,319.041,492,256.002,492s-122.304-24.548-166.878-69.124
			c-92.017-92.018-92.018-241.74,0-333.757C170.649,7.596,298.035-3.354,392.019,63.085c4.508,3.188,10.75,2.117,13.938-2.393
			c3.188-4.51,2.117-10.75-2.393-13.938c-48.7-34.427-108.437-50.736-168.214-45.928c-60.463,4.866-117.416,31.2-160.367,74.152
			C26.63,123.329,0,187.618,0,255.998S26.63,388.667,74.981,437.02C123.333,485.372,187.622,512,256.002,512
			s132.668-26.629,181.02-74.981c42.7-42.7,69.006-99.307,74.072-159.391C516.101,218.258,500.234,158.766,466.42,110.11z"/>
	</g>
</g>
<g>
	<g>
		<path d="M437.135,75.09l-0.189-0.19c-3.895-3.915-10.227-3.931-14.142-0.037c-3.916,3.895-3.932,10.227-0.037,14.142l0.189,0.191
			c1.954,1.964,4.521,2.947,7.089,2.947c2.551,0,5.102-0.97,7.053-2.911C441.014,85.337,441.03,79.005,437.135,75.09z"/>
	</g>
</g>
<g>
	<g>
		<path d="M256.003,49.997c-113.59,0-206.002,92.412-206.002,206.002c0,36.183,9.517,71.776,27.521,102.932
			c2.763,4.781,8.881,6.416,13.662,3.654c4.782-2.764,6.418-8.88,3.655-13.662c-16.25-28.116-24.839-60.249-24.839-92.924
			c0-102.562,83.44-186.001,186.001-186.001s186.001,83.44,186.001,186.001S358.564,442,256.002,442
			c-32.568,0-64.609-8.536-92.66-24.685c-4.786-2.755-10.9-1.109-13.656,3.677c-2.755,4.786-1.109,10.901,3.678,13.655
			C184.446,452.542,219.937,462,256.003,462c113.59,0,206.002-92.412,206.002-206.002S369.593,49.997,256.003,49.997z"/>
	</g>
</g>
<g>
	<g>
		<path d="M343.068,149.753c-10.658-6.097-19.203-15.601-24.061-26.76c-11.103-25.511-36.25-41.995-64.067-41.995
			c-28.16,0-53.431,16.765-64.383,42.712c-4.778,11.32-12.879,20.749-23.428,27.267c-17.236,10.65-27.122,26.825-27.122,44.376
			c0,21.222,14.593,40.349,38.084,49.918c10.583,4.311,19.716,12.165,26.414,22.711c11.029,17.369,29.883,27.738,50.435,27.738
			c20.498,0,39.325-10.328,50.363-27.629c6.356-9.962,16.159-17.888,27.603-22.319c24.268-9.396,39.344-28.716,39.344-50.42
			C372.251,177.254,361.342,160.207,343.068,149.753z M325.686,227.121c-15.387,5.957-28.613,16.687-37.242,30.212
			c-7.346,11.514-19.871,18.387-33.503,18.387c-13.668,0-26.211-6.9-33.551-18.459c-8.938-14.075-21.3-24.626-35.752-30.513
			c-15.809-6.439-25.629-18.469-25.629-31.396c0-10.464,6.428-20.437,17.635-27.362c14.102-8.713,24.94-21.336,31.341-36.504
			c7.817-18.521,25.856-30.489,45.956-30.489c19.853,0,37.802,11.767,45.728,29.977c6.565,15.083,18.096,27.917,32.467,36.138
			c12.147,6.95,19.115,17.243,19.115,28.24C352.251,208.604,342.072,220.777,325.686,227.121z"/>
	</g>
</g>
<g>
	<g>
		<path d="M256.129,130.952c-30.878,0-56,25.122-56,56s25.122,56,56,56s56-25.122,56-56S287.009,130.952,256.129,130.952z
			 M256.129,222.952c-19.851,0-36-16.149-36-36s16.149-36,36-36c19.851,0,36,16.149,36,36S275.981,222.952,256.129,222.952z"/>
	</g>
</g>
<g>
	<g>
		<path d="M226.74,314.025l-56.569-56.568c-19.496-19.495-51.216-19.494-70.711,0c-9.443,9.444-14.645,22-14.645,35.355
			c0,13.356,5.201,25.912,14.645,35.355l56.568,56.569c9.444,9.445,22,14.646,35.356,14.646c13.356,0,25.912-5.201,35.355-14.645
			C246.235,365.242,246.235,333.52,226.74,314.025z M212.598,370.594c-5.666,5.667-13.2,8.787-21.213,8.787
			s-15.547-3.12-21.213-8.787l-56.569-56.569c-5.666-5.666-8.787-13.199-8.787-21.213c0-8.013,3.121-15.547,8.787-21.213
			c5.848-5.849,13.53-8.772,21.213-8.772c7.682,0,15.365,2.924,21.213,8.772l9.256,9.256h-23.134c-5.523,0-10,4.478-10,10
			c0,5.522,4.477,10,10,10h43.134l19.967,19.967h-23.134c-5.523,0-10,4.478-10,10s4.477,10,10,10h38.015
			C223.155,351.034,220.643,362.549,212.598,370.594z"/>
	</g>
</g>
<g>
	<g>
		<path d="M400.566,272.2c-19.497-19.495-51.217-19.495-70.711,0l-56.569,56.569c-9.443,9.444-14.644,22-14.644,35.355
			c0,13.356,5.201,25.912,14.645,35.355c9.444,9.443,22,14.645,35.355,14.645s25.912-5.201,35.355-14.645l56.568-56.568
			C420.061,323.416,420.061,291.695,400.566,272.2z M386.423,328.769l-56.568,56.568c-5.666,5.667-13.2,8.787-21.213,8.787
			c-8.014,0-15.547-3.12-21.214-8.787c-5.666-5.666-8.786-13.199-8.786-21.213c0-8.013,3.12-15.547,8.787-21.213l9.256-9.256v23.134
			c0,5.522,4.477,10,10,10c5.523,0,10-4.478,10-10v-43.134l19.967-19.967v23.133c0,5.522,4.477,10,10,10s10-4.478,10-10v-38.014
			c2.788-0.823,5.673-1.236,8.558-1.236c7.682,0,15.365,2.924,21.213,8.772C398.121,298.039,398.121,317.072,386.423,328.769z"/>
	</g>
</g>
<g>
</g>
<g>
</g>
<g>
</g>
<g>
</g>
<g>
</g>
<g>
</g>
<g>
</g>
<g>
</g>
<g>
</g>
<g>
</g>
<g>
</g>
<g>
</g>
<g>
</g>
<g>
</g>
<g>
</g>
</svg>
