<?xml version="1.0" encoding="iso-8859-1"?>
<!-- Generator: Adobe Illustrator 19.0.0, SVG Export Plug-In . SVG Version: 6.00 Build 0)  -->
<svg version="1.1" id="Capa_1" xmlns="http://www.w3.org/2000/svg" xmlns:xlink="http://www.w3.org/1999/xlink" x="0px" y="0px"
	 viewBox="0 0 512.002 512.002" style="enable-background:new 0 0 512.002 512.002;" xml:space="preserve">
<g>
	<g>
		<path d="M508.218,450.614c-10.552-8.377-25.28-8.363-35.814,0.029l-15.619,12.44c-3.212,2.559-7.703,2.561-10.919,0.011
			l-15.732-12.484c-10.55-8.372-25.277-8.359-35.812,0.032l-15.6,12.425c-3.217,2.564-7.711,2.565-10.93,0.001l-15.604-12.427
			c-10.536-8.392-25.262-8.402-35.811-0.03l-15.75,12.499c-3.211,2.549-7.696,2.548-10.907,0.001l-15.753-12.501
			c-10.55-8.373-25.276-8.358-35.811,0.032l-15.619,12.44c-3.214,2.559-7.704,2.563-10.92,0.009l-15.75-12.501
			c-10.534-8.359-25.248-8.359-35.78,0.004l-15.746,12.502c-3.218,2.553-7.708,2.549-10.921-0.008l-15.62-12.443
			c-10.536-8.394-25.263-8.409-35.814-0.033L66.24,463.109c-3.21,2.549-7.695,2.548-10.907,0l-15.774-12.521
			c-10.53-8.357-25.241-8.359-35.774-0.001c-4.326,3.433-5.05,9.723-1.617,14.049c3.434,4.327,9.724,5.05,14.05,1.617
			c3.212-2.547,7.698-2.547,10.908,0.001L42.9,478.775c10.532,8.359,25.242,8.36,35.774,0.001l15.748-12.498
			c3.216-2.553,7.706-2.548,10.918,0.011l15.621,12.444c10.54,8.395,25.269,8.406,35.819,0.026l15.746-12.502
			c3.21-2.551,7.696-2.552,10.909,0l15.75,12.5c10.549,8.375,25.276,8.363,35.813-0.029l15.62-12.441
			c3.212-2.558,7.702-2.562,10.918-0.01l15.754,12.502c5.266,4.178,11.575,6.267,17.885,6.267c6.31-0.001,12.621-2.09,17.886-6.269
			l15.75-12.499c3.216-2.553,7.706-2.549,10.918,0.009l15.604,12.427c10.555,8.406,25.297,8.405,35.85-0.001l15.6-12.426
			c3.212-2.56,7.702-2.563,10.918-0.01l15.733,12.485c10.551,8.371,25.276,8.357,35.811-0.033l15.62-12.44
			c3.211-2.559,7.702-2.563,10.919-0.009c4.326,3.432,10.616,2.71,14.05-1.616C513.267,460.337,512.544,454.047,508.218,450.614z"/>
	</g>
</g>
<g>
	<g>
		<path d="M508.218,385.825c-10.551-8.375-25.278-8.362-35.814,0.03l-15.619,12.44c-3.212,2.559-7.702,2.562-10.919,0.01
			l-15.733-12.484c-10.549-8.371-25.275-8.358-35.811,0.032l-15.6,12.425c-3.217,2.563-7.712,2.564-10.93,0.001l-15.604-12.427
			c-10.536-8.391-25.262-8.402-35.811-0.03l-15.749,12.5c-3.21,2.547-7.695,2.548-10.907,0l-15.754-12.502
			c-10.551-8.37-25.276-8.357-35.811,0.033l-15.62,12.44c-3.211,2.56-7.702,2.564-10.919,0.011l-15.75-12.503
			c-10.534-8.359-25.248-8.36-35.78,0.005l-15.745,12.501c-3.218,2.556-7.709,2.552-10.922-0.008l-15.62-12.443
			c-10.536-8.394-25.264-8.406-35.813-0.032L66.239,398.32c-3.211,2.549-7.697,2.548-10.907,0.001l-15.774-12.522
			c-10.53-8.357-25.241-8.358-35.774-0.001c-4.326,3.433-5.05,9.723-1.617,14.049c3.434,4.327,9.724,5.05,14.05,1.617
			c3.212-2.547,7.698-2.547,10.908,0.001l15.774,12.521c10.532,8.358,25.243,8.359,35.774,0l15.748-12.497
			c3.215-2.552,7.705-2.548,10.918,0.01l15.621,12.443c10.539,8.396,25.269,8.407,35.82,0.028l15.746-12.502
			c3.211-2.551,7.697-2.551,10.909-0.002l15.751,12.503c10.551,8.373,25.278,8.361,35.813-0.031l15.619-12.44
			c3.212-2.56,7.702-2.562,10.919-0.011l15.753,12.501c5.266,4.179,11.575,6.268,17.886,6.268c6.31,0,12.621-2.089,17.886-6.268
			l15.75-12.5c3.216-2.554,7.706-2.549,10.918,0.009l15.604,12.427c10.554,8.406,25.296,8.405,35.85-0.001l15.6-12.425
			c3.211-2.559,7.702-2.563,10.919-0.011l15.732,12.484c10.55,8.371,25.276,8.359,35.811-0.031l15.62-12.44
			c3.212-2.562,7.703-2.563,10.919-0.011c4.327,3.435,10.616,2.712,14.05-1.615C513.267,395.548,512.544,389.257,508.218,385.825z"
			/>
	</g>
</g>
<g>
	<g>
		<path d="M508.218,321.037c-10.55-8.376-25.277-8.362-35.814,0.029l-15.619,12.44c-3.212,2.559-7.703,2.561-10.919,0.011
			l-15.733-12.484c-10.549-8.373-25.276-8.358-35.811,0.032l-15.6,12.425c-3.217,2.563-7.711,2.564-10.93,0.001l-15.604-12.428
			c-5.087-4.051-11.152-6.129-17.251-6.273V72.955c0-14.336,11.664-26,26-26s26,11.664,26,26v18c0,5.523,4.477,10,10,10
			s10-4.477,10-10v-18c0-25.365-20.636-46-46-46s-46,20.635-46,46v98.127H125.064v-28h113.27c5.523,0,10-4.477,10-10
			c0-5.523-4.477-10-10-10h-113.27V72.955c0-14.336,11.664-26,26-26s26,11.664,26,26v18c0,5.523,4.477,10,10,10
			c5.523,0,10-4.477,10-10v-18c0-25.365-20.636-46-46-46c-25.364,0-46,20.635-46,46v242.299c-7.946-1.469-16.357,0.447-23.077,5.78
			l-15.748,12.497c-3.21,2.55-7.695,2.548-10.907-0.001l-15.774-12.519c-10.532-8.361-25.244-8.361-35.774-0.002
			c-4.326,3.434-5.049,9.724-1.616,14.05c3.433,4.326,9.723,5.049,14.049,1.617c3.211-2.548,7.696-2.547,10.907,0.001l15.774,12.52
			c10.533,8.357,25.243,8.358,35.774,0.001l15.747-12.497c3.217-2.553,7.707-2.547,10.919,0.01l15.621,12.444
			c10.54,8.395,25.269,8.404,35.82,0.027l15.745-12.502c3.211-2.549,7.698-2.55,10.91-0.001l15.75,12.5
			c10.55,8.376,25.279,8.362,35.813-0.029l15.619-12.44c3.212-2.56,7.702-2.562,10.919-0.011l15.753,12.501
			c5.265,4.179,11.574,6.268,17.885,6.268c6.31,0,12.621-2.09,17.887-6.269l15.75-12.499c3.216-2.554,7.706-2.549,10.918,0.009
			l15.604,12.427c10.555,8.406,25.297,8.405,35.85-0.001l15.6-12.425c3.212-2.56,7.702-2.563,10.919-0.011l15.733,12.485
			c10.551,8.37,25.276,8.358,35.811-0.033l15.619-12.44c3.212-2.56,7.703-2.563,10.919-0.009c4.326,3.433,10.616,2.71,14.05-1.616
			C513.267,330.761,512.543,324.471,508.218,321.037z M314.937,322.177l-14.309,11.356c-3.211,2.549-7.695,2.549-10.907,0.001
			l-15.754-12.502c-10.551-8.371-25.276-8.357-35.811,0.033l-15.62,12.44c-3.213,2.559-7.703,2.563-10.919,0.009l-15.75-12.501
			c-10.533-8.36-25.247-8.36-35.78,0.004l-15.745,12.502c-3.217,2.556-7.708,2.55-10.922-0.008l-8.547-6.808
			c0.122-0.624,0.19-1.268,0.19-1.928v-85.693h189.873v27.746H202.334c-5.523,0-10,4.478-10,10c0,5.522,4.477,10,10,10h112.603
			V322.177z M314.937,219.082H125.064v-28h189.873V219.082z"/>
	</g>
</g>
<g>
	<g>
		<path d="M166.741,269.752c-1.86-1.859-4.441-2.92-7.07-2.92c-2.64,0-5.21,1.061-7.08,2.92c-1.86,1.86-2.92,4.44-2.92,7.07
			c0,2.64,1.06,5.21,2.92,7.07c1.87,1.87,4.45,2.939,7.08,2.939s5.2-1.069,7.07-2.939c1.86-1.86,2.93-4.431,2.93-7.07
			C169.671,274.192,168.601,271.622,166.741,269.752z"/>
	</g>
</g>
<g>
	<g>
		<path d="M288.071,126.012c-1.86-1.86-4.44-2.93-7.07-2.93s-5.21,1.07-7.07,2.93s-2.93,4.44-2.93,7.07s1.07,5.21,2.93,7.07
			c1.86,1.86,4.439,2.93,7.07,2.93c2.63,0,5.21-1.07,7.07-2.93c1.86-1.86,2.93-4.44,2.93-7.07S289.931,127.872,288.071,126.012z"/>
	</g>
</g>
<g>
</g>
<g>
</g>
<g>
</g>
<g>
</g>
<g>
</g>
<g>
</g>
<g>
</g>
<g>
</g>
<g>
</g>
<g>
</g>
<g>
</g>
<g>
</g>
<g>
</g>
<g>
</g>
<g>
</g>
</svg>
