<?xml version="1.0" encoding="iso-8859-1"?>
<!-- Generator: Adobe Illustrator 19.0.0, SVG Export Plug-In . SVG Version: 6.00 Build 0)  -->
<svg version="1.1" id="Capa_1" xmlns="http://www.w3.org/2000/svg" xmlns:xlink="http://www.w3.org/1999/xlink" x="0px" y="0px"
	 viewBox="0 0 512 512" style="enable-background:new 0 0 512 512;" xml:space="preserve">
<g>
	<g>
		<path d="M502,40h-54.254v-6c0-18.748-15.252-34-34-34s-34,15.252-34,34v6h-89.873v-6c0-18.748-15.252-34-34-34s-34,15.252-34,34v6
			H132v-6c0-18.748-15.252-34-34-34S64,15.252,64,34v6H10C4.477,40,0,44.477,0,50v452c0,5.522,4.477,10,10,10h492
			c5.523,0,10-4.478,10-10V50C512,44.477,507.523,40,502,40z M399.746,34c0-7.72,6.28-14,14-14c7.72,0,14,6.28,14,14v6h-28V34z
			 M241.873,34c0-7.72,6.28-14,14-14c7.72,0,14,6.28,14,14v6h-28V34z M84,34c0-7.72,6.28-14,14-14c7.72,0,14,6.28,14,14v6H84V34z
			 M492,492H20V138h398c5.523,0,10-4.477,10-10s-4.477-10-10-10H20V60h44v7.168c0,18.748,15.252,34,34,34c5.523,0,10-4.477,10-10
			c0-5.523-4.477-10-10-10c-7.72,0-14-6.28-14-14V60h137.873v7.168c0,18.748,15.252,34,34,34c5.523,0,10-4.477,10-10
			c0-5.523-4.477-10-10-10c-7.72,0-14-6.28-14-14V60h137.873v7.168c0,18.748,15.252,34,34,34c5.523,0,10-4.477,10-10
			c0-5.523-4.477-10-10-10c-7.72,0-14-6.28-14-14V60H492V492z"/>
	</g>
</g>
<g>
	<g>
		<path d="M128,276H64c-5.523,0-10,4.478-10,10v64c0,5.522,4.477,10,10,10h64c5.523,0,10-4.478,10-10v-64
			C138,280.478,133.523,276,128,276z M118,340H74v-44h44V340z"/>
	</g>
</g>
<g>
	<g>
		<path d="M448,276h-64c-5.523,0-10,4.478-10,10v64c0,5.522,4.477,10,10,10h64c5.523,0,10-4.478,10-10v-64
			C458,280.478,453.523,276,448,276z M438,340h-44v-44h44V340z"/>
	</g>
</g>
<g>
	<g>
		<path d="M448,380h-64c-5.523,0-10,4.478-10,10v64c0,5.522,4.477,10,10,10h64c5.523,0,10-4.478,10-10v-64
			C458,384.478,453.523,380,448,380z M438,444h-44v-44h44V444z"/>
	</g>
</g>
<g>
	<g>
		<path d="M341.333,276h-64c-5.523,0-10,4.478-10,10v64c0,5.522,4.477,10,10,10h64c5.523,0,10-4.478,10-10v-64
			C351.333,280.478,346.856,276,341.333,276z M331.333,340h-44v-44h44V340z"/>
	</g>
</g>
<g>
	<g>
		<path d="M234.667,276h-64c-5.523,0-10,4.478-10,10v64c0,5.522,4.477,10,10,10h64c5.523,0,10-4.478,10-10v-64
			C244.667,280.478,240.189,276,234.667,276z M224.667,340h-44v-44h44V340z"/>
	</g>
</g>
<g>
	<g>
		<path d="M128,380H64c-5.523,0-10,4.478-10,10v64c0,5.522,4.477,10,10,10h64c5.523,0,10-4.478,10-10v-64
			C138,384.478,133.523,380,128,380z M118,444H74v-44h44V444z"/>
	</g>
</g>
<g>
	<g>
		<path d="M341.333,380h-64c-5.523,0-10,4.478-10,10v64c0,5.522,4.477,10,10,10h64c5.523,0,10-4.478,10-10v-64
			C351.333,384.478,346.856,380,341.333,380z M331.333,444h-44v-44h44V444z"/>
	</g>
</g>
<g>
	<g>
		<path d="M234.667,380h-64c-5.523,0-10,4.478-10,10v64c0,5.522,4.477,10,10,10h64c5.523,0,10-4.478,10-10v-64
			C244.667,384.478,240.189,380,234.667,380z M224.667,444h-44v-44h44V444z"/>
	</g>
</g>
<g>
	<g>
		<path d="M128,172H64c-5.523,0-10,4.477-10,10v64c0,5.523,4.477,10,10,10h64c5.523,0,10-4.477,10-10v-64
			C138,176.477,133.523,172,128,172z M118,236H74v-44h44V236z"/>
	</g>
</g>
<g>
	<g>
		<path d="M448,172h-64c-5.523,0-10,4.477-10,10v64c0,5.523,4.477,10,10,10h64c5.523,0,10-4.477,10-10v-64
			C458,176.477,453.523,172,448,172z M438,236h-44v-44h44V236z"/>
	</g>
</g>
<g>
	<g>
		<path d="M341.333,172h-64c-5.523,0-10,4.477-10,10v64c0,5.523,4.477,10,10,10h64c5.523,0,10-4.477,10-10v-64
			C351.333,176.477,346.856,172,341.333,172z M331.333,236h-44v-44h44V236z"/>
	</g>
</g>
<g>
	<g>
		<path d="M234.667,172h-64c-5.523,0-10,4.477-10,10v64c0,5.523,4.477,10,10,10h64c5.523,0,10-4.477,10-10v-64
			C244.667,176.477,240.189,172,234.667,172z M224.667,236h-44v-44h44V236z"/>
	</g>
</g>
<g>
	<g>
		<path d="M464.07,120.93c-1.86-1.86-4.44-2.93-7.07-2.93s-5.21,1.07-7.07,2.93c-1.86,1.86-2.93,4.44-2.93,7.07s1.07,5.21,2.93,7.07
			c1.86,1.86,4.44,2.93,7.07,2.93s5.21-1.07,7.07-2.93c1.86-1.86,2.93-4.44,2.93-7.07S465.93,122.79,464.07,120.93z"/>
	</g>
</g>
<g>
</g>
<g>
</g>
<g>
</g>
<g>
</g>
<g>
</g>
<g>
</g>
<g>
</g>
<g>
</g>
<g>
</g>
<g>
</g>
<g>
</g>
<g>
</g>
<g>
</g>
<g>
</g>
<g>
</g>
</svg>
