<?xml version="1.0" encoding="iso-8859-1"?>
<!-- Generator: Adobe Illustrator 19.0.0, SVG Export Plug-In . SVG Version: 6.00 Build 0)  -->
<svg version="1.1" id="Capa_1" xmlns="http://www.w3.org/2000/svg" xmlns:xlink="http://www.w3.org/1999/xlink" x="0px" y="0px"
	 viewBox="0 0 512 512" style="enable-background:new 0 0 512 512;" xml:space="preserve">
<g>
	<g>
		<path d="M433.743,178.563h-34.688v-15.488c0-5.523-4.477-10-10-10H228.671c-5.523,0-10,4.477-10,10c0,5.523,4.477,10,10,10h30.001
			v45.398l-35.781,25.346c-2.646,1.875-4.22,4.917-4.22,8.16v76.283c0,5.522,4.477,10,10,10h80.002c5.523,0,10-4.478,10-10v-76.283
			c0-3.243-1.573-6.285-4.22-8.16l-35.781-25.346v-45.398h100.382v67.072c0,26.513-7.453,52.395-21.553,74.846
			c-15.307,24.378-23.74,52.295-24.537,81.003h-64.293c-5.523,0-10,4.478-10,10c0,5.522,4.477,10,10,10h64.214v20.001H118.058
			v-35.521c0-30.28-8.512-59.841-24.616-85.484c-14.1-22.452-21.553-48.333-21.553-74.846v-27.071h50.005c5.523,0,10-4.477,10-10
			c0-5.523-4.477-10-10-10H71.889v-20.001h74.876c5.523,0,10-4.477,10-10c0-5.523-4.477-10-10-10H61.888c-5.523,0-10,4.477-10,10
			v38.507c-0.073,0.489-0.124,0.984-0.124,1.494c0,0.51,0.05,1.005,0.124,1.494v35.577c0,30.28,8.512,59.841,24.616,85.483
			c14.1,22.453,21.554,48.334,21.554,74.847v35.521H34.012c-5.523,0-10,4.478-10,10c0,36.394,29.608,66.002,66.002,66.002h270.918
			c36.394,0,66.002-29.608,66.002-66.002c0-5.522-4.477-10-10-10h-64.045v-35.521c0-6.06,0.409-12.084,1.178-18.046
			c0.339,0.035,0.682,0.053,1.03,0.053h78.648c29.911,0,54.245-24.335,54.245-54.246v-95.43
			C487.988,202.898,463.654,178.563,433.743,178.563z M298.673,257.152v61.111h-60.002v-61.111l20.001-14.167v3.471
			c0,5.523,4.477,10,10,10c5.523,0,10-4.477,10-10v-3.471L298.673,257.152z M405.837,455.998
			c-4.579,20.572-22.976,36.001-44.906,36.001H90.013c-21.932,0-40.328-15.429-44.906-36.001H405.837z M399.055,240.147v-3.516
			h29.401c0.808,0,1.465,0.657,1.465,1.465v84.857c0,0.808-0.657,1.465-1.465,1.465h-53.285
			C390.79,299.056,399.055,269.955,399.055,240.147z M467.987,328.239c0,18.883-15.361,34.245-34.244,34.245h-75.624
			c1.726-6.155,3.875-12.188,6.429-18.066h63.908c11.836,0,21.466-9.629,21.466-21.466v-84.857c0-11.836-9.629-21.466-21.466-21.466
			h-29.401v-18.067h34.688c18.883,0,34.244,15.362,34.244,34.245V328.239z"/>
	</g>
</g>
<g>
	<g>
		<path d="M194.766,156.01c-1.86-1.87-4.44-2.94-7.07-2.94c-2.63,0-5.21,1.07-7.07,2.94c-1.86,1.86-2.93,4.43-2.93,7.07
			c0,2.63,1.07,5.21,2.93,7.07s4.44,2.93,7.07,2.93c2.63,0,5.21-1.07,7.07-2.93c1.86-1.87,2.93-4.44,2.93-7.07
			C197.696,160.44,196.626,157.87,194.766,156.01z"/>
	</g>
</g>
<g>
	<g>
		<path d="M241.678,398.927c-1.86-1.86-4.43-2.93-7.07-2.93c-2.63,0-5.21,1.069-7.07,2.93c-1.86,1.86-2.93,4.44-2.93,7.07
			s1.07,5.21,2.93,7.069c1.86,1.86,4.44,2.931,7.07,2.931c2.63,0,5.21-1.07,7.07-2.931c1.86-1.859,2.93-4.439,2.93-7.069
			S243.538,400.787,241.678,398.927z"/>
	</g>
</g>
<g>
	<g>
		<polygon points="131.045,104.901 131.044,104.9 131.044,104.9 		"/>
	</g>
</g>
<g>
	<g>
		<path d="M346.831,9.795c-0.132-2.318-1.067-4.6-2.809-6.396c-1.788-1.842-4.115-2.85-6.494-3.011
			c-4.797-0.421-60.512-4.521-93.396,27.735c-8.412,8.256-14.402,18.052-18.651,28.162c-4.252-10.103-10.249-19.896-18.674-28.163
			c-32.633-32.013-87.77-28.213-93.249-27.747c-2.376,0.128-4.715,1.101-6.531,2.916c-1.787,1.787-2.755,4.083-2.906,6.421
			c-0.843,8.007-5.365,63.501,26.923,95.188c23.897,23.455,60.062,27.11,80.28,27.11c7.075,0,12.186-0.447,14.146-0.65
			c1.958,0.203,7.069,0.65,14.148,0.65c20.219,0,56.386-3.657,80.278-27.109C352.048,73.35,347.703,18.195,346.831,9.795z
			 M177.694,31.552v28.542l-39.598-39.395C149.998,21.838,164.706,24.722,177.694,31.552z M125.698,49.986
			c-0.988-5.349-1.576-10.543-1.898-15.297l15.376,15.297H125.698z M145.054,90.626c-6.006-5.894-10.373-13.059-13.547-20.639
			h27.774l41.884,41.669C183.906,110.497,160.581,105.866,145.054,90.626z M197.693,79.991V47.883
			c11.576,14.71,15.781,34.158,17.171,49.19L197.693,79.991z M290.019,24.922c7.762-2.235,15.47-3.492,22.295-4.17l-22.295,22.294
			V24.922z M236.089,96.974c1.582-16.977,6.746-39.553,22.051-54.575c3.606-3.537,7.625-6.515,11.877-9.037v29.625
			c0,0.019,0.003,0.037,0.003,0.056L236.089,96.974z M249.733,111.617l19.869-19.869h35.086
			C289.219,106.038,266.582,110.474,249.733,111.617z M318.675,71.748h-29.073l37.574-37.573
			C326.453,45.435,324.272,59.256,318.675,71.748z"/>
	</g>
</g>
<g>
</g>
<g>
</g>
<g>
</g>
<g>
</g>
<g>
</g>
<g>
</g>
<g>
</g>
<g>
</g>
<g>
</g>
<g>
</g>
<g>
</g>
<g>
</g>
<g>
</g>
<g>
</g>
<g>
</g>
</svg>
