<?xml version="1.0" encoding="iso-8859-1"?>
<!-- Generator: Adobe Illustrator 19.0.0, SVG Export Plug-In . SVG Version: 6.00 Build 0)  -->
<svg version="1.1" id="Capa_1" xmlns="http://www.w3.org/2000/svg" xmlns:xlink="http://www.w3.org/1999/xlink" x="0px" y="0px"
	 viewBox="0 0 512 512" style="enable-background:new 0 0 512 512;" xml:space="preserve">
<g>
	<g>
		<path d="M94.569,29.93C92.71,28.07,90.13,27,87.5,27s-5.21,1.07-7.07,2.93S77.5,34.37,77.5,37s1.069,5.21,2.93,7.07
			C82.291,45.93,84.87,47,87.5,47s5.21-1.07,7.069-2.93C96.43,42.21,97.5,39.63,97.5,37S96.43,31.79,94.569,29.93z"/>
	</g>
</g>
<g>
	<g>
		<path d="M502,159c5.522,0,10-4.477,10-10V37c0-5.523-4.478-10-10-10H129.5c-5.522,0-10,4.477-10,10s4.478,10,10,10H328v31
			c0,5.523,4.478,10,10,10c5.522,0,10-4.477,10-10V47h144v92h-8H184V78.667c0-5.523-4.478-10-10-10c-5.522,0-10,4.477-10,10V139H28
			h-8V47h19.5c5.522,0,10-4.477,10-10s-4.478-10-10-10H10C4.478,27,0,31.477,0,37v112c0,5.523,4.478,10,10,10h8v306h-8
			c-5.522,0-10,4.477-10,10s4.478,10,10,10h492c5.522,0,10-4.477,10-10s-4.478-10-10-10h-8V159H502z M38,207h100v28H88H38V207z
			 M148,255h50v6.799c-11.878,5.524-22.846,12.686-32.607,21.201H98v-28H148z M38,383h16v28H38V383z M118,465H38v-34h26
			c5.522,0,10-4.477,10-10v-48c0-5.523-4.478-10-10-10H38V255h40v38c0,5.523,4.478,10,10,10h58.59
			C128.673,326.283,118,355.417,118,387V465z M309.413,465.001H202.588V465c-1.539-5.147-2.316-10.488-2.316-15.945
			c0-8.294,1.785-16.282,5.307-23.744c0.019-0.04,0.037-0.08,0.056-0.12c0.981-2.066,2.132-4.134,3.422-6.147
			c0.207-0.324,0.396-0.66,0.565-1.006c8.252-16.902,9.3-33.05,8.149-45.293c3.897,3.663,7.776,8.963,10.603,16.615
			c1.858,5.031,7.356,7.702,12.458,6.05c5.104-1.65,7.996-7.033,6.556-12.2c-2.039-7.313,5.473-27.534,20.993-40.8
			c1.718,22.484,14.046,42.792,26.058,62.581c2.398,3.951,4.879,8.037,7.186,12.011c0.125,0.214,0.257,0.424,0.396,0.628
			c2.081,3.039,3.858,6.279,5.285,9.63c0.007,0.018,0.015,0.035,0.022,0.053c2.921,6.883,4.401,14.198,4.401,21.743
			C311.729,454.514,310.952,459.854,309.413,465.001z M374,465h-43.969c1.12-5.207,1.697-10.533,1.697-15.945
			c0-10.258-2.021-20.217-6.007-29.6c-0.028-0.066-0.058-0.132-0.087-0.198c-1.88-4.387-4.198-8.627-6.896-12.61
			c-2.351-4.041-4.817-8.103-7.204-12.035c-14.126-23.271-27.468-45.251-22.105-68.351c0.839-3.615-0.394-7.398-3.2-9.826
			c-2.809-2.427-6.727-3.101-10.186-1.748c-15.299,5.987-28.97,18-38.494,33.826c-2.085,3.463-3.873,6.945-5.352,10.382
			c-12.732-12.318-26.776-14.017-27.619-14.107c-3.545-0.385-7.016,1.145-9.127,4.012c-2.111,2.866-2.539,6.639-1.124,9.906
			c0.103,0.237,10.075,23.892-2.444,50.072c-1.575,2.502-2.998,5.077-4.234,7.664c-0.12,0.231-0.23,0.466-0.331,0.704
			c-4.676,10.044-7.046,20.778-7.046,31.909c0,5.412,0.578,10.738,1.697,15.945H138v-78c0-65.065,52.935-118,118-118
			s118,52.935,118,118V465z M314,261.799V255h100v28h-50h-17.393C336.846,274.485,325.878,267.323,314,261.799z M474,465h-26.167
			v-28H474V465z M474,417h-36.167c-5.522,0-10,4.477-10,10v38H394v-78c0-12.451-1.667-24.518-4.773-36H474V417z M474,331h-91.885
			c-2.395-5.373-5.118-10.569-8.154-15.555c0.02-0.257,0.039-0.515,0.039-0.778V303h50h50V331z M474,283h-40v-28.054h40V283z
			 M474,234.946H374v-28h100V234.946z M474,186.946H364c-5.522,0-10,4.477-10,10V235h-50c-5.522,0-10,4.477-10,10v9.323
			c-12.077-3.464-24.825-5.323-38-5.323s-25.923,1.859-38,5.323V245c0-5.523-4.478-10-10-10h-50v-38c0-5.523-4.478-10-10-10H38v-28
			h436V186.946z"/>
	</g>
</g>
<g>
	<g>
		<path d="M345.069,106.43c-1.859-1.86-4.439-2.93-7.069-2.93s-5.21,1.07-7.07,2.93c-1.86,1.86-2.93,4.44-2.93,7.07
			s1.069,5.21,2.93,7.07c1.861,1.86,4.44,2.93,7.07,2.93s5.21-1.07,7.069-2.93c1.86-1.86,2.931-4.43,2.931-7.07
			C348,110.87,346.93,108.29,345.069,106.43z"/>
	</g>
</g>
<g>
</g>
<g>
</g>
<g>
</g>
<g>
</g>
<g>
</g>
<g>
</g>
<g>
</g>
<g>
</g>
<g>
</g>
<g>
</g>
<g>
</g>
<g>
</g>
<g>
</g>
<g>
</g>
<g>
</g>
</svg>
