<?xml version="1.0" encoding="iso-8859-1"?>
<!-- Generator: Adobe Illustrator 19.0.0, SVG Export Plug-In . SVG Version: 6.00 Build 0)  -->
<svg version="1.1" id="Capa_1" xmlns="http://www.w3.org/2000/svg" xmlns:xlink="http://www.w3.org/1999/xlink" x="0px" y="0px"
	 viewBox="0 0 512 512" style="enable-background:new 0 0 512 512;" xml:space="preserve">
<g>
	<g>
		<path d="M502.65,184.085c-12.843-6.709-28.189-6.732-41.003-0.087c-0.017,0.008-0.12,0.061-0.137,0.07
			c-7.12,3.693-15.62,3.703-22.75,0.031c-0.021-0.012-0.043-0.023-0.064-0.034c-12.906-6.692-28.317-6.693-41.224,0
			c-4.902,2.542-6.816,8.578-4.274,13.48c2.542,4.904,8.576,6.815,13.48,4.274c7.12-3.693,15.62-3.704,22.752-0.029
			c0.021,0.011,0.042,0.022,0.063,0.033c6.461,3.35,13.546,5.023,20.627,5.023c7.065,0,14.125-1.667,20.546-4.997
			c0.017-0.008,0.12-0.061,0.137-0.07c7.076-3.669,15.521-3.658,22.587,0.034c4.896,2.558,10.937,0.66,13.493-4.234
			C509.441,192.683,507.545,186.642,502.65,184.085z"/>
	</g>
</g>
<g>
	<g>
		<path d="M502.65,139.274c-12.843-6.709-28.19-6.732-41.043-0.067c-0.004,0.001-0.093,0.048-0.096,0.05
			c-7.143,3.702-15.67,3.702-22.811-0.001c-0.011-0.005-0.022-0.011-0.033-0.017c-12.901-6.678-28.298-6.674-41.195,0.014
			c-4.902,2.542-6.816,8.578-4.274,13.48c2.542,4.905,8.576,6.815,13.48,4.275c7.141-3.703,15.667-3.703,22.81,0.001
			c0.01,0.005,0.02,0.01,0.03,0.016c6.448,3.338,13.52,5.008,20.59,5.007c7.075,0,14.151-1.672,20.598-5.014
			c0.004-0.001,0.093-0.048,0.096-0.05c7.078-3.669,15.521-3.657,22.588,0.034c4.896,2.558,10.937,0.66,13.493-4.234
			C509.441,147.872,507.545,141.831,502.65,139.274z"/>
	</g>
</g>
<g>
	<g>
		<path d="M502.651,95.368c-12.845-6.708-28.191-6.732-41.044-0.067c-0.004,0.001-0.093,0.048-0.096,0.05
			c-7.143,3.702-15.67,3.702-22.811-0.001c-0.011-0.005-0.022-0.011-0.033-0.017c-12.901-6.679-28.299-6.673-41.194,0.014
			c-4.903,2.542-6.817,8.577-4.275,13.48c2.541,4.904,8.58,6.816,13.479,4.274c7.143-3.702,15.67-3.702,22.811,0.001
			c0.01,0.005,0.02,0.01,0.03,0.016c6.448,3.338,13.52,5.008,20.59,5.007c7.075,0,14.151-1.672,20.598-5.014
			c0.004-0.001,0.093-0.048,0.096-0.05c7.08-3.669,15.524-3.656,22.589,0.034c4.896,2.558,10.937,0.66,13.494-4.234
			C509.442,103.966,507.545,97.924,502.651,95.368z"/>
	</g>
</g>
<g>
	<g>
		<path d="M175,138.582c-5.522,0-10,4.477-10,10l-0.001,0.3c-0.043,5.523,4.399,10.034,9.922,10.077c0.027,0,0.053,0,0.08,0
			c5.486,0,9.955-4.426,9.998-9.922l0.001-0.455C185,143.059,180.522,138.582,175,138.582z"/>
	</g>
</g>
<g>
	<g>
		<path d="M169.758,173.663c-4.327-3.432-10.617-2.708-14.049,1.619c-8.218,10.359-20.505,16.3-33.709,16.3c-23.71,0-43-19.29-43-43
			s19.29-43,43-43c5.522,0,10-4.477,10-10s-4.478-10-10-10c-34.738,0-63,28.262-63,63s28.262,63,63,63
			c19.346,0,37.343-8.7,49.377-23.87C174.81,183.385,174.085,177.095,169.758,173.663z"/>
	</g>
</g>
<g>
	<g>
		<path d="M509.483,461.518l-7.139-8.052c-10.468-11.808-25.521-18.588-41.3-18.602c-0.017,0-0.032,0-0.048,0
			c-15.763,0-30.809,6.752-41.286,18.531l-0.173,0.194c-6.684,7.514-16.284,11.823-26.341,11.823
			c-10.056,0-19.656-4.308-26.35-11.832l-0.168-0.189c-10.478-11.776-25.521-18.527-41.282-18.527c-0.017,0-0.034,0-0.051,0
			c-15.779,0.014-30.833,6.795-41.301,18.604c-6.679,7.535-16.284,11.861-26.353,11.87c-0.011,0-0.021,0-0.031,0
			c-10.057,0-19.657-4.309-26.354-11.836l-0.159-0.179c-10.477-11.779-25.526-18.534-41.292-18.533
			c-15.765,0.001-30.814,6.759-41.289,18.541l-9.52,10.707c-1.606,1.808-3.477,1.459-4.448,1.09
			c-0.972-0.37-2.601-1.351-2.601-3.771v-57.268c27.23-4.755,48-28.549,48-57.119v-16.613c0-5.523-4.478-10-10-10
			c-5.522,0-10,4.477-10,10v16.613c0,20.953-17.047,38-38,38s-38-17.047-38-38v-82.455c11.965,3.932,24.737,6.067,38,6.067
			c23.521,0,46.358-6.711,66.041-19.408c17.356-11.195,31.536-26.526,41.31-44.592H336.33c5.522,0,10-4.477,10-10v-96
			c0-5.523-4.478-10-10-10H229.351c-9.773-18.066-23.953-33.397-41.31-44.592C168.358,33.293,145.521,26.582,122,26.582
			c-67.271,0-122,54.729-122,122c0,46.291,25.916,86.642,64,107.309v91.079c0,28.57,20.77,52.365,48,57.119v57.268
			c0,10.068,6.081,18.886,15.491,22.465c2.829,1.076,5.745,1.598,8.625,1.597c6.702,0,13.2-2.829,17.88-8.092l9.52-10.707
			c6.683-7.517,16.285-11.829,26.344-11.83c10.059-0.001,19.662,4.309,26.356,11.836l0.16,0.179
			c10.478,11.78,25.522,18.533,41.286,18.533c0.016,0,0.033,0,0.048,0c15.781-0.014,30.836-6.795,41.303-18.604
			c6.679-7.535,16.284-11.861,26.353-11.871c0.011,0,0.021,0,0.031,0c10.056,0,19.656,4.308,26.35,11.832l0.168,0.189
			c10.477,11.775,25.523,18.528,41.284,18.527c15.761-0.001,30.808-6.754,41.283-18.531l0.173-0.194
			c6.686-7.515,16.285-11.823,26.343-11.823c0.01,0,0.021,0,0.03,0c10.068,0.009,19.673,4.334,26.351,11.869l7.139,8.053
			c3.663,4.131,9.983,4.513,14.117,0.849C512.767,471.972,513.146,465.651,509.483,461.518z M20,148.582
			c0-56.243,45.757-102,102-102c39.176,0,75.359,22.881,92.184,58.292c1.656,3.486,5.172,5.708,9.032,5.708h103.117v76H223.216
			c-3.86,0-7.376,2.222-9.032,5.708c-16.824,35.411-53.008,58.292-92.184,58.292C65.757,250.582,20,204.826,20,148.582z"/>
	</g>
</g>
<g>
	<g>
		<path d="M177.069,284.261c-1.859-1.86-4.439-2.93-7.069-2.93s-5.21,1.07-7.07,2.93c-1.86,1.86-2.93,4.44-2.93,7.07
			c0,2.64,1.069,5.21,2.93,7.07c1.86,1.87,4.44,2.93,7.07,2.93s5.21-1.06,7.069-2.93c1.86-1.86,2.931-4.43,2.931-7.07
			C180,288.701,178.93,286.121,177.069,284.261z"/>
	</g>
</g>
<g>
</g>
<g>
</g>
<g>
</g>
<g>
</g>
<g>
</g>
<g>
</g>
<g>
</g>
<g>
</g>
<g>
</g>
<g>
</g>
<g>
</g>
<g>
</g>
<g>
</g>
<g>
</g>
<g>
</g>
</svg>
