<?xml version="1.0" encoding="iso-8859-1"?>
<!-- Generator: Adobe Illustrator 19.0.0, SVG Export Plug-In . SVG Version: 6.00 Build 0)  -->
<svg version="1.1" id="Capa_1" xmlns="http://www.w3.org/2000/svg" xmlns:xlink="http://www.w3.org/1999/xlink" x="0px" y="0px"
	 viewBox="0 0 512 512" style="enable-background:new 0 0 512 512;" xml:space="preserve">
<g>
	<g>
		<path d="M248.891,272.643l-8.03-137.985c-2.202-32.759-17.192-62.51-42.209-83.774c-25.017-21.264-56.799-31.261-89.482-28.157
			c-32.686,3.107-62.012,18.914-82.575,44.51C6.033,92.833-3.085,124.876,0.924,157.462c0.007,0.055,0.014,0.11,0.022,0.166
			l18.805,134.278c1.153,8.231,7.102,14.898,15.157,16.982c1.712,0.444,3.443,0.659,5.153,0.659c6.295,0,12.323-2.918,16.236-8.11
			c12.532-16.626,36.25-37.201,78.069-40.802c34.802-2.999,60.331,11.174,76.498,24.916l10.894,95.028
			c2.12,48.34-25.732,84.857-67.819,88.856c-42.514,4.039-76.922-25.856-83.668-72.706c-0.021-0.142-0.044-0.283-0.07-0.424
			l-5.407-28.752c-1.022-5.435-6.263-9.012-11.691-7.99c-5.435,1.022-9.012,6.256-7.99,11.691l5.368,28.546
			c3.916,26.867,16.126,50.62,34.397,66.902c16.919,15.079,38.457,23.122,61.453,23.122c3.143,0,6.314-0.15,9.503-0.454
			c52.522-4.992,88.655-51.276,85.914-110.056c-0.011-0.225-0.029-0.45-0.054-0.674l-9.708-84.677
			c1.782-0.313,3.547-0.854,5.243-1.655C244.801,288.733,249.379,281.013,248.891,272.643z M20.793,154.937
			c-3.319-27.146,4.285-53.834,21.415-75.156c17.149-21.344,41.603-34.525,68.859-37.117c27.251-2.586,53.755,5.748,74.617,23.479
			c20.861,17.731,33.361,42.54,35.192,69.768l4.503,77.396c-27.091-15.295-57.49-24.182-83.815-24.182
			c-41.173,0-79.74,14.652-110.166,41.54L20.793,154.937z M228.883,274.042c-0.024,0.048-0.185,0.181-0.39,0.219
			c-0.103,0.02-0.155,0.028-0.35-0.152c-18.803-17.379-50.64-37.283-95.496-33.425c-49.174,4.235-77.358,28.821-92.343,48.701
			c-0.074,0.098-0.12,0.132-0.118,0.133c-0.068,0.023-0.281,0.009-0.457-0.098c-0.081-0.049-0.115-0.07-0.146-0.291l-4.756-33.962
			c28.028-29.674,65.931-46.017,106.734-46.017c26.674,0,58.462,10.649,85.232,28.513l2.103,36.143
			C228.905,273.956,228.889,274.031,228.883,274.042z"/>
	</g>
</g>
<g>
	<g>
		<path d="M58.531,330.865c-1.432-5.341-6.924-8.513-12.264-7.079l-0.339,0.091c-5.341,1.432-8.511,6.923-7.079,12.264
			c1.199,4.473,5.245,7.424,9.666,7.424c0.858-0.001,1.73-0.112,2.598-0.344l0.339-0.091
			C56.793,341.697,59.963,336.206,58.531,330.865z"/>
	</g>
</g>
<g>
	<g>
		<path d="M485.404,67.238c-20.564-25.596-49.89-41.404-82.575-44.51c-32.687-3.107-64.464,6.893-89.482,28.157
			c-25.017,21.263-40.008,51.015-42.215,83.863l-8.024,137.895c-0.488,8.37,4.09,16.09,11.661,19.668
			c1.697,0.802,3.461,1.342,5.243,1.655l-9.708,84.676c-0.025,0.224-0.043,0.45-0.054,0.674
			c-2.74,58.779,33.393,105.064,85.914,110.056c3.191,0.303,6.359,0.454,9.503,0.454c22.994-0.001,44.535-8.045,61.453-23.122
			c18.271-16.282,30.481-40.035,34.397-66.902l5.368-28.546c1.022-5.435-2.555-10.669-7.99-11.691
			c-5.434-1.022-10.669,2.554-11.691,7.99l-5.407,28.752c-0.026,0.14-0.05,0.281-0.07,0.424
			c-6.746,46.85-41.153,76.75-83.668,72.706c-42.088-4-69.94-40.516-67.819-88.856l10.894-95.028
			c16.165-13.742,41.693-27.912,76.498-24.916c41.819,3.601,65.536,24.176,78.068,40.802c3.914,5.193,9.941,8.11,16.236,8.11
			c1.71,0,3.441-0.215,5.153-0.659c8.055-2.086,14.004-8.752,15.157-16.982l18.805-134.278c0.008-0.055,0.015-0.11,0.022-0.166
			C515.085,124.877,505.968,92.834,485.404,67.238z M472.416,289.13c-0.031,0.221-0.064,0.241-0.146,0.291
			c-0.174,0.107-0.389,0.122-0.448,0.102c0,0-0.047-0.032-0.126-0.137c-14.984-19.88-43.169-44.467-92.343-48.701
			c-3.828-0.329-7.553-0.486-11.192-0.486c-38.999,0-67.106,18.015-84.307,33.913c-0.193,0.179-0.246,0.171-0.351,0.151
			c-0.204-0.038-0.365-0.17-0.389-0.219c-0.005-0.012-0.022-0.086-0.014-0.236l2.206-37.907
			c24.311-16.259,58.617-26.748,87.592-26.748c39.77,0,76.782,15.53,104.584,43.794L472.416,289.13z M491.21,154.938l-10.338,73.818
			c-30.076-25.672-67.782-39.63-107.971-39.63c-28.412,0-60.185,8.463-86.184,22.573l4.404-75.697
			c1.835-27.318,14.336-52.127,35.197-69.858c20.861-17.731,47.36-26.07,74.617-23.479c27.256,2.59,51.71,15.772,68.859,37.116
			C486.924,101.103,494.529,127.792,491.21,154.938z"/>
	</g>
</g>
<g>
	<g>
		<path d="M466.072,323.877l-0.339-0.091c-5.343-1.431-10.832,1.737-12.264,7.079c-1.432,5.341,1.738,10.832,7.079,12.264
			l0.339,0.091c0.869,0.232,1.74,0.343,2.598,0.343c4.421,0,8.467-2.95,9.666-7.424
			C474.583,330.799,471.414,325.308,466.072,323.877z"/>
	</g>
</g>
<g>
</g>
<g>
</g>
<g>
</g>
<g>
</g>
<g>
</g>
<g>
</g>
<g>
</g>
<g>
</g>
<g>
</g>
<g>
</g>
<g>
</g>
<g>
</g>
<g>
</g>
<g>
</g>
<g>
</g>
</svg>
