<?xml version="1.0" encoding="iso-8859-1"?>
<!-- Generator: Adobe Illustrator 19.0.0, SVG Export Plug-In . SVG Version: 6.00 Build 0)  -->
<svg version="1.1" id="Capa_1" xmlns="http://www.w3.org/2000/svg" xmlns:xlink="http://www.w3.org/1999/xlink" x="0px" y="0px"
	 viewBox="0 0 512.002 512.002" style="enable-background:new 0 0 512.002 512.002;" xml:space="preserve">
<g>
	<g>
		<path d="M472.001,148.002H300.015c-3.258-15.065-14.092-27.34-28.305-32.616l57.957-100.384c2.762-4.783,1.123-10.899-3.66-13.66
			c-4.781-2.76-10.898-1.122-13.66,3.66l-56.345,97.593L199.656,5.002c-2.761-4.784-8.878-6.423-13.66-3.66
			c-4.783,2.761-6.422,8.877-3.66,13.66l58.004,100.466c-14.11,5.318-24.855,17.543-28.098,32.534H40.001c-22.056,0-40,17.944-40,40
			v284c0,22.056,17.944,40,40,40h432c22.056,0,40-17.944,40-40v-284C512.001,165.946,494.057,148.002,472.001,148.002z
			 M256.128,132.595c10.371,0,19.278,6.373,23.02,15.407h-46.04C236.85,138.968,245.757,132.595,256.128,132.595z M492.001,472.002
			c0,11.028-8.972,20-20,20h-432c-11.028,0-20-8.972-20-20v-284c0-11.028,8.972-20,20-20h432c11.028,0,20,8.972,20,20V472.002z"/>
	</g>
</g>
<g>
	<g>
		<path d="M438.001,196.002c-16.542,0-30,13.458-30,30c0,16.542,13.458,30,30,30s30-13.458,30-30S454.543,196.002,438.001,196.002z
			 M438.001,236.002c-5.514,0-10-4.486-10-10c0-5.514,4.486-10,10-10c5.514,0,10,4.486,10,10
			C448.001,231.516,443.515,236.002,438.001,236.002z"/>
	</g>
</g>
<g>
	<g>
		<path d="M438.001,280.002c-16.542,0-30,13.458-30,30s13.458,30,30,30s30-13.458,30-30S454.543,280.002,438.001,280.002z
			 M438.001,320.002c-5.514,0-10-4.486-10-10c0-5.514,4.486-10,10-10c5.514,0,10,4.486,10,10
			C448.001,315.516,443.515,320.002,438.001,320.002z"/>
	</g>
</g>
<g>
	<g>
		<path d="M438.001,364.002c-16.542,0-30,13.458-30,30s13.458,30,30,30s30-13.458,30-30S454.543,364.002,438.001,364.002z
			 M438.001,404.002c-5.514,0-10-4.486-10-10c0-5.514,4.486-10,10-10c5.514,0,10,4.486,10,10
			C448.001,399.516,443.515,404.002,438.001,404.002z"/>
	</g>
</g>
<g>
	<g>
		<path d="M177.179,276.002h-59.043c-5.523,0-10,4.477-10,10s4.477,10,10,10h20.278v78c0,5.523,4.477,10,10,10s10-4.477,10-10v-78
			h18.765c5.523,0,10-4.477,10-10S182.702,276.002,177.179,276.002z"/>
	</g>
</g>
<g>
	<g>
		<path d="M314.229,277.004c-4.97-2.411-10.952-0.334-13.361,4.635l-33.672,69.443l-33.672-69.443
			c-2.41-4.969-8.391-7.044-13.361-4.635c-4.97,2.41-7.045,8.392-4.635,13.361l42.67,88c1.672,3.448,5.167,5.637,8.998,5.637
			s7.326-2.189,8.998-5.637l42.67-88C321.274,285.396,319.198,279.414,314.229,277.004z"/>
	</g>
</g>
<g>
	<g>
		<path d="M366.001,200.002h-110c-5.523,0-10,4.477-10,10c0,5.523,4.477,10,10,10h100v220h-284v-20h77.051c5.523,0,10-4.477,10-10
			s-4.477-10-10-10H72.001v-180h99.849c5.523,0,10-4.477,10-10s-4.477-10-10-10H62.001c-5.523,0-10,4.477-10,10v240
			c0,5.523,4.477,10,10,10h304c5.523,0,10-4.477,10-10v-240C376.001,204.479,371.524,200.002,366.001,200.002z"/>
	</g>
</g>
<g>
	<g>
		<path d="M194.291,402.932c-1.86-1.86-4.44-2.93-7.07-2.93s-5.21,1.07-7.07,2.93s-2.93,4.44-2.93,7.07s1.07,5.21,2.93,7.07
			c1.86,1.86,4.44,2.93,7.07,2.93s5.21-1.07,7.07-2.93s2.93-4.44,2.93-7.07S196.151,404.792,194.291,402.932z"/>
	</g>
</g>
<g>
	<g>
		<path d="M221.071,202.932c-1.86-1.86-4.44-2.93-7.07-2.93s-5.21,1.07-7.07,2.93c-1.86,1.86-2.93,4.44-2.93,7.07
			s1.07,5.21,2.93,7.07c1.86,1.86,4.44,2.93,7.07,2.93s5.21-1.07,7.07-2.93c1.86-1.86,2.93-4.44,2.93-7.07
			S222.931,204.792,221.071,202.932z"/>
	</g>
</g>
<g>
</g>
<g>
</g>
<g>
</g>
<g>
</g>
<g>
</g>
<g>
</g>
<g>
</g>
<g>
</g>
<g>
</g>
<g>
</g>
<g>
</g>
<g>
</g>
<g>
</g>
<g>
</g>
<g>
</g>
</svg>
