<?xml version="1.0" encoding="iso-8859-1"?>
<!-- Generator: Adobe Illustrator 19.0.0, SVG Export Plug-In . SVG Version: 6.00 Build 0)  -->
<svg version="1.1" id="Capa_1" xmlns="http://www.w3.org/2000/svg" xmlns:xlink="http://www.w3.org/1999/xlink" x="0px" y="0px"
	 viewBox="0 0 512.001 512.001" style="enable-background:new 0 0 512.001 512.001;" xml:space="preserve">
<g>
	<g>
		<path d="M82.24,318.95c-1.86-1.86-4.44-2.93-7.07-2.93s-5.21,1.07-7.07,2.93c-1.87,1.86-2.93,4.44-2.93,7.07s1.06,5.21,2.93,7.07
			c1.86,1.86,4.44,2.93,7.07,2.93s5.21-1.07,7.07-2.93c1.859-1.86,2.93-4.44,2.93-7.07S84.1,320.81,82.24,318.95z"/>
	</g>
</g>
<g>
	<g>
		<path d="M502,184h-68.173c1.246-4.473,1.888-9.123,1.888-13.857c0-14.767-6.35-28.852-17.421-38.643
			c-5.817-5.144-9.156-12.514-9.168-20.226c5.116-0.553,10.082-2.801,14.029-6.748c5.528-5.53,7.738-13.06,6.597-20.199
			c5.857-4.239,9.621-11.129,9.621-18.954s-3.764-14.714-9.621-18.954c1.142-7.139-1.068-14.669-6.599-20.202
			c-5.531-5.528-13.063-7.74-20.2-6.597C398.714,13.763,391.825,10,384,10c-7.824,0-14.714,3.764-18.953,9.62
			c-7.135-1.14-14.671,1.068-20.201,6.599c-5.53,5.531-7.74,13.062-6.599,20.201c-5.856,4.24-9.62,11.129-9.62,18.953
			c0,7.825,3.764,14.714,9.62,18.954c-1.141,7.139,1.069,14.67,6.599,20.2c3.946,3.947,8.915,6.193,14.029,6.747v0.173
			c0,7.687-3.31,15.045-9.081,20.189c-10.975,9.783-17.269,23.818-17.269,38.507c0,4.734,0.642,9.385,1.888,13.857H256h-12.998
			v-27.785c0-4.626-1.054-9.01-2.932-12.926c1.811-1.81,2.932-4.311,2.932-7.074v-38c0-16.542-13.458-30-30-30h-47.988
			c-3.506,0-6.87,0.61-10,1.72V62c0-13.956-9.579-25.716-22.507-29.053V21.586C132.508,9.684,122.823,0,110.922,0H78.094
			C66.19,0,56.508,9.684,56.508,21.586v11.361C43.579,36.284,34,48.044,34,62v122H10c-5.522,0-10,4.477-10,10v131.98
			c0,0.007,0.001,0.013,0.001,0.02c0,0.007-0.001,0.013-0.001,0.02V458c0,5.523,4.478,10,10,10h65.968l-19.999,28.218
			c-2.163,3.051-2.442,7.053-0.725,10.375c1.717,3.322,5.144,5.408,8.883,5.408h56.667c3.242,0,6.284-1.572,8.158-4.218L157.148,468
			H256h79.504h19.603l28.195,39.782c1.874,2.646,4.916,4.218,8.158,4.218h56.667c3.739,0,7.166-2.086,8.883-5.408
			c1.718-3.322,1.438-7.324-0.725-10.375L436.286,468h40.169H502c5.522,0,10-4.477,10-10V194C512,188.477,507.523,184,502,184z
			 M155.015,98.215c0-5.514,4.486-10,10-10h47.988c5.514,0,10,4.486,10,10v28h-10h-47.988h-10V98.215z M155.015,156.215
			c0-5.514,4.486-10,10-10h47.988c5.514,0,10,4.486,10,10V184h-67.988V156.215z M76.508,21.586c0-0.875,0.712-1.586,1.586-1.586
			h32.828c0.874,0,1.586,0.711,1.586,1.586V32h-36V21.586z M54,62c0-5.514,4.486-10,10-10h61.014c5.514,0,10,4.486,10,10v122H54V62z
			 M115.625,492H83.472l17.009-24h32.154L115.625,492z M246,316.02H114.333c-5.522,0-10,4.477-10,10s4.478,10,10,10H246V448H20
			V336.02h14.333c5.522,0,10-4.477,10-10s-4.478-10-10-10H20V204h226V316.02z M358.948,85.627c2.707-2.866,3.478-7.056,1.968-10.698
			c-1.51-3.642-5.019-6.057-8.96-6.166c-1.867-0.052-3.329-1.541-3.329-3.391c0-1.849,1.463-3.338,3.33-3.391
			c3.941-0.11,7.45-2.525,8.96-6.167c1.509-3.642,0.738-7.832-1.97-10.697c-1.285-1.36-1.267-3.45,0.04-4.757
			c1.309-1.308,3.399-1.324,4.758-0.04c2.866,2.708,7.059,3.479,10.697,1.969c3.643-1.51,6.058-5.019,6.167-8.96
			C380.661,31.462,382.151,30,384,30c1.85,0,3.339,1.462,3.391,3.33c0.109,3.941,2.524,7.45,6.167,8.96
			c3.643,1.51,7.831,0.738,10.697-1.97c1.361-1.284,3.45-1.267,4.756,0.039c1.309,1.309,1.327,3.399,0.042,4.759
			c-2.708,2.866-3.479,7.055-1.97,10.697c1.51,3.642,5.019,6.057,8.96,6.167c1.867,0.052,3.33,1.542,3.33,3.391
			c0,1.85-1.462,3.339-3.329,3.391c-3.941,0.109-7.45,2.524-8.96,6.166c-1.51,3.642-0.739,7.832,1.968,10.697
			c1.285,1.36,1.268,3.451-0.039,4.758c-1.309,1.307-3.397,1.327-4.758,0.041c-2.866-2.707-7.057-3.478-10.697-1.969
			c-3.643,1.51-6.058,5.019-6.167,8.96c-0.052,1.867-1.541,3.329-3.391,3.329c-1.85,0-3.339-1.462-3.391-3.329
			c-0.109-3.941-2.524-7.45-6.166-8.96c-1.237-0.513-2.538-0.762-3.828-0.762c-2.508,0-4.977,0.943-6.869,2.731
			c-1.36,1.285-3.449,1.269-4.758-0.04C357.68,89.078,357.664,86.988,358.948,85.627z M363.102,146.566
			c7.667-6.834,12.833-15.931,14.839-25.82h12.161c2.048,9.869,7.247,18.931,14.942,25.736c6.781,5.997,10.67,14.621,10.67,23.661
			c0,4.854-1.096,9.567-3.199,13.857h-56.791c-2.103-4.291-3.199-9.003-3.199-13.857
			C352.526,161.151,356.38,152.558,363.102,146.566z M310.826,406.909c-6.692,6.468-10.866,15.526-10.866,25.545
			c0,5.572,1.292,10.846,3.586,15.545H266V326.02v-0.04V204h226v28h-70.104c-5.522,0-10,4.477-10,10s4.478,10,10,10H492v46.316
			c-4.699-2.295-9.973-3.587-15.545-3.587H335.505c-19.6,0-35.545,15.945-35.545,35.545c0,10.02,4.174,19.078,10.866,25.545
			c-6.692,6.467-10.866,15.525-10.866,25.545C299.959,391.384,304.133,400.442,310.826,406.909z M396.63,492l-17.01-24h32.154
			l17.008,24H396.63z M476.456,448H335.505c-8.571,0-15.545-6.974-15.545-15.545c0-8.571,6.974-15.545,15.545-15.545h140.951
			c8.571,0,15.545,6.974,15.545,15.545C492.001,441.026,485.027,448,476.456,448z M476.456,396.91H335.505
			c-8.571,0-15.545-6.974-15.545-15.545c0-8.571,6.974-15.545,15.545-15.545h140.951c8.571,0,15.545,6.974,15.545,15.545
			C492,389.936,485.026,396.91,476.456,396.91z M476.456,345.819H335.505c-8.571,0-15.545-6.974-15.545-15.545
			c0-8.571,6.974-15.545,15.545-15.545h140.951c8.571,0,15.545,6.974,15.545,15.545C492,338.846,485.026,345.819,476.456,345.819z"
			/>
	</g>
</g>
<g>
	<g>
		<path d="M140.07,384.94c-1.859-1.86-4.439-2.93-7.069-2.93s-5.21,1.07-7.07,2.93s-2.93,4.44-2.93,7.07s1.069,5.21,2.93,7.07
			c1.86,1.86,4.44,2.93,7.07,2.93s5.21-1.07,7.069-2.93c1.86-1.86,2.931-4.44,2.931-7.07S141.93,386.8,140.07,384.94z"/>
	</g>
</g>
<g>
	<g>
		<path d="M140.07,252.92c-1.859-1.86-4.439-2.93-7.069-2.93s-5.21,1.07-7.07,2.93s-2.93,4.44-2.93,7.07s1.069,5.21,2.93,7.07
			c1.86,1.86,4.44,2.93,7.07,2.93s5.21-1.07,7.069-2.93c1.86-1.86,2.931-4.44,2.931-7.07S141.93,254.78,140.07,252.92z"/>
	</g>
</g>
<g>
	<g>
		<path d="M391.07,58.29c-1.859-1.86-4.439-2.93-7.069-2.93s-5.21,1.07-7.07,2.93c-1.86,1.86-2.93,4.44-2.93,7.07
			s1.069,5.21,2.93,7.07c1.86,1.86,4.44,2.93,7.07,2.93s5.21-1.07,7.069-2.93c1.86-1.86,2.931-4.44,2.931-7.07
			S392.93,60.15,391.07,58.29z"/>
	</g>
</g>
<g>
	<g>
		<path d="M389.279,234.93c-1.859-1.86-4.43-2.93-7.069-2.93c-2.63,0-5.21,1.07-7.07,2.93s-2.93,4.44-2.93,7.07
			s1.069,5.21,2.93,7.07c1.861,1.86,4.44,2.93,7.07,2.93s5.21-1.07,7.069-2.93c1.86-1.86,2.931-4.44,2.931-7.07
			S391.141,236.79,389.279,234.93z"/>
	</g>
</g>
<g>
</g>
<g>
</g>
<g>
</g>
<g>
</g>
<g>
</g>
<g>
</g>
<g>
</g>
<g>
</g>
<g>
</g>
<g>
</g>
<g>
</g>
<g>
</g>
<g>
</g>
<g>
</g>
<g>
</g>
</svg>
