<?xml version="1.0" encoding="iso-8859-1"?>
<!-- Generator: Adobe Illustrator 19.0.0, SVG Export Plug-In . SVG Version: 6.00 Build 0)  -->
<svg version="1.1" id="Capa_1" xmlns="http://www.w3.org/2000/svg" xmlns:xlink="http://www.w3.org/1999/xlink" x="0px" y="0px"
	 viewBox="0 0 512 512" style="enable-background:new 0 0 512 512;" xml:space="preserve">
<g>
	<g>
		<path d="M501.967,474.579c-5.522,0-9.999,4.476-9.999,9.999v7.425H20.029v-7.425c0-5.522-4.476-9.999-9.999-9.999
			s-9.999,4.476-9.999,9.999v17.424c0,5.522,4.476,9.999,9.999,9.999h491.937c5.522,0,9.999-4.476,9.999-9.999v-17.424
			C511.966,479.055,507.489,474.579,501.967,474.579z"/>
	</g>
</g>
<g>
	<g>
		<path d="M509.036,325.538c-1.86-1.86-4.44-2.93-7.069-2.93c-2.63,0-5.209,1.07-7.069,2.93c-1.86,1.87-2.93,4.439-2.93,7.079
			c0,2.63,1.07,5.199,2.93,7.069c1.86,1.86,4.439,2.93,7.069,2.93c2.63,0,5.209-1.07,7.069-2.93c1.86-1.87,2.93-4.439,2.93-7.069
			C511.966,329.977,510.896,327.398,509.036,325.538z"/>
	</g>
</g>
<g>
	<g>
		<path d="M263.068,198.974c-1.86-1.87-4.439-2.93-7.069-2.93c-2.63,0-5.209,1.06-7.069,2.93c-1.86,1.86-2.93,4.429-2.93,7.069
			c0,2.63,1.07,5.199,2.93,7.069c1.86,1.86,4.438,2.93,7.069,2.93c2.63,0,5.209-1.07,7.069-2.93c1.86-1.86,2.93-4.439,2.93-7.069
			C265.997,203.404,264.927,200.834,263.068,198.974z"/>
	</g>
</g>
<g>
	<g>
		<path d="M501.967,99.987h-5.399c9.568-10.653,15.401-24.724,15.401-40.135C511.969,26.85,485.119,0,452.116,0
			c-18.209,0-35.201,8.135-46.621,22.318L349.123,92.34c-3.912,4.859-9.735,7.646-15.973,7.646h-0.649
			c-11.307,0-20.506-9.199-20.506-20.505c0-11.308,9.199-20.506,20.506-20.506c3.218,0,5.515,1.35,6.876,2.483
			c4.244,3.532,10.549,2.955,14.081-1.29s2.955-10.549-1.29-14.081c-5.508-4.584-12.493-7.109-19.667-7.109
			c-22.333,0-40.504,18.17-40.504,40.504c0,7.479,2.046,14.486,5.595,20.505h-83.184c3.55-6.019,5.595-13.026,5.595-20.505
			c0-22.333-18.17-40.504-40.503-40.504c-7.174,0-14.159,2.525-19.667,7.109c-4.244,3.533-4.822,9.837-1.29,14.081
			c3.532,4.245,9.837,4.823,14.081,1.29c1.361-1.133,3.659-2.483,6.876-2.483c11.307,0,20.505,9.199,20.505,20.506
			c0,11.307-9.199,20.505-20.505,20.505h-0.649c-6.238,0-12.06-2.788-15.973-7.646l-56.374-70.022C95.084,8.135,78.092,0,59.884,0
			C26.881,0,0.031,26.85,0.031,59.852c0,15.412,5.833,29.482,15.401,40.135H10.03c-5.522,0-9.999,4.476-9.999,9.999v47.994
			c0,5.522,4.476,9.999,9.999,9.999h43.994v28.062H10.03c-5.522,0-9.999,4.476-9.999,9.999v126.573c0,5.522,4.476,9.999,9.999,9.999
			s9.999-4.476,9.999-9.999V216.038h33.996v5.6c0,5.522,4.476,9.999,9.999,9.999s9.999-4.476,9.999-9.999v-5.6h135.982
			c5.522,0,9.999-4.476,9.999-9.999s-4.476-9.999-9.999-9.999H74.022v-28.062h363.953v28.062H308.132
			c-5.522,0-9.999,4.476-9.999,9.999s4.476,9.999,9.999,9.999h129.843v5.6c0,5.522,4.476,9.999,9.999,9.999s9.999-4.476,9.999-9.999
			v-5.6h33.996v77.91c0,5.522,4.476,9.999,9.999,9.999s9.999-4.476,9.999-9.999v-87.909c0-5.522-4.476-9.999-9.999-9.999h-43.994
			v-28.062h43.994c5.522,0,9.999-4.476,9.999-9.999v-47.994C511.966,104.464,507.489,99.987,501.967,99.987z M59.884,19.997
			c12.124,0,23.44,5.416,31.044,14.861l52.433,65.129h-37.896c2.425-2.961,4.565-6.202,6.369-9.7
			c2.531-4.908,0.604-10.939-4.304-13.469c-4.909-2.532-10.939-0.604-13.469,4.305c-6,11.635-17.851,18.864-30.929,18.864h-2.968
			c-22.13,0-40.135-18.005-40.135-40.135C20.029,37.876,37.908,19.997,59.884,19.997z M491.968,147.981h-33.996v-3.667
			c0-5.522-4.476-9.999-9.999-9.999c-5.522,0-9.999,4.476-9.999,9.999v3.667H74.022v-3.667c0-5.522-4.476-9.999-9.999-9.999
			c-5.522,0-9.999,4.476-9.999,9.999v3.667H20.029v-27.996h40.135h2.968H178.85h0.649h153h0.649h115.719h2.968h40.133V147.981z
			 M451.835,99.987h-2.968c-13.078,0-24.929-7.228-30.928-18.864c-2.531-4.908-8.56-6.837-13.469-4.305
			c-4.908,2.531-6.835,8.561-4.305,13.469c1.803,3.498,3.945,6.739,6.369,9.7h-37.896l52.433-65.129
			c7.604-9.445,18.92-14.861,31.045-14.861c21.976,0,39.854,17.879,39.854,39.855C491.97,81.982,473.965,99.987,451.835,99.987z"/>
	</g>
</g>
<g>
	<g>
		<path d="M424.884,321.354l-13.456-11.039c0.313-2.065,0.475-4.179,0.475-6.33v-5.811c0-5.522-4.476-9.999-9.999-9.999
			c-4.331,0-8.02,2.755-9.409,6.607l-4.6-3.774c0.103-0.046,0.206-0.095,0.307-0.146c7.095-3.513,11.503-10.613,11.503-18.53
			c0-7.009-2.73-13.599-7.686-18.556s-11.547-7.686-18.556-7.686c-14.468,0.001-26.24,11.772-26.24,26.241v1.395
			c0,4.408,1.386,8.621,3.907,12.103c-8.869,6.084-14.339,16.215-14.339,27.235c0,18.206,14.812,33.018,33.018,33.018
			c13.63,0,25.769-6.513,33.467-16.589l8.926,7.322c4.269,3.503,10.57,2.881,14.072-1.389
			C429.775,331.156,429.153,324.856,424.884,321.354z M373.464,266.093c1.668,0,3.236,0.649,4.414,1.829
			c1.18,1.179,1.829,2.748,1.829,4.415c0,0.226-0.109,0.431-0.29,0.556l-8.898,3.866l-3.05-2.502
			c-0.158-0.129-0.248-0.321-0.248-0.525v-1.396h-0.001C367.221,268.893,370.022,266.093,373.464,266.093z M369.809,326.085
			c-7.18,0-13.02-5.841-13.02-13.02c-0.001-5.188,3.074-9.876,7.832-11.942l2.661-1.156l20.521,16.834
			C383.792,322.416,377.221,326.085,369.809,326.085z"/>
	</g>
</g>
<g>
	<g>
		<path d="M219.513,326.085h-21.817v-19.997h19.362c5.522,0,9.999-4.476,9.999-9.999c0-5.522-4.476-9.999-9.999-9.999h-19.362
			v-19.997h21.817c5.522,0,9.999-4.476,9.999-9.999c0-5.522-4.476-9.999-9.999-9.999h-31.816c-5.522,0-9.999,4.476-9.999,9.999
			v79.99c0,5.522,4.476,9.999,9.999,9.999h31.816c5.522,0,9.999-4.476,9.999-9.999C229.512,330.561,225.036,326.085,219.513,326.085
			z"/>
	</g>
</g>
<g>
	<g>
		<path d="M158.136,276.091c0-16.54-13.456-29.996-29.996-29.996h-19.997c-5.522,0-9.999,4.476-9.999,9.999v79.99
			c0,5.522,4.476,9.999,9.999,9.999h19.997c16.54,0,29.996-13.456,29.996-29.996c0-7.677-2.902-14.686-7.662-19.997
			C155.234,290.778,158.136,283.768,158.136,276.091z M128.14,326.085h-9.999v-19.997h9.999c5.513,0,9.999,4.485,9.999,9.999
			C138.139,321.6,133.653,326.085,128.14,326.085z M128.14,286.09h-9.999v-19.997h9.999c5.513,0,9.999,4.485,9.999,9.999
			S133.653,286.09,128.14,286.09z"/>
	</g>
</g>
<g>
	<g>
		<path d="M280.914,246.095h-25.46c-5.522,0-9.999,4.476-9.999,9.999v79.99c0,5.522,4.476,9.999,9.999,9.999h25.46
			c16.54,0,29.996-13.456,29.996-29.996v-39.995C310.91,259.552,297.454,246.095,280.914,246.095z M290.913,316.086
			c0,5.513-4.485,9.999-9.999,9.999h-15.461v-59.992h15.461c5.513,0,9.999,4.485,9.999,9.999V316.086z"/>
	</g>
</g>
<g>
	<g>
		<path d="M90.1,424.975c10.937-3.07,18.983-13.123,18.983-25.028c0-14.334-11.662-25.997-25.997-25.997H68.587v0.001
			c-5.522,0-9.999,4.476-9.999,9.999v63.992c0,5.522,4.476,9.999,9.999,9.999s9.999-4.476,9.999-9.999v-5.849l11.217,12.52
			c1.975,2.205,4.707,3.328,7.451,3.328c2.375,0,4.759-0.842,6.668-2.552c4.113-3.685,4.46-10.006,0.776-14.119L90.1,424.975z
			 M83.085,405.948h-4.499v-5.999v-5.999h4.499c3.309,0,5.999,2.691,5.999,5.999C89.084,403.257,86.393,405.948,83.085,405.948z"/>
	</g>
</g>
<g>
	<g>
		<path d="M501.967,373.952h-28.966c-5.522,0-9.999,4.476-9.999,9.999c0,5.522,4.476,9.999,9.999,9.999h4.855v53.993
			c0,5.522,4.476,9.999,9.999,9.999c5.522,0,9.999-4.476,9.999-9.999v-53.993h4.112c5.522,0,9.999-4.476,9.999-9.999
			C511.965,378.428,507.489,373.952,501.967,373.952z"/>
	</g>
</g>
<g>
	<g>
		<path d="M152.414,437.944h-11.546v-11.998h9.582c5.522,0,9.999-4.476,9.999-9.999c0-5.522-4.476-9.999-9.999-9.999h-9.582v-11.998
			h11.546c5.522,0,9.999-4.476,9.999-9.999c0-5.522-4.476-9.999-9.999-9.999h-12.396c-10.558,0-19.146,8.589-19.146,19.147v45.696
			c0,10.558,8.589,19.147,19.146,19.147h12.396c5.522,0,9.999-4.476,9.999-9.999C162.413,442.42,157.936,437.944,152.414,437.944z"
			/>
	</g>
</g>
<g>
	<g>
		<path d="M50.025,399.948c0-14.334-11.663-25.997-25.997-25.997H10.03c-5.522,0-9.999,4.476-9.999,9.999v63.992
			c0,5.522,4.476,9.999,9.999,9.999h13.998c14.334,0,25.997-11.662,25.997-25.997c0-6.03-2.07-11.583-5.528-15.998
			C47.955,411.531,50.025,405.979,50.025,399.948z M24.028,437.944h-4v-11.998h4c3.309,0,5.999,2.691,5.999,5.999
			C30.028,435.253,27.336,437.944,24.028,437.944z M24.028,405.948h-4v-11.998h4c3.309,0,5.999,2.691,5.999,5.999
			C30.028,403.257,27.337,405.948,24.028,405.948z"/>
	</g>
</g>
<g>
	<g>
		<path d="M427.682,405.948c-2.105,0-3.818-1.713-3.818-3.818v-4.363c0-2.105,1.713-3.818,3.818-3.818h13.816
			c5.522,0,9.999-4.476,9.999-9.999c0-5.522-4.476-9.999-9.999-9.999h-13.816c-13.131,0-23.815,10.684-23.815,23.815v4.363
			c0,13.131,10.684,23.815,23.815,23.815c2.105,0,3.818,1.713,3.818,3.818v4.363c0,2.105-1.713,3.818-3.818,3.818h-13.828
			c-5.522,0-9.999,4.476-9.999,9.999s4.476,9.999,9.999,9.999h13.828c13.131,0,23.815-10.684,23.815-23.815v-4.363
			C451.497,416.631,440.814,405.948,427.682,405.948z"/>
	</g>
</g>
<g>
	<g>
		<path d="M227.191,445.363l-17.082-63.992c-1.168-4.375-5.131-7.42-9.661-7.42c-4.528,0-8.493,3.044-9.661,7.42l-17.082,63.992
			c-1.424,5.336,1.747,10.816,7.082,12.24c5.336,1.425,10.815-1.747,12.239-7.082l7.422-27.802l7.421,27.802
			c1.194,4.471,5.235,7.423,9.654,7.422c0.854,0,1.722-0.11,2.585-0.341C225.444,456.178,228.615,450.698,227.191,445.363z"/>
	</g>
</g>
<g>
	<g>
		<path d="M390.613,445.365l-17.082-63.992c-1.168-4.377-5.132-7.421-9.661-7.421c-4.529,0-8.493,3.044-9.661,7.42l-17.082,63.992
			c-1.424,5.335,1.747,10.815,7.082,12.239c0.864,0.231,1.731,0.341,2.585,0.341c4.418,0,8.46-2.951,9.654-7.422l7.421-27.802
			l7.422,27.802c1.424,5.335,6.904,8.504,12.239,7.082C388.866,456.18,392.037,450.7,390.613,445.365z"/>
	</g>
</g>
<g>
	<g>
		<path d="M260.381,415.946l21.08-25.647c3.507-4.266,2.891-10.567-1.375-14.073c-4.267-3.507-10.568-2.891-14.073,1.375
			l-9.242,11.244v-4.894c0-5.522-4.476-9.999-9.999-9.999s-9.999,4.476-9.999,9.999v63.992c0,5.522,4.476,9.999,9.999,9.999
			s9.999-4.476,9.999-9.999v-4.894l9.242,11.244c1.977,2.405,4.841,3.65,7.73,3.65c2.234,0,4.482-0.746,6.343-2.275
			c4.265-3.507,4.881-9.808,1.375-14.073L260.381,415.946z"/>
	</g>
</g>
<g>
	<g>
		<path d="M328.929,393.949c5.522,0,9.999-4.476,9.999-9.999c0-5.522-4.476-9.999-9.999-9.999h-23.734
			c-5.522,0-9.999,4.476-9.999,9.999v63.992c0,5.522,4.476,9.999,9.999,9.999c5.522,0,9.999-4.476,9.999-9.999v-21.997h7.012
			c5.522,0,9.999-4.476,9.999-9.999c0-5.522-4.476-9.999-9.999-9.999h-7.012v-11.998H328.929z"/>
	</g>
</g>
<g>
</g>
<g>
</g>
<g>
</g>
<g>
</g>
<g>
</g>
<g>
</g>
<g>
</g>
<g>
</g>
<g>
</g>
<g>
</g>
<g>
</g>
<g>
</g>
<g>
</g>
<g>
</g>
<g>
</g>
</svg>
